<svg xmlns="http://www.w3.org/2000/svg" viewBox="0 0 640 872">
  <rect width="100%" height="100%" fill="#fff"/>
  <g data-layer="panel_frame"><text x="22" y="42" font-family="Helvetica, Arial, sans-serif" font-size="20" letter-spacing=".04em" fill="#111">04 Vector Flag</text><rect x="20" y="56" width="600" height="760" fill="#fff" stroke="#111" stroke-width="1.2"/></g>
  <g data-layer="sound_vector_engine"><g data-engine="vector_flag"><path d="M94 724 L94 210" fill="none" stroke="#111" stroke-width="5.2" stroke-linecap="round" stroke-linejoin="round" vector-effect="non-scaling-stroke"/><path d="M94 210 L105.96 229.51 L82.04 229.51 Z" fill="#111" stroke="#111" stroke-width="0"/><path d="M94 314 L124 314" fill="none" stroke="#111" stroke-width="2.4" stroke-linecap="round" stroke-linejoin="round" vector-effect="non-scaling-stroke"/><path d="M94 678 L152 678" fill="none" stroke="#111" stroke-width="2.4" stroke-linecap="round" stroke-linejoin="round" vector-effect="non-scaling-stroke"/><g data-layer="time_pcm_flag"><path d="M112 314 L532 222 L496 586 L152 678 L112 314" fill="none" stroke="#111" stroke-width="2.8" stroke-linecap="round" stroke-linejoin="round" vector-effect="non-scaling-stroke"/><path d="M114.73 331.44 L118.38 331.33 L121.98 330.97 L125.04 328.14 L128.45 326.88 L132.28 327.57 L135.61 325.95 L138.78 323.63 L141.91 321.15 L145.56 320.97 L149.23 320.93 L152.9 320.86 L156.56 320.78 L159.9 319.22 L163.15 317.25 L166.61 316.26 L170.71 318.17 L174.47 318.52 L177.75 316.69 L180.82 313.92 L183.65 310.01 L186.57 306.56 L190.14 306.05 L194.05 307.11 L198.07 308.62 L201.45 307.28 L204.04 302.29 L207.52 301.38 L211 300.5 L214.96 301.72 L219.24 304.46 L223.06 305.1 L226.48 303.91 L229.1 299.06 L232.12 296.07 L235.67 295.48 L239.14 294.48 L242.42 292.66 L245.57 290.24 L248.53 286.98 L251.45 283.52 L254.6 281.12 L258.49 282.06 L262.46 283.37 L265.9 282.28 L269.62 282.45 L273.66 284.04 L277.84 286.33 L281.77 287.47 L285.93 289.6 L289.56 289.39 L293.02 288.36 L296.04 285.39 L299.9 286.2 L303.42 285.44 L307 284.98 L310.01 281.92 L313.12 279.32 L315.96 275.51 L319.34 274.14 L323.35 275.64 L327.77 278.99 L331.74 280.29 L335.15 279.04 L338.44 277.26 L342.11 277.21 L346.14 278.78 L350.2 280.52 L354.08 281.4 L357.66 280.95 L360.71 278.07 L363.51 274.09 L366.63 271.52 L370.37 271.79 L373.93 271.24 L377.59 271.15 L380.78 268.89 L383.97 266.67 L387.06 263.98 L391.03 265.27 L395.16 267.33 L398.96 267.86 L402.47 267.08 L405.79 265.43 L409.17 264.06 L412.65 263.17 L415.94 261.38 L419.25 259.68 L422.31 256.84 L424.82 251.52 L428.08 249.62 L431.44 248.17 L435.02 247.67 L438.26 245.71 L441.53 243.8 L444.69 241.44 L448.13 240.36 L452.22 242.19 L456.65 245.59 L461.11 249.12 L464.64 248.46 L467.72 245.71 L471.17 244.64 L474.4 242.6 L478.3 243.62 L482.21 244.64 L485.84 244.42 L488.65 240.42 L491.11 234.87 L494.32 232.76 L497.76 231.66 L501.79 233.24 L505.72 234.37 L509.57 235.11 L512.94 233.71 L516.23 231.94 L520.16 233.06 L524.43 235.7 L528.51 237.5 L532.26 237.82" fill="none" stroke="#111" stroke-width="1.2" stroke-linecap="round" stroke-linejoin="round" vector-effect="non-scaling-stroke"/><path d="M117.13 352.4 L120.82 352.6 L124.11 350.99 L127.43 349.52 L130.64 347.56 L134.36 347.86 L137.63 346.18 L140.59 343.09 L143.82 341.21 L147.35 340.66 L150.95 340.43 L154.63 340.6 L158.21 340.26 L161.62 339.2 L164.8 337.11 L168.26 336.25 L172.23 337.71 L176.13 338.82 L179.47 337.44 L182.47 334.54 L185.23 330.53 L188.35 328.19 L191.77 327.13 L195.69 328.35 L199.54 329.27 L202.75 327.31 L205.57 323.57 L208.61 320.84 L212.24 320.77 L216.23 322.32 L220.19 323.72 L224.26 325.58 L227.5 323.78 L230.15 319.27 L233.07 316.02 L236.37 314.42 L239.95 314.14 L242.96 311.24 L246.31 309.92 L249.12 306.16 L252.07 303.04 L255.11 300.29 L259.24 302.47 L263.17 303.7 L266.74 303.39 L270.5 303.86 L274.51 305.51 L278.44 306.75 L282.43 308.3 L286.46 310.03 L290.2 310.42 L293.46 308.67 L296.41 305.56 L300.1 305.75 L303.89 306.37 L307.2 304.84 L310.21 301.99 L313.21 299.06 L316.04 295.38 L319.28 293.54 L323.35 295.44 L327.65 298.39 L331.62 299.83 L335.04 298.79 L338.29 297.04 L342.15 297.97 L345.9 298.45 L350.1 300.91 L354.05 302.26 L357.63 301.94 L360.78 299.71 L363.38 294.99 L366.63 293.19 L370.03 292.11 L373.51 291.32 L377.06 290.91 L380.55 290.2 L383.46 286.85 L386.57 284.46 L390.38 285.19 L394.24 286.11 L398.13 287.22 L401.44 285.68 L404.96 285.12 L408.28 283.64 L411.77 282.96 L415.13 281.65 L418.42 280.03 L421.21 276.19 L423.81 271.44 L426.96 269.23 L430.44 268.47 L433.94 267.78 L437.26 266.34 L440.56 264.77 L443.81 262.97 L447.21 261.86 L451 262.49 L455.49 266.3 L459.87 269.55 L463.24 268.31 L466.34 265.86 L469.6 264.12 L473.05 263.23 L476.52 262.41 L480.55 264.14 L484.2 264.14 L486.91 259.94 L489.2 253.83 L492.36 251.62 L496.05 251.79 L499.89 252.66 L503.83 253.97 L507.77 255.3 L511.25 254.52 L514.31 251.91 L518.29 253.4 L522.5 255.92 L526.69 258.34 L530.47 258.94" fill="none" stroke="#111" stroke-width="0.62" stroke-linecap="round" stroke-linejoin="round" vector-effect="non-scaling-stroke"/><path d="M119.63 373.79 L123.08 373.06 L126.55 372.41 L129.58 369.8 L132.85 368.28 L136.51 368.47 L139.64 366.31 L142.42 362.63 L145.62 360.78 L149.12 360.26 L152.65 359.87 L156.33 360.17 L159.77 359.42 L163.14 358.32 L166.48 357.1 L169.8 355.77 L173.83 357.64 L177.89 359.62 L181.11 357.85 L184.27 355.85 L187.04 352.09 L189.82 348.37 L193.32 347.86 L197.18 348.94 L201.02 349.96 L204.18 347.95 L207.08 344.74 L209.91 341.26 L213.68 341.93 L217.34 342.14 L221.41 344.19 L225.44 346.03 L228.41 343.18 L230.93 338.29 L233.82 335.07 L237.06 333.42 L240.54 332.79 L243.89 331.64 L247.16 330.11 L249.9 326.18 L252.81 323.08 L255.82 320.38 L259.78 321.91 L263.88 324.06 L267.4 323.67 L271.17 324.33 L275.12 325.86 L279.18 327.81 L282.97 328.61 L287.11 330.93 L290.8 331.28 L294.04 329.63 L296.84 326 L300.62 326.72 L304.01 325.75 L307.49 325.14 L310.16 320.92 L313.24 318.53 L316.09 315.16 L319.26 313.15 L323.33 315.22 L327.78 318.93 L331.53 319.53 L335.08 319.23 L338.31 317.5 L341.91 317.48 L345.85 318.89 L350.11 321.78 L354.06 323.29 L357.63 323.07 L360.64 320.4 L363.27 316.01 L366.3 313.39 L369.98 313.7 L373.36 312.66 L376.77 311.75 L380.06 310.28 L382.86 306.68 L385.91 304.14 L389.51 304.08 L393.7 306.67 L397.34 306.79 L400.68 305.53 L404.19 305.07 L407.53 303.85 L410.66 301.7 L414.14 301.1 L417.45 299.76 L420.35 296.59 L423.11 292.78 L425.98 289.46 L429.41 288.65 L433.09 288.95 L436.22 286.79 L439.62 285.83 L442.57 282.86 L445.92 281.7 L450.04 283.96 L454.46 287.5 L458.74 290.46 L462.06 289.18 L465.24 287.23 L468.12 283.99 L471.41 282.54 L475.13 283.02 L478.99 284.1 L482.35 282.96 L485.01 278.72 L487.6 274.13 L490.42 270.63 L494.13 271.06 L497.98 272.08 L502.2 274.76 L505.99 275.58 L509.44 274.82 L512.68 273.17 L516.68 274.88 L520.91 277.62 L525.02 279.85 L528.58 279.59" fill="none" stroke="#111" stroke-width="0.62" stroke-linecap="round" stroke-linejoin="round" vector-effect="non-scaling-stroke"/><path d="M121.93 394.27 L125.48 394.14 L128.6 392.08 L131.77 390.27 L135.01 388.79 L138.48 388.32 L141.64 386.45 L144.46 383.07 L147.49 380.66 L150.93 380.05 L154.4 379.55 L158.1 380.09 L161.7 380.17 L164.82 378.14 L168.21 377.31 L171.54 376.2 L175.68 378.66 L179.59 380.12 L182.97 379.21 L185.74 375.66 L188.75 373.14 L191.59 369.86 L194.85 368.45 L198.84 370.28 L202.51 370.65 L205.72 369.04 L208.26 364.45 L211.24 361.79 L214.69 361.24 L218.37 361.65 L222.44 363.81 L226.29 364.99 L229.43 363.06 L231.84 357.92 L234.57 354.16 L237.87 352.93 L241.31 352.28 L244.79 351.84 L247.92 349.85 L250.58 345.83 L253.65 343.56 L256.63 340.92 L260.51 342.21 L264.52 344.14 L268.19 344.49 L271.86 344.92 L275.86 346.76 L279.87 348.65 L283.65 349.51 L287.78 351.96 L291.29 351.63 L294.48 349.91 L297.31 346.59 L300.75 346 L304.18 345.32 L307.7 345.03 L310.45 341.4 L313.07 337.17 L316 334.28 L319.07 332.04 L323.36 335.17 L327.64 338.24 L331.51 339.52 L334.85 338.47 L338.41 338.35 L342.04 338.61 L345.9 339.83 L350.1 342.56 L354.11 344.45 L357.65 344.25 L360.55 341.25 L363.04 336.46 L366.15 334.4 L369.6 333.82 L373.14 333.65 L376.4 332.21 L379.59 330.48 L382.23 326.33 L385.25 323.88 L388.79 323.69 L392.8 325.6 L396.58 326.48 L399.85 325.08 L403.29 324.49 L406.85 324.37 L409.79 321.56 L413.43 321.84 L416.65 320.23 L419.58 317.35 L421.96 312.06 L425.12 310.24 L428.58 309.69 L431.91 308.58 L435.16 307.13 L438.49 306.01 L441.57 303.83 L444.77 302.17 L448.81 304.17 L453.35 308.42 L457.41 310.5 L460.57 308.65 L463.57 306.1 L466.66 303.93 L469.99 302.83 L473.31 301.7 L477.38 303.83 L480.71 302.75 L483.32 298.45 L485.67 293.04 L488.82 291.12 L492.39 291.09 L496.26 292.38 L500.29 294.33 L504.23 295.92 L507.79 295.81 L510.93 293.88 L514.92 295.69 L519.13 298.46 L523.05 299.98 L526.64 300" fill="none" stroke="#111" stroke-width="0.62" stroke-linecap="round" stroke-linejoin="round" vector-effect="non-scaling-stroke"/><path d="M124.16 414.39 L127.69 414.35 L130.88 412.77 L133.83 410.17 L136.89 408.07 L140.34 407.65 L143.39 405.47 L146.32 402.77 L149.06 399.28 L152.72 399.75 L156.26 399.71 L159.67 399.13 L163.47 400.24 L166.6 398.39 L169.78 396.8 L173.35 396.89 L177.57 399.84 L181.46 401.34 L184.77 400.3 L187.49 396.72 L190.33 393.62 L193.17 390.52 L196.5 389.6 L200.2 390.25 L204.22 392.31 L207.02 389.06 L209.55 384.61 L212.53 382.17 L215.69 380.48 L219.55 381.81 L223.41 383.19 L227.33 384.81 L230.4 382.72 L232.86 378.01 L235.5 374.04 L238.94 373.59 L242.33 372.89 L245.54 371.41 L248.55 369.07 L251.48 366.4 L254.43 363.78 L257.59 362.1 L261.5 363.69 L265.49 365.62 L268.95 365.26 L272.74 366.28 L276.61 367.69 L280.46 369.02 L284.49 371.14 L288.11 371.44 L291.61 371.25 L294.73 369.36 L297.49 365.96 L301.09 366.19 L304.48 365.5 L307.81 364.57 L310.45 360.6 L313.08 356.6 L315.97 353.73 L319.24 352.51 L323.25 354.52 L327.7 358.47 L331.63 360.14 L334.95 359.14 L338.49 359.11 L341.98 358.88 L345.96 360.75 L350.22 363.85 L354.18 365.65 L357.67 365.43 L360.42 361.95 L363.04 357.91 L365.96 355.19 L369.19 353.79 L372.74 353.82 L375.79 351.65 L378.93 349.87 L381.64 346.19 L384.3 342.32 L388.03 343.14 L392.23 345.99 L395.79 346.06 L399.08 344.92 L402.67 345.1 L405.82 343.39 L409.13 342.36 L412.63 342.13 L415.75 340.27 L418.6 337.24 L421.18 333.02 L424.19 330.7 L427.85 331.16 L431.03 329.57 L434.24 328.11 L437.65 327.49 L440.69 325.28 L443.77 323.25 L447.54 324.24 L451.84 327.52 L455.88 329.66 L459.23 328.8 L462.27 326.59 L464.99 322.99 L468.22 321.62 L471.69 321.25 L475.67 323.15 L479.12 322.74 L481.62 318.18 L483.85 312.41 L487.07 311 L490.54 310.66 L494.5 312.45 L498.68 315.21 L502.51 316.46 L505.96 316.04 L509.34 315.32 L513.1 316.22 L517.26 318.89 L521.23 320.74 L525.03 321.85" fill="none" stroke="#111" stroke-width="0.62" stroke-linecap="round" stroke-linejoin="round" vector-effect="non-scaling-stroke"/><path d="M126.51 435.11 L129.95 434.77 L133.14 433.37 L135.86 429.97 L138.9 427.92 L142.19 426.94 L145.22 424.87 L148.11 422.16 L151.15 420.12 L154.44 419.15 L158.06 419.61 L161.44 419.04 L165.06 419.52 L168.38 418.68 L171.83 418.39 L175.03 417.05 L179.35 420.51 L183.15 421.76 L186.71 421.97 L189.25 417.77 L192.08 414.83 L194.93 411.95 L197.81 409.23 L201.8 411.27 L205.33 411.35 L208.49 409.81 L210.71 404.24 L213.69 401.96 L216.85 400.42 L220.59 401.4 L224.38 402.6 L228.27 404.19 L231.14 401.42 L233.69 397.29 L236.26 393.23 L239.55 392.26 L243.13 392.55 L246.43 391.61 L249.73 390.68 L252.42 387.13 L255.28 384.34 L258.43 382.76 L262.14 383.6 L266.33 386.54 L269.7 385.9 L273.48 387.06 L277.24 388.13 L281.21 390.09 L284.83 390.55 L288.86 392.77 L292.3 392.44 L294.91 388.57 L297.87 386.17 L301.17 385.25 L304.8 385.76 L307.76 383.37 L310.52 380.09 L313.23 376.66 L315.99 373.4 L319.32 372.61 L323.22 374.27 L327.8 378.87 L331.85 381.19 L335.23 380.59 L338.58 379.92 L342.26 380.64 L346.12 382.12 L350.4 385.43 L354.24 386.82 L357.68 386.51 L360.58 383.85 L362.71 377.91 L365.82 376.18 L369.07 375.04 L372.1 372.96 L375.38 371.93 L378.4 369.8 L381.01 365.92 L383.85 363.02 L387.47 363.45 L391.21 364.43 L395 365.64 L398.35 364.93 L401.69 364.17 L405.03 363.43 L408.51 363.27 L411.69 361.82 L415.04 361.16 L418.04 358.92 L420.33 353.63 L423.48 352.09 L427.01 352.17 L430.2 350.73 L433.3 348.96 L436.61 348.1 L439.37 344.83 L442.7 344.04 L446.35 344.64 L450.69 348.21 L454.61 349.97 L457.92 349.07 L460.57 345.35 L463.62 343.35 L466.56 340.89 L469.98 340.49 L473.89 342.21 L477.38 342.1 L479.99 338.21 L482.27 332.85 L485.18 330.28 L489.07 331.89 L492.79 332.8 L497 335.8 L500.96 337.7 L504.47 337.71 L507.71 336.5 L511.35 337.08 L515.68 340.59 L519.63 342.49 L522.91 341.46" fill="none" stroke="#111" stroke-width="1.2" stroke-linecap="round" stroke-linejoin="round" vector-effect="non-scaling-stroke"/><path d="M128.8 455.49 L132.23 455.27 L135.29 453.5 L138 450.19 L140.94 447.91 L144.08 446.46 L147.32 445.42 L149.86 441.4 L152.68 438.62 L156.21 438.83 L159.93 439.82 L163.49 440.17 L167.04 440.48 L170.27 439.42 L173.49 438.29 L176.94 438.19 L181.25 441.73 L185.17 443.59 L188.46 442.8 L191.26 439.89 L193.85 436.09 L196.54 432.69 L199.58 430.82 L203.06 430.85 L206.97 432.65 L209.85 430.13 L211.79 423.56 L214.61 420.72 L217.85 419.71 L221.67 421.15 L225.48 422.54 L229.16 423.4 L232.36 422.22 L234.67 417.23 L237.21 413.2 L240.59 412.81 L243.99 412.43 L247.44 412.3 L250.39 410.05 L253.41 408.08 L256.06 404.56 L259.35 403.75 L263.3 405.75 L266.92 406.35 L270.5 406.76 L273.96 406.67 L277.95 408.88 L281.67 409.89 L285.46 411.21 L289.16 412.17 L292.51 411.61 L295.45 409.28 L297.87 404.76 L301.42 405.09 L304.91 405.11 L308.03 403.56 L310.62 399.78 L313.38 396.68 L316.16 393.72 L319.09 391.36 L323.42 395.01 L327.9 399.26 L331.94 401.67 L335.38 401.5 L338.68 400.71 L342.42 401.83 L346.41 403.99 L350.35 405.97 L354.28 407.87 L357.65 407.42 L360.42 404.37 L362.55 398.64 L365.3 395.49 L368.58 394.65 L371.75 393.33 L374.89 391.87 L377.7 389.04 L380.12 384.51 L383 381.95 L386.69 382.85 L390.46 384.07 L394.33 385.75 L397.5 384.4 L400.97 384.38 L404.52 384.68 L407.54 382.73 L411.25 383.7 L414.49 382.68 L417.15 379.15 L419.81 375.65 L422.61 372.76 L425.92 372.05 L429.2 371.18 L432.13 368.84 L435.3 367.5 L438.2 365.04 L441.35 363.65 L444.92 364.01 L449.35 368.06 L453.13 369.38 L456.16 367.44 L459.04 364.87 L461.86 362.06 L464.94 360.35 L468.54 360.85 L472.41 362.53 L475.88 362.5 L478.25 357.74 L480.49 352.48 L483.84 351.91 L487.24 351.58 L491.27 353.89 L495.46 356.94 L499.27 358.37 L502.6 357.73 L505.79 356.47 L509.74 358.49 L513.75 360.75 L517.84 363.36 L521.13 362.54" fill="none" stroke="#111" stroke-width="0.62" stroke-linecap="round" stroke-linejoin="round" vector-effect="non-scaling-stroke"/><path d="M131.19 476.32 L134.45 475.52 L137.34 473.16 L139.99 469.81 L142.71 466.73 L146.2 466.93 L148.98 464.13 L151.88 461.83 L154.67 459.05 L158.17 459.29 L161.57 459.07 L165.33 460.41 L168.81 460.56 L172.16 460.15 L175.51 459.72 L179.02 460 L183.21 463.13 L186.9 464.16 L190.41 464.43 L192.93 460.54 L195.36 456.22 L197.79 451.94 L201 450.94 L204.65 451.79 L208.14 451.98 L210.93 449.22 L212.99 443.37 L215.66 440.08 L219.03 439.75 L222.61 440.34 L226.46 442.03 L230.2 443.25 L233.21 441.43 L235.43 436.25 L238.36 434.08 L241.74 433.78 L245.21 433.87 L248.3 432.36 L251.53 431.45 L254.45 429.24 L257.01 425.52 L260.07 423.87 L263.88 425.42 L267.96 428.06 L271.49 428.42 L274.82 427.95 L278.37 428.37 L282.18 429.91 L285.74 430.38 L289.57 431.99 L292.73 430.8 L295.62 428.44 L298.23 424.91 L301.62 424.69 L305.05 424.62 L308.13 423.05 L310.7 419.36 L313.34 415.96 L316.09 413.02 L319.38 412.37 L323.53 415.35 L327.99 419.59 L332.23 422.97 L335.41 421.86 L338.82 421.7 L342.61 423.14 L346.57 425.31 L350.54 427.52 L354.28 428.75 L357.57 428.1 L360.27 424.92 L362.25 418.75 L365.06 416.05 L368.23 414.91 L371.06 412.31 L374.24 411.18 L376.97 408.15 L379.58 404.62 L382.38 401.9 L385.77 401.66 L390.06 405.22 L393.6 405.6 L397.13 405.94 L400.39 405.17 L403.84 405.2 L406.91 403.58 L410.32 403.45 L413.7 403.14 L416.71 401.3 L418.97 396.31 L421.7 393.28 L425.11 393.15 L428.43 392.61 L431.29 390.14 L434.35 388.49 L436.85 384.5 L439.83 382.51 L443.49 383.41 L447.77 386.96 L451.85 389.62 L454.92 388.01 L457.42 384.02 L460.48 382.42 L463.49 380.58 L466.7 379.58 L470.71 381.95 L474.12 381.81 L476.72 378.22 L479.11 373.77 L482.1 371.83 L485.65 372.26 L489.66 374.65 L493.98 378.35 L497.78 379.82 L501.25 379.91 L503.97 376.88 L507.87 378.78 L511.8 380.8 L515.97 383.86 L519.1 382.51" fill="none" stroke="#111" stroke-width="0.62" stroke-linecap="round" stroke-linejoin="round" vector-effect="non-scaling-stroke"/><path d="M133.14 495.27 L136.42 494.74 L139.13 491.78 L141.94 489.28 L144.81 487.01 L148.03 486.22 L151.03 484.49 L153.64 481.14 L156.45 478.62 L160.1 479.58 L163.77 480.67 L167.06 480.15 L171 482.36 L174.39 482.27 L177.29 480.12 L180.72 480.2 L185.13 484.35 L188.97 486.14 L192.09 484.91 L194.58 481.06 L197.06 477.16 L199.38 472.61 L202.13 469.85 L205.99 471.72 L209.56 472.37 L212 468.29 L214.06 462.66 L216.65 459.21 L219.86 458.35 L223.72 460.23 L227.64 462.35 L231.3 463.38 L234.38 461.98 L236.5 456.57 L239.36 454.3 L242.67 453.86 L246.23 454.48 L249.54 454.03 L252.61 452.59 L255.3 449.58 L258 446.59 L260.93 444.58 L264.89 446.88 L268.48 447.63 L271.87 447.51 L275.22 447.25 L279.15 449.4 L282.77 450.26 L286.29 450.73 L289.92 451.63 L293.22 451.14 L295.68 447.16 L298.37 444.18 L301.63 443.5 L305.2 444.18 L308.15 442.25 L310.68 438.57 L313.74 437.1 L316.2 433.09 L319.69 433.43 L323.56 435.35 L328.23 440.58 L332.53 444.3 L335.67 443.15 L339.16 443.45 L342.55 443.39 L346.55 445.81 L350.51 448.11 L354.23 449.38 L357.44 448.53 L359.78 444.05 L361.77 438.13 L364.63 435.8 L367.39 433.07 L370.57 432.13 L373.8 431.35 L376.5 428.39 L379.06 424.79 L381.41 420.36 L385.4 422.78 L389.36 425.06 L393 426.03 L396.45 426.17 L399.91 426.38 L403.13 425.55 L406.36 424.81 L409.8 424.89 L413.28 425.19 L415.91 421.91 L418.15 417.03 L420.85 414.04 L424.1 413.37 L427.48 413.22 L430.02 409.59 L433.08 408.12 L435.84 405.38 L438.44 401.97 L442.22 403.5 L446.31 406.33 L450.07 407.8 L453.32 407.12 L456.03 404.16 L458.8 401.5 L461.78 399.7 L465.48 400.87 L469.4 403.01 L472.73 402.67 L475.26 398.96 L477.64 394.66 L480.73 393.3 L484.21 393.6 L488.34 396.56 L492.28 398.78 L496.16 400.72 L499.37 399.87 L502.46 398.51 L506.03 399.19 L509.86 400.94 L513.76 402.97 L517.02 402.31" fill="none" stroke="#111" stroke-width="0.62" stroke-linecap="round" stroke-linejoin="round" vector-effect="non-scaling-stroke"/><path d="M135.4 515.57 L138.47 514.29 L141.35 512.21 L143.95 509.01 L146.69 506.36 L150.1 506.47 L152.84 503.85 L155.66 501.54 L158.53 499.41 L162.01 499.83 L165.73 501.26 L169.38 502.36 L172.85 502.72 L176.27 502.89 L179.42 501.94 L182.64 501.3 L186.7 504.09 L190.82 507.15 L193.69 505.07 L196.13 501.19 L198.41 496.66 L200.77 492.45 L203.49 489.69 L207.34 491.64 L210.49 490.7 L213.15 487.74 L215.26 482.51 L217.7 478.6 L220.98 478.21 L224.85 480.23 L228.47 481.22 L232.44 483.66 L235.3 481.5 L237.68 477.39 L240.47 474.97 L243.72 474.4 L247.42 475.72 L250.5 474.52 L253.64 473.52 L256.44 471.1 L258.71 466.53 L261.75 465.15 L265.47 466.52 L269.44 468.99 L272.48 467.58 L275.88 467.64 L279.46 468.5 L283.04 469.33 L286.7 470.48 L290.23 471.08 L293.47 470.53 L295.96 466.83 L298.47 463.24 L301.79 463.02 L305.41 463.98 L308.32 462.06 L311.17 459.88 L313.84 456.93 L316.51 454 L319.96 454.32 L324.08 457.37 L328.57 461.94 L332.8 465.45 L335.94 464.47 L339.11 463.61 L342.78 464.79 L346.55 466.43 L350.5 468.75 L354.12 469.75 L357.24 468.7 L359.44 463.8 L361.51 458.41 L364.13 455.26 L367 453.18 L370.19 452.38 L373.24 451.02 L375.97 448.33 L378.31 444.07 L380.79 440.36 L384.77 442.83 L388.8 445.5 L392.57 447.11 L395.83 446.64 L399.41 447.47 L402.8 447.48 L405.87 446.21 L409.27 446.29 L412.61 446.15 L415.1 442.48 L417.3 437.61 L419.96 434.62 L423.3 434.47 L426.36 433.13 L428.75 429.04 L431.78 427.61 L434.25 423.83 L437.14 421.83 L440.47 421.63 L444.92 426.03 L448.75 427.92 L451.93 427.09 L454.47 423.62 L457.11 420.54 L460.38 420.09 L463.94 420.84 L467.97 423.53 L471.46 424.01 L474.05 420.75 L476.15 415.44 L478.89 412.8 L482.75 414.78 L486.7 417.14 L490.77 419.99 L494.43 421.15 L497.8 421.12 L500.67 419.01 L504.2 419.62 L508.12 421.85 L511.83 423.24 L514.87 421.85" fill="none" stroke="#111" stroke-width="0.62" stroke-linecap="round" stroke-linejoin="round" vector-effect="non-scaling-stroke"/><path d="M137.41 534.82 L140.5 533.78 L143.11 530.76 L145.82 528.18 L148.62 525.92 L151.99 526.02 L155.1 525.08 L157.7 522.02 L160.66 520.42 L164.01 520.44 L167.87 522.56 L171.12 522.18 L175.11 524.79 L178.19 523.72 L181.17 522.21 L184.72 523.03 L188.71 525.67 L192.43 527.19 L195.43 525.8 L197.95 522.41 L200.01 517.16 L202.34 513 L205 510.21 L208.31 510.07 L211.71 510.28 L214.54 508.17 L216.5 502.5 L218.88 498.55 L222.11 498.09 L225.77 499.37 L229.9 502.57 L233.53 503.72 L236.73 503.15 L239 498.74 L241.74 496.26 L245.05 496.11 L248.6 496.94 L251.69 495.91 L254.47 493.57 L257.14 490.84 L259.83 488.16 L262.62 485.87 L266.16 486.68 L269.87 488.14 L273.06 487.52 L276.28 487.02 L280 488.53 L283.3 488.34 L287.02 489.85 L290.35 489.81 L293.6 489.4 L296.19 486.33 L298.75 483.09 L302.21 483.59 L305.81 484.6 L308.82 483.23 L311.31 479.75 L313.99 477.03 L316.98 475.56 L320.16 474.88 L324.33 478.26 L328.81 482.88 L332.86 485.74 L336.1 485.33 L339.3 484.72 L342.59 484.49 L346.33 486.1 L350.41 489.11 L353.94 489.86 L356.99 488.62 L359.09 483.54 L360.96 477.51 L363.7 475.03 L366.66 473.47 L369.39 470.95 L372.34 469.34 L375.28 467.68 L377.7 463.9 L380.4 461.28 L383.9 461.9 L388.27 466.09 L391.75 466.61 L395.36 467.69 L398.91 468.53 L402.01 467.54 L405.5 468.1 L408.51 466.73 L411.81 466.53 L414.32 463.15 L416.47 458.24 L419.02 455 L422.02 453.56 L425.2 452.88 L427.76 449.67 L430.27 446.29 L433.06 444.01 L435.69 441.09 L438.98 440.86 L443.53 445.78 L447.3 447.49 L450.16 445.52 L453.05 443.65 L455.93 441.73 L458.98 440.56 L462.6 441.66 L466.38 443.41 L469.8 443.72 L472.3 440.28 L474.71 436.44 L477.39 433.71 L480.99 434.78 L484.92 437.14 L489.23 441.1 L492.78 441.9 L495.86 440.85 L498.51 437.98 L502.14 439.13 L506.05 441.45 L509.8 443.08 L512.88 442.03" fill="none" stroke="#111" stroke-width="1.2" stroke-linecap="round" stroke-linejoin="round" vector-effect="non-scaling-stroke"/><path d="M139.57 554.71 L142.69 553.89 L145.48 551.8 L147.81 547.82 L150.75 546.31 L154.05 546.29 L157.24 545.78 L159.67 542.22 L162.72 541.15 L166.13 541.54 L169.9 543.39 L173.41 544.2 L176.96 545.16 L180.1 544.45 L183.25 543.78 L186.59 543.89 L190.6 546.72 L194.33 548.39 L196.96 545.65 L199.19 541.27 L201.37 536.67 L203.51 531.94 L206.04 528.81 L209.67 530.06 L213.03 530.25 L215.41 526.51 L217.52 521.64 L219.97 518.17 L223.14 517.58 L227.14 520.34 L231.04 522.74 L234.91 524.97 L237.79 523.22 L240.31 520.02 L242.88 517.02 L246.12 516.72 L249.67 517.7 L252.76 516.8 L255.48 514.38 L258.34 512.56 L260.64 508.5 L263.28 505.77 L266.78 506.51 L270.61 508.59 L273.66 507.56 L276.75 506.66 L280.04 506.56 L283.74 508.11 L287.17 508.6 L290.62 509.12 L293.94 509.15 L296.55 506.34 L299.32 504.14 L302.56 503.84 L305.94 504.12 L309.15 503.71 L311.8 501.02 L314.51 498.6 L317.25 496.3 L320.42 495.71 L324.51 498.84 L329.05 503.79 L333.34 507.75 L336.4 506.74 L339.33 505.17 L342.7 505.4 L346.5 507.38 L350.32 509.42 L353.71 509.73 L356.68 508.36 L358.97 504.22 L360.73 497.96 L362.96 493.56 L366.14 493.03 L368.8 490.39 L372.01 489.99 L374.63 487.19 L377.15 483.99 L379.95 481.93 L383.66 483.51 L387.76 486.68 L391.49 488.38 L394.75 488.17 L398.35 489.33 L401.83 490.02 L404.63 487.96 L408.21 489 L411.22 487.79 L413.65 484.23 L415.46 478.14 L418.15 475.63 L421.17 474.46 L423.83 471.81 L426.34 468.58 L429.17 466.64 L431.45 462.46 L434.02 459.48 L437.8 461.35 L441.82 464.21 L445.99 467.68 L448.92 466.12 L451.5 463.17 L454.24 460.86 L457.55 460.84 L461.16 462.04 L465.12 464.64 L468.48 464.84 L470.96 461.49 L473.14 456.91 L475.98 454.98 L479.47 455.73 L483.56 458.85 L487.34 460.72 L490.92 461.81 L494.21 461.73 L496.63 458.12 L500.23 459.29 L504.03 461.23 L507.8 463.1 L510.66 461.24" fill="none" stroke="#111" stroke-width="0.62" stroke-linecap="round" stroke-linejoin="round" vector-effect="non-scaling-stroke"/><path d="M141.55 573.85 L144.56 572.79 L147.26 570.47 L149.82 567.61 L152.73 566.1 L156.42 567.77 L159.29 566.13 L161.92 563.53 L164.97 562.59 L168.19 562.38 L171.89 564.03 L175.26 564.42 L179.2 567.05 L182.15 565.73 L185.15 564.63 L188.16 563.55 L191.98 565.7 L196.02 568.73 L198.65 566.14 L200.54 560.59 L202.57 555.58 L204.68 550.95 L207.25 548.11 L211.01 550.02 L214.1 549.26 L216.88 547.28 L218.48 540.58 L221.17 538.22 L224.53 538.53 L228.12 539.79 L232.04 542.34 L236.04 545.2 L239.31 545.17 L241.49 540.78 L243.9 537.31 L247.19 537.35 L250.68 538.19 L253.68 537.08 L256.76 536.26 L259.06 532.38 L261.29 528.18 L263.85 525.29 L267.54 526.94 L271.05 527.85 L274.2 527.34 L277.18 526.15 L280.59 526.66 L284.04 527.34 L287.45 527.89 L291.28 530.08 L294.47 529.72 L297.07 526.98 L299.5 523.62 L302.91 524.11 L306.51 525.4 L309.51 524.3 L312.12 521.62 L314.8 519.21 L317.36 516.35 L320.58 516.13 L324.9 520.27 L329.25 524.55 L333.46 528.27 L336.39 526.85 L339.42 525.87 L342.64 525.63 L346.08 526.27 L350 528.81 L353.43 529.43 L356.35 527.98 L358.44 523.25 L360.01 516.4 L362.45 513.05 L365.33 511.45 L368.28 510.15 L371.57 510.21 L374.24 507.76 L376.87 505.17 L379.39 502.11 L383.22 504.32 L387.43 508.06 L391.23 510.12 L394.62 510.56 L398.01 510.99 L400.94 509.61 L404.36 510.17 L407.34 508.97 L410.49 508.47 L412.78 504.5 L414.65 498.89 L416.97 495.06 L419.89 493.61 L422.75 491.92 L425.02 487.92 L427.83 486.04 L430.29 482.78 L432.81 479.73 L436.25 480.36 L440.69 485.02 L444.51 487.16 L447.74 486.95 L450.38 484.43 L453.16 482.4 L456.4 482.25 L459.69 482.3 L463.87 485.91 L467.37 486.78 L469.77 483.25 L471.5 477.09 L474.38 475.48 L477.94 476.61 L481.54 477.88 L485.78 481.71 L489.36 482.89 L492.26 481.4 L494.52 477.31 L497.95 477.92 L501.96 480.84 L505.59 482.25 L508.6 481.16" fill="none" stroke="#111" stroke-width="0.62" stroke-linecap="round" stroke-linejoin="round" vector-effect="non-scaling-stroke"/><path d="M143.83 594.21 L146.81 593.17 L149.47 590.84 L152.26 589.05 L155.28 588.15 L158.65 588.64 L161.34 586.44 L164.08 584.46 L167.09 583.52 L170.42 583.85 L174.15 585.78 L177.44 585.92 L181.23 588.08 L184.04 586.34 L186.8 584.44 L189.72 583.17 L193.67 585.95 L197.24 587.22 L200.2 586.08 L201.94 580.15 L204.18 576.15 L206.19 571.27 L208.58 567.92 L212.05 568.78 L215.29 568.77 L218.22 567.5 L220.05 561.93 L222.47 558.65 L225.89 559.36 L229.47 560.67 L233.42 563.44 L237.37 566.23 L240.52 565.84 L242.82 562.12 L245.05 558.08 L248.28 558.01 L251.9 559.5 L254.64 557.49 L257.53 556.11 L259.81 552.28 L262.1 548.53 L264.33 544.51 L268.05 546.39 L271.55 547.39 L274.25 545.22 L277.31 544.47 L280.74 545.19 L284.31 546.48 L287.96 548.07 L291.39 548.78 L294.81 549.47 L297.29 546.45 L300.12 544.81 L303.29 544.53 L306.97 546.21 L309.98 545.28 L312.53 542.54 L315.13 540 L317.81 537.76 L321.04 537.7 L324.85 539.9 L329.62 545.95 L333.64 548.99 L336.35 546.86 L339.44 546.24 L342.49 545.48 L345.93 546.24 L349.64 548.06 L353.13 549.02 L356.01 547.57 L358.02 542.7 L359.72 536.59 L362.09 533.15 L365.09 532.16 L367.85 530.25 L371.3 531.05 L373.77 528.01 L376.12 524.48 L379.01 523.06 L382.61 524.45 L386.91 528.59 L390.58 530.28 L394.07 531.23 L397.22 530.87 L400.63 531.5 L403.46 529.85 L406.6 529.45 L409.6 528.49 L411.91 524.8 L413.29 517.42 L415.78 514.45 L418.63 512.86 L421.3 510.58 L423.86 507.87 L426.24 504.48 L428.9 502.15 L431.22 498.5 L435 500.59 L439.41 505.18 L443.2 507.34 L446.45 507.36 L449.14 505.14 L451.92 503.32 L455.12 503.12 L458.45 503.45 L462.5 506.62 L465.9 507.23 L468.43 504.43 L470.2 498.58 L472.79 496 L476.24 496.8 L480.14 499.38 L483.86 501.27 L487.24 501.76 L490.29 501 L492.4 496.54 L496.09 498.27 L499.64 499.45 L503.28 501.02 L506.59 501.27" fill="none" stroke="#111" stroke-width="0.62" stroke-linecap="round" stroke-linejoin="round" vector-effect="non-scaling-stroke"/><path d="M145.92 613.83 L149.24 614.25 L151.71 611.36 L154.53 609.83 L157.18 607.63 L160.82 609.29 L163.59 607.59 L166.29 605.56 L169.17 604.25 L172.4 604.34 L176.28 606.95 L179.38 606.5 L182.88 607.59 L185.97 607.13 L188.66 605.09 L191.59 604 L195.48 606.64 L198.84 607.2 L201.43 604.76 L203.58 600.61 L205.48 595.51 L207.47 590.72 L210.03 588.2 L213.45 589 L216.6 588.73 L219.19 586.33 L221.22 581.71 L223.98 579.93 L227.01 579.23 L230.85 581.65 L235.14 585.87 L238.92 588.06 L241.64 586.15 L243.7 581.66 L246.31 579.3 L249.45 579.03 L252.62 578.86 L255.54 577.71 L258.43 576.44 L260.53 572.1 L262.62 567.71 L264.77 563.56 L268.27 564.7 L271.86 566.15 L274.91 565.54 L277.9 564.66 L281.39 565.75 L284.73 566.23 L288.5 568.4 L292.07 569.78 L295.4 570.25 L297.85 567.27 L300.63 565.59 L304.08 566.49 L307.47 567.18 L310.71 567.31 L313.1 564.1 L315.8 562.09 L318.23 559.05 L321.02 557.38 L325.14 560.94 L329.54 565.56 L333.63 568.97 L336.12 566.15 L339.3 566.03 L342.14 564.54 L345.85 566.48 L349.28 567.35 L352.82 568.61 L355.68 567.23 L357.74 562.73 L359.08 555.43 L361.73 553.23 L364.84 552.85 L367.52 550.76 L370.91 551.46 L373.35 548.45 L375.95 546.03 L378.6 543.84 L382.43 546.25 L386.47 549.48 L390.44 552.42 L393.49 551.81 L396.94 552.73 L399.73 551.08 L402.96 551.13 L405.83 549.8 L408.53 547.79 L410.52 543.02 L412.36 537.67 L414.7 534.27 L417.34 532.01 L419.82 529.16 L422.2 525.92 L424.77 523.4 L427.33 520.84 L429.98 518.65 L433.44 519.61 L438.05 525.07 L442.2 528.73 L445.12 527.6 L447.69 525.07 L450.56 523.75 L453.88 524.17 L457.33 525.07 L461.1 527.25 L464.46 527.83 L467.02 525.26 L468.68 519.22 L471.28 516.83 L474.49 516.82 L477.97 517.86 L481.92 520.72 L485.3 521.38 L488.28 520.47 L490.65 517.17 L493.74 516.69 L497.7 519.63 L501.33 521.26 L504.27 520.16" fill="none" stroke="#111" stroke-width="0.62" stroke-linecap="round" stroke-linejoin="round" vector-effect="non-scaling-stroke"/><path d="M148.08 633.73 L151.25 633.72 L154.01 632.09 L156.86 630.82 L159.67 629.38 L163.08 630.27 L166.12 629.73 L168.61 627.08 L171.2 624.82 L174.57 625.55 L178.34 627.79 L181.24 626.71 L185.01 628.99 L187.7 627.1 L190.27 624.77 L192.94 622.8 L197.01 626.22 L200.42 627.1 L203.05 625 L204.79 619.43 L206.65 614.36 L208.5 609.25 L211.19 607.33 L214.68 608.53 L218.26 610.06 L220.97 608.25 L222.81 603.1 L225.37 600.72 L228.39 600.08 L232.36 603.13 L236.52 606.91 L240.19 608.79 L242.93 607.09 L245.23 603.71 L247.44 599.98 L250.41 599.17 L253.59 599.15 L256.48 598.04 L259 595.49 L261.04 591.13 L262.88 585.96 L265.47 583.66 L268.67 583.75 L272.38 585.78 L275.34 584.95 L278.23 583.84 L281.7 584.95 L285.47 587.22 L288.96 588.4 L292.46 589.64 L295.95 590.83 L298.64 588.97 L300.93 585.52 L304.39 586.62 L308.04 588.4 L310.91 587.21 L313.68 585.62 L316.01 582.36 L318.35 579.12 L321.18 577.78 L325.29 581.36 L329.55 585.51 L333.33 587.83 L335.97 585.73 L338.95 584.99 L342.1 584.86 L345.47 585.59 L349.38 588.41 L352.53 588.29 L355.39 587.05 L357.52 583.03 L358.99 576.44 L361.48 573.75 L364.57 573.42 L367.4 572.08 L370.61 572.18 L373.21 569.95 L375.68 567.22 L378.42 565.53 L382.07 567.33 L385.94 569.97 L389.76 572.45 L392.88 572.2 L396.19 572.71 L399.28 572.37 L402.19 571.33 L405.1 570.3 L407.63 567.78 L409.61 563.16 L411.19 557 L413.21 552.53 L416.15 551.6 L418.52 548.46 L420.95 545.59 L423.71 543.97 L426.11 540.96 L428.54 538.08 L432.42 540.78 L436.75 545.18 L440.85 548.76 L444.07 548.91 L446.57 546.29 L449.32 544.61 L452.51 544.65 L455.91 545.49 L459.78 548.17 L463.23 549.2 L465.38 545.23 L466.99 539.18 L469.64 537.14 L472.47 535.79 L476.07 537.41 L479.8 539.53 L483.53 541.64 L486.09 539.26 L488.56 536.52 L491.6 535.98 L495.68 539.44 L499.19 540.73 L502.34 540.6" fill="none" stroke="#111" stroke-width="1.2" stroke-linecap="round" stroke-linejoin="round" vector-effect="non-scaling-stroke"/><path d="M150.41 654.3 L154.01 656.04 L156.78 654.58 L159.31 652.23 L161.97 650.38 L165.35 651.27 L168.14 649.93 L170.66 647.54 L173.26 645.45 L176.59 646.15 L180.13 647.63 L183.44 648.27 L186.47 647.83 L189.28 646.53 L191.82 644.21 L194.75 643.41 L198.19 644.53 L201.99 647 L204.45 644.38 L206.32 639.52 L208.29 635.02 L210.01 629.62 L212.44 626.86 L216.26 629.42 L219.56 630.01 L222.28 628.38 L223.88 622.5 L226.45 620.3 L229.93 621.55 L233.75 624.12 L237.72 627.26 L241.78 630.75 L244.16 627.84 L246.36 624.22 L248.46 620.24 L251.35 619.26 L254.54 619.4 L257.34 618.08 L259.53 614.45 L261.62 610.43 L263.7 606.37 L265.72 602.06 L269.43 604.21 L272.56 604.15 L275.47 603.26 L278.86 604.17 L282.32 605.35 L286 607.4 L289.35 608.18 L293.12 610.53 L296.52 611.52 L299.27 609.98 L301.65 607.08 L304.95 607.63 L308.57 609.44 L311.62 609.08 L313.79 605.36 L316.43 603.44 L318.72 600.16 L321.51 598.81 L325.31 601.29 L329.79 606.39 L333.38 608.06 L335.86 605.51 L338.83 604.85 L341.75 603.98 L345.38 605.82 L349.02 607.7 L352.28 608.14 L355.16 607.1 L357.26 603.13 L358.71 596.66 L361.27 594.42 L364.2 593.59 L367.3 593.43 L370.3 592.85 L373.14 591.69 L375.37 588.2 L378.03 586.35 L381.86 588.94 L385.75 591.78 L389.26 593.16 L392.29 592.71 L395.48 592.87 L398.29 591.59 L401.02 590 L404.1 589.75 L406.57 587.19 L408.4 582.15 L409.93 576.02 L412.26 572.88 L414.61 569.86 L417.43 568.62 L419.82 565.71 L422.43 563.67 L424.71 560.39 L427.58 559.33 L431.1 560.76 L435.64 566.07 L440.01 570.72 L442.96 569.98 L445.5 567.66 L448.44 566.85 L451.2 565.4 L454.63 566.47 L458.62 569.65 L461.98 570.48 L463.81 565.47 L465.36 559.4 L467.8 556.68 L470.82 556.21 L474.14 556.85 L478.06 559.81 L481.3 560.17 L484.09 558.82 L486.18 554.77 L489.77 556.48 L493.52 558.78 L497.33 561.28 L500.33 560.73" fill="none" stroke="#111" stroke-width="0.62" stroke-linecap="round" stroke-linejoin="round" vector-effect="non-scaling-stroke"/><path d="M152.76 674.93 L156.09 675.75 L158.81 674.26 L161.75 673.6 L164.36 671.7 L167.55 671.99 L170.48 671.3 L172.97 668.94 L175.55 666.96 L178.44 666.1 L181.98 667.69 L185.15 667.93 L188.11 667.32 L191.06 666.72 L193.65 664.74 L195.98 661.78 L199.87 664.71 L203.46 666.52 L205.75 663.42 L207.56 658.48 L209.74 655 L211.62 650.34 L214.09 647.94 L217.73 649.9 L221.33 651.72 L223.7 648.93 L225.53 644.11 L228.27 642.68 L231.23 642.11 L235.06 644.81 L239.19 648.65 L242.77 650.4 L245.47 648.84 L247.3 644.01 L249.58 640.86 L252.44 639.9 L255.2 638.57 L257.85 636.82 L260.1 633.59 L262.02 629.08 L263.88 624.36 L266.17 621.27 L269.67 622.72 L273.15 624.11 L276.19 623.81 L279.41 624.21 L282.9 625.62 L286.49 627.42 L290.01 628.93 L293.95 632.05 L297.45 633.51 L299.75 630.45 L302.44 628.85 L305.6 629.01 L309.31 631.25 L311.83 629.02 L314.18 626.17 L316.31 622.46 L318.7 619.73 L321.17 617.31 L325.23 620.88 L329.5 625.22 L333.09 627.03 L335.75 625.3 L338.26 623.04 L341.44 623.29 L345.03 625.07 L348.56 626.63 L352.1 628.24 L355 627.43 L357.02 623.29 L358.76 618.15 L361.04 615.01 L364.15 614.98 L367.06 614.22 L370.25 614.5 L372.8 612.37 L375.17 609.61 L377.76 607.61 L381.06 608.31 L385.33 612.65 L388.77 613.89 L391.62 612.89 L394.84 613.29 L397.75 612.52 L400.32 610.49 L402.83 608.21 L405.46 606.39 L407.18 601.16 L408.95 596.09 L410.92 591.77 L413.42 589.47 L416.34 588.73 L418.84 586.44 L421.42 584.44 L423.79 581.61 L426.55 580.3 L430.26 582.55 L434.75 587.73 L438.73 590.97 L441.96 591.42 L444.35 588.7 L446.84 586.33 L449.75 585.57 L453.37 587.47 L457.33 590.67 L460.41 590.53 L461.97 584.68 L463.38 578.29 L465.58 574.85 L468.94 575.75 L472.22 576.4 L475.91 578.56 L479.17 579.09 L481.87 577.54 L484.12 574.28 L487.54 575.44 L491.47 578.52 L495.53 582.08 L498.41 581.19" fill="none" stroke="#111" stroke-width="0.62" stroke-linecap="round" stroke-linejoin="round" vector-effect="non-scaling-stroke"/><path d="M107.17 314.53 L107.3 319.71 L108.54 324.76 L109.04 329.89 L110.59 334.91 L112.8 339.86 L112.55 345.07 L112.06 350.31 L113.76 355.32 L114.99 360.37 L112.24 365.86 L113.91 370.87 L118.2 375.58 L119.93 380.58 L118.8 385.89 L119.7 390.98 L122.87 395.82 L121.76 401.14 L119.52 406.57 L119.44 411.77 L124.05 416.45 L125.51 421.48 L126.18 426.59 L129.06 431.46 L132.92 436.23 L132.9 441.42 L131.34 446.78 L130.82 452.03 L129.19 457.39 L127.08 462.81 L125.98 468.12 L128.61 473.02 L127.45 478.34 L128.5 483.41 L131.68 488.25 L134.66 493.11 L132.56 498.53 L130.22 503.98 L131.79 508.99 L131.11 514.26 L128.9 519.69 L128.26 524.95 L131.34 529.8 L134.16 534.68 L133.8 539.91 L134.16 545.05 L137.29 549.9 L137.23 555.1 L135.15 560.51 L135.97 565.61 L136.56 570.73 L138.07 575.76 L139.48 580.79 L143.64 585.52 L145.9 590.46 L146.94 595.54 L148.33 600.57 L150.61 605.51 L148.62 610.92 L144.62 616.55 L145.51 621.64 L147.21 626.64 L147.18 631.83 L146.07 637.14 L149.59 641.94 L154.03 646.64 L153.49 651.89 L151.63 657.29 L151.69 662.47 L152.82 667.53 L149.75 673.06 L148.81 678.35" fill="none" stroke="#111" stroke-width="0.55" stroke-linecap="round" stroke-linejoin="round" vector-effect="non-scaling-stroke"/><path d="M158.81 302.98 L158.33 308.18 L161.16 313.11 L160.77 318.3 L163.6 323.23 L165.89 328.2 L164.99 333.44 L165.2 338.58 L165.37 343.73 L165.95 348.84 L163.1 354.24 L164.43 359.3 L167.22 364.23 L169.92 369.16 L167.49 374.53 L168.89 379.57 L172.4 384.44 L172.15 389.63 L170.26 394.95 L170.58 400.08 L175.55 404.83 L176.27 409.93 L177.26 415.01 L178.76 420.05 L182.23 424.92 L181.93 430.11 L179.85 435.45 L179.14 440.67 L176.16 446.08 L174.26 451.4 L173.81 456.6 L176.78 461.52 L176.15 466.73 L177.83 471.75 L181.56 476.6 L183.62 481.59 L181.21 486.96 L178.54 492.35 L178.99 497.47 L178.57 502.67 L175.35 508.1 L173.98 513.38 L176.81 518.3 L179.45 523.25 L179.7 528.39 L180.25 533.5 L184.07 538.35 L184.71 543.46 L182.35 548.82 L182.63 553.96 L183.75 559.03 L184.66 564.11 L185.41 569.21 L189.26 574.05 L190.45 579.11 L191.18 584.22 L192.45 589.27 L193.75 594.33 L192.67 599.58 L188.46 605.09 L190.03 610.13 L192.16 615.11 L192.71 620.23 L191.32 625.51 L195.25 630.34 L198.7 635.21 L197.53 640.47 L194.52 645.89 L194.07 651.09 L194.76 656.19 L191.54 661.63 L189.78 666.94" fill="none" stroke="#111" stroke-width="0.55" stroke-linecap="round" stroke-linejoin="round" vector-effect="non-scaling-stroke"/><path d="M211.05 291.34 L211.82 296.44 L213.88 301.47 L214.48 306.58 L216.94 311.58 L218.44 316.64 L217.96 321.81 L216.81 327.02 L216.93 332.15 L216.33 337.33 L213.39 342.65 L214.09 347.75 L217.06 352.72 L219.82 357.71 L218.36 362.93 L219.72 368 L223.93 372.9 L223.7 378.06 L221.69 383.32 L222.14 388.44 L226.23 393.34 L226.47 398.47 L226.41 403.62 L227.49 408.7 L230.27 413.69 L229.16 418.89 L227.11 424.16 L226.56 429.33 L224.87 434.57 L223.38 439.8 L223.49 444.94 L226.03 449.94 L226.18 455.07 L226.83 460.18 L230.36 465.12 L232.23 470.16 L228.87 475.49 L225.66 480.82 L225.69 485.96 L224.32 491.19 L220.58 496.55 L219.85 501.73 L222.65 506.71 L226.45 511.64 L226.74 516.77 L227.71 521.85 L231.7 526.77 L232.05 531.89 L230.1 537.15 L229.27 542.34 L229.73 547.46 L230.23 552.57 L229.68 557.75 L232.94 562.7 L234.93 567.73 L235.27 572.86 L236.02 577.96 L238.22 582.97 L237.41 588.16 L233.75 593.52 L235.37 598.57 L238.01 603.56 L238.44 608.68 L236.46 613.94 L239.31 618.92 L241.9 623.91 L240.53 629.13 L237.04 634.48 L236.49 639.66 L237.05 644.77 L233.82 650.1 L232.16 655.34" fill="none" stroke="#111" stroke-width="0.55" stroke-linecap="round" stroke-linejoin="round" vector-effect="non-scaling-stroke"/><path d="M264.61 279.65 L264.83 284.78 L267.81 289.82 L267.52 294.96 L269.67 300.02 L270.55 305.13 L268.87 310.31 L267.23 315.49 L266.66 320.64 L266.7 325.78 L263.77 331 L264.69 336.1 L268.24 341.12 L270.58 346.18 L269.47 351.35 L271.81 356.41 L275.81 361.41 L275.18 366.56 L273.03 371.76 L271.72 376.94 L275.42 381.95 L274.88 387.1 L274.92 392.23 L275.68 397.34 L278.04 402.4 L277.49 407.54 L275.68 412.73 L275.98 417.86 L274.17 423.04 L272.96 428.22 L273.24 433.34 L275.93 438.39 L274.81 443.55 L276.06 448.64 L277.99 453.72 L279.64 458.8 L275.54 464.06 L271.04 469.33 L271.73 474.44 L270.54 479.61 L267.43 484.84 L266.91 489.99 L271.01 494.99 L274.01 500.03 L274.86 505.13 L275.88 510.23 L278.97 515.27 L279.2 520.39 L276.24 525.62 L274.65 530.8 L274 535.95 L273.92 541.09 L273.77 546.22 L277.26 551.24 L279.11 556.32 L280.13 561.42 L281.67 566.5 L284.37 571.55 L283.19 576.72 L279.93 581.95 L281.8 587.02 L283.25 592.11 L283.06 597.25 L279.72 602.49 L282.79 607.52 L284.74 612.59 L282.48 617.79 L279.27 623.03 L279.3 628.16 L279.56 633.28 L276.82 638.5 L276.21 643.65" fill="none" stroke="#111" stroke-width="0.55" stroke-linecap="round" stroke-linejoin="round" vector-effect="non-scaling-stroke"/><path d="M318.23 268.02 L318.6 273.15 L320.07 278.26 L320.09 283.39 L320.7 288.51 L321.43 293.64 L319.35 298.78 L317.74 303.91 L317.27 309.04 L317.69 314.17 L314.27 319.31 L316.2 324.43 L320.08 329.53 L323.37 334.64 L321.69 339.78 L323.3 344.9 L326.71 350 L325.64 355.14 L322.52 360.28 L321.22 365.42 L324.12 370.53 L323.75 375.66 L323.03 380.79 L324.07 385.91 L327.55 391.02 L327.25 396.14 L326.02 401.28 L325.83 406.41 L324.09 411.54 L322.99 416.68 L322.3 421.81 L324.32 426.92 L323.29 432.05 L323.39 437.18 L324.88 442.3 L326.14 447.42 L322.32 452.57 L318.03 457.72 L318.55 462.84 L317.72 467.97 L315.06 473.11 L315.11 478.24 L318.91 483.35 L322.08 488.46 L322.79 493.58 L323.2 498.7 L324.94 503.82 L324.9 508.95 L320.98 514.1 L319.65 519.23 L318.34 524.37 L319.14 529.49 L318.61 534.62 L322.47 539.72 L325.1 544.84 L326.28 549.96 L328.48 555.07 L330.66 560.19 L329.22 565.32 L325.5 570.47 L325.93 575.59 L327.18 580.71 L326.18 585.85 L322.8 590.99 L325.38 596.1 L327.57 601.22 L325.57 606.36 L322.46 611.5 L322.45 616.63 L324.03 621.75 L321.39 626.89 L320.51 632.02" fill="none" stroke="#111" stroke-width="0.55" stroke-linecap="round" stroke-linejoin="round" vector-effect="non-scaling-stroke"/><path d="M370.78 256.42 L370.45 261.55 L371.29 266.69 L370.46 271.8 L371.4 276.95 L371.93 282.09 L369.71 287.17 L368.28 292.27 L368.99 297.42 L369.65 302.56 L367 307.63 L368.43 312.79 L372.4 318 L375.05 323.19 L372.61 328.27 L373.76 333.42 L376.47 338.6 L374.65 343.7 L370.99 348.75 L369.36 353.84 L372.97 359.05 L372.54 364.17 L372.66 369.3 L374.06 374.46 L378 379.67 L377.83 384.79 L376.34 389.89 L375.77 395.01 L373.68 400.09 L371.99 405.19 L369.96 410.27 L371.76 415.44 L370.34 420.54 L369.32 425.65 L371.18 430.82 L372.44 435.97 L369.3 441.03 L365.78 446.09 L367.06 451.25 L366.33 456.36 L364.25 461.45 L363.36 466.56 L366.43 471.75 L368.97 476.93 L368.93 482.06 L368.43 487.18 L370.28 492.34 L369.9 497.47 L365.65 502.51 L364.29 507.61 L364.28 512.74 L365.14 517.88 L365.62 523.02 L369.35 528.23 L371.65 533.4 L372.41 538.55 L373.79 543.71 L376.17 548.88 L373.91 553.97 L369.45 559 L369 564.12 L369.95 569.27 L368.93 574.38 L365.63 579.44 L368.74 584.63 L371.46 589.82 L369.65 594.91 L367.31 599.99 L367.77 605.13 L368.2 610.27 L365.39 615.34 L364.41 620.45" fill="none" stroke="#111" stroke-width="0.55" stroke-linecap="round" stroke-linejoin="round" vector-effect="non-scaling-stroke"/><path d="M422.61 244.79 L421.44 249.88 L422.38 255.06 L421.34 260.15 L422.79 265.36 L423.59 270.53 L422.11 275.6 L421.28 280.7 L421.29 285.84 L422.56 291.03 L419.43 296.03 L420.41 301.21 L423.11 306.47 L425.02 311.7 L422.8 316.73 L423.05 321.88 L424.66 327.1 L424.07 332.21 L419.87 337.15 L419.12 342.25 L423.08 347.58 L422.76 352.7 L423.28 357.86 L424.93 363.08 L428.58 368.38 L428.05 373.5 L425.99 378.54 L424.55 383.61 L422.22 388.64 L419.43 393.65 L417.91 398.71 L418.45 403.88 L417.05 408.95 L417.1 414.09 L419.1 419.32 L420.79 424.54 L418.6 429.57 L414.8 434.53 L415.89 439.72 L415.13 444.83 L411.72 449.8 L410.52 454.89 L412.67 460.12 L414.9 465.37 L414.25 470.47 L413.94 475.6 L414.95 480.78 L414.93 485.92 L411.4 490.89 L410.76 496 L411.22 501.16 L411.74 506.32 L412.25 511.48 L416.21 516.81 L417.63 522.01 L418 527.17 L418.96 532.35 L419.9 537.53 L417.31 542.55 L412.38 547.46 L412.43 552.6 L412.89 557.76 L412.89 562.89 L409.78 567.89 L412.7 573.16 L416.27 578.47 L414.93 583.54 L412.39 588.56 L412.27 593.69 L412.09 598.82 L408.28 603.78 L406.52 608.84" fill="none" stroke="#111" stroke-width="0.55" stroke-linecap="round" stroke-linejoin="round" vector-effect="non-scaling-stroke"/><path d="M474.08 233.11 L473.15 238.19 L474.05 243.41 L473.2 248.5 L475.09 253.79 L475.79 259 L475.08 264.1 L474.26 269.2 L474.15 274.34 L474.12 279.49 L470.27 284.37 L471.01 289.58 L473.35 294.9 L475.02 300.17 L472 305.11 L472.45 310.3 L474.45 315.59 L473.97 320.71 L470.99 325.65 L469.77 330.72 L473.84 336.17 L473.69 341.31 L473.85 346.48 L475.79 351.77 L477.73 357.07 L476.71 362.15 L473.77 367.08 L472.35 372.14 L469.12 377.05 L466.72 382.03 L465.23 387.08 L466.73 392.34 L465.21 397.39 L465.66 402.57 L468.44 407.93 L470.54 413.24 L466.86 418.12 L463.09 423 L463.91 428.21 L462.24 433.25 L458.09 438.1 L456.46 443.13 L458.15 448.41 L460.3 453.72 L459.71 458.83 L459.55 463.97 L461.59 469.28 L461.94 474.46 L459.18 479.41 L458.13 484.49 L457.58 489.6 L458.4 494.81 L458.16 499.95 L461.4 505.34 L462.82 510.6 L462.52 515.73 L462.44 520.88 L463.61 526.12 L461.51 531.12 L456.61 535.92 L456.41 541.05 L457.5 546.29 L457.14 551.42 L455.57 556.46 L458.25 561.8 L460.85 567.15 L459.91 572.23 L455.76 577.09 L455.47 582.22 L455.09 587.34 L450.44 592.16 L448.2 597.15" fill="none" stroke="#111" stroke-width="0.55" stroke-linecap="round" stroke-linejoin="round" vector-effect="non-scaling-stroke"/><path d="M525.89 221.4 L525.21 226.51 L527.19 231.88 L526.99 237.03 L528.02 242.31 L529.23 247.61 L527.71 252.64 L526.13 257.66 L525.88 262.81 L525.15 267.91 L520.51 272.63 L520.56 277.81 L523.25 283.26 L524.57 288.57 L521.84 293.47 L522.72 298.74 L525.55 304.19 L524.56 309.27 L521.62 314.16 L521.23 319.3 L524.58 324.8 L524.78 330 L524.33 335.13 L524.38 340.32 L526.54 345.71 L524.47 350.68 L522.12 355.62 L519.98 360.59 L517.48 365.52 L514.86 370.44 L514.02 375.53 L515.48 380.85 L515.08 385.99 L515.77 391.23 L517.97 396.63 L519.47 401.95 L514.91 406.68 L510.63 411.43 L510.24 416.57 L508.05 421.53 L503.71 426.28 L502.2 431.31 L504.15 436.68 L506.78 442.11 L505.91 447.2 L506.9 452.48 L509.23 457.89 L509.36 463.08 L506.01 467.92 L505.33 473.03 L504.75 478.15 L504.11 483.26 L503.3 488.36 L505.77 493.78 L506.27 499.01 L505.99 504.16 L506.32 509.37 L507.59 514.67 L505.48 519.64 L501.58 524.43 L502.41 529.69 L503.35 534.96 L503.33 540.13 L500.66 545.05 L502.99 550.45 L505.49 555.88 L502.67 560.78 L498.7 565.56 L497.01 570.57 L496.39 575.68 L492.77 580.5 L490.85 585.49" fill="none" stroke="#111" stroke-width="0.55" stroke-linecap="round" stroke-linejoin="round" vector-effect="non-scaling-stroke"/></g><path d="M114 710 L540 636" fill="none" stroke="#111" stroke-width="4.6" stroke-linecap="round" stroke-linejoin="round" vector-effect="non-scaling-stroke"/><path d="M540 636 L523.68 650.37 L519.79 627.98 Z" fill="#111" stroke="#111" stroke-width="0"/><path d="M174 270 L516 246" fill="none" stroke="#111" stroke-width="3.4" stroke-linecap="round" stroke-linejoin="round" vector-effect="non-scaling-stroke"/><path d="M516 246 L500.16 257.31 L498.74 237.01 Z" fill="#111" stroke="#111" stroke-width="0"/><g data-layer="chroma_constellation"><path d="M446 276 L446 238" fill="none" stroke="#111" stroke-width="1.43" stroke-linecap="round" stroke-linejoin="round" vector-effect="non-scaling-stroke"/><path d="M454 278.14 L458.5 270.35" fill="none" stroke="#111" stroke-width="0.96" stroke-linecap="round" stroke-linejoin="round" vector-effect="non-scaling-stroke"/><path d="M459.86 284 L474.58 275.5" fill="none" stroke="#111" stroke-width="1.09" stroke-linecap="round" stroke-linejoin="round" vector-effect="non-scaling-stroke"/><path d="M462 292 L493 292" fill="none" stroke="#111" stroke-width="1.32" stroke-linecap="round" stroke-linejoin="round" vector-effect="non-scaling-stroke"/><path d="M459.86 300 L466.78 304" fill="none" stroke="#111" stroke-width="0.95" stroke-linecap="round" stroke-linejoin="round" vector-effect="non-scaling-stroke"/><path d="M454 305.86 L465 324.91" fill="none" stroke="#111" stroke-width="1.17" stroke-linecap="round" stroke-linejoin="round" vector-effect="non-scaling-stroke"/><path d="M446 308 L446 352" fill="none" stroke="#111" stroke-width="1.52" stroke-linecap="round" stroke-linejoin="round" vector-effect="non-scaling-stroke"/><path d="M438 305.86 L432.5 315.38" fill="none" stroke="#111" stroke-width="1" stroke-linecap="round" stroke-linejoin="round" vector-effect="non-scaling-stroke"/><path d="M432.14 300 L415.69 309.5" fill="none" stroke="#111" stroke-width="1.12" stroke-linecap="round" stroke-linejoin="round" vector-effect="non-scaling-stroke"/><path d="M430 292 L401 292" fill="none" stroke="#111" stroke-width="1.28" stroke-linecap="round" stroke-linejoin="round" vector-effect="non-scaling-stroke"/><path d="M432.14 284 L423.48 279" fill="none" stroke="#111" stroke-width="0.98" stroke-linecap="round" stroke-linejoin="round" vector-effect="non-scaling-stroke"/><path d="M438 278.14 L425.5 256.49" fill="none" stroke="#111" stroke-width="1.22" stroke-linecap="round" stroke-linejoin="round" vector-effect="non-scaling-stroke"/><circle cx="446" cy="292" r="16" fill="none" stroke="#111" stroke-width="0.82" vector-effect="non-scaling-stroke"/></g><path d="M286.75 476 L280.14 482.81 L273.03 489.24 L265.6 494.93 L258.02 499.56 L250.5 502.87 L243.21 504.68 L236.34 504.89 L230.06 503.47 L224.53 500.52 L219.88 496.2 L216.23 490.75 L213.68 484.47 L212.27 477.72 L212.06 470.87 L213.05 464.31 L215.2 458.4 L218.47 453.48 L222.78 449.82 L228.01 447.62 L234.04 447.01 L240.72 448.03 L247.88 450.6 L255.34 454.6 L262.92 459.8 L270.43 465.9 L277.67 472.57 L284.48 479.43 L290.67 486.1 L296.1 492.2 L300.63 497.4 L304.15 501.4 L306.56 503.97 L307.82 504.99 L307.88 504.38 L306.75 502.18 L304.45 498.52 L301.05 493.6 L296.62 487.69 L291.28 481.13 L285.15 474.28 L278.4 467.53 L271.2 461.25 L263.71 455.8 L256.13 451.48 L248.65 448.53 L241.45 447.11 L234.71 447.32 L228.6 449.13 L223.28 452.44 L218.87 457.07 L215.49 462.76 L213.22 469.19 L212.11 476 L212.2 482.81 L213.48 489.24 L215.92 494.93 L219.45 499.56 L224 502.87 L229.45 504.68 L235.66 504.89 L242.47 503.47 L249.73 500.52 L257.24 496.2 L264.81 490.75 L272.27 484.47 L279.42 477.72 L286.09 470.87 L292.11 464.31 L297.32 458.4 L301.61 453.48 L304.86 449.82 L306.99 447.62 L307.95 447.01 L307.71 448.03 L306.28 450.6 L303.7 454.6 L300.03 459.8 L295.36 465.9 L289.81 472.57 L283.52 479.43 L276.64 486.1 L269.34 492.2 L261.82 497.4 L254.24 501.4 L246.81 503.97 L239.71 504.99 L233.12 504.38 L227.19 502.18 L222.09 498.52 L217.93 493.6 L214.81 487.69 L212.83 481.13 L212.02 474.28 L212.41 467.53 L213.98 461.25 L216.7 455.8 L220.5 451.48 L225.29 448.53 L230.94 447.11 L237.31 447.32 L244.25 449.13 L251.59 452.44 L259.13 457.07 L266.7 462.76 L274.09 469.19 L281.14 476 L287.66 482.81 L293.49 489.24 L298.49 494.93 L302.52 499.56 L305.5 502.87 L307.34 504.68 L308 504.89 L307.46 503.47 L305.74 500.52 L302.88 496.2 L298.95 490.75 L294.05 484.47 L288.3 477.72 L281.85 470.87 L274.85 464.31 L267.48 458.4 L259.92 453.48 L252.37 449.82 L245 447.62 L238.01 447.01 L231.57 448.03 L225.84 450.6 L220.95 454.6 L217.05 459.8 L214.21 465.9 L212.51 472.57 L212 479.43 L212.69 486.1 L214.55 492.2 L217.55 497.4 L221.61 501.4 L226.62 503.97 L232.47 504.99 L239 504.38 L246.06 502.18 L253.46 498.52 L261.03 493.6 L268.57 487.69 L275.9 481.13 L282.83 474.28 L289.19 467.53 L294.82 461.25 L299.59 455.8 L303.37 451.48 L306.07 448.53 L307.61 447.11 L307.98 447.32 L307.14 449.13 L305.13 452.44 L302 457.07 L297.81 462.76 L292.69 469.19 L286.75 476" fill="none" stroke="#111" stroke-width="0.85" stroke-linecap="round" stroke-linejoin="round" vector-effect="non-scaling-stroke"/><path d="M148 696 L156 696" fill="none" stroke="#111" stroke-width="0.8" stroke-linecap="round" stroke-linejoin="round" vector-effect="non-scaling-stroke"/><path d="M152 692 L152 700" fill="none" stroke="#111" stroke-width="0.8" stroke-linecap="round" stroke-linejoin="round" vector-effect="non-scaling-stroke"/><path d="M163.38 698.35 L173.38 698.35" fill="none" stroke="#111" stroke-width="0.8" stroke-linecap="round" stroke-linejoin="round" vector-effect="non-scaling-stroke"/><path d="M168.38 693.35 L168.38 703.35" fill="none" stroke="#111" stroke-width="0.8" stroke-linecap="round" stroke-linejoin="round" vector-effect="non-scaling-stroke"/><path d="M178.76 694.51 L190.76 694.51" fill="none" stroke="#111" stroke-width="0.8" stroke-linecap="round" stroke-linejoin="round" vector-effect="non-scaling-stroke"/><path d="M184.76 688.51 L184.76 700.51" fill="none" stroke="#111" stroke-width="0.8" stroke-linecap="round" stroke-linejoin="round" vector-effect="non-scaling-stroke"/><path d="M197.14 683.99 L205.14 683.99" fill="none" stroke="#111" stroke-width="0.8" stroke-linecap="round" stroke-linejoin="round" vector-effect="non-scaling-stroke"/><path d="M201.14 679.99 L201.14 687.99" fill="none" stroke="#111" stroke-width="0.8" stroke-linecap="round" stroke-linejoin="round" vector-effect="non-scaling-stroke"/><path d="M212.52 672.42 L222.52 672.42" fill="none" stroke="#111" stroke-width="0.8" stroke-linecap="round" stroke-linejoin="round" vector-effect="non-scaling-stroke"/><path d="M217.52 667.42 L217.52 677.42" fill="none" stroke="#111" stroke-width="0.8" stroke-linecap="round" stroke-linejoin="round" vector-effect="non-scaling-stroke"/><path d="M227.9 666.42 L239.9 666.42" fill="none" stroke="#111" stroke-width="0.8" stroke-linecap="round" stroke-linejoin="round" vector-effect="non-scaling-stroke"/><path d="M233.9 660.42 L233.9 672.42" fill="none" stroke="#111" stroke-width="0.8" stroke-linecap="round" stroke-linejoin="round" vector-effect="non-scaling-stroke"/><path d="M246.29 667.48 L254.29 667.48" fill="none" stroke="#111" stroke-width="0.8" stroke-linecap="round" stroke-linejoin="round" vector-effect="non-scaling-stroke"/><path d="M250.29 663.48 L250.29 671.48" fill="none" stroke="#111" stroke-width="0.8" stroke-linecap="round" stroke-linejoin="round" vector-effect="non-scaling-stroke"/><path d="M261.67 670.59 L271.67 670.59" fill="none" stroke="#111" stroke-width="0.8" stroke-linecap="round" stroke-linejoin="round" vector-effect="non-scaling-stroke"/><path d="M266.67 665.59 L266.67 675.59" fill="none" stroke="#111" stroke-width="0.8" stroke-linecap="round" stroke-linejoin="round" vector-effect="non-scaling-stroke"/><path d="M277.05 668.87 L289.05 668.87" fill="none" stroke="#111" stroke-width="0.8" stroke-linecap="round" stroke-linejoin="round" vector-effect="non-scaling-stroke"/><path d="M283.05 662.87 L283.05 674.87" fill="none" stroke="#111" stroke-width="0.8" stroke-linecap="round" stroke-linejoin="round" vector-effect="non-scaling-stroke"/><path d="M295.43 659.87 L303.43 659.87" fill="none" stroke="#111" stroke-width="0.8" stroke-linecap="round" stroke-linejoin="round" vector-effect="non-scaling-stroke"/><path d="M299.43 655.87 L299.43 663.87" fill="none" stroke="#111" stroke-width="0.8" stroke-linecap="round" stroke-linejoin="round" vector-effect="non-scaling-stroke"/><path d="M310.81 647.84 L320.81 647.84" fill="none" stroke="#111" stroke-width="0.8" stroke-linecap="round" stroke-linejoin="round" vector-effect="non-scaling-stroke"/><path d="M315.81 642.84 L315.81 652.84" fill="none" stroke="#111" stroke-width="0.8" stroke-linecap="round" stroke-linejoin="round" vector-effect="non-scaling-stroke"/><path d="M326.19 639.81 L338.19 639.81" fill="none" stroke="#111" stroke-width="0.8" stroke-linecap="round" stroke-linejoin="round" vector-effect="non-scaling-stroke"/><path d="M332.19 633.81 L332.19 645.81" fill="none" stroke="#111" stroke-width="0.8" stroke-linecap="round" stroke-linejoin="round" vector-effect="non-scaling-stroke"/><path d="M344.57 639.14 L352.57 639.14" fill="none" stroke="#111" stroke-width="0.8" stroke-linecap="round" stroke-linejoin="round" vector-effect="non-scaling-stroke"/><path d="M348.57 635.14 L348.57 643.14" fill="none" stroke="#111" stroke-width="0.8" stroke-linecap="round" stroke-linejoin="round" vector-effect="non-scaling-stroke"/><path d="M359.95 642.41 L369.95 642.41" fill="none" stroke="#111" stroke-width="0.8" stroke-linecap="round" stroke-linejoin="round" vector-effect="non-scaling-stroke"/><path d="M364.95 637.41 L364.95 647.41" fill="none" stroke="#111" stroke-width="0.8" stroke-linecap="round" stroke-linejoin="round" vector-effect="non-scaling-stroke"/><path d="M375.33 642.59 L387.33 642.59" fill="none" stroke="#111" stroke-width="0.8" stroke-linecap="round" stroke-linejoin="round" vector-effect="non-scaling-stroke"/><path d="M381.33 636.59 L381.33 648.59" fill="none" stroke="#111" stroke-width="0.8" stroke-linecap="round" stroke-linejoin="round" vector-effect="non-scaling-stroke"/><path d="M393.71 635.49 L401.71 635.49" fill="none" stroke="#111" stroke-width="0.8" stroke-linecap="round" stroke-linejoin="round" vector-effect="non-scaling-stroke"/><path d="M397.71 631.49 L397.71 639.49" fill="none" stroke="#111" stroke-width="0.8" stroke-linecap="round" stroke-linejoin="round" vector-effect="non-scaling-stroke"/><path d="M409.1 623.6 L419.1 623.6" fill="none" stroke="#111" stroke-width="0.8" stroke-linecap="round" stroke-linejoin="round" vector-effect="non-scaling-stroke"/><path d="M414.1 618.6 L414.1 628.6" fill="none" stroke="#111" stroke-width="0.8" stroke-linecap="round" stroke-linejoin="round" vector-effect="non-scaling-stroke"/><path d="M424.48 613.83 L436.48 613.83" fill="none" stroke="#111" stroke-width="0.8" stroke-linecap="round" stroke-linejoin="round" vector-effect="non-scaling-stroke"/><path d="M430.48 607.83 L430.48 619.83" fill="none" stroke="#111" stroke-width="0.8" stroke-linecap="round" stroke-linejoin="round" vector-effect="non-scaling-stroke"/><path d="M442.86 611.13 L450.86 611.13" fill="none" stroke="#111" stroke-width="0.8" stroke-linecap="round" stroke-linejoin="round" vector-effect="non-scaling-stroke"/><path d="M446.86 607.13 L446.86 615.13" fill="none" stroke="#111" stroke-width="0.8" stroke-linecap="round" stroke-linejoin="round" vector-effect="non-scaling-stroke"/><path d="M458.24 613.96 L468.24 613.96" fill="none" stroke="#111" stroke-width="0.8" stroke-linecap="round" stroke-linejoin="round" vector-effect="non-scaling-stroke"/><path d="M463.24 608.96 L463.24 618.96" fill="none" stroke="#111" stroke-width="0.8" stroke-linecap="round" stroke-linejoin="round" vector-effect="non-scaling-stroke"/><path d="M473.62 615.68 L485.62 615.68" fill="none" stroke="#111" stroke-width="0.8" stroke-linecap="round" stroke-linejoin="round" vector-effect="non-scaling-stroke"/><path d="M479.62 609.68 L479.62 621.68" fill="none" stroke="#111" stroke-width="0.8" stroke-linecap="round" stroke-linejoin="round" vector-effect="non-scaling-stroke"/><path d="M492 610.69 L500 610.69" fill="none" stroke="#111" stroke-width="0.8" stroke-linecap="round" stroke-linejoin="round" vector-effect="non-scaling-stroke"/><path d="M496 606.69 L496 614.69" fill="none" stroke="#111" stroke-width="0.8" stroke-linecap="round" stroke-linejoin="round" vector-effect="non-scaling-stroke"/></g></g>
</svg>