<svg xmlns="http://www.w3.org/2000/svg" viewBox="0 0 640 872">
  <rect width="100%" height="100%" fill="#fff"/>
  <g data-layer="panel_frame"><text x="22" y="42" font-family="Helvetica, Arial, sans-serif" font-size="20" letter-spacing=".04em" fill="#111">02 Black Spine</text><rect x="20" y="56" width="600" height="760" fill="#fff" stroke="#111" stroke-width="1.2"/></g>
  <g data-layer="sound_vector_engine"><g data-engine="black_spine"><path d="M308 722 L308 138" fill="none" stroke="#111" stroke-width="7.2" stroke-linecap="round" stroke-linejoin="round" vector-effect="non-scaling-stroke"/><path d="M308 138 L321.95 160.75 L294.05 160.75 Z" fill="#111" stroke="#111" stroke-width="0"/><path d="M116 628 L524 574" fill="none" stroke="#111" stroke-width="5.1" stroke-linecap="round" stroke-linejoin="round" vector-effect="non-scaling-stroke"/><path d="M524 574 L506.38 588.3 L503.27 564.78 Z" fill="#111" stroke="#111" stroke-width="0"/><path d="M158 544 L468 236" fill="none" stroke="#111" stroke-width="3.3" stroke-linecap="round" stroke-linejoin="round" vector-effect="non-scaling-stroke"/><path d="M468 236 L463.45 254.72 L449.25 240.43 Z" fill="#111" stroke="#111" stroke-width="0"/><g data-layer="bass_spine"><path d="M296.85 714.38 L296.16 712.08 L296.37 709.79 L298.4 707.56 L296.06 705.21 L296.03 702.93 L292.7 700.55 L293.84 698.29 L294.58 696.03 L296.5 693.79 L297.37 691.53 L298.03 689.26 L296.23 686.93 L296.34 684.65 L291.91 682.24 L290.54 679.91 L290.49 677.63 L291.3 675.36 L294.56 673.17 L294.98 670.89 L298.31 668.7 L300 666.46 L301.16 664.2 L300.78 661.9 L304.09 659.71 L303.6 657.41 L303.16 655.11 L301.53 652.78 L300.18 650.46 L299.89 648.16 L297.91 645.82 L301.33 643.63 L304.08 641.42 L307.11 639.22 L308.45 636.97 L308.01 634.67 L304.68 632.29 L301.83 629.93 L298.45 627.55 L294.37 625.15 L289.34 622.72 L287.86 620.4 L283.98 618 L279.59 615.6 L280.9 613.35 L281.65 611.08 L283 608.83 L284.91 606.6 L287.13 604.37 L286.79 602.08 L286.42 599.78 L282.09 597.38 L278.43 594.99 L275.82 592.63 L273.9 590.29 L274.37 588.02 L275.15 585.75 L278.97 583.57 L281.65 581.36 L285.36 579.18 L290.25 577.02 L294.6 574.86 L296.52 572.62 L299.41 570.42 L296.31 568.05 L293.97 565.7 L290.18 563.31 L285.7 560.9 L286.7 558.64 L286.55 556.35 L286.43 554.06 L287.84 551.81 L287.87 549.52 L286.86 547.21 L284.9 544.87 L285.72 542.61 L284.7 540.29 L282.04 537.93 L277.48 535.52 L275.07 533.17 L270.72 530.76 L266.16 528.35 L265.65 526.05 L266.44 523.79 L267.53 521.53 L270.45 519.32 L270.43 517.04 L271.95 514.79 L270.8 512.48 L271.39 510.21 L273.23 507.97 L275.01 505.73 L276.51 503.49 L279.04 501.27 L280.16 499.02 L281.93 496.78 L284.66 494.57 L286.43 492.33 L288.01 490.09 L291.3 487.89 L293.07 485.65 L293.21 483.37 L292.97 481.08 L290.11 478.71 L287.62 476.36 L287.71 474.07 L289.26 471.83 L290.84 469.59 L293.84 467.38 L294.78 465.12 L296.13 462.87 L295.56 460.57 L293.95 458.24 L290.11 455.85 L288.26 453.51 L287.67 451.21 L283.59 448.81 L284.83 446.56 L284.45 444.26 L284.11 441.97 L289.37 439.83 L292.21 437.62 L298.88 435.51 L301.93 433.31 L305.23 431.12 L305.39 428.83 L304.52 426.52 L304.54 424.24 L304.53 421.95 L304.31 419.66 L303.76 417.36 L305.66 415.12 L306.37 412.86 L309.25 410.65 L312.04 408.44 L315.9 406.26 L316.13 403.98 L315.74 401.68 L315.41 399.39 L315.16 397.1 L313.66 394.77 L305.09 392.25 L301.66 389.87 L297.9 387.48 L296.92 385.16 L295.24 382.83 L294.83 380.53 L297.03 378.31 L296.52 376.01 L295.32 373.69 L296.83 371.44 L297.02 369.16 L296.53 366.86 L294.87 364.53 L292.8 362.19 L290.16 359.83 L288.41 357.49 L288.75 355.22 L292.29 353.03 L296.89 350.87 L300.24 348.67 L302.71 346.46 L307.96 344.31 L309.52 342.07 L309.3 339.78 L310.99 337.54 L309.75 335.22 L310.67 332.96 L311.94 330.71 L310.14 328.37 L310 326.08 L310.51 323.81 L308.11 321.46 L309.84 319.22 L309.12 316.91 L308.4 314.61 L303.18 312.18 L300.83 309.82 L293.67 307.34 L289.3 304.94 L285.09 302.53 L284.82 300.24 L284.55 297.95 L282.5 295.6 L281.34 293.29 L280.72 290.98 L279.48 288.66 L278.23 286.34 L276.92 284.02 L272.91 281.62 L271.12 279.29 L270.17 276.97 L268.38 274.64 L270.14 272.4 L270.68 270.13 L274.75 267.96 L279.09 265.79 L283.75 263.63 L289.29 261.5 L291.89 259.28 L294.01 257.05 L291.63 254.7 L291.34 252.41 L292.34 250.15 L291.45 247.84 L289.03 245.49 L288.46 243.18 L290.35 240.95 L292.68 238.73 L293.66 236.47 L296.89 234.27 L301.45 232.11 L303.31 229.87 L303.87 227.6 L301.19 225.24 L297.48 222.86 L292.56 220.43 L285.99 217.97 L285.99 215.68 L284.42 213.35 L282.95 211.03 L284.38 208.78 L288.39 206.6 L290.76 204.38 L293.26 202.16 L297.04 199.98 L297.49 197.71 L299.58 195.48 L296.63 193.11 L297.06 190.84 L293.83 188.46 L293.15 186.16 L293.59 183.88 L294.73 181.63 L297.96 179.43 L300.48 177.21 L305.75 175.07 L307.03 172.82 L307.4 170.54 L308.19 168.28" fill="none" stroke="#111" stroke-width="1.35" stroke-linecap="round" stroke-linejoin="round" vector-effect="non-scaling-stroke"/><path d="M301.37 714.29 L300.85 712 L301.16 709.72 L303.14 707.48 L301.06 705.14 L301.1 702.86 L298.06 700.51 L299.16 698.25 L299.85 695.98 L301.63 693.73 L302.41 691.46 L302.98 689.19 L301.25 686.86 L301.26 684.58 L297.06 682.2 L295.67 679.88 L295.5 677.59 L296.11 675.32 L298.99 673.1 L299.23 670.82 L302.17 668.6 L303.57 666.34 L304.49 664.08 L303.99 661.78 L306.91 659.56 L306.31 657.26 L305.77 654.96 L304.14 652.64 L302.78 650.33 L302.42 648.03 L300.52 645.71 L303.64 643.49 L306.15 641.26 L308.96 639.04 L310.21 636.78 L309.83 634.48 L306.78 632.13 L304.19 629.79 L301.13 627.43 L297.44 625.07 L292.88 622.68 L291.63 620.37 L288.15 618.01 L284.21 615.63 L285.56 613.38 L286.4 611.11 L287.8 608.86 L289.71 606.61 L291.91 604.38 L291.72 602.09 L291.5 599.8 L287.58 597.42 L284.27 595.07 L281.92 592.73 L280.2 590.4 L280.67 588.13 L281.42 585.86 L284.97 583.65 L287.43 581.42 L290.84 579.21 L295.32 577.02 L299.29 574.83 L300.98 572.58 L303.55 570.35 L300.55 568 L298.24 565.66 L294.58 563.29 L290.26 560.91 L291.04 558.64 L290.74 556.35 L290.47 554.06 L291.62 551.8 L291.49 549.51 L290.42 547.2 L288.46 544.87 L289.1 542.6 L288.04 540.29 L285.48 537.95 L281.17 535.57 L278.87 533.24 L274.79 530.86 L270.54 528.48 L270.06 526.18 L270.82 523.92 L271.87 521.65 L274.64 519.43 L274.7 517.14 L276.2 514.89 L275.24 512.58 L275.9 510.31 L277.74 508.07 L279.52 505.82 L281.06 503.57 L283.55 501.34 L284.74 499.08 L286.52 496.83 L289.19 494.61 L290.97 492.36 L292.55 490.11 L295.72 487.89 L297.45 485.65 L297.66 483.36 L297.5 481.08 L294.89 478.73 L292.6 476.4 L292.69 474.11 L294.12 471.86 L295.55 469.6 L298.28 467.38 L299.08 465.11 L300.25 462.85 L299.62 460.55 L298.01 458.23 L294.31 455.86 L292.45 453.54 L291.75 451.24 L287.81 448.86 L288.79 446.6 L288.29 444.3 L287.81 442.01 L292.54 439.83 L295.03 437.59 L301.09 435.44 L303.8 433.22 L306.75 430.99 L306.8 428.71 L305.91 426.41 L305.86 424.12 L305.82 421.83 L305.58 419.54 L305.07 417.24 L306.84 415 L307.54 412.73 L310.26 410.5 L312.92 408.27 L316.6 406.07 L316.91 403.79 L316.66 401.5 L316.48 399.21 L316.38 396.92 L315.12 394.61 L307.31 392.15 L304.27 389.8 L300.92 387.44 L300.15 385.14 L298.72 382.82 L298.46 380.53 L300.62 378.29 L300.24 376 L299.21 373.69 L300.68 371.44 L300.9 369.15 L300.48 366.86 L298.95 364.54 L297.02 362.21 L294.54 359.87 L292.87 357.55 L293.12 355.27 L296.32 353.05 L300.5 350.86 L303.49 348.64 L305.65 346.4 L310.39 344.22 L311.69 341.96 L311.33 339.67 L312.74 337.42 L311.43 335.1 L312.13 332.83 L313.15 330.57 L311.33 328.24 L311.07 325.95 L311.41 323.67 L309.06 321.34 L310.57 319.08 L309.81 316.78 L309.07 314.48 L304.18 312.09 L301.97 309.75 L295.3 307.32 L291.26 304.95 L287.38 302.57 L287.17 300.28 L286.99 297.99 L285.17 295.67 L284.19 293.36 L283.72 291.07 L282.69 288.76 L281.66 286.45 L280.58 284.14 L276.99 281.78 L275.47 279.46 L274.73 277.15 L273.22 274.84 L274.99 272.59 L275.61 270.32 L279.5 268.12 L283.64 265.92 L288.05 263.73 L293.27 261.56 L295.74 259.33 L297.74 257.09 L295.55 254.76 L295.28 252.46 L296.19 250.2 L295.31 247.89 L293.01 245.56 L292.4 243.26 L294.06 241.01 L296.12 238.77 L296.9 236.5 L299.77 234.28 L303.85 232.08 L305.43 229.83 L305.79 227.55 L303.14 225.21 L299.53 222.84 L294.81 220.46 L288.56 218.03 L288.41 215.74 L286.83 213.42 L285.34 211.1 L286.56 208.85 L290.2 206.64 L292.32 204.4 L294.59 202.17 L298.07 199.96 L298.47 197.68 L300.4 195.44 L297.69 193.09 L298.13 190.82 L295.19 188.46 L294.64 186.17 L295.14 183.89 L296.31 181.63 L299.42 179.42 L301.9 177.18 L306.92 175.01 L308.25 172.75 L308.74 170.48 L309.62 168.21" fill="none" stroke="#111" stroke-width="1.35" stroke-linecap="round" stroke-linejoin="round" vector-effect="non-scaling-stroke"/><path d="M306.03 714.21 L305.64 711.92 L306.01 709.64 L307.9 707.39 L306.03 705.07 L306.1 702.79 L303.31 700.46 L304.31 698.19 L304.93 695.92 L306.54 693.66 L307.2 691.38 L307.65 689.1 L305.96 686.79 L305.87 684.51 L301.87 682.15 L300.46 679.85 L300.17 677.56 L300.59 675.28 L303.1 673.03 L303.17 670.75 L305.73 668.51 L306.89 666.24 L307.6 663.97 L307 661.67 L309.57 659.43 L308.91 657.13 L308.31 654.84 L306.72 652.53 L305.4 650.22 L305.02 647.93 L303.22 645.61 L306.09 643.38 L308.42 641.13 L311.03 638.89 L312.22 636.62 L311.92 634.33 L309.18 632 L306.87 629.68 L304.15 627.35 L300.85 625.01 L296.75 622.66 L295.72 620.35 L292.64 618.02 L289.13 615.68 L290.52 613.41 L291.42 611.14 L292.84 608.88 L294.71 606.63 L296.85 604.38 L296.78 602.09 L296.65 599.8 L293.1 597.46 L290.1 595.12 L287.97 592.8 L286.39 590.49 L286.83 588.22 L287.5 585.94 L290.74 583.71 L292.97 581.46 L296.04 579.23 L300.09 577.01 L303.66 574.78 L305.1 572.52 L307.35 570.27 L304.45 567.94 L302.17 565.62 L298.65 563.27 L294.52 560.92 L295.08 558.64 L294.66 556.35 L294.27 554.06 L295.2 551.79 L294.96 549.5 L293.85 547.2 L291.94 544.88 L292.44 542.61 L291.39 540.3 L288.97 537.98 L284.95 535.63 L282.81 533.31 L279.04 530.96 L275.13 528.61 L274.73 526.32 L275.47 524.04 L276.51 521.78 L279.15 519.53 L279.29 517.25 L280.79 514.99 L280.01 512.69 L280.75 510.42 L282.58 508.17 L284.35 505.91 L285.9 503.65 L288.33 501.41 L289.55 499.14 L291.32 496.88 L293.89 494.64 L295.63 492.38 L297.18 490.13 L300.18 487.89 L301.84 485.63 L302.07 483.35 L301.95 481.06 L299.54 478.74 L297.41 476.42 L297.47 474.13 L298.74 471.87 L299.99 469.61 L302.43 467.36 L303.08 465.09 L304.04 462.82 L303.34 460.52 L301.72 458.21 L298.17 455.86 L296.31 453.55 L295.51 451.25 L291.73 448.9 L292.49 446.63 L291.88 444.34 L291.3 442.04 L295.54 439.83 L297.72 437.58 L303.2 435.38 L305.61 433.14 L308.26 430.89 L308.24 428.61 L307.38 426.31 L307.31 424.02 L307.26 421.74 L307.05 419.45 L306.61 417.16 L308.29 414.9 L309 412.63 L311.59 410.38 L314.14 408.14 L317.63 405.91 L318.03 403.63 L317.92 401.35 L317.88 399.06 L317.92 396.78 L316.89 394.47 L309.81 392.07 L307.13 389.74 L304.16 387.41 L303.56 385.11 L302.34 382.81 L302.19 380.52 L304.26 378.27 L303.98 375.98 L303.07 373.68 L304.46 371.42 L304.67 369.14 L304.28 366.84 L302.84 364.54 L301.01 362.22 L298.66 359.9 L297.04 357.58 L297.18 355.3 L300.03 353.06 L303.77 350.84 L306.4 348.6 L308.26 346.34 L312.49 344.13 L313.54 341.86 L313.07 339.57 L314.22 337.3 L312.87 334.99 L313.37 332.72 L314.18 330.45 L312.38 328.13 L312.03 325.84 L312.24 323.56 L309.99 321.24 L311.32 318.97 L310.57 316.68 L309.86 314.38 L305.33 312.02 L303.29 309.7 L297.16 307.31 L293.47 304.97 L289.95 302.62 L289.83 300.34 L289.75 298.05 L288.17 295.74 L287.37 293.44 L287.05 291.15 L286.23 288.85 L285.41 286.55 L284.55 284.25 L281.37 281.92 L280.09 279.61 L279.53 277.32 L278.25 275.01 L279.98 272.75 L280.66 270.48 L284.33 268.25 L288.21 266.03 L292.34 263.82 L297.19 261.61 L299.49 259.36 L301.33 257.11 L299.29 254.79 L299 252.5 L299.78 250.23 L298.9 247.93 L296.69 245.61 L296.02 243.31 L297.44 241.05 L299.21 238.79 L299.8 236.52 L302.3 234.27 L305.93 232.05 L307.23 229.79 L307.42 227.5 L304.83 225.18 L301.36 222.83 L296.86 220.47 L290.97 218.09 L290.72 215.8 L289.15 213.49 L287.7 211.18 L288.75 208.91 L292.06 206.68 L293.98 204.43 L296.06 202.18 L299.27 199.95 L299.66 197.67 L301.48 195.41 L299.03 193.09 L299.5 190.81 L296.88 188.48 L296.46 186.19 L297.03 183.91 L298.22 181.65 L301.22 179.41 L303.64 177.17 L308.4 174.96 L309.77 172.7 L310.35 170.42 L311.28 168.15" fill="none" stroke="#111" stroke-width="1.35" stroke-linecap="round" stroke-linejoin="round" vector-effect="non-scaling-stroke"/><path d="M310.74 714.14 L310.45 711.85 L310.83 709.57 L312.6 707.31 L310.89 705 L310.95 702.72 L308.37 700.41 L309.25 698.13 L309.77 695.85 L311.17 693.58 L311.69 691.3 L312.01 689.02 L310.35 686.72 L310.15 684.43 L306.36 682.1 L304.94 679.8 L304.53 677.52 L304.78 675.23 L306.95 672.97 L306.88 670.69 L309.1 668.43 L310.03 666.15 L310.57 663.87 L309.91 661.58 L312.18 659.32 L311.49 657.03 L310.87 654.74 L309.37 652.44 L308.12 650.14 L307.76 647.85 L306.11 645.55 L308.76 643.29 L310.92 641.03 L313.36 638.77 L314.52 636.5 L314.32 634.21 L311.89 631.9 L309.88 629.59 L307.48 627.28 L304.57 624.97 L300.93 622.64 L300.11 620.35 L297.4 618.03 L294.3 615.71 L295.68 613.44 L296.62 611.17 L298.01 608.9 L299.82 606.63 L301.86 604.37 L301.85 602.09 L301.79 599.8 L298.57 597.48 L295.83 595.17 L293.88 592.86 L292.42 590.56 L292.78 588.28 L293.35 586 L296.26 583.75 L298.22 581.48 L300.94 579.23 L304.55 576.98 L307.7 574.73 L308.9 572.46 L310.84 570.2 L308.04 567.88 L305.82 565.57 L302.45 563.25 L298.53 560.92 L298.91 558.64 L298.4 556.35 L297.92 554.06 L298.67 551.79 L298.35 549.5 L297.25 547.2 L295.43 544.9 L295.83 542.62 L294.83 540.32 L292.59 538.01 L288.9 535.69 L286.95 533.38 L283.52 531.06 L279.99 528.73 L279.67 526.45 L280.43 524.17 L281.46 521.9 L283.98 519.64 L284.21 517.36 L285.69 515.09 L285.1 512.8 L285.9 510.52 L287.69 508.26 L289.43 505.99 L290.97 503.72 L293.3 501.46 L294.52 499.19 L296.23 496.93 L298.67 494.67 L300.33 492.4 L301.8 490.13 L304.59 487.88 L306.13 485.61 L306.35 483.33 L306.23 481.04 L303.99 478.73 L302 476.43 L301.99 474.14 L303.08 471.87 L304.14 469.59 L306.27 467.33 L306.75 465.05 L307.52 462.78 L306.74 460.48 L305.12 458.18 L301.73 455.86 L299.88 453.55 L299.02 451.26 L295.42 448.94 L295.99 446.66 L295.31 444.36 L294.67 442.07 L298.45 439.83 L300.36 437.57 L305.32 435.34 L307.47 433.07 L309.86 430.82 L309.81 428.53 L309.01 426.24 L308.95 423.95 L308.93 421.67 L308.78 419.38 L308.43 417.09 L310.04 414.82 L310.77 412.55 L313.23 410.29 L315.67 408.03 L318.98 405.78 L319.47 403.5 L319.48 401.22 L319.57 398.94 L319.72 396.65 L318.89 394.36 L312.51 392 L310.15 389.69 L307.52 387.38 L307.06 385.09 L306.01 382.79 L305.93 380.51 L307.87 378.24 L307.63 375.96 L306.81 373.66 L308.08 371.39 L308.25 369.11 L307.85 366.82 L306.47 364.52 L304.73 362.22 L302.49 359.91 L300.91 357.6 L300.92 355.32 L303.42 353.06 L306.72 350.81 L309 348.55 L310.57 346.29 L314.31 344.04 L315.13 341.77 L314.56 339.48 L315.49 337.2 L314.13 334.9 L314.47 332.62 L315.12 330.34 L313.37 328.04 L312.97 325.75 L313.1 323.47 L311 321.16 L312.19 318.89 L311.49 316.59 L310.83 314.3 L306.7 311.97 L304.87 309.67 L299.3 307.32 L295.98 305 L292.82 302.68 L292.81 300.4 L292.83 298.11 L291.48 295.81 L290.87 293.52 L290.7 291.23 L290.06 288.94 L289.43 286.65 L288.75 284.36 L285.95 282.04 L284.88 279.74 L284.46 277.46 L283.37 275.16 L285.04 272.89 L285.72 270.61 L289.13 268.37 L292.72 266.12 L296.52 263.88 L300.96 261.64 L303.05 259.38 L304.71 257.11 L302.78 254.81 L302.45 252.52 L303.08 250.24 L302.19 247.95 L300.05 245.64 L299.32 243.35 L300.5 241.07 L301.99 238.81 L302.4 236.53 L304.55 234.27 L307.74 232.02 L308.8 229.74 L308.84 227.46 L306.34 225.15 L303.04 222.82 L298.81 220.49 L293.32 218.15 L293.01 215.86 L291.5 213.56 L290.12 211.26 L291.04 208.98 L294.06 206.73 L295.82 204.47 L297.74 202.2 L300.71 199.95 L301.11 197.67 L302.85 195.4 L300.67 193.1 L301.19 190.82 L298.88 188.51 L298.6 186.22 L299.24 183.94 L300.45 181.67 L303.32 179.42 L305.65 177.16 L310.14 174.92 L311.5 172.65 L312.14 170.37 L313.09 168.1" fill="none" stroke="#111" stroke-width="1.35" stroke-linecap="round" stroke-linejoin="round" vector-effect="non-scaling-stroke"/><path d="M315.42 714.07 L315.18 711.78 L315.54 709.5 L317.14 707.22 L315.57 704.93 L315.58 702.65 L313.19 700.35 L313.93 698.07 L314.32 695.79 L315.51 693.51 L315.88 691.22 L316.06 688.94 L314.45 686.65 L314.14 684.36 L310.57 682.06 L309.15 679.76 L308.65 677.48 L308.75 675.19 L310.6 672.92 L310.42 670.63 L312.33 668.36 L313.09 666.08 L313.49 663.8 L312.81 661.51 L314.81 659.23 L314.14 656.95 L313.55 654.66 L312.16 652.37 L311.02 650.08 L310.7 647.79 L309.24 645.5 L311.68 643.23 L313.7 640.95 L315.99 638.68 L317.11 636.4 L317.02 634.12 L314.91 631.82 L313.17 629.53 L311.1 627.23 L308.56 624.93 L305.36 622.63 L304.71 620.34 L302.36 618.04 L299.64 615.74 L300.98 613.47 L301.9 611.19 L303.24 608.91 L304.94 606.64 L306.84 604.36 L306.86 602.08 L306.82 599.79 L303.89 597.49 L301.38 595.19 L299.58 592.9 L298.21 590.61 L298.48 588.32 L298.93 586.04 L301.48 583.77 L303.17 581.49 L305.54 579.22 L308.71 576.96 L311.45 574.69 L312.42 572.41 L314.05 570.13 L311.38 567.83 L309.24 565.54 L306.05 563.23 L302.37 560.93 L302.61 558.65 L302.04 556.36 L301.52 554.07 L302.12 551.79 L301.76 549.5 L300.71 547.21 L299.02 544.92 L299.36 542.64 L298.45 540.35 L296.42 538.05 L293.09 535.75 L291.35 533.45 L288.28 531.15 L285.13 528.85 L284.92 526.56 L285.69 524.28 L286.72 522.01 L289.1 519.73 L289.42 517.45 L290.87 515.17 L290.44 512.89 L291.27 510.61 L293 508.33 L294.69 506.06 L296.17 503.78 L298.37 501.51 L299.55 499.23 L301.17 496.95 L303.43 494.68 L304.98 492.41 L306.33 490.13 L308.87 487.86 L310.26 485.58 L310.43 483.3 L310.28 481.01 L308.19 478.72 L306.31 476.42 L306.22 474.14 L307.12 471.86 L307.98 469.58 L309.81 467.3 L310.13 465.02 L310.7 462.74 L309.87 460.45 L308.27 458.16 L305.06 455.85 L303.26 453.56 L302.35 451.27 L298.97 448.97 L299.38 446.68 L298.67 444.39 L298.01 442.11 L301.38 439.84 L303.06 437.57 L307.52 435.31 L309.45 433.03 L311.61 430.76 L311.57 428.47 L310.86 426.19 L310.84 423.9 L310.87 421.62 L310.79 419.33 L310.54 417.05 L312.09 414.77 L312.84 412.49 L315.18 410.22 L317.5 407.94 L320.61 405.68 L321.16 403.4 L321.28 401.11 L321.46 398.83 L321.69 396.55 L321.04 394.26 L315.32 391.94 L313.25 389.64 L310.92 387.35 L310.55 385.06 L309.63 382.77 L309.58 380.49 L311.36 378.21 L311.13 375.93 L310.37 373.64 L311.48 371.36 L311.59 369.07 L311.16 366.79 L309.83 364.5 L308.15 362.2 L306.01 359.91 L304.47 357.61 L304.37 355.33 L306.51 353.05 L309.38 350.79 L311.33 348.51 L312.63 346.23 L315.91 343.97 L316.54 341.69 L315.91 339.4 L316.64 337.12 L315.31 334.83 L315.54 332.54 L316.05 330.26 L314.4 327.97 L313.99 325.68 L314.08 323.4 L312.15 321.1 L313.23 318.82 L312.61 316.53 L312.05 314.25 L308.33 311.94 L306.72 309.65 L301.72 307.34 L298.78 305.04 L296.01 302.74 L296.08 300.45 L296.2 298.17 L295.09 295.88 L294.63 293.59 L294.58 291.31 L294.11 289.02 L293.63 286.73 L293.11 284.44 L290.65 282.15 L289.76 279.86 L289.45 277.57 L288.51 275.28 L290.07 273 L290.71 270.72 L293.83 268.45 L297.08 266.19 L300.52 263.92 L304.53 261.66 L306.38 259.39 L307.82 257.11 L306 254.81 L305.61 252.53 L306.09 250.25 L305.16 247.96 L303.11 245.66 L302.33 243.37 L303.27 241.09 L304.5 238.81 L304.74 236.53 L306.58 234.26 L309.35 231.99 L310.2 229.71 L310.13 227.42 L307.76 225.12 L304.67 222.82 L300.75 220.52 L295.69 218.2 L295.36 215.92 L293.96 213.63 L292.67 211.33 L293.51 209.05 L296.27 206.78 L297.89 204.51 L299.67 202.23 L302.43 199.96 L302.86 197.68 L304.51 195.41 L302.62 193.11 L303.19 190.83 L301.18 188.53 L301.03 186.25 L301.72 183.97 L302.92 181.69 L305.63 179.42 L307.86 177.15 L312.03 174.89 L313.36 172.61 L314.02 170.33 L314.96 168.05" fill="none" stroke="#111" stroke-width="1.35" stroke-linecap="round" stroke-linejoin="round" vector-effect="non-scaling-stroke"/><path d="M319.98 714 L319.76 711.72 L320.06 709.43 L321.47 707.15 L320.01 704.86 L319.97 702.58 L317.74 700.29 L318.33 698.01 L318.59 695.72 L319.56 693.44 L319.79 691.15 L319.84 688.87 L318.27 686.59 L317.88 684.3 L314.55 682.02 L313.16 679.73 L312.6 677.45 L312.59 675.16 L314.15 672.88 L313.9 670.59 L315.54 668.31 L316.14 666.03 L316.45 663.74 L315.8 661.46 L317.56 659.17 L316.93 656.89 L316.4 654.6 L315.16 652.32 L314.15 650.03 L313.9 647.75 L312.62 645.46 L314.88 643.18 L316.77 640.9 L318.9 638.61 L320 636.33 L320 634.04 L318.19 631.76 L316.72 629.47 L314.95 627.19 L312.76 624.9 L309.96 622.62 L309.47 620.33 L307.42 618.05 L305.04 615.77 L306.31 613.48 L307.19 611.2 L308.44 608.91 L309.99 606.63 L311.71 604.34 L311.73 602.06 L311.67 599.77 L309.01 597.49 L306.71 595.21 L305.04 592.92 L303.73 590.64 L303.9 588.35 L304.22 586.07 L306.42 583.78 L307.83 581.5 L309.86 579.21 L312.6 576.93 L314.95 574.64 L315.71 572.36 L317.06 570.08 L314.55 567.79 L312.51 565.51 L309.54 563.22 L306.13 560.94 L306.26 558.65 L305.68 556.37 L305.15 554.08 L305.63 551.8 L305.28 549.51 L304.31 547.23 L302.77 544.95 L303.09 542.66 L302.28 540.38 L300.48 538.09 L297.53 535.81 L296.02 533.52 L293.32 531.24 L290.56 528.95 L290.45 526.67 L291.23 524.38 L292.25 522.1 L294.49 519.82 L294.87 517.53 L296.26 515.25 L295.97 512.96 L296.8 510.68 L298.43 508.39 L300.02 506.11 L301.42 503.82 L303.46 501.54 L304.56 499.26 L306.04 496.97 L308.09 494.69 L309.49 492.4 L310.7 490.12 L312.96 487.83 L314.17 485.55 L314.28 483.26 L314.08 480.98 L312.12 478.69 L310.34 476.41 L310.17 474.13 L310.87 471.84 L311.54 469.56 L313.07 467.27 L313.24 464.99 L313.64 462.7 L312.78 460.42 L311.23 458.13 L308.23 455.85 L306.51 453.56 L305.6 451.28 L302.46 449 L302.76 446.71 L302.05 444.43 L301.4 442.14 L304.4 439.86 L305.88 437.57 L309.88 435.29 L311.62 433 L313.58 430.72 L313.57 428.44 L312.97 426.15 L313 423.87 L313.09 421.58 L313.09 419.3 L312.94 417.01 L314.42 414.73 L315.18 412.44 L317.38 410.16 L319.56 407.87 L322.46 405.59 L323.04 403.31 L323.24 401.02 L323.48 398.74 L323.77 396.45 L323.24 394.17 L318.15 391.88 L316.33 389.6 L314.27 387.31 L313.95 385.03 L313.13 382.74 L313.08 380.46 L314.66 378.18 L314.42 375.89 L313.69 373.61 L314.63 371.32 L314.65 369.04 L314.18 366.75 L312.9 364.47 L311.29 362.18 L309.26 359.9 L307.75 357.62 L307.55 355.33 L309.36 353.05 L311.83 350.76 L313.47 348.48 L314.53 346.19 L317.38 343.91 L317.85 341.62 L317.19 339.34 L317.77 337.05 L316.5 334.77 L316.65 332.49 L317.06 330.2 L315.55 327.92 L315.17 325.63 L315.24 323.35 L313.51 321.06 L314.51 318.78 L313.99 316.49 L313.52 314.21 L310.24 311.92 L308.86 309.64 L304.44 307.36 L301.87 305.07 L299.46 302.79 L299.62 300.5 L299.82 298.22 L298.91 295.93 L298.6 293.65 L298.64 291.36 L298.3 289.08 L297.94 286.79 L297.55 284.51 L295.39 282.23 L294.63 279.94 L294.39 277.66 L293.57 275.37 L294.98 273.09 L295.55 270.8 L298.34 268.52 L301.25 266.23 L304.29 263.95 L307.84 261.67 L309.44 259.38 L310.66 257.1 L308.93 254.81 L308.49 252.53 L308.81 250.24 L307.87 247.96 L305.9 245.67 L305.09 243.39 L305.82 241.1 L306.81 238.82 L306.92 236.54 L308.46 234.25 L310.86 231.97 L311.53 229.68 L311.38 227.4 L309.18 225.11 L306.34 222.83 L302.76 220.54 L298.17 218.26 L297.85 215.97 L296.58 213.69 L295.44 211.41 L296.21 209.12 L298.72 206.84 L300.22 204.55 L301.89 202.27 L304.43 199.98 L304.89 197.7 L306.46 195.41 L304.84 193.13 L305.44 190.85 L303.73 188.56 L303.69 186.28 L304.4 183.99 L305.58 181.71 L308.1 179.42 L310.18 177.14 L314.01 174.85 L315.26 172.57 L315.91 170.28 L316.79 168" fill="none" stroke="#111" stroke-width="6.5" stroke-linecap="round" stroke-linejoin="round" vector-effect="non-scaling-stroke"/><path d="M327.2 713.92 L326.92 711.64 L327.21 709.35 L328.71 707.06 L327.01 704.78 L326.88 702.5 L324.31 700.23 L324.85 697.94 L325.02 695.66 L325.98 693.37 L326.11 691.08 L326.03 688.8 L324.16 686.52 L323.6 684.24 L319.77 681.98 L318.11 679.7 L317.38 677.42 L317.26 675.14 L318.91 672.84 L318.55 670.56 L320.3 668.27 L320.92 665.98 L321.22 663.69 L320.48 661.41 L322.43 659.12 L321.74 656.84 L321.17 654.56 L319.82 652.28 L318.76 650 L318.54 647.72 L317.19 645.44 L319.79 643.14 L321.97 640.84 L324.44 638.55 L325.76 636.25 L325.86 633.97 L323.95 631.69 L322.43 629.42 L320.56 627.14 L318.22 624.87 L315.2 622.6 L314.72 620.32 L312.52 618.05 L309.93 615.78 L311.38 613.49 L312.39 611.2 L313.79 608.9 L315.52 606.61 L317.41 604.32 L317.4 602.03 L317.3 599.75 L314.28 597.48 L311.66 595.21 L309.71 592.93 L308.16 590.66 L308.24 588.37 L308.48 586.09 L310.8 583.79 L312.25 581.5 L314.37 579.2 L317.28 576.9 L319.77 574.6 L320.49 572.31 L321.87 570.02 L318.96 567.75 L316.59 565.48 L313.2 563.22 L309.33 560.95 L309.41 558.67 L308.7 556.39 L308.07 554.11 L308.58 551.82 L308.17 549.54 L307.1 547.26 L305.41 544.98 L305.8 542.7 L304.95 540.42 L303.01 538.14 L299.79 535.87 L298.2 533.6 L295.29 531.33 L292.31 529.06 L292.29 526.78 L293.26 524.49 L294.5 522.2 L297.09 519.9 L297.61 517.61 L299.26 515.32 L299.02 513.03 L300.02 510.74 L301.91 508.45 L303.73 506.15 L305.33 503.86 L307.63 501.56 L308.88 499.27 L310.53 496.98 L312.8 494.68 L314.32 492.39 L315.62 490.1 L318.08 487.8 L319.36 485.51 L319.39 483.22 L319.07 480.94 L316.8 478.67 L314.71 476.39 L314.4 474.11 L315.06 471.82 L315.67 469.53 L317.24 467.24 L317.3 464.96 L317.62 462.67 L316.54 460.39 L314.7 458.12 L311.26 455.85 L309.25 453.58 L308.15 451.3 L304.6 449.03 L304.87 446.75 L304.04 444.47 L303.28 442.19 L306.59 439.88 L308.24 437.59 L312.7 435.28 L314.66 432.99 L316.88 430.69 L316.92 428.4 L316.33 426.12 L316.44 423.84 L316.62 421.55 L316.71 419.27 L316.65 416.98 L318.39 414.69 L319.35 412.4 L321.89 410.1 L324.42 407.8 L327.73 405.5 L328.47 403.21 L328.77 400.92 L329.11 398.64 L329.49 396.35 L328.96 394.07 L323.34 391.82 L321.34 389.54 L319.06 387.27 L318.71 384.99 L317.77 382.71 L317.68 380.42 L319.38 378.13 L319.05 375.85 L318.15 373.57 L319.11 371.28 L319.04 368.99 L318.4 366.71 L316.86 364.44 L314.94 362.16 L312.56 359.89 L310.76 357.62 L310.41 355.33 L312.29 353.04 L314.92 350.74 L316.62 348.45 L317.69 346.16 L320.75 343.85 L321.18 341.57 L320.37 339.29 L320.95 337 L319.49 334.72 L319.62 332.44 L320.06 330.15 L318.38 327.88 L317.96 325.59 L318.07 323.31 L316.19 321.03 L317.34 318.74 L316.83 316.46 L316.39 314.18 L312.82 311.91 L311.38 309.64 L306.57 307.38 L303.82 305.11 L301.24 302.84 L301.53 300.55 L301.85 298.27 L300.94 295.99 L300.68 293.7 L300.81 291.42 L300.51 289.14 L300.18 286.85 L299.79 284.57 L297.44 282.3 L296.62 280.02 L296.36 277.74 L295.45 275.46 L297 273.16 L297.61 270.87 L300.66 268.57 L303.82 266.27 L307.13 263.97 L310.99 261.66 L312.67 259.37 L313.92 257.08 L311.88 254.8 L311.26 252.52 L311.5 250.24 L310.32 247.96 L308.01 245.69 L306.97 243.41 L307.66 241.12 L308.65 238.83 L308.65 236.55 L310.26 234.25 L312.83 231.95 L313.5 229.66 L313.27 227.38 L310.76 225.11 L307.57 222.84 L303.57 220.58 L298.46 218.32 L298.11 216.04 L296.72 213.76 L295.48 211.49 L296.39 209.2 L299.24 206.9 L300.98 204.6 L302.91 202.31 L305.83 200.01 L306.43 197.72 L308.28 195.42 L306.59 193.15 L307.36 190.86 L305.56 188.59 L305.62 186.3 L306.49 184.01 L307.89 181.72 L310.77 179.42 L313.15 177.12 L317.46 174.81 L318.9 172.52 L319.65 170.23 L320.65 167.94" fill="none" stroke="#111" stroke-width="1.35" stroke-linecap="round" stroke-linejoin="round" vector-effect="non-scaling-stroke"/><path d="M334.54 713.82 L334.16 711.54 L334.4 709.25 L335.96 706.95 L333.98 704.69 L333.72 702.4 L330.77 700.15 L331.23 697.86 L331.28 695.58 L332.2 693.28 L332.2 691 L331.98 688.71 L329.79 686.45 L329.04 684.18 L324.72 681.94 L322.77 679.68 L321.87 677.4 L321.65 675.12 L323.4 672.81 L322.95 670.53 L324.83 668.23 L325.49 665.94 L325.81 663.65 L325 661.37 L327.18 659.06 L326.46 656.79 L325.88 654.51 L324.48 652.24 L323.39 649.97 L323.24 647.68 L321.86 645.41 L324.82 643.1 L327.33 640.78 L330.17 638.47 L331.73 636.17 L331.97 633.88 L329.98 631.62 L328.41 629.35 L326.45 627.08 L323.96 624.83 L320.72 622.58 L320.26 620.3 L317.89 618.04 L315.08 615.79 L316.7 613.48 L317.81 611.19 L319.34 608.88 L321.21 606.58 L323.24 604.27 L323.17 601.99 L322.98 599.71 L319.57 597.46 L316.58 595.21 L314.32 592.95 L312.5 590.68 L312.46 588.4 L312.58 586.11 L315 583.8 L316.45 581.5 L318.64 579.19 L321.71 576.87 L324.32 574.56 L324.98 572.27 L326.39 569.97 L323.09 567.72 L320.4 565.46 L316.59 563.22 L312.27 560.98 L312.31 558.7 L311.51 556.42 L310.8 554.14 L311.37 551.85 L310.94 549.57 L309.8 547.3 L307.99 545.04 L308.48 542.75 L307.62 540.47 L305.58 538.21 L302.15 535.96 L300.5 533.69 L297.41 531.44 L294.25 529.19 L294.34 526.91 L295.53 524.61 L297 522.31 L299.96 519.99 L300.64 517.7 L302.54 515.39 L302.35 513.11 L303.53 510.81 L305.66 508.5 L307.71 506.2 L309.49 503.89 L312.03 501.58 L313.39 499.28 L315.18 496.98 L317.63 494.66 L319.25 492.36 L320.61 490.06 L323.23 487.75 L324.53 485.45 L324.46 483.16 L323.99 480.89 L321.36 478.63 L318.93 476.37 L318.45 474.09 L319.03 471.8 L319.57 469.51 L321.16 467.21 L321.1 464.92 L321.32 462.64 L320.02 460.37 L317.89 458.1 L314.01 455.86 L311.72 453.6 L310.45 451.33 L306.49 449.09 L306.75 446.8 L305.82 444.53 L304.99 442.25 L308.65 439.93 L310.49 437.62 L315.45 435.28 L317.67 432.97 L320.18 430.66 L320.31 428.38 L319.76 426.1 L319.98 423.81 L320.29 421.52 L320.51 419.23 L320.56 416.95 L322.59 414.64 L323.76 412.34 L326.67 410.03 L329.55 407.71 L333.29 405.38 L334.18 403.09 L334.59 400.8 L335.02 398.51 L335.49 396.22 L334.93 393.94 L328.76 391.73 L326.56 389.47 L324.03 387.21 L323.6 384.93 L322.52 382.66 L322.35 380.37 L324.14 378.07 L323.68 375.79 L322.59 373.52 L323.52 371.22 L323.31 368.94 L322.49 366.66 L320.65 364.4 L318.4 362.14 L315.64 359.88 L313.53 357.62 L313 355.34 L314.95 353.04 L317.72 350.72 L319.48 348.42 L320.56 346.12 L323.84 343.8 L324.25 341.51 L323.3 339.24 L323.91 336.94 L322.28 334.68 L322.42 332.39 L322.91 330.1 L321.09 327.84 L320.67 325.56 L320.85 323.27 L318.85 321.01 L320.21 318.71 L319.73 316.43 L319.35 314.15 L315.54 311.9 L314.07 309.63 L308.89 307.41 L305.98 305.15 L303.26 302.9 L303.69 300.61 L304.15 298.32 L303.24 296.04 L303.05 293.76 L303.27 291.47 L303 289.19 L302.69 286.91 L302.29 284.63 L299.72 282.37 L298.83 280.1 L298.53 277.82 L297.49 275.54 L299.15 273.24 L299.75 270.95 L303.03 268.63 L306.42 266.31 L309.95 263.98 L314.08 261.65 L315.8 259.35 L317.04 257.05 L314.67 254.79 L313.85 252.52 L313.96 250.23 L312.53 247.96 L309.85 245.71 L308.59 243.44 L309.22 241.14 L310.2 238.85 L310.1 236.56 L311.79 234.26 L314.54 231.95 L315.22 229.65 L314.92 227.37 L312.14 225.12 L308.61 222.87 L304.22 220.64 L298.63 218.41 L298.28 216.13 L296.81 213.86 L295.51 211.59 L296.59 209.3 L299.81 206.98 L301.83 204.67 L304.06 202.36 L307.38 200.04 L308.17 197.74 L310.31 195.44 L308.57 193.17 L309.53 190.88 L307.66 188.61 L307.82 186.32 L308.87 184.03 L310.49 181.73 L313.73 179.4 L316.4 177.09 L321.18 174.75 L322.78 172.45 L323.62 170.16 L324.7 167.86" fill="none" stroke="#111" stroke-width="1.35" stroke-linecap="round" stroke-linejoin="round" vector-effect="non-scaling-stroke"/><path d="M341.92 713.69 L341.41 711.41 L341.55 709.12 L343.12 706.81 L340.84 704.57 L340.41 702.29 L337.04 700.06 L337.4 697.77 L337.31 695.48 L338.15 693.18 L338.01 690.9 L337.63 688.62 L335.11 686.38 L334.18 684.11 L329.35 681.9 L327.14 679.65 L326.08 677.39 L325.78 675.11 L327.64 672.79 L327.12 670.51 L329.17 668.2 L329.9 665.9 L330.28 663.61 L329.44 661.34 L331.88 659.01 L331.17 656.74 L330.63 654.46 L329.2 652.2 L328.13 649.93 L328.08 647.65 L326.71 645.38 L330.06 643.04 L332.94 640.71 L336.15 638.37 L337.99 636.06 L338.36 633.77 L336.3 631.52 L334.69 629.26 L332.64 627.01 L330 624.76 L326.53 622.54 L326.07 620.26 L323.51 618.02 L320.45 615.78 L322.2 613.47 L323.39 611.16 L325 608.85 L326.98 606.53 L329.12 604.21 L328.95 601.93 L328.63 599.65 L324.79 597.43 L321.4 595.2 L318.79 592.96 L316.66 590.71 L316.47 588.42 L316.45 586.14 L318.94 583.81 L320.37 581.51 L322.63 579.18 L325.85 576.84 L328.57 574.51 L329.18 572.22 L330.62 569.91 L326.94 567.69 L323.93 565.45 L319.73 563.23 L314.99 561.03 L315.02 558.74 L314.15 556.47 L313.4 554.2 L314.06 551.9 L313.65 549.62 L312.48 547.36 L310.6 545.1 L311.23 542.81 L310.4 540.54 L308.29 538.29 L304.67 536.06 L303 533.8 L299.76 531.57 L296.45 529.34 L296.67 527.05 L298.08 524.74 L299.8 522.43 L303.13 520.09 L303.96 517.79 L306.12 515.47 L305.98 513.19 L307.31 510.88 L309.66 508.56 L311.91 506.24 L313.85 503.92 L316.59 501.59 L318.04 499.28 L319.93 496.96 L322.53 494.63 L324.21 492.32 L325.58 490.01 L328.32 487.68 L329.62 485.38 L329.4 483.1 L328.74 480.82 L325.72 478.59 L322.92 476.35 L322.25 474.07 L322.74 471.78 L323.18 469.49 L324.79 467.18 L324.59 464.89 L324.72 462.61 L323.2 460.35 L320.79 458.1 L316.49 455.89 L313.93 453.64 L312.51 451.38 L308.17 449.17 L308.46 446.88 L307.46 444.61 L306.6 442.34 L310.64 439.99 L312.72 437.67 L318.21 435.29 L320.72 432.97 L323.57 430.63 L323.83 428.34 L323.35 426.07 L323.72 423.78 L324.19 421.48 L324.56 419.19 L324.73 416.9 L327.08 414.58 L328.46 412.27 L331.74 409.93 L334.98 407.59 L339.14 405.24 L340.19 402.94 L340.68 400.64 L341.19 398.35 L341.71 396.06 L341.1 393.78 L334.36 391.61 L331.92 389.36 L329.1 387.12 L328.57 384.85 L327.3 382.58 L327.02 380.3 L328.85 377.99 L328.23 375.71 L326.9 373.45 L327.78 371.15 L327.4 368.87 L326.35 366.6 L324.19 364.35 L321.6 362.11 L318.44 359.88 L316 357.63 L315.3 355.36 L317.3 353.04 L320.22 350.71 L322.05 348.39 L323.15 346.09 L326.68 343.75 L327.08 341.46 L326.02 339.19 L326.68 336.89 L324.91 334.64 L325.1 332.35 L325.69 330.05 L323.76 327.8 L323.38 325.52 L323.67 323.23 L321.6 320.98 L323.19 318.67 L322.79 316.39 L322.5 314.11 L318.47 311.89 L316.99 309.63 L311.47 307.44 L308.43 305.2 L305.58 302.96 L306.15 300.67 L306.76 298.37 L305.85 296.1 L305.71 293.82 L306.01 291.53 L305.75 289.25 L305.44 286.97 L305.01 284.69 L302.19 282.45 L301.19 280.18 L300.81 277.9 L299.61 275.64 L301.34 273.33 L301.9 271.03 L305.36 268.69 L308.93 266.34 L312.66 264 L317.02 261.64 L318.75 259.33 L319.96 257.02 L317.21 254.78 L316.17 252.51 L316.16 250.23 L314.46 247.97 L311.4 245.74 L309.9 243.48 L310.48 241.18 L311.45 238.88 L311.27 236.6 L313.05 234.28 L316 231.95 L316.71 229.65 L316.38 227.37 L313.35 225.14 L309.53 222.92 L304.79 220.71 L298.74 218.52 L298.44 216.24 L296.92 213.98 L295.61 211.72 L296.9 209.41 L300.53 207.07 L302.86 204.75 L305.42 202.42 L309.17 200.07 L310.15 197.77 L312.62 195.44 L310.84 193.19 L311.99 190.88 L310.06 188.63 L310.32 186.34 L311.55 184.04 L313.37 181.72 L316.95 179.38 L319.89 177.04 L325.12 174.67 L326.86 172.36 L327.74 170.06 L328.88 167.75" fill="none" stroke="#111" stroke-width="1.35" stroke-linecap="round" stroke-linejoin="round" vector-effect="non-scaling-stroke"/><path d="M349.24 713.53 L348.55 711.26 L348.57 708.98 L350.12 706.66 L347.49 704.43 L346.86 702.16 L343.05 699.96 L343.28 697.66 L343.03 695.38 L343.79 693.08 L343.5 690.8 L342.97 688.53 L340.12 686.31 L339.01 684.04 L333.7 681.88 L331.24 679.64 L330.04 677.39 L329.69 675.11 L331.69 672.78 L331.15 670.5 L333.4 668.17 L334.24 665.86 L334.71 663.57 L333.89 661.3 L336.63 658.96 L335.97 656.68 L335.51 654.41 L334.09 652.15 L333.07 649.89 L333.16 647.6 L331.81 645.35 L335.59 642.98 L338.84 640.62 L342.45 638.26 L344.56 635.92 L345.08 633.63 L342.95 631.39 L341.28 629.14 L339.13 626.9 L336.32 624.68 L332.58 622.47 L332.1 620.2 L329.32 617.97 L325.98 615.76 L327.83 613.44 L329.05 611.12 L330.71 608.8 L332.76 606.47 L334.96 604.14 L334.64 601.86 L334.16 599.58 L329.85 597.39 L326.02 595.19 L323.04 592.97 L320.57 590.74 L320.2 588.46 L320.02 586.18 L322.57 583.84 L323.98 581.52 L326.29 579.19 L329.66 576.83 L332.5 574.48 L333.08 572.18 L334.57 569.86 L330.53 567.66 L327.24 565.45 L322.67 563.27 L317.54 561.09 L317.6 558.81 L316.7 556.54 L315.96 554.27 L316.75 551.97 L316.4 549.69 L315.24 547.43 L313.32 545.19 L314.13 542.88 L313.37 540.61 L311.23 538.38 L307.44 536.17 L305.77 533.92 L302.41 531.71 L298.95 529.5 L299.32 527.21 L300.96 524.89 L302.93 522.56 L306.62 520.19 L307.59 517.88 L309.98 515.55 L309.87 513.26 L311.32 510.95 L313.87 508.6 L316.28 506.27 L318.34 503.93 L321.25 501.59 L322.74 499.27 L324.69 496.94 L327.4 494.59 L329.09 492.27 L330.44 489.96 L333.26 487.61 L334.51 485.29 L334.12 483.02 L333.25 480.75 L329.82 478.54 L326.62 476.33 L325.74 474.06 L326.13 471.77 L326.47 469.47 L328.09 467.15 L327.77 464.87 L327.81 462.59 L326.09 460.34 L323.42 458.11 L318.72 455.93 L315.94 453.7 L314.4 451.45 L309.72 449.27 L310.07 446.98 L309.05 444.71 L308.18 442.45 L312.65 440.06 L315.01 437.73 L321.07 435.31 L323.92 432.96 L327.14 430.6 L327.57 428.31 L327.18 426.03 L327.73 423.73 L328.38 421.43 L328.91 419.13 L329.23 416.84 L331.88 414.5 L333.49 412.18 L337.13 409.81 L340.72 407.45 L345.29 405.06 L346.46 402.75 L347.02 400.45 L347.57 398.15 L348.12 395.86 L347.42 393.59 L340.06 391.46 L337.35 389.24 L334.21 387.02 L333.52 384.75 L332.03 382.5 L331.58 380.22 L333.42 377.89 L332.6 375.63 L331 373.38 L331.79 371.07 L331.22 368.8 L329.92 366.54 L327.43 364.31 L324.48 362.09 L320.92 359.88 L318.15 357.66 L317.27 355.39 L319.35 353.06 L322.43 350.71 L324.35 348.38 L325.5 346.07 L329.29 343.7 L329.72 341.41 L328.59 339.14 L329.34 336.84 L327.48 334.6 L327.75 332.31 L328.47 330.01 L326.49 327.76 L326.19 325.48 L326.63 323.19 L324.51 320.95 L326.37 318.62 L326.08 316.34 L325.91 314.06 L321.69 311.87 L320.22 309.62 L314.37 307.46 L311.2 305.24 L308.22 303.02 L308.94 300.72 L309.67 298.42 L308.76 296.15 L308.65 293.87 L309 291.58 L308.73 289.3 L308.38 287.02 L307.89 284.75 L304.78 282.53 L303.62 280.27 L303.13 277.99 L301.73 275.74 L303.48 273.41 L303.96 271.12 L307.57 268.75 L311.29 266.39 L315.17 264.01 L319.73 261.63 L321.45 259.31 L322.59 256.99 L319.46 254.78 L318.19 252.52 L318.03 250.24 L316.06 248 L312.63 245.79 L310.9 243.54 L311.45 241.24 L312.43 238.93 L312.18 236.65 L314.07 234.33 L317.27 231.97 L318.05 229.67 L317.71 227.39 L314.48 225.17 L310.41 222.98 L305.35 220.8 L298.9 218.66 L298.68 216.38 L297.16 214.13 L295.86 211.87 L297.4 209.55 L301.47 207.17 L304.14 204.83 L307.05 202.48 L311.25 200.1 L312.45 197.79 L315.25 195.44 L313.43 193.2 L314.78 190.88 L312.77 188.64 L313.13 186.35 L314.51 184.03 L316.52 181.7 L320.41 179.33 L323.59 176.98 L329.22 174.57 L331.06 172.24 L331.95 169.94 L333.1 167.62" fill="none" stroke="#111" stroke-width="1.35" stroke-linecap="round" stroke-linejoin="round" vector-effect="non-scaling-stroke"/><path d="M356.41 713.36 L355.51 711.1 L355.36 708.81 L356.86 706.49 L353.85 704.28 L353.01 702.02 L348.74 699.85 L348.83 697.56 L348.41 695.29 L349.09 692.98 L348.66 690.71 L347.97 688.44 L344.82 686.24 L343.55 683.99 L337.78 681.86 L335.1 679.65 L333.8 677.4 L333.44 675.12 L335.63 672.78 L335.09 670.5 L337.59 668.15 L338.59 665.84 L339.21 663.53 L338.44 661.27 L341.52 658.9 L340.96 656.63 L340.61 654.35 L339.23 652.1 L338.28 649.84 L338.53 647.55 L337.23 645.3 L341.44 642.89 L345.08 640.51 L349.09 638.11 L351.47 635.76 L352.12 633.46 L349.9 631.23 L348.16 628.99 L345.88 626.77 L342.87 624.57 L338.84 622.39 L338.3 620.12 L335.25 617.92 L331.58 615.73 L333.49 613.39 L334.7 611.07 L336.37 608.74 L338.43 606.4 L340.66 604.05 L340.16 601.78 L339.47 599.51 L334.66 597.36 L330.37 595.19 L326.99 592.99 L324.16 590.79 L323.6 588.51 L323.26 586.24 L325.86 583.88 L327.25 581.56 L329.63 579.2 L333.16 576.82 L336.14 574.45 L336.7 572.15 L338.27 569.82 L333.91 567.66 L330.37 565.47 L325.48 563.31 L320.01 561.18 L320.14 558.89 L319.26 556.63 L318.56 554.36 L319.53 552.05 L319.28 549.77 L318.16 547.51 L316.25 545.28 L317.27 542.96 L316.61 540.7 L314.46 538.47 L310.53 536.29 L308.88 534.05 L305.39 531.86 L301.8 529.67 L302.3 527.37 L304.17 525.03 L306.37 522.69 L310.41 520.29 L311.5 517.97 L314.09 515.62 L313.97 513.33 L315.51 511 L318.22 508.64 L320.75 506.29 L322.89 503.94 L325.92 501.57 L327.4 499.25 L329.37 496.91 L332.14 494.54 L333.8 492.21 L335.1 489.89 L337.96 487.53 L339.14 485.21 L338.54 482.94 L337.44 480.68 L333.58 478.5 L329.99 476.31 L328.89 474.06 L329.18 471.76 L329.43 469.47 L331.07 467.14 L330.64 464.86 L330.63 462.58 L328.73 460.34 L325.84 458.14 L320.78 455.99 L317.81 453.79 L316.19 451.54 L311.21 449.39 L311.67 447.1 L310.67 444.84 L309.85 442.57 L314.79 440.15 L317.46 437.79 L324.14 435.32 L327.35 432.95 L330.97 430.56 L331.59 428.26 L331.32 425.98 L332.06 423.67 L332.9 421.36 L333.6 419.06 L334.06 416.76 L337.02 414.39 L338.83 412.06 L342.83 409.66 L346.73 407.27 L351.68 404.84 L352.95 402.52 L353.53 400.22 L354.1 397.92 L354.63 395.62 L353.8 393.35 L345.78 391.29 L342.74 389.09 L339.23 386.9 L338.35 384.63 L336.59 382.4 L335.96 380.13 L337.77 377.79 L336.71 375.53 L334.82 373.3 L335.5 370.99 L334.72 368.73 L333.16 366.49 L330.33 364.28 L327.01 362.08 L323.06 359.91 L319.97 357.7 L318.94 355.45 L321.11 353.1 L324.38 350.72 L326.42 348.38 L327.65 346.06 L331.75 343.66 L332.25 341.36 L331.1 339.11 L331.97 336.8 L330.06 334.56 L330.46 332.27 L331.37 329.96 L329.36 327.72 L329.19 325.44 L329.8 323.14 L327.68 320.91 L329.84 318.57 L329.68 316.28 L329.65 314 L325.24 311.83 L323.79 309.59 L317.61 307.47 L314.3 305.28 L311.18 303.08 L312.03 300.77 L312.87 298.46 L311.92 296.2 L311.82 293.91 L312.19 291.62 L311.87 289.34 L311.43 287.07 L310.83 284.8 L307.4 282.6 L306.05 280.35 L305.39 278.09 L303.74 275.85 L305.48 273.51 L305.83 271.22 L309.55 268.83 L313.39 266.44 L317.4 264.04 L322.14 261.62 L323.82 259.29 L324.89 256.97 L321.37 254.78 L319.86 252.54 L319.56 250.26 L317.33 248.04 L313.55 245.85 L311.61 243.62 L312.15 241.32 L313.17 239.01 L312.89 236.73 L314.94 234.39 L318.41 232 L319.3 229.69 L319.01 227.41 L315.62 225.22 L311.34 223.05 L306.01 220.91 L299.2 218.81 L299.1 216.53 L297.61 214.29 L296.37 212.03 L298.18 209.7 L302.72 207.29 L305.74 204.92 L309.02 202.54 L313.68 200.13 L315.09 197.8 L318.21 195.43 L316.35 193.19 L317.88 190.87 L315.77 188.64 L316.2 186.34 L317.71 184.01 L319.86 181.67 L324.03 179.27 L327.41 176.89 L333.41 174.44 L335.31 172.1 L336.16 169.79 L337.28 167.47" fill="none" stroke="#111" stroke-width="1.35" stroke-linecap="round" stroke-linejoin="round" vector-effect="non-scaling-stroke"/></g><g data-layer="pcm_side_carriers"><path d="M308 221.25 L305.92 220.4 L303.84 221.42 L301.77 221.02 L299.69 221.92 L297.61 223.31 L295.53 223.64 L293.45 222.92 L291.38 222.25 L289.3 223.56 L287.22 222.91 L285.14 221 L283.06 222.11 L280.99 225.07 L278.91 226.62 L276.83 225.38 L274.75 224.19 L272.68 227.16 L270.6 227.41 L268.52 225.45 L266.44 222.39 L264.36 223.72 L262.29 227.15 L260.21 227.61 L258.13 228.7 L256.05 229.83 L253.97 233.07 L251.9 232.8 L249.82 231.59 L247.74 230.27 L245.66 227.98 L243.58 225.74 L241.51 223.29 L239.43 223.83 L237.35 225.11 L235.27 223.25 L233.19 224.82 L231.12 226.78 L229.04 229.16 L226.96 226.72 L224.88 222.91 L222.81 223.72 L220.73 223.38 L218.65 221.22 L216.57 219.27 L214.49 219.54 L212.42 223.14 L210.34 223.78 L208.26 223.3 L206.18 223.46 L204.1 225.31 L202.03 225.23 L199.95 222.8 L197.87 222.16 L195.79 221.79 L193.71 223.08 L191.64 223.33 L189.56 225.89 L187.48 229.36 L185.4 230.21 L183.32 230.42 L181.25 231.33 L179.17 232.1 L177.09 229.27 L175.01 225.28 L172.94 225.6 L170.86 227.02 L168.78 226.82 L166.7 224.87 L164.62 225.84 L162.55 230.38 L160.47 231.12 L158.39 229.08 L156.31 226.8 L154.23 227.63 L152.16 227.13 L150.08 223.6 L148 222.25" fill="none" stroke="#111" stroke-width="0.62" stroke-linecap="round" stroke-linejoin="round" vector-effect="non-scaling-stroke"/><path d="M307.39 259.58 L309.49 260.17 L311.8 258.42 L313.95 258.4 L316.19 257.3 L318.53 255.24 L320.64 255.73 L322.74 256.26 L324.79 257.23 L326.98 256.84 L329.04 257.73 L330.85 261.38 L333.12 260.11 L335.48 257.85 L337.76 256.36 L339.78 257.79 L341.81 259.07 L344.28 255.52 L346.47 255.09 L348.43 257.11 L350.3 260.16 L352.68 257.63 L355.1 254.67 L357.22 255.05 L359.41 254.56 L361.71 252.94 L364.05 250.81 L366.17 251.09 L368.02 254.31 L370.05 255.59 L371.99 257.94 L373.92 260.25 L375.85 262.63 L378.05 262.03 L380.34 260.55 L382.36 261.92 L384.62 260.7 L387.01 258.08 L389.35 256.02 L391.23 258.88 L393.05 262.47 L395.13 263.13 L397.25 263.49 L399.11 266.58 L400.96 269.85 L403.06 270.31 L405.58 266.28 L407.8 265.57 L409.9 266.1 L412.08 265.7 L414.45 263.34 L416.63 262.91 L418.56 265.31 L420.6 266.49 L422.72 266.74 L424.93 266.18 L427.11 265.77 L429.43 263.9 L431.8 261.56 L433.97 261.27 L436.1 261.42 L438.33 260.62 L440.57 259.61 L442.4 263.08 L444.21 266.67 L446.43 265.94 L448.67 264.95 L450.85 264.6 L452.8 266.68 L455.09 265.18 L457.63 260.96 L459.81 260.61 L461.72 263.13 L463.59 266.19 L465.7 266.62 L467.71 268.07 L469.56 271.28 L471.55 273.05" fill="none" stroke="#111" stroke-width="0.62" stroke-linecap="round" stroke-linejoin="round" vector-effect="non-scaling-stroke"/><path d="M307.34 273.21 L305.18 273.66 L303.18 275.74 L301.12 277.25 L298.99 277.92 L297.11 281.24 L294.9 281.17 L292.54 279.52 L290.29 279.13 L288.09 279.12 L285.79 278.14 L283.32 275.33 L281.22 276.41 L279.27 278.97 L277.34 281.77 L275.01 280.44 L272.84 280.87 L271.03 284.82 L268.99 286.53 L266.64 285.02 L264.24 283.02 L262.26 285.28 L260.38 288.6 L258.17 288.54 L255.92 288.04 L253.89 289.82 L251.93 292.23 L249.66 291.62 L247.19 288.8 L244.96 288.52 L242.53 286.21 L240.16 284.53 L237.86 283.5 L235.79 284.9 L233.81 287.13 L231.61 287.2 L229.58 288.97 L227.62 291.4 L225.59 293.25 L223.07 289.97 L220.43 285.41 L218.3 286.15 L215.99 285.12 L213.45 281.62 L211.04 279.45 L208.9 280.1 L207.16 284.92 L205.13 286.65 L202.96 287.01 L200.91 288.53 L199.06 292.2 L196.84 292.03 L194.46 290.15 L192.16 289.21 L189.93 288.86 L187.76 289.21 L185.52 288.87 L183.52 290.93 L181.65 294.35 L179.45 294.38 L177.32 295.12 L175.22 296.11 L173.26 298.63 L170.9 297.04 L168.32 293.2 L166.25 294.56 L164.32 297.33 L162.18 297.93 L159.75 295.67 L157.62 296.35 L155.87 301.06 L153.64 300.72 L151.22 298.46 L148.66 294.8 L146.51 295.39 L144.27 295.02 L141.69 291.07 L139.42 290.38" fill="none" stroke="#111" stroke-width="0.62" stroke-linecap="round" stroke-linejoin="round" vector-effect="non-scaling-stroke"/><path d="M307.91 312.88 L310.16 311.85 L312.42 310.45 L314.67 309.21 L316.91 309.12 L319.18 306.46 L321.39 308.24 L323.59 310.31 L325.81 311.31 L328.04 311.78 L330.26 312.64 L332.44 316.39 L334.69 315.07 L336.98 311.66 L339.26 308.16 L341.47 309.82 L343.71 309.35 L346.02 304.5 L348.27 303.07 L350.48 305.09 L352.66 308.43 L354.92 306.86 L357.19 304.65 L359.41 305.21 L361.63 306.26 L363.89 304.59 L366.16 302.26 L368.39 302.74 L370.59 305.07 L372.82 305.3 L375.02 307.37 L377.24 308.25 L379.46 309.55 L381.71 308.57 L383.97 306.42 L386.18 308.26 L388.43 306.91 L390.7 304.49 L392.95 303.55 L395.13 307.55 L397.29 312.3 L399.52 312.49 L401.73 314.19 L403.93 316.89 L406.13 319.03 L408.38 318.07 L410.69 312.74 L412.96 310.56 L415.19 310.39 L417.45 309.01 L419.72 306.72 L421.95 306.49 L424.14 309.77 L426.35 311.56 L428.57 312.45 L430.8 312.96 L433.03 313.3 L435.28 311.92 L437.57 308.31 L439.82 307.34 L442.06 306.38 L444.32 305.13 L446.58 302.96 L448.8 304.2 L450.98 307.93 L453.22 307.2 L455.48 305.43 L457.71 305.68 L459.91 308.15 L462.14 308.29 L464.43 304.67 L466.66 304.96 L468.86 307.32 L471.03 311.63 L473.27 311.18 L475.5 311.47 L477.7 314.1 L479.92 314.81" fill="none" stroke="#111" stroke-width="0.62" stroke-linecap="round" stroke-linejoin="round" vector-effect="non-scaling-stroke"/><path d="M308.34 329.59 L306.03 329.72 L303.64 330.91 L301.33 331.06 L299.01 331.36 L296.62 332.45 L294.48 330.39 L292.34 328.42 L290.21 326.23 L287.87 326.74 L285.66 325.56 L283.55 323.14 L281.13 324.71 L278.49 329.12 L275.93 332.49 L273.77 330.56 L271.47 330.61 L268.82 335.11 L266.46 335.99 L264.41 332.72 L262.45 328.28 L260.04 329.73 L257.6 331.59 L255.35 330.96 L253.08 330.63 L250.7 331.62 L248.14 335.02 L245.82 335.2 L243.67 333.3 L241.38 333.16 L239.2 331.59 L237.07 329.39 L234.93 327.43 L232.54 328.62 L230.14 329.91 L228.01 327.63 L225.64 328.55 L223.29 329.31 L220.92 330.21 L218.91 326.4 L217.04 320.92 L214.69 321.5 L212.46 320.63 L210.34 318.3 L208.18 316.48 L205.8 317.5 L203.09 322.88 L200.63 324.96 L198.34 324.85 L196.01 325.19 L193.56 327.13 L191.31 326.52 L189.38 321.79 L187.2 320.24 L184.95 319.5 L182.73 318.57 L180.46 318.12 L177.93 321.13 L175.38 324.41 L173.01 325.32 L170.52 327.68 L168.12 328.99 L165.63 331.45 L163.55 328.7 L161.52 325.18 L159.25 324.74 L156.85 326.1 L154.65 324.88 L152.62 321.32 L150.34 321.07 L147.75 324.87 L145.39 325.63 L143.35 322.3 L141.33 318.72 L138.94 319.83 L136.63 320 L134.58 316.77 L132.3 316.48" fill="none" stroke="#111" stroke-width="0.62" stroke-linecap="round" stroke-linejoin="round" vector-effect="non-scaling-stroke"/><path d="M308.44 365.6 L310.84 365.99 L312.96 363.48 L315.38 364.16 L317.72 363.99 L319.9 362.05 L322.41 363.63 L324.86 364.6 L327.3 365.47 L329.52 364.03 L331.95 364.74 L334.48 366.48 L336.58 363.86 L338.49 359.09 L340.53 355.85 L342.99 356.81 L345.38 357.2 L347.38 353.42 L349.72 353.22 L352.38 356.42 L355.06 359.7 L357.28 358.3 L359.37 355.48 L361.77 355.84 L364.04 354.96 L366.19 352.78 L368.1 348.13 L370.39 347.4 L372.94 349.33 L375.26 348.95 L377.72 350.01 L380.28 352.09 L382.95 355.29 L385.19 354.09 L387.5 353.58 L389.95 354.58 L392.22 353.61 L394.42 351.9 L396.55 349.54 L399.27 353.29 L402.04 357.58 L404.25 356.07 L406.65 356.5 L409.2 358.42 L411.67 359.61 L413.94 358.66 L415.79 353.36 L417.96 351.42 L420.32 351.43 L422.66 351.22 L424.83 349.2 L427.28 350.19 L429.97 353.59 L432.42 354.56 L434.83 355.15 L437.13 354.45 L439.45 354.11 L441.42 350.03 L443.29 344.93 L445.5 343.42 L447.75 342.23 L449.85 339.57 L452.04 337.76 L454.64 340.29 L457.46 345.04 L459.83 345.15 L462.1 344.23 L464.45 344.19 L467.11 347.3 L469.4 346.57 L471.3 341.82 L473.55 340.62 L476.12 342.89 L478.71 345.32 L480.87 343.23 L483.22 343.08 L485.86 346.03 L488.27 346.55" fill="none" stroke="#111" stroke-width="0.62" stroke-linecap="round" stroke-linejoin="round" vector-effect="non-scaling-stroke"/><path d="M308.17 381.91 L305.8 381.07 L303.38 382.04 L300.98 382.24 L298.61 381.75 L296.13 384.75 L293.77 383.76 L291.4 383.05 L289.02 382.48 L286.61 383.11 L284.21 383.37 L281.91 380.09 L279.46 382.11 L276.95 386.48 L274.51 388.35 L272.17 386.33 L269.8 385.59 L267.32 388.8 L264.92 389.14 L262.62 386.1 L260.33 382.19 L257.9 383.55 L255.39 388.05 L253 387.92 L250.58 388.83 L248.13 391.26 L245.62 395.6 L243.22 395.66 L240.9 393.11 L238.54 392.02 L236.22 389.44 L233.91 386.37 L231.6 383.38 L229.19 383.97 L226.81 383.86 L224.44 382.91 L222.01 384.17 L219.57 386.14 L217.09 389.21 L214.8 385.82 L212.51 381.78 L210.11 382.14 L207.71 382.71 L205.4 379.5 L203.08 376.81 L200.69 376.78 L198.18 381.44 L195.74 382.99 L193.38 381.76 L191.01 381.12 L188.54 383.9 L186.15 383.97 L183.87 379.96 L181.48 379.73 L179.11 379.19 L176.7 379.78 L174.29 380.29 L171.79 384.2 L169.3 388.02 L166.87 389.44 L164.47 389.86 L162.05 390.7 L159.62 392.05 L157.32 388.83 L155.07 383.67 L152.67 383.89 L150.27 384.43 L147.88 384.34 L145.56 381.49 L143.14 382.73 L140.58 388.84 L138.18 389.02 L135.83 387.46 L133.54 383.95 L131.12 384.9 L128.72 385.19 L126.45 380.73 L124.11 378.79" fill="none" stroke="#111" stroke-width="0.62" stroke-linecap="round" stroke-linejoin="round" vector-effect="non-scaling-stroke"/><path d="M307.54 422.26 L309.94 423.15 L312.47 421.94 L314.92 421.86 L317.43 420.99 L320.08 417.74 L322.51 418.18 L324.9 419.05 L327.3 419.96 L329.8 419.22 L332.19 420.12 L334.4 424 L336.97 422.06 L339.63 418.79 L342.16 417.42 L344.46 419.87 L346.87 420.61 L349.57 416.57 L352.05 416.13 L354.33 418.87 L356.54 422.63 L359.18 419.71 L361.87 415.93 L364.33 415.74 L366.85 414.73 L369.41 413 L372.06 409.74 L374.47 410.36 L376.74 413.29 L379.1 414.74 L381.35 418.04 L383.57 421.62 L385.87 424.07 L388.39 422.94 L390.94 421.44 L393.26 423.52 L395.88 420.76 L398.49 418.25 L401.13 415.28 L403.36 418.84 L405.47 424.16 L407.97 423.41 L410.33 424.91 L412.57 428.22 L414.81 431.53 L417.23 432.07 L419.99 427.22 L422.48 426.51 L424.91 426.87 L427.38 426.58 L430.07 422.86 L432.5 423.2 L434.72 426.75 L437.14 427.27 L439.58 427.55 L442.12 426.14 L444.53 426.78 L447.16 423.84 L449.9 419.33 L452.3 420.15 L454.82 418.99 L457.3 418.53 L459.78 418.14 L462.06 420.82 L464.14 426.78 L466.66 425.63 L469.25 423.42 L471.7 423.44 L473.99 426.07 L476.55 424.33 L479.36 418.59 L481.81 418.55 L484.09 421.36 L486.28 425.41 L488.75 425.17 L491.17 425.61 L493.28 431.1 L495.65 432.39" fill="none" stroke="#111" stroke-width="0.62" stroke-linecap="round" stroke-linejoin="round" vector-effect="non-scaling-stroke"/><path d="M307.23 433.71 L304.7 433.56 L302.52 437.1 L300.09 438.05 L297.66 438.93 L295.56 443.4 L293.01 443.04 L290.41 442.11 L287.72 440.3 L285.28 441.13 L282.63 439.59 L279.72 435.35 L277.42 437.65 L275.18 440.61 L272.97 443.92 L270.32 442.48 L267.71 441.42 L265.75 447.42 L263.34 448.6 L260.7 447.17 L257.9 444.15 L255.71 447.61 L253.51 451.02 L250.98 450.89 L248.58 452.07 L246.18 453.36 L243.99 456.89 L241.38 455.88 L238.6 452.97 L236.05 452.6 L233.26 449.61 L230.45 446.5 L227.81 445.1 L225.47 447.02 L223.13 448.88 L220.57 448.36 L218.38 451.91 L216.13 454.72 L213.83 457.05 L210.99 453.62 L208 448.45 L205.46 448.14 L202.84 447.07 L200 443.55 L197.18 440.27 L194.72 440.84 L192.76 446.8 L190.39 448.39 L187.93 449.03 L185.49 449.78 L183.4 454.35 L180.94 454.96 L178.18 452.33 L175.57 451.34 L173.02 450.95 L170.59 451.81 L168.1 452.15 L165.75 453.87 L163.65 458.35 L161.11 458.12 L158.67 458.89 L156.32 460.65 L154 462.81 L151.26 460.33 L148.35 456.06 L145.94 457.26 L143.72 460.39 L141.23 460.65 L138.56 458.98 L136.16 460.23 L134.18 465.97 L131.72 466.64 L128.91 463.45 L125.95 458.58 L123.52 459.53 L120.89 458.29 L117.99 454.2 L115.35 452.77" fill="none" stroke="#111" stroke-width="0.62" stroke-linecap="round" stroke-linejoin="round" vector-effect="non-scaling-stroke"/><path d="M307.7 476.84 L310.29 475.92 L312.95 473 L315.51 472.65 L318.11 471.38 L320.74 469.09 L323.23 470.64 L325.72 472.39 L328.19 474.25 L330.71 475.14 L333.18 477.2 L335.58 481.26 L338.19 479.64 L340.88 475.72 L343.6 471.37 L346.08 473.2 L348.62 473.29 L351.4 467.33 L353.98 466.56 L356.43 468.95 L358.86 472.12 L361.48 470.47 L364.17 466.69 L366.66 468.18 L369.22 467.83 L371.77 467.9 L374.46 464.23 L376.98 464.85 L379.39 468.54 L381.95 468.43 L384.38 471.48 L386.86 473.21 L389.33 475.36 L391.96 473.16 L394.62 470.39 L397.09 472.43 L399.71 470.47 L402.38 467.39 L404.97 466.12 L407.33 471.33 L409.65 477.4 L412.18 477.71 L414.66 479.75 L417.07 483.28 L419.5 486.38 L422.06 486.26 L424.89 478.77 L427.52 476.59 L430.1 475.85 L432.7 474.4 L435.37 471.14 L437.94 470.8 L440.29 475.87 L442.82 476.33 L445.31 478.13 L447.83 478.71 L450.37 479.09 L452.98 477.49 L455.69 473.21 L458.23 473.4 L460.83 472.05 L463.47 469.71 L466.1 467.45 L468.55 470.2 L470.96 473.73 L473.56 472.55 L476.18 470.61 L478.71 471.18 L481.16 473.62 L483.7 473.94 L486.42 469.54 L488.95 469.88 L491.35 473.8 L493.75 477.88 L496.29 478.08 L498.82 478.63 L501.24 482.04 L503.74 483.27" fill="none" stroke="#111" stroke-width="0.62" stroke-linecap="round" stroke-linejoin="round" vector-effect="non-scaling-stroke"/><path d="M308.31 489.58 L305.66 490.52 L302.95 492.88 L300.36 492.45 L297.76 492.35 L295.03 495.1 L292.51 493.38 L290.06 490.24 L287.54 488.39 L284.95 488.21 L282.41 486.89 L279.97 483.62 L277.29 485.2 L274.41 490.76 L271.62 494.57 L269.11 492.57 L266.47 493.46 L263.6 498.75 L260.96 499.47 L258.53 495.99 L256.15 491.45 L253.45 493.4 L250.75 495.49 L248.21 494.15 L245.62 493.87 L242.96 495 L240.17 498.8 L237.54 499.26 L235.06 496.76 L232.44 497.02 L229.96 494.64 L227.46 492.45 L224.95 490.52 L222.26 492.23 L219.56 494.2 L217.08 491.73 L214.46 492.06 L211.72 494.95 L209.1 495.27 L206.7 491.01 L204.4 484.82 L201.83 484.12 L199.25 483.63 L196.83 479.93 L194.33 477.92 L191.68 478.77 L188.72 486.04 L186.01 488.29 L183.4 488.3 L180.72 489.91 L178 492.37 L175.43 491.51 L173.08 486.35 L170.55 485 L168.04 483.08 L165.47 482.33 L162.91 481.48 L160.12 485.17 L157.29 489.78 L154.65 490.7 L151.95 492.61 L149.2 495.6 L146.49 497.64 L144 495.46 L141.66 490.07 L138.99 491.41 L136.34 492.39 L133.75 492.11 L131.39 487.02 L128.78 487.15 L125.94 492.12 L123.33 492.21 L120.95 487.61 L118.49 484.71 L115.85 485.41 L113.23 485.7 L110.85 481.18 L108.27 480.7" fill="none" stroke="#111" stroke-width="0.62" stroke-linecap="round" stroke-linejoin="round" vector-effect="non-scaling-stroke"/><path d="M308.46 528.22 L311.08 527.61 L313.58 525.71 L316.34 526.76 L318.98 526.4 L321.46 524.22 L324.22 525.28 L327.12 527.83 L329.95 529.73 L332.45 527.79 L335.2 528.64 L338.09 531.15 L340.44 527.58 L342.64 522.2 L344.91 517.69 L347.74 519.49 L350.39 519.24 L352.6 514.06 L355.23 513.58 L358.24 517.42 L361.31 521.94 L363.87 520.69 L366.19 516.74 L368.93 517.56 L371.55 516.97 L373.97 514.15 L376.23 509.5 L378.84 508.79 L381.59 509.73 L384.26 509.76 L387.15 512.19 L389.92 513.36 L392.84 516.19 L395.45 515.49 L397.97 513.88 L400.92 516.95 L403.48 515.7 L405.88 512.67 L408.39 510.89 L411.47 515.58 L414.58 520.49 L417.13 519.17 L419.79 519.06 L422.68 521.56 L425.52 523.5 L428.03 521.69 L430.09 514.72 L432.65 513.51 L435.24 512.6 L437.9 512.48 L440.37 510.23 L443.03 510.11 L446.19 515.61 L448.99 517.15 L451.76 518.2 L454.37 517.55 L456.99 517.02 L459.29 512.82 L461.47 507.22 L463.91 504.67 L466.41 502.69 L468.79 499.42 L471.3 497.62 L474.24 500.73 L477.43 506.55 L479.97 505.13 L482.62 504.9 L485.3 505.01 L488.33 509.04 L490.9 508 L493.09 502.5 L495.67 501.45 L498.57 504.14 L501.53 507.38 L504 505.07 L506.67 505.08 L509.59 507.92 L512.36 509.04" fill="none" stroke="#111" stroke-width="0.62" stroke-linecap="round" stroke-linejoin="round" vector-effect="non-scaling-stroke"/><path d="M308.27 544.11 L305.65 542.35 L302.86 544.14 L300.22 542.66 L297.47 543.67 L294.68 545.32 L292.03 544.03 L289.36 543.38 L286.73 541.69 L283.95 543.15 L281.26 542.87 L278.72 539.32 L275.87 542.31 L272.9 547.92 L270.06 550.92 L267.47 548.3 L264.85 546.41 L261.96 550.38 L259.25 550.42 L256.74 546.22 L254.21 542.4 L251.41 544.49 L248.52 548.37 L245.83 548.08 L243.08 549.01 L240.23 551.95 L237.31 556.46 L234.59 556.9 L231.96 555.1 L229.28 554.56 L226.78 550.09 L224.23 546.65 L221.7 543.02 L218.97 543.48 L216.19 545.07 L213.61 542.16 L210.85 543.3 L208.03 545.75 L205.2 548.47 L202.68 544.35 L200.2 539.48 L197.46 540.35 L194.72 540.94 L192.15 537.94 L189.61 534.48 L186.9 534.44 L183.92 540.42 L181.13 542.2 L178.47 541.2 L175.8 540.29 L172.98 542.7 L170.31 541.87 L167.8 537.66 L165.13 537 L162.47 535.9 L159.71 537.11 L156.95 538.21 L154.05 542.25 L151.08 548.01 L148.38 547.81 L145.55 550.55 L142.78 551.82 L140.05 552.35 L137.54 548.16 L135.13 541.71 L132.43 541.48 L129.63 543.47 L126.95 542.9 L124.42 539.05 L121.67 539.99 L118.68 546.17 L115.89 547.83 L113.31 545.1 L110.77 541.67 L108 543.05 L105.29 543.03 L102.85 537.27 L100.22 535.63" fill="none" stroke="#111" stroke-width="0.62" stroke-linecap="round" stroke-linejoin="round" vector-effect="non-scaling-stroke"/><path d="M307.71 585.08 L310.44 586 L313.25 584.38 L315.98 585.04 L318.78 584.04 L321.68 579.91 L324.38 581.38 L327.14 581.42 L329.83 583.32 L332.65 581.52 L335.38 582.39 L338 586.07 L340.84 583.66 L343.7 580.88 L346.59 577.08 L349.21 581.04 L351.94 581.79 L354.85 577.44 L357.6 577.54 L360.25 580.52 L362.87 584.5 L365.74 581.23 L368.66 576.74 L371.44 575.99 L374.22 575.28 L377.1 572.02 L379.99 568.07 L382.72 569.01 L385.35 572.42 L388.09 573.09 L390.68 577.67 L393.3 581.44 L395.95 584.4 L398.72 584.16 L401.53 582.68 L404.25 583.66 L407.08 581.64 L409.95 578.29 L412.84 574.8 L415.45 578.73 L418.02 584.12 L420.77 584.27 L423.51 584.76 L426.12 588.7 L428.74 592.51 L431.47 593.34 L434.46 586.89 L437.23 586.47 L439.97 586.79 L442.74 586.48 L445.62 583.12 L448.38 583.05 L450.99 587.04 L453.73 587.67 L456.5 587.2 L459.29 586.18 L462.06 585.85 L464.95 582.04 L467.89 577.05 L470.65 576.83 L473.44 576.05 L476.22 575.27 L479.02 574.16 L481.62 578.43 L484.14 585.17 L486.93 584.12 L489.75 582.55 L492.54 581.49 L495.16 585.48 L498 582.96 L501.02 575.58 L503.81 574.79 L506.43 578.45 L509.05 582.3 L511.82 582.15 L514.53 583.4 L517.09 588.89 L519.74 591.82" fill="none" stroke="#111" stroke-width="0.62" stroke-linecap="round" stroke-linejoin="round" vector-effect="non-scaling-stroke"/><path d="M307.17 593.98 L304.38 594.3 L301.77 596.92 L299 597.58 L296.4 600.28 L293.9 604.22 L291.01 603.42 L288.12 602.69 L285.25 602.12 L282.45 602.41 L279.55 601.55 L276.29 596.18 L273.66 598.53 L271.14 602.21 L268.56 605.27 L265.64 604.02 L262.69 602.56 L260.44 609.46 L257.78 611.53 L254.68 608.18 L251.65 605.63 L249.07 608.57 L246.69 613.98 L243.89 614.26 L241.14 615.23 L238.5 617.44 L235.96 620.88 L233.09 620.31 L229.92 616.18 L227.04 615.47 L223.92 611.85 L220.83 608.62 L217.77 605.8 L215.14 608.15 L212.52 610.66 L209.59 609.38 L207.08 613.16 L204.6 617.36 L201.99 619.94 L198.81 615.62 L195.57 610.57 L192.68 609.74 L189.8 609.11 L186.65 605.14 L183.44 600.53 L180.62 600.57 L178.35 607.19 L175.71 609.48 L172.86 609.16 L170.21 611.32 L167.83 616.62 L165.05 617.23 L161.88 612.96 L159.08 613.29 L156.2 612.69 L153.5 614.14 L150.57 612.91 L148.07 616.78 L145.65 621.74 L142.79 621.21 L140.08 622.63 L137.32 623.39 L134.7 625.93 L131.6 622.57 L128.36 617.55 L125.73 619.84 L123.11 622.4 L120.37 623.36 L117.33 620.72 L114.63 622.26 L112.41 629.64 L109.67 630.64 L106.53 626.84 L103.22 620.92 L100.45 621.56 L97.6 621.2 L94.21 614.44 L91.27 613" fill="none" stroke="#111" stroke-width="0.62" stroke-linecap="round" stroke-linejoin="round" vector-effect="non-scaling-stroke"/><path d="M307.48 640.72 L310.38 640.14 L313.4 637.24 L316.34 635.87 L319.24 635.07 L322.28 631.84 L325.11 632.54 L327.87 634.49 L330.6 637.03 L333.46 637.19 L336.2 639.42 L338.79 644.72 L341.73 643.31 L344.8 639.35 L347.87 635.6 L350.62 637.79 L353.5 637.39 L356.75 630.18 L359.73 628.08 L362.39 631.98 L365.04 636.06 L368.03 633.68 L371.11 629.51 L373.92 630.64 L376.79 630.63 L379.7 629.79 L382.77 625.94 L385.54 627.56 L388.22 631.07 L391.07 631.42 L393.71 635.57 L396.45 637.96 L399.22 639.83 L402.18 638.07 L405.23 634.48 L408 636.36 L410.95 634.82 L414.01 631.14 L417.02 628.44 L419.57 634.33 L422.05 641.43 L424.83 643.06 L427.65 644.04 L430.21 649.79 L432.89 653.25 L435.74 653.41 L439.02 645.74 L442.03 642.89 L444.92 642.47 L447.89 640.54 L450.98 636.37 L453.83 636.51 L456.52 639.9 L459.26 642.24 L462.08 643.13 L464.89 644.13 L467.67 645.69 L470.73 642.02 L473.81 637.97 L476.7 637.54 L479.6 636.96 L482.56 635.19 L485.57 632.36 L488.31 634.71 L490.86 640.58 L493.85 638.3 L496.84 636.07 L499.75 635.21 L502.41 639.09 L505.3 638.6 L508.48 632.71 L511.32 633.13 L513.89 638.65 L516.46 644.24 L519.34 643.9 L522.12 645.49 L524.71 650.61 L527.51 651.96" fill="none" stroke="#111" stroke-width="0.62" stroke-linecap="round" stroke-linejoin="round" vector-effect="non-scaling-stroke"/></g><g data-layer="chroma_constellation"><path d="M418 266 L418 218.88" fill="none" stroke="#111" stroke-width="1.51" stroke-linecap="round" stroke-linejoin="round" vector-effect="non-scaling-stroke"/><path d="M427 268.41 L432.58 258.75" fill="none" stroke="#111" stroke-width="1.04" stroke-linecap="round" stroke-linejoin="round" vector-effect="non-scaling-stroke"/><path d="M433.59 275 L451.84 264.46" fill="none" stroke="#111" stroke-width="1.17" stroke-linecap="round" stroke-linejoin="round" vector-effect="non-scaling-stroke"/><path d="M436 284 L474.44 284" fill="none" stroke="#111" stroke-width="1.4" stroke-linecap="round" stroke-linejoin="round" vector-effect="non-scaling-stroke"/><path d="M433.59 293 L442.18 297.96" fill="none" stroke="#111" stroke-width="1.03" stroke-linecap="round" stroke-linejoin="round" vector-effect="non-scaling-stroke"/><path d="M427 299.59 L440.64 323.21" fill="none" stroke="#111" stroke-width="1.25" stroke-linecap="round" stroke-linejoin="round" vector-effect="non-scaling-stroke"/><path d="M418 302 L418 356.56" fill="none" stroke="#111" stroke-width="1.6" stroke-linecap="round" stroke-linejoin="round" vector-effect="non-scaling-stroke"/><path d="M409 299.59 L402.18 311.4" fill="none" stroke="#111" stroke-width="1.08" stroke-linecap="round" stroke-linejoin="round" vector-effect="non-scaling-stroke"/><path d="M402.41 293 L382.01 304.78" fill="none" stroke="#111" stroke-width="1.2" stroke-linecap="round" stroke-linejoin="round" vector-effect="non-scaling-stroke"/><path d="M400 284 L364.04 284" fill="none" stroke="#111" stroke-width="1.36" stroke-linecap="round" stroke-linejoin="round" vector-effect="non-scaling-stroke"/><path d="M402.41 275 L391.67 268.8" fill="none" stroke="#111" stroke-width="1.06" stroke-linecap="round" stroke-linejoin="round" vector-effect="non-scaling-stroke"/><path d="M409 268.41 L393.5 241.56" fill="none" stroke="#111" stroke-width="1.3" stroke-linecap="round" stroke-linejoin="round" vector-effect="non-scaling-stroke"/><circle cx="418" cy="284" r="18" fill="none" stroke="#111" stroke-width="0.9" vector-effect="non-scaling-stroke"/></g><g data-layer="waveform_strata"><path d="M112 733.07 L115.56 733.31 L119.13 733.16 L122.69 732.8 L126.25 732.94 L129.82 733 L133.38 732.9 L136.94 732.27 L140.5 731.93 L144.07 732.1 L147.63 732.31 L151.19 732.26 L154.76 732.7 L158.32 732.5 L161.88 731.96 L165.45 732.09 L169.01 732.79 L172.57 733.22 L176.13 733.08 L179.7 732.26 L183.26 731.53 L186.82 730.79 L190.39 730.6 L193.95 731.3 L197.51 731.79 L201.08 731.42 L204.64 730.5 L208.2 730.19 L211.76 730.52 L215.33 731.08 L218.89 731.89 L222.45 732.53 L226.02 732.36 L229.58 731.32 L233.14 730.57 L236.71 730.39 L240.27 730.43 L243.83 730 L247.39 729.62 L250.96 728.84 L254.52 728.03 L258.08 727.61 L261.65 728.19 L265.21 728.64 L268.77 728.78 L272.34 729.27 L275.9 729.78 L279.46 730.54 L283.03 731.1 L286.59 731.65 L290.15 732.25 L293.71 731.95 L297.28 731.35 L300.84 731.65 L304.4 732.04 L307.97 731.98 L311.53 731.35 L315.09 730.8 L318.66 729.99 L322.22 729.75 L325.78 730.34 L329.34 731.47 L332.91 732.07 L336.47 732.08 L340.03 731.79 L343.6 732.02 L347.16 732.37 L350.72 733.2 L354.29 733.78 L357.85 733.87 L361.41 733.35 L364.97 732.07 L368.54 732.08 L372.1 731.99 L375.66 732.03 L379.23 732.12 L382.79 731.88 L386.35 731.55 L389.92 731.03 L393.48 731.35 L397.04 732.23 L400.61 732.55 L404.17 732.69 L407.73 732.76 L411.29 732.44 L414.86 732.34 L418.42 732.17 L421.98 731.83 L425.55 731.2 L429.11 729.87 L432.67 729.51 L436.24 729.39 L439.8 729.51 L443.36 729.12 L446.92 729.03 L450.49 728.51 L454.05 728.4 L457.61 729.17 L461.18 730.47 L464.74 731.5 L468.3 731.38 L471.87 730.9 L475.43 730.76 L478.99 730.53 L482.55 730.89 L486.12 731.53 L489.68 731.43 L493.24 730.56 L496.81 729.44 L500.37 728.91 L503.93 729.07 L507.5 729.65 L511.06 730.2 L514.62 730.6 L518.18 730.4 L521.75 730.12 L525.31 730.72 L528.87 731.56 L532.44 732.25 L536 732.5" fill="none" stroke="#111" stroke-width="0.55" stroke-linecap="round" stroke-linejoin="round" vector-effect="non-scaling-stroke"/><path d="M112 747.13 L115.56 747.53 L119.13 746.91 L122.69 746.56 L126.25 746.29 L129.82 746.92 L133.38 746.4 L136.94 745.87 L140.5 745.28 L144.07 745.11 L147.63 745.76 L151.19 745.65 L154.76 745.94 L158.32 745.8 L161.88 745.18 L165.45 745.41 L169.01 746.33 L172.57 746.82 L176.13 746.73 L179.7 745.87 L183.26 744.56 L186.82 743.94 L190.39 743.43 L193.95 744.44 L197.51 745.02 L201.08 744.96 L204.64 743.71 L208.2 743.15 L211.76 743.14 L215.33 744.3 L218.89 745.24 L222.45 746.15 L226.02 745.48 L229.58 744.24 L233.14 743.13 L236.71 743.03 L240.27 743.02 L243.83 742.41 L247.39 741.9 L250.96 741.23 L254.52 739.99 L258.08 739.49 L261.65 740.13 L265.21 740.73 L268.77 741.35 L272.34 741.86 L275.9 742.57 L279.46 743.53 L283.03 744.29 L286.59 745.17 L290.15 745.63 L293.71 745.53 L297.28 744.77 L300.84 745.02 L304.4 745.5 L307.97 745.36 L311.53 744.18 L315.09 743.41 L318.66 742.37 L322.22 742.36 L325.78 742.97 L329.34 744.69 L332.91 745.26 L336.47 745.21 L340.03 745 L343.6 745.26 L347.16 746.19 L350.72 747.32 L354.29 747.88 L357.85 748.03 L361.41 747.45 L364.97 745.75 L368.54 745.33 L372.1 745.5 L375.66 745.8 L379.23 745.93 L382.79 745.61 L386.35 744.44 L389.92 743.96 L393.48 744.46 L397.04 745.41 L400.61 745.95 L404.17 746.01 L407.73 745.98 L411.29 745.73 L414.86 745.4 L418.42 745.54 L421.98 745.13 L425.55 744 L429.11 742.64 L432.67 742.01 L436.24 742.07 L439.8 741.98 L443.36 741.5 L446.92 741.14 L450.49 740.75 L454.05 740.88 L457.61 741.4 L461.18 743.25 L464.74 744.56 L468.3 744.63 L471.87 744.18 L475.43 743.62 L478.99 743.63 L482.55 743.66 L486.12 744.69 L489.68 744.77 L493.24 743.23 L496.81 741.51 L500.37 740.9 L503.93 741.33 L507.5 741.82 L511.06 742.69 L514.62 743.47 L518.18 743.04 L521.75 742.65 L525.31 743.41 L528.87 744.88 L532.44 745.98 L536 746.12" fill="none" stroke="#111" stroke-width="0.55" stroke-linecap="round" stroke-linejoin="round" vector-effect="non-scaling-stroke"/><path d="M112 761.07 L115.56 761.36 L119.13 761.32 L122.69 760.49 L126.25 760.25 L129.82 760.76 L133.38 760.43 L136.94 759.16 L140.5 758.22 L144.07 758.67 L147.63 758.7 L151.19 759 L154.76 759.51 L158.32 759.4 L161.88 758.62 L165.45 758.27 L169.01 759.97 L172.57 760.98 L176.13 760.44 L179.7 759.5 L183.26 757.95 L186.82 757.06 L190.39 756.5 L193.95 757.72 L197.51 758.74 L201.08 758.59 L204.64 756.81 L208.2 755.83 L211.76 756.41 L215.33 757.24 L218.89 758.59 L222.45 759.74 L226.02 758.57 L229.58 756.89 L233.14 755.57 L236.71 755.44 L240.27 755.48 L243.83 755.36 L247.39 754.23 L250.96 753.31 L254.52 751.8 L258.08 751.19 L261.65 752.28 L265.21 753.06 L268.77 753.66 L272.34 754.38 L275.9 755.51 L279.46 756.35 L283.03 757.88 L286.59 759.07 L290.15 758.99 L293.71 758.64 L297.28 757.76 L300.84 758.49 L304.4 758.88 L307.97 758.45 L311.53 757.28 L315.09 756.11 L318.66 754.73 L322.22 754.69 L325.78 755.53 L329.34 757.94 L332.91 758.76 L336.47 758.59 L340.03 758.18 L343.6 758.73 L347.16 759.97 L350.72 761.23 L354.29 762.06 L357.85 762.29 L361.41 761.49 L364.97 759.41 L368.54 758.91 L372.1 759.17 L375.66 759.43 L379.23 759.22 L382.79 758.73 L386.35 757.8 L389.92 756.87 L393.48 757.84 L397.04 758.99 L400.61 759.44 L404.17 759.18 L407.73 759.8 L411.29 759.1 L414.86 758.55 L418.42 758.63 L421.98 758.36 L425.55 757.04 L429.11 755.03 L432.67 754.33 L436.24 754.41 L439.8 754.5 L443.36 753.89 L446.92 753.99 L450.49 753.33 L454.05 752.73 L457.61 753.9 L461.18 756.05 L464.74 757.66 L468.3 757.56 L471.87 757.07 L475.43 756.57 L478.99 756.37 L482.55 756.2 L486.12 757.46 L489.68 757.43 L493.24 756.29 L496.81 753.68 L500.37 752.94 L503.93 753.33 L507.5 754.21 L511.06 755.52 L514.62 756.2 L518.18 756.39 L521.75 755.44 L525.31 756.28 L528.87 758.15 L532.44 759.74 L536 759.75" fill="none" stroke="#111" stroke-width="0.55" stroke-linecap="round" stroke-linejoin="round" vector-effect="non-scaling-stroke"/><path d="M112 775.01 L115.56 775.3 L119.13 775.05 L122.69 774.04 L126.25 773.91 L129.82 774.13 L133.38 773.63 L136.94 772.01 L140.5 771.55 L144.07 771.75 L147.63 771.81 L151.19 772.46 L154.76 773.01 L158.32 772.05 L161.88 771.47 L165.45 771.79 L169.01 772.99 L172.57 774.27 L176.13 774.35 L179.7 772.63 L183.26 771.4 L186.82 770.25 L190.39 769.68 L193.95 771.36 L197.51 772.63 L201.08 772.11 L204.64 769.88 L208.2 769.2 L211.76 768.86 L215.33 770.16 L218.89 771.71 L222.45 773.21 L226.02 772.09 L229.58 770.07 L233.14 768.28 L236.71 768.4 L240.27 767.95 L243.83 767.15 L247.39 766.82 L250.96 765.37 L254.52 763.61 L258.08 762.82 L261.65 764.37 L265.21 765.36 L268.77 766.03 L272.34 767.19 L275.9 768.55 L279.46 770.02 L283.03 771.14 L286.59 772.03 L290.15 772.57 L293.71 772.52 L297.28 770.9 L300.84 771.28 L304.4 772.07 L307.97 771.94 L311.53 769.98 L315.09 768.69 L318.66 767.27 L322.22 766.76 L325.78 768.4 L329.34 770.43 L332.91 771.81 L336.47 771.6 L340.03 771.17 L343.6 772.33 L347.16 773.57 L350.72 775.42 L354.29 776.33 L357.85 776.63 L361.41 775.36 L364.97 773.46 L368.54 772.44 L372.1 772.71 L375.66 772.55 L379.23 772.91 L382.79 772.4 L386.35 770.78 L389.92 769.56 L393.48 770.8 L397.04 772.3 L400.61 772.85 L404.17 772.99 L407.73 772.8 L411.29 772.25 L414.86 772.09 L418.42 771.82 L421.98 771.84 L425.55 769.98 L429.11 767.72 L432.67 767.13 L436.24 767.11 L439.8 766.74 L443.36 766.36 L446.92 766.54 L450.49 765.65 L454.05 765.19 L457.61 766.49 L461.18 769.36 L464.74 770.94 L468.3 771.24 L471.87 769.94 L475.43 769.36 L478.99 768.92 L482.55 769.49 L486.12 770.2 L489.68 770.6 L493.24 768.25 L496.81 765.7 L500.37 764.79 L503.93 765.27 L507.5 766.65 L511.06 767.87 L514.62 769.05 L518.18 769.34 L521.75 768.35 L525.31 769.61 L528.87 771.57 L532.44 773.34 L536 774.14" fill="none" stroke="#111" stroke-width="0.55" stroke-linecap="round" stroke-linejoin="round" vector-effect="non-scaling-stroke"/><path d="M112 788.71 L115.56 789.86 L119.13 789 L122.69 787.82 L126.25 787.24 L129.82 787.63 L133.38 787.49 L136.94 785.54 L140.5 784.58 L144.07 784.46 L147.63 785.35 L151.19 785.06 L154.76 785.65 L158.32 785.47 L161.88 785.13 L165.45 784.79 L169.01 786.53 L172.57 788.24 L176.13 788.67 L179.7 786.44 L183.26 784.61 L186.82 783.2 L190.39 783.44 L193.95 784.77 L197.51 786.33 L201.08 785.14 L204.64 782.71 L208.2 782.08 L211.76 781.9 L215.33 783.2 L218.89 785.03 L222.45 786.32 L226.02 785.47 L229.58 782.39 L233.14 780.45 L236.71 780.19 L240.27 780.8 L243.83 779.47 L247.39 779.06 L250.96 777.68 L254.52 775.64 L258.08 774.83 L261.65 776.32 L265.21 778.32 L268.77 778.77 L272.34 779.25 L275.9 781.46 L279.46 782.94 L283.03 783.99 L286.59 785.67 L290.15 786.89 L293.71 785.79 L297.28 783.79 L300.84 784.74 L304.4 785.25 L307.97 785.01 L311.53 783.21 L315.09 781.5 L318.66 779.81 L322.22 778.98 L325.78 780.45 L329.34 783.89 L332.91 785.06 L336.47 784.93 L340.03 784.71 L343.6 785.09 L347.16 787.43 L350.72 789.67 L354.29 790.7 L357.85 791.08 L361.41 789.31 L364.97 787.01 L368.54 786.45 L372.1 786.41 L375.66 786.14 L379.23 786.47 L382.79 786.01 L386.35 783.7 L389.92 782.37 L393.48 783.16 L397.04 785.45 L400.61 786.27 L404.17 785.84 L407.73 785.93 L411.29 785.34 L414.86 784.92 L418.42 785.43 L421.98 784.8 L425.55 783.12 L429.11 781 L432.67 779.97 L436.24 779.86 L439.8 779.97 L443.36 778.78 L446.92 778.97 L450.49 777.69 L454.05 777.88 L457.61 779.49 L461.18 782.07 L464.74 784.18 L468.3 784.32 L471.87 783.01 L475.43 782.12 L478.99 781.02 L482.55 781.64 L486.12 783.62 L489.68 783.68 L493.24 781.29 L496.81 777.8 L500.37 776.54 L503.93 777.25 L507.5 778.68 L511.06 780.95 L514.62 781.97 L518.18 782.33 L521.75 781.72 L525.31 782.51 L528.87 785.14 L532.44 787.12 L536 787.84" fill="none" stroke="#111" stroke-width="0.55" stroke-linecap="round" stroke-linejoin="round" vector-effect="non-scaling-stroke"/></g><path d="M282 168 L260 168" fill="none" stroke="#111" stroke-width="1.2" stroke-linecap="round" stroke-linejoin="round" vector-effect="non-scaling-stroke"/><path d="M334 188.22 L363 192.43" fill="none" stroke="#111" stroke-width="1.2" stroke-linecap="round" stroke-linejoin="round" vector-effect="non-scaling-stroke"/><path d="M282 208.44 L246 212.99" fill="none" stroke="#111" stroke-width="1.2" stroke-linecap="round" stroke-linejoin="round" vector-effect="non-scaling-stroke"/><path d="M334 228.67 L377 229.37" fill="none" stroke="#111" stroke-width="1.2" stroke-linecap="round" stroke-linejoin="round" vector-effect="non-scaling-stroke"/><path d="M282 248.89 L260 245.1" fill="none" stroke="#111" stroke-width="1.2" stroke-linecap="round" stroke-linejoin="round" vector-effect="non-scaling-stroke"/><path d="M334 269.11 L363 264.32" fill="none" stroke="#111" stroke-width="1.2" stroke-linecap="round" stroke-linejoin="round" vector-effect="non-scaling-stroke"/><path d="M282 289.33 L246 287.94" fill="none" stroke="#111" stroke-width="1.2" stroke-linecap="round" stroke-linejoin="round" vector-effect="non-scaling-stroke"/><path d="M334 309.56 L377 312.84" fill="none" stroke="#111" stroke-width="1.2" stroke-linecap="round" stroke-linejoin="round" vector-effect="non-scaling-stroke"/><path d="M282 329.78 L260 334.72" fill="none" stroke="#111" stroke-width="1.2" stroke-linecap="round" stroke-linejoin="round" vector-effect="non-scaling-stroke"/><path d="M334 350 L363 352.06" fill="none" stroke="#111" stroke-width="1.2" stroke-linecap="round" stroke-linejoin="round" vector-effect="non-scaling-stroke"/><path d="M282 370.22 L246 367.5" fill="none" stroke="#111" stroke-width="1.2" stroke-linecap="round" stroke-linejoin="round" vector-effect="non-scaling-stroke"/><path d="M334 390.44 L377 385.44" fill="none" stroke="#111" stroke-width="1.2" stroke-linecap="round" stroke-linejoin="round" vector-effect="non-scaling-stroke"/><path d="M282 410.67 L260 407.98" fill="none" stroke="#111" stroke-width="1.2" stroke-linecap="round" stroke-linejoin="round" vector-effect="non-scaling-stroke"/><path d="M334 430.89 L363 432.99" fill="none" stroke="#111" stroke-width="1.2" stroke-linecap="round" stroke-linejoin="round" vector-effect="non-scaling-stroke"/><path d="M282 451.11 L246 456.06" fill="none" stroke="#111" stroke-width="1.2" stroke-linecap="round" stroke-linejoin="round" vector-effect="non-scaling-stroke"/><path d="M334 471.33 L377 474.58" fill="none" stroke="#111" stroke-width="1.2" stroke-linecap="round" stroke-linejoin="round" vector-effect="non-scaling-stroke"/><path d="M282 491.56 L260 490.12" fill="none" stroke="#111" stroke-width="1.2" stroke-linecap="round" stroke-linejoin="round" vector-effect="non-scaling-stroke"/><path d="M334 511.78 L363 506.97" fill="none" stroke="#111" stroke-width="1.2" stroke-linecap="round" stroke-linejoin="round" vector-effect="non-scaling-stroke"/><path d="M282 532 L246 528.25" fill="none" stroke="#111" stroke-width="1.2" stroke-linecap="round" stroke-linejoin="round" vector-effect="non-scaling-stroke"/><path d="M334 552.22 L377 552.97" fill="none" stroke="#111" stroke-width="1.2" stroke-linecap="round" stroke-linejoin="round" vector-effect="non-scaling-stroke"/><path d="M282 572.44 L260 577.01" fill="none" stroke="#111" stroke-width="1.2" stroke-linecap="round" stroke-linejoin="round" vector-effect="non-scaling-stroke"/><path d="M334 592.67 L363 596.85" fill="none" stroke="#111" stroke-width="1.2" stroke-linecap="round" stroke-linejoin="round" vector-effect="non-scaling-stroke"/><path d="M282 612.89 L246 612.84" fill="none" stroke="#111" stroke-width="1.2" stroke-linecap="round" stroke-linejoin="round" vector-effect="non-scaling-stroke"/><path d="M334 633.11 L377 628.88" fill="none" stroke="#111" stroke-width="1.2" stroke-linecap="round" stroke-linejoin="round" vector-effect="non-scaling-stroke"/><path d="M282 653.33 L260 648.81" fill="none" stroke="#111" stroke-width="1.2" stroke-linecap="round" stroke-linejoin="round" vector-effect="non-scaling-stroke"/><path d="M334 673.56 L363 672.89" fill="none" stroke="#111" stroke-width="1.2" stroke-linecap="round" stroke-linejoin="round" vector-effect="non-scaling-stroke"/><path d="M282 693.78 L246 697.59" fill="none" stroke="#111" stroke-width="1.2" stroke-linecap="round" stroke-linejoin="round" vector-effect="non-scaling-stroke"/><path d="M334 714 L377 718.78" fill="none" stroke="#111" stroke-width="1.2" stroke-linecap="round" stroke-linejoin="round" vector-effect="non-scaling-stroke"/><path d="M230.02 312 L225.02 317.87 L219.4 323.42 L213.29 328.32 L206.86 332.31 L200.25 335.17 L193.64 336.73 L187.18 336.9 L181.04 335.68 L175.38 333.14 L170.33 329.41 L166.02 324.71 L162.56 319.3 L160.03 313.48 L158.5 307.58 L158 301.92 L158.55 296.83 L160.13 292.59 L162.71 289.43 L166.22 287.54 L170.57 287.01 L175.65 287.88 L181.34 290.11 L187.49 293.55 L193.96 298.03 L200.58 303.29 L207.18 309.04 L213.61 314.96 L219.69 320.71 L225.29 325.97 L230.25 330.45 L234.46 333.89 L237.81 336.12 L240.22 336.99 L241.62 336.46 L241.99 334.57 L241.31 331.41 L239.6 327.17 L236.9 322.08 L233.28 316.42 L228.84 310.52 L223.67 304.7 L217.91 299.29 L211.71 294.59 L205.22 290.86 L198.59 288.32 L192 287.1 L185.61 287.27 L179.58 288.83 L174.06 291.69 L169.18 295.68 L165.07 300.58 L161.84 306.13 L159.55 312 L158.28 317.87 L158.04 323.42 L158.85 328.32 L160.69 332.31 L163.5 335.17 L167.23 336.73 L171.77 336.9 L177.02 335.68 L182.84 333.14 L189.09 329.41 L195.61 324.71 L202.24 319.3 L208.81 313.48 L215.17 307.58 L221.14 301.92 L226.59 296.83 L231.38 292.59 L235.38 289.43 L238.5 287.54 L240.66 287.01 L241.81 287.88 L241.92 290.11 L240.98 293.55 L239.01 298.03 L236.08 303.29 L232.25 309.04 L227.61 314.96 L222.28 320.71 L216.4 325.97 L210.11 330.45 L203.56 333.89 L196.93 336.12 L190.38 336.99 L184.06 336.46 L178.14 334.57 L172.77 331.41 L168.08 327.17 L164.18 322.08 L161.17 316.42 L159.14 310.52 L158.12 304.7 L158.14 299.29 L159.21 294.59 L161.3 290.86 L164.35 288.32 L168.29 287.1 L173.02 287.27 L178.43 288.83 L184.37 291.69 L190.7 295.68 L197.26 300.58 L203.89 306.13 L210.43 312 L216.7 317.87 L222.56 323.42 L227.86 328.32 L232.46 332.31 L236.25 335.17 L239.14 336.73 L241.05 336.9 L241.94 335.68 L241.78 333.14 L240.58 329.41 L238.37 324.71 L235.2 319.3 L231.16 313.48 L226.34 307.58 L220.86 301.92 L214.86 296.83 L208.49 292.59 L201.91 289.43 L195.28 287.54 L188.77 287.01 L182.54 287.88 L176.74 290.11 L171.53 293.55 L167.02 298.03 L163.34 303.29 L160.57 309.04 L158.79 314.96 L158.03 320.71 L158.31 325.97 L159.64 330.45 L161.98 333.89 L165.26 336.12 L169.41 336.99 L174.32 336.46 L179.87 334.57 L185.92 331.41 L192.32 327.17 L198.92 322.08 L205.54 316.42 L212.03 310.52 L218.21 304.7 L223.94 299.29 L229.08 294.59 L233.48 290.86 L237.06 288.32 L239.71 287.1 L241.37 287.27 L241.99 288.83 L241.58 291.69 L240.12 295.68 L237.66 300.58 L234.27 306.13 L230.02 312" fill="none" stroke="#111" stroke-width="0.95" stroke-linecap="round" stroke-linejoin="round" vector-effect="non-scaling-stroke"/></g></g>
</svg>