<svg xmlns="http://www.w3.org/2000/svg" viewBox="0 0 640 872">
  <rect width="100%" height="100%" fill="#fff"/>
  <g data-layer="panel_frame"><text x="22" y="42" font-family="Helvetica, Arial, sans-serif" font-size="20" letter-spacing=".04em" fill="#111">01 Wrapped PCM</text><rect x="20" y="56" width="600" height="760" fill="#fff" stroke="#111" stroke-width="1.2"/></g>
  <g data-layer="sound_vector_engine"><g data-engine="wrapped_pcm"><ellipse cx="320" cy="390.4" rx="176" ry="54" fill="none" stroke="#111" stroke-width="1.1" vector-effect="non-scaling-stroke"/><ellipse cx="320" cy="390.4" rx="130.24" ry="128" fill="none" stroke="#111" stroke-width="0.9" vector-effect="non-scaling-stroke" transform="rotate(-24 320 390.4)"/><path d="M320 711 L320 191" fill="none" stroke="#111" stroke-width="5.8" stroke-linecap="round" stroke-linejoin="round" vector-effect="non-scaling-stroke"/><path d="M320 191 L332.55 211.48 L307.45 211.48 Z" fill="#111" stroke="#111" stroke-width="0"/><path d="M106 538.4 L526 492.4" fill="none" stroke="#111" stroke-width="5.4" stroke-linecap="round" stroke-linejoin="round" vector-effect="non-scaling-stroke"/><path d="M526 492.4 L507.61 506.64 L504.96 482.47 Z" fill="#111" stroke="#111" stroke-width="0"/><path d="M175 274.4 L506 370.4" fill="none" stroke="#111" stroke-width="3.4" stroke-linecap="round" stroke-linejoin="round" vector-effect="non-scaling-stroke"/><path d="M506 370.4 L487.23 375.55 L492.9 356.01 Z" fill="#111" stroke="#111" stroke-width="0"/><path d="M320 390.4 L512 264" fill="none" stroke="#111" stroke-width="2.2" stroke-linecap="round" stroke-linejoin="round" vector-effect="non-scaling-stroke"/><path d="M348.44 390.4 L345.78 395.1 L342.48 399.53 L338.61 403.46 L334.28 406.65 L329.6 408.93 L324.67 410.18 L319.63 410.32 L314.6 409.35 L309.7 407.31 L305.06 404.33 L300.79 400.57 L297 396.24 L293.79 391.58 L291.22 386.86 L289.38 382.34 L288.3 378.26 L288.01 374.87 L288.51 372.34 L289.81 370.83 L291.85 370.41 L294.6 371.11 L297.98 372.89 L301.91 375.64 L306.29 379.23 L311.01 383.44 L315.95 388.03 L321 392.77 L326.02 397.36 L330.9 401.57 L335.5 405.16 L339.71 407.91 L343.43 409.69 L346.57 410.39 L349.05 409.97 L350.8 408.46 L351.78 405.93 L351.97 402.54 L351.37 398.46 L349.98 393.94 L347.84 389.22 L345.01 384.56 L341.56 380.23 L337.57 376.47 L333.14 373.49 L328.38 371.45 L323.42 370.48 L318.37 370.62 L313.36 371.87 L308.51 374.15 L303.95 377.34 L299.8 381.27 L296.14 385.7 L293.08 390.4 L290.69 395.1 L289.04 399.53 L288.15 403.46 L288.06 406.65 L288.76 408.93 L290.25 410.18 L292.47 410.32 L295.39 409.35 L298.91 407.31 L302.96 404.33 L307.44 400.57 L312.23 396.24 L317.21 391.58 L322.26 386.86 L327.26 382.34 L332.08 378.26 L336.59 374.87 L340.69 372.34 L344.28 370.83 L347.25 370.41 L349.55 371.11 L351.12 372.89 L351.9 375.64 L351.9 379.23 L351.09 383.44 L349.51 388.03 L347.2 392.77 L344.21 397.36 L340.61 401.57 L336.5 405.16 L331.98 407.91 L327.16 409.69 L322.16 410.39 L317.1 409.97 L312.12 408.46 L307.34 405.93 L302.87 402.54 L298.83 398.46 L295.32 393.94 L292.42 389.22 L290.21 384.56 L288.74 380.23 L288.05 376.47 L288.16 373.49 L289.06 371.45 L290.74 370.48 L293.14 370.62 L296.21 371.87 L299.88 374.15 L304.05 377.34 L308.61 381.27 L313.46 385.7 L318.47 390.4 L323.52 395.1 L328.49 399.53 L333.24 403.46 L337.66 406.65 L341.64 408.93 L345.08 410.18 L347.9 410.32 L350.02 409.35 L351.39 407.31 L351.98 404.33 L351.77 400.57 L350.77 396.24 L349 391.58 L346.51 386.86 L343.36 382.34 L339.63 378.26 L335.4 374.87 L330.79 372.34 L325.92 370.83 L320.89 370.41 L315.85 371.11 L310.91 372.89 L306.19 375.64 L301.82 379.23 L297.9 383.44 L294.53 388.03 L291.8 392.77 L289.77 397.36 L288.5 401.57 L288.01 405.16 L288.31 407.91 L289.41 409.69 L291.27 410.39 L293.85 409.97 L297.08 408.46 L300.88 405.93 L305.16 402.54 L309.8 398.46 L314.7 393.94 L319.74 389.22 L324.78 384.56 L329.7 380.23 L334.38 376.47 L338.7 373.49 L342.55 371.45 L345.85 370.48 L348.49 370.62 L350.43 371.87 L351.61 374.15 L352 377.34 L351.59 381.27 L350.4 385.7 L348.44 390.4" fill="none" stroke="#111" stroke-width="0.9" stroke-linecap="round" stroke-linejoin="round" vector-effect="non-scaling-stroke"/><g data-layer="pcm_wrapped"><path d="M459.5 313.9 L458.62 315.69 L459 317.49 L456.6 319.19 L454.34 320.83 L452.42 322.45 L451.08 324.08 L450.57 325.79 L451.21 327.66 L448.43 329.11 L444.55 330.32 L440.41 331.4 L437.9 332.71 L437.4 334.43 L435.42 335.86 L435.08 337.7 L432.95 339.13 L431.11 340.65 L430.26 342.53 L426.82 343.59 L424.22 344.94 L419.68 345.52 L416.66 346.69 L414.37 348.2 L412.47 349.99 L410.74 351.98 L407.62 353.33 L402.57 353.57 L397 353.36 L391.54 353.08 L386.15 352.7 L380.2 351.68 L375.37 351.42 L371.24 351.74 L367.02 351.98 L364.04 353.75 L359.9 354.28 L355.35 354.27 L350.33 353.36 L344.9 351.22 L340.34 350.48 L336.05 350.29 L331.68 349.65 L327.64 350.92 L323.32 351.41 L318.87 352.37 L314.22 353.41 L309.45 353.87 L305.05 352.39 L300.83 350.9 L297.09 348.7 L293.25 347.26 L288.92 346.94 L284.53 346.68 L280.33 346.13 L276.51 345.14 L272.83 344.09 L268.73 343.55 L266.22 341.61 L263.8 339.82 L260.86 338.61 L258.9 336.85 L255.74 336.03 L251.01 336.2 L246.98 335.89 L242.88 335.58 L238.9 335.18 L236.25 334.16 L232.18 333.79 L227.76 333.53 L223.7 333.08 L219.55 332.63 L214.81 332.32 L211.5 331.53 L206.91 331.08 L204 330.15 L202.44 328.91 L203.16 327.24 L202.71 325.93 L200.7 324.95 L198.45 324.01 L196.38 323.05 L194.29 322.08 L194.28 320.88 L195.09 319.66 L195.88 318.5 L198.18 317.32 L198.85 316.3 L199.57 315.32 L200.33 314.36 L196.45 313.4 L190.91 312.28 L187.96 311.08 L186.52 309.84 L185.03 308.53 L188.65 307.58 L188.48 306.32 L190.46 305.26 L190.32 303.92 L189.36 302.39 L188.01 300.67 L188.15 299.11 L188.19 297.43 L190.44 296.16 L192.86 294.89 L197.45 294.18 L205.17 294.43 L209.54 293.83 L213.44 293.11 L218.08 292.68 L220.73 291.53 L222.91 290.13 L226.93 289.46 L230.11 288.39 L234.84 288.07 L239.94 288.01 L244.88 287.95 L248.73 287.27 L252.28 286.37 L255.07 284.85 L257.55 282.9 L260.22 280.88 L263.92 279.6 L268.63 279.24 L272.44 277.85 L276.39 276.48 L281.13 276.05 L285.95 275.79 L290.68 275.42 L295.17 274.53 L299.92 274.21 L304.61 273.71 L309.55 274.49 L314.39 276.15 L318.91 277.6 L323.25 277.57 L327.54 277.63 L331.75 277.84 L335.96 277.84 L340.12 277.9 L343.67 279.25 L347.63 279.42 L351.48 279.7 L355.01 280.38 L358.02 281.56 L362.27 281.15 L366.65 280.72 L372.55 278.99 L377.79 278.17 L382.99 277.57 L386.93 278.04 L389.44 279.48 L392.91 280.2 L394.96 281.74 L398.28 282.48 L400.88 283.59 L405.54 283.7 L410.12 283.94 L415.01 284.16 L418.19 285.13 L420.74 286.34 L419.82 288.67 L418.71 290.89 L419.29 292.49 L420.68 293.82 L422.88 294.93 L426.81 295.68 L431.6 296.34 L434.9 297.4 L438.73 298.43 L442.93 299.49 L443.99 301.06 L442.48 302.91 L443.72 304.42 L445.79 305.88 L448.98 307.31 L452.27 308.82 L454.7 310.44 L456.96 312.14 L456.67 313.9" fill="none" stroke="#111" stroke-width="0.92" stroke-linecap="round" stroke-linejoin="round" vector-effect="non-scaling-stroke"/><path d="M452.82 341.42 L451.69 343.15 L450.32 344.86 L447.43 346.25 L442.63 347.12 L439.9 348.45 L436.85 349.69 L434.77 351.22 L431.45 352.36 L427.68 353.31 L423.14 353.92 L417.56 354.02 L413.75 354.78 L411.6 356.33 L408.43 357.45 L405.29 358.62 L402.41 360 L398 360.48 L395.46 362.26 L391.36 363.03 L386.07 362.84 L381.26 362.97 L376.69 363.27 L373.01 364.54 L369.38 366.1 L365.49 367.63 L360.6 367.96 L355.58 368.1 L349.7 366.46 L344.26 365.26 L338.96 363.91 L333.83 362.43 L329.04 361.84 L324.28 360.72 L319.65 360.81 L314.85 362.13 L310.03 362 L305.2 361.81 L300.83 360.09 L296.86 357.88 L292.97 356.14 L288.77 355.31 L284.34 354.94 L279.83 354.66 L274.23 355.65 L269 355.94 L263.88 355.98 L258.9 355.79 L254.84 354.79 L252.29 352.69 L249.97 350.66 L247.92 348.68 L244.2 347.89 L240.21 347.3 L236 346.81 L232.6 345.92 L230.9 344.3 L227.16 343.67 L225.51 342.21 L224.84 340.51 L224.76 338.75 L223.77 337.43 L221.62 336.56 L217.78 336.19 L213.9 335.79 L210.65 335.2 L207.94 334.48 L205.53 333.69 L203.22 332.88 L199.93 332.23 L196.06 331.61 L193.25 330.8 L189.97 330 L188.3 329 L184.06 328.17 L184.2 327 L183.32 325.9 L185.98 324.7 L188.16 323.6 L187.66 322.56 L186.71 321.49 L184.54 320.34 L185.16 319.25 L187.89 318.3 L190.6 317.4 L192.58 316.47 L195.91 315.72 L198.89 314.98 L200.95 314.14 L203.22 313.34 L201.06 311.71 L198.37 309.81 L197.23 308.05 L197.3 306.43 L199.55 305.27 L202.34 304.22 L205.78 303.34 L208.16 302.11 L209.72 300.52 L210.82 298.64 L212.6 296.88 L214.19 294.9 L216.93 293.3 L220.86 292.19 L224.91 291.1 L230.5 290.87 L237.56 291.66 L243.67 292.03 L248.88 291.92 L252.99 291 L257.27 290.18 L261.98 289.72 L266.45 289.03 L271.05 288.46 L275.89 288.19 L280.68 287.9 L286.08 288.71 L291.01 289 L295.48 288.51 L299.39 286.42 L303.79 285.11 L308.31 283.64 L313.06 282.72 L317.91 281.59 L322.84 281.3 L327.83 280.65 L332.78 280.52 L337.58 280.86 L342.32 281.2 L347.4 280.6 L352.34 280.46 L356.87 281.03 L360.6 282.63 L364.3 283.93 L367.05 286.09 L371 286.66 L374.46 287.62 L378.78 287.74 L381.71 289 L385.11 289.79 L388.04 290.85 L390.99 291.82 L394.22 292.57 L396.83 293.64 L398.18 295.29 L401.71 295.79 L407.23 295.46 L413.67 294.9 L418.78 295.05 L424.23 295.2 L427.01 296.35 L428.43 297.93 L429.24 299.63 L430.62 301.11 L432.47 302.45 L434.73 303.68 L436.15 305.1 L441.11 305.86 L445.58 306.81 L448.06 308.17 L447.82 309.93 L446.66 311.73 L441.76 313.83 L440.46 315.45 L440.3 316.93 L441.89 318.3 L443.24 319.71 L445.95 321.13 L449.56 322.63 L453.34 324.24 L453.78 325.88 L452.96 327.48 L451.31 329.03 L449.36 330.51 L449.92 332.19 L450.11 333.87 L452.67 335.89 L454.49 337.94 L453.57 339.65 L452.08 341.29" fill="none" stroke="#111" stroke-width="0.62" stroke-linecap="round" stroke-linejoin="round" vector-effect="non-scaling-stroke"/><path d="M428.29 365.51 L425.61 367.05 L421.45 367.93 L415.73 367.99 L410.86 368.39 L406.31 368.92 L401.97 369.54 L397.89 370.35 L393.85 371.22 L389.16 371.6 L383.45 371.06 L377.84 370.43 L373.07 370.51 L368.86 371.23 L364.42 371.77 L360.18 372.71 L355.51 373.16 L351.05 374.17 L346.15 374.51 L341.12 374.68 L335.93 374.32 L330.68 373.47 L325.57 372.94 L320.5 373.38 L315.29 374.36 L309.86 375.43 L304.35 375.86 L299.25 374.55 L294.27 373.29 L289.95 370.93 L285.51 369.35 L281.43 367.5 L277.63 365.58 L273 365 L268.29 364.52 L262.74 364.87 L257.45 364.84 L253.71 363.42 L250.92 361.41 L248.68 359.22 L246.01 357.55 L242.59 356.51 L238.28 356.04 L234.19 355.45 L228.99 355.4 L223.34 355.49 L217.35 355.63 L212.72 355.11 L210.16 353.79 L210.69 351.47 L209.77 349.84 L208.89 348.31 L206.73 347.26 L202.71 346.72 L200.2 345.79 L198.51 344.71 L197.36 343.56 L196.11 342.48 L196.84 341.13 L197.22 339.94 L199.25 338.61 L199.94 337.56 L198.49 336.78 L195.14 336.14 L192.39 335.39 L190.4 334.55 L190.49 333.61 L190.68 332.68 L188.59 331.76 L188.05 330.8 L186.25 329.77 L184.86 328.69 L182.22 327.46 L182.75 326.37 L180.84 325.02 L182.2 323.93 L183.4 322.81 L187.21 322.05 L190.49 321.26 L192.91 320.34 L192.69 318.88 L193.51 317.55 L196.29 316.6 L199.01 315.63 L204.2 315.33 L207.85 314.64 L211.99 314.12 L217.43 314.09 L220.96 313.43 L223.75 312.46 L224.86 310.69 L224.7 308.16 L225.64 305.89 L227.48 303.87 L231.29 302.79 L236.08 302.26 L240.33 301.38 L244.53 300.43 L248.48 299.22 L251.2 296.83 L255.04 295.17 L258.96 293.38 L263.24 291.76 L268.38 290.98 L273.58 290.25 L279.49 290.62 L285.82 292.05 L291.8 293.43 L297.01 293.53 L301.89 292.73 L306.94 292.5 L311.96 292.13 L317 291.99 L322.02 291.42 L326.98 291.84 L331.76 292.72 L336.29 293.85 L340.75 294.58 L345.54 294.25 L350.67 293.34 L356.37 291.73 L361.97 290.66 L367.12 290.45 L371.5 291.22 L376.66 291.05 L381.82 290.98 L385.99 291.85 L390.95 292.01 L395.16 292.79 L399.53 293.42 L403.7 294.18 L407.83 294.96 L410.43 296.57 L410.87 299.19 L412.16 301.16 L413.88 302.79 L416.92 303.78 L420.12 304.69 L423.08 305.71 L424.73 307.16 L426.24 308.61 L427.59 310.05 L430.02 311.16 L430.63 312.72 L431.43 314.18 L433.13 315.41 L437.1 316.22 L442.67 316.83 L447.53 317.7 L451.68 318.79 L453.98 320.19 L452.03 322.05 L452.11 323.65 L453.13 325.15 L451.29 326.82 L452.63 328.3 L453.86 329.81 L456.69 331.35 L457.77 332.95 L459.34 334.6 L457.82 336.18 L453.25 337.56 L449.65 338.87 L444.9 339.99 L444.54 341.45 L442.37 342.71 L443.47 344.38 L443.97 346.04 L444.85 347.84 L445.54 349.7 L444.82 351.34 L443.3 352.85 L439.18 353.74 L435.65 354.71 L434.44 356.32 L434.33 358.33 L433.8 360.34 L432.59 362.22 L430.72 363.94 L427.07 365" fill="none" stroke="#111" stroke-width="0.62" stroke-linecap="round" stroke-linejoin="round" vector-effect="non-scaling-stroke"/><path d="M384.84 383.24 L380.27 384.11 L374.64 383.85 L369.47 384.07 L363.86 383.65 L358.31 383.17 L352.8 382.62 L347.76 382.92 L342.64 383.19 L337.19 382.44 L331.83 381.61 L326.49 380.06 L321.39 379.69 L316.28 379.65 L311.07 380.09 L305.72 380.6 L300.51 380.15 L295.2 380.01 L289.47 380.68 L284.22 380.14 L279.35 379 L274.68 377.72 L269.37 377.44 L263.8 377.39 L257.74 377.75 L251.54 378.07 L246.81 377 L242.21 375.89 L238.64 374.11 L235.71 372.07 L232.63 370.32 L230.38 368.25 L228.32 366.27 L225.61 364.8 L221.04 364.31 L215.5 364.23 L211.22 363.56 L207.41 362.7 L206.17 360.96 L206.66 358.79 L205.82 357.22 L203.07 356.32 L201.78 355.06 L197.51 354.59 L192.94 354.14 L187.45 353.81 L183.77 353.06 L179.56 352.35 L179.42 350.99 L180.65 349.53 L183.18 348.02 L184.06 346.82 L183.21 345.83 L182.34 344.86 L181.49 343.89 L179.63 342.94 L180.4 341.92 L181.95 340.92 L182.93 339.97 L187.16 339.14 L188.88 338.3 L191.44 337.56 L192.52 336.74 L191.59 335.74 L190.58 334.65 L190.16 333.55 L191.28 332.59 L193.41 331.76 L193.6 330.58 L194.4 329.43 L194.61 328.09 L194.45 326.55 L196.06 325.34 L197.41 323.98 L197.41 322.12 L200.51 321.1 L203.57 320.03 L208.97 319.79 L214.19 319.55 L217.85 318.7 L220 317.12 L222.48 315.56 L226.28 314.57 L231.54 314.36 L236.78 314.21 L241.67 313.87 L247.21 314.04 L252 313.75 L256.51 313.24 L261.28 312.97 L264.28 310.95 L266.82 308.08 L270.37 305.93 L274.41 304.05 L279.38 303.26 L284.66 302.94 L289.83 302.43 L294.81 301.4 L299.93 300.52 L305.1 299.49 L310.21 297.27 L315.68 296.02 L321.29 294.84 L326.95 294.6 L332.61 294.42 L338.07 294.98 L342.8 297.4 L347.62 298.63 L352.5 299.32 L357.23 300.07 L362.18 300.31 L367.01 300.66 L371.97 300.82 L377.18 300.73 L381.18 301.87 L384.61 303.39 L387.92 304.81 L391.58 305.81 L395.76 306.38 L401.42 305.98 L407.89 305.24 L413.46 305.2 L418.46 305.56 L421.66 306.86 L426.99 307.16 L430.3 308.39 L434.74 309.16 L438 310.41 L440.3 311.97 L443.65 313.16 L445.82 314.71 L448.29 316.14 L449.77 317.81 L447.88 320.21 L447.62 322.11 L446.84 324.01 L448.26 325.44 L450.18 326.78 L451.16 328.26 L451.5 329.8 L451.99 331.31 L452.18 332.82 L451.6 334.36 L449.02 335.97 L449.83 337.35 L449.43 338.77 L452.51 340.14 L456.31 341.62 L459.68 343.2 L462.41 344.87 L461.36 346.44 L459.12 347.9 L458.21 349.44 L454.77 350.71 L452.79 352.08 L452.15 353.6 L451.17 355.1 L452.1 356.95 L452.62 358.81 L451.48 360.42 L448.66 361.68 L442.58 362.11 L435.99 362.26 L431.62 362.87 L427.56 363.5 L425.52 364.74 L425.29 366.68 L422.68 367.84 L421.78 369.74 L421.28 371.96 L418.3 373.19 L413.63 373.61 L409.48 374.26 L404.77 374.55 L401.07 375.44 L398.52 377.18 L395.51 378.76 L392.81 380.78 L388.78 381.9 L383.89 382.32" fill="none" stroke="#111" stroke-width="0.62" stroke-linecap="round" stroke-linejoin="round" vector-effect="non-scaling-stroke"/><path d="M328.1 393.08 L322.51 393.02 L316.89 392.92 L311.37 391.73 L305.84 391.23 L300.55 389.99 L295.07 389.64 L289.76 388.9 L284.16 388.79 L278.98 387.9 L274.75 385.76 L269.91 384.76 L265.4 383.5 L260.04 383.26 L255.18 382.5 L249.38 382.59 L243.82 382.39 L239.3 381.38 L233.64 381.19 L229.24 380.17 L225.11 379.03 L220.56 378.19 L217.34 376.71 L211.97 376.34 L205.35 376.48 L199.56 376.16 L195.25 375.21 L192.28 373.79 L191.29 371.8 L190.51 369.89 L190.52 367.91 L189.45 366.37 L189 364.79 L187.3 363.61 L183.48 362.9 L179.93 362.12 L177.02 361.2 L176.16 359.97 L176.57 358.62 L179.15 357.1 L179.59 355.94 L180.6 354.8 L177.79 353.99 L176.6 353.05 L172.96 352.17 L170.48 351.18 L166.01 350.12 L166.66 349 L168.38 347.91 L170.13 346.87 L175.93 346.1 L178.38 345.22 L178.16 344.15 L178.4 343.06 L180.08 342.11 L181.58 341.12 L184.77 340.38 L186.25 339.36 L190.92 338.93 L195.55 338.56 L198.66 337.9 L203.28 337.63 L206.34 336.98 L206.27 335.39 L208.09 334.26 L209.02 332.72 L212.83 332.11 L215.21 330.92 L217.41 329.56 L219.52 328.04 L222.88 327 L225.58 325.53 L227.55 323.5 L230.83 322.05 L234.34 320.62 L238.9 319.79 L243.93 319.28 L249.11 318.88 L254.94 319.12 L259.13 317.85 L264.17 317.36 L268.44 315.93 L273.38 315.19 L278.51 314.66 L284.4 315.45 L289.49 315.01 L295.23 316.18 L300.36 316.22 L305.53 316.71 L310.33 315.7 L315.21 314.26 L320.28 311.19 L325.69 309.27 L331.21 308.3 L336.82 307.49 L342.17 307.79 L347.55 307.85 L352.9 307.93 L358.47 307.59 L364.68 306.37 L370.68 305.74 L377.4 304.4 L383.07 304.52 L388.45 304.96 L393.74 305.47 L397.38 307.34 L400.43 309.45 L402.86 311.76 L406.89 312.77 L411.33 313.48 L415.73 314.21 L419.17 315.46 L423.4 316.25 L426.91 317.39 L430.33 318.54 L432.7 320.08 L434.26 321.85 L435.39 323.68 L438.31 324.83 L444.54 325.01 L448.52 325.94 L453.6 326.65 L458.26 327.56 L460.67 329.03 L462.94 330.53 L465.41 332 L468.04 333.46 L469.11 335.17 L470.38 336.83 L471.08 338.55 L472.84 340.16 L474.09 341.82 L471.71 343.71 L469.55 345.49 L465.31 347.25 L464.2 348.82 L463.72 350.37 L463.58 351.9 L462.08 353.39 L461.27 354.88 L458.76 356.25 L456.48 357.58 L455.15 358.96 L451.42 360.05 L449.32 361.27 L448.49 362.66 L448.04 364.13 L450.45 366.18 L452.56 368.33 L451.73 369.98 L450.28 371.54 L446.08 372.41 L442.75 373.47 L438.86 374.33 L435.43 375.3 L432.2 376.32 L429.92 377.71 L427.27 379 L426.44 381.15 L423.11 382.3 L417.48 382.32 L411.59 382.08 L404.77 381.16 L399.38 380.89 L395.27 381.37 L391.01 381.75 L388.18 383.28 L384.92 384.64 L381.49 386.02 L378.36 387.96 L373.61 388.38 L368.39 388.26 L363.56 388.64 L357.79 387.53 L353.31 388.56 L348.69 389.68 L343.88 390.82 L338.81 391.72 L333.59 392.73 L327.97 391.92" fill="none" stroke="#111" stroke-width="0.92" stroke-linecap="round" stroke-linejoin="round" vector-effect="non-scaling-stroke"/><path d="M266.81 396.84 L261.17 396.36 L255.85 395.54 L251.19 394.12 L245.99 393.34 L242.28 391.39 L236.99 390.83 L232.07 390.02 L227.33 389.11 L222.68 388.21 L220.1 386.2 L216.79 384.75 L213.31 383.5 L209.08 382.66 L203.74 382.31 L199.06 381.65 L195.34 380.65 L191.36 379.76 L186.93 379.02 L183.23 378.06 L181.4 376.62 L178.67 375.48 L176.2 374.32 L171.83 373.58 L167.27 372.84 L162.11 372.14 L159.86 370.91 L159.73 369.42 L160.43 367.9 L160.66 366.53 L162.6 365.07 L165.01 363.69 L165.86 362.51 L167.14 361.37 L166.36 360.34 L162.42 359.31 L161.12 358.19 L161.84 357.07 L165.41 356.08 L171.18 355.3 L172.26 354.34 L174.4 353.46 L174.84 352.43 L174.52 351.26 L175.32 350.16 L173.33 348.59 L172.51 347.05 L173.5 345.74 L176.38 344.75 L181.84 344.34 L188.69 344.37 L191.65 343.47 L194.76 342.6 L197.41 341.54 L199.81 340.34 L204.25 339.81 L207.52 338.83 L212.28 338.42 L217.16 338.09 L221.92 337.73 L228.04 338.1 L232.84 337.86 L237.09 337.31 L240.01 335.88 L242.48 333.97 L246.04 332.65 L250.75 332.1 L255.38 331.47 L259.37 330.17 L263.54 328.89 L267.53 327.2 L272.13 326.02 L276.64 324.51 L281.58 323.43 L286.13 321.34 L291.69 321.03 L297.14 320.42 L302.9 320.95 L308.62 322.05 L313.96 321.52 L319.34 320.7 L324.79 320.1 L330.29 319.47 L335.62 319.93 L340.81 320.48 L345.72 321.45 L350.59 322.15 L355.39 322.73 L360.12 323.26 L365.24 323.13 L370.73 322.59 L378 320.2 L384.35 319.2 L390.38 318.73 L396.27 318.5 L400.23 319.87 L405.59 320.11 L409.83 321.14 L414.96 321.56 L421.49 321.22 L427.56 321.28 L434.19 321.16 L439.48 321.81 L443.75 322.96 L447.87 324.16 L450.41 325.94 L449.71 328.78 L450.69 330.86 L451.84 332.77 L454.98 334.04 L458.35 335.25 L460.98 336.66 L462.26 338.37 L464.32 339.87 L466.06 341.42 L466.53 343.17 L464.88 345.17 L465.06 346.82 L467.4 348.2 L470.01 349.59 L474.77 350.86 L477.22 352.4 L479.27 354 L480.97 355.67 L482.7 357.37 L481.56 359.12 L482.53 360.87 L480.78 362.57 L480.01 364.28 L480.28 366.04 L479.17 367.73 L477.59 369.37 L473.79 370.75 L468.06 371.79 L463.21 372.82 L460.23 374.05 L456.96 375.19 L455 376.54 L452.28 377.74 L449.59 378.92 L445.82 379.82 L441.35 380.47 L437.89 381.35 L433.48 381.9 L429.12 382.39 L426.74 383.58 L425.53 385.29 L425.65 387.71 L424.72 389.88 L421.84 391.27 L417.92 392.19 L412.56 392.3 L407.58 392.57 L402.46 392.69 L397.5 392.87 L393.46 393.73 L388.52 393.9 L385.37 395.72 L381.01 396.61 L376.42 397.37 L371.28 397.57 L364.98 396.15 L358.64 394.23 L353.26 393.51 L348.17 393.2 L343.19 393.12 L338.46 393.9 L333.54 394.52 L328.54 395.58 L323.33 396.55 L317.94 397.1 L312.53 396.66 L307.15 396.12 L302.04 394.74 L296.61 394.71 L290.82 395.4 L284.86 396.06 L278.77 396.65 L272.45 397.31 L267.27 396.24" fill="none" stroke="#111" stroke-width="0.62" stroke-linecap="round" stroke-linejoin="round" vector-effect="non-scaling-stroke"/><path d="M209.42 396.34 L203.94 395.8 L199.44 394.8 L197 392.98 L193.47 391.72 L191.68 389.9 L187.08 389.17 L184.3 387.87 L180.87 386.82 L178.54 385.51 L176.94 384.08 L175.52 382.7 L173.86 381.44 L170.62 380.56 L167.95 379.56 L165.05 378.61 L161.24 377.78 L158.61 376.75 L157.14 375.59 L155.28 374.47 L153.87 373.32 L155.25 372 L155.13 370.83 L151.86 369.75 L148.44 368.58 L147.16 367.33 L145.52 366.02 L147.96 364.8 L151 363.67 L154.1 362.61 L158.99 361.76 L161.65 360.79 L165.74 360.02 L168.26 359.1 L168.74 357.88 L168.75 356.51 L169.66 355.2 L173.06 354.33 L177.11 353.62 L183.55 353.52 L188.21 353.06 L192.4 352.51 L193.74 351.08 L195.78 349.76 L197.54 348.24 L198.51 346.27 L200.56 344.56 L204.19 343.39 L209.2 342.81 L215.08 342.69 L222.22 343.32 L227.29 342.91 L232.11 342.35 L236.1 341.19 L240.23 340.03 L245.09 339.34 L250.44 339.03 L255.71 338.68 L261.5 338.89 L267.04 338.95 L272.66 339.22 L278.16 339.46 L283.13 338.99 L287.71 337.73 L292.33 336.19 L297.36 335.28 L302.56 334.69 L307.92 334.73 L313.09 333.53 L318.4 332.25 L323.86 331.17 L329.43 330.17 L335.11 329.24 L341 328.02 L347.01 326.92 L352.7 326.86 L358.16 327.24 L363.07 328.39 L368.09 329.12 L372.88 329.99 L378.51 329.75 L384.45 329.28 L390.07 329.23 L394.13 330.57 L398.18 331.75 L402.57 332.58 L405.19 334.53 L408.91 335.59 L411.94 336.98 L417.04 337.14 L423.55 336.67 L430.37 336.21 L437.68 335.71 L443.21 336.12 L447.82 336.96 L451.13 338.3 L453.29 339.99 L457.08 341.12 L462.34 341.85 L466.1 343.06 L471.47 343.91 L477.8 344.66 L481.67 346.03 L484.12 347.71 L486.37 349.42 L485.46 351.6 L483.34 353.83 L480.93 355.97 L481.79 357.67 L481.32 359.46 L482.39 361.1 L483.58 362.75 L482.28 364.49 L484.18 366.13 L483.38 367.82 L481.26 369.47 L477.43 371.01 L475.26 372.51 L475.72 374.13 L477.54 375.89 L479.44 377.75 L479.71 379.53 L480.32 381.41 L478.58 383.03 L477.14 384.69 L476.16 386.47 L472.35 387.72 L469.62 389.16 L468.02 390.87 L463.73 391.93 L461.63 393.55 L457.76 394.68 L453.04 395.52 L446.34 395.6 L439.89 395.63 L434.03 395.74 L430.14 396.58 L427.09 397.82 L421.86 398.03 L417.64 398.71 L412.1 398.63 L407.33 398.93 L402.03 398.84 L397.63 399.32 L392.3 399.09 L387.45 399.17 L384.8 401.24 L381.48 403 L378.05 404.97 L373.9 406.47 L368.13 406.04 L362.6 405.86 L356.86 405.25 L351.4 405.01 L345.92 404.68 L340.34 403.9 L335.22 404.76 L329.9 405.42 L324.48 406.67 L318.84 406.92 L313.24 405.83 L307.85 404.25 L302.89 401.75 L298.18 399.55 L293.01 399.15 L287.89 398.68 L282.07 399.44 L276.25 399.92 L270.48 400.13 L264.65 400.28 L258.36 400.81 L253.44 399.83 L249.06 398.45 L244.83 397.1 L239.71 396.56 L232.76 397.3 L226.29 397.54 L220.88 397.04 L214.65 396.98 L209.85 396.11" fill="none" stroke="#111" stroke-width="0.62" stroke-linecap="round" stroke-linejoin="round" vector-effect="non-scaling-stroke"/><path d="M163.68 393.65 L161.2 392.4 L158.53 391.23 L157.07 389.86 L156.78 388.38 L156.42 386.99 L154.44 385.87 L152.72 384.74 L150.2 383.69 L151.35 382.34 L151.02 381.15 L153.13 379.89 L153.14 378.78 L151.64 377.7 L150.61 376.58 L149.37 375.43 L150.04 374.29 L149.08 373.06 L148.71 371.82 L148.82 370.56 L150.85 369.44 L153.84 368.45 L155.22 367.26 L155.97 365.95 L155.05 364.28 L154.93 362.63 L157.13 361.33 L160.99 360.35 L165.94 359.64 L170.74 358.93 L176.67 358.58 L183.54 358.6 L187.69 357.83 L191.87 357.06 L195.68 356.14 L196.88 354.09 L199.65 352.53 L205.03 352.07 L210.94 351.89 L218.41 352.62 L223.57 352.18 L228.88 351.85 L232.96 350.7 L237.43 349.72 L240.68 347.66 L244.28 345.63 L248.54 343.94 L253.41 342.62 L259.7 342.76 L266.01 343.07 L272.34 343.6 L278.33 343.83 L284.1 343.85 L289.23 342.55 L294.85 342.18 L300.37 341.48 L306.17 341.86 L311.82 341.97 L317.42 342.55 L322.88 343.15 L328.19 343.84 L333.37 344.44 L338.59 344.46 L344.16 343.4 L349.75 342.6 L355.56 341.6 L360.71 341.95 L366.13 341.81 L371.96 341.17 L377.9 340.55 L383.78 340.13 L389.61 339.86 L395.8 339.38 L401.19 339.65 L407.04 339.61 L412.31 340.03 L416.9 340.9 L420.76 342.15 L423.83 343.76 L428.06 344.65 L433.15 345.12 L439.21 345.2 L443.58 346.09 L445.72 347.84 L448.12 349.4 L449.54 351.21 L451.28 352.83 L453.04 354.36 L455.7 355.6 L458.9 356.7 L464.28 357.33 L470.59 357.88 L477.09 358.54 L480.97 359.78 L484.25 361.18 L483.77 363.11 L486.61 364.59 L488.24 366.23 L490.19 367.85 L493.56 369.41 L495.99 371.09 L499.72 372.78 L502.39 374.59 L502.55 376.48 L502.49 378.38 L500.06 380.21 L493.33 381.79 L489.98 383.38 L487.18 384.93 L486.69 386.64 L483.74 388.1 L483.1 389.8 L481.41 391.39 L479.73 392.98 L476.73 394.36 L472.22 395.41 L466.59 396.15 L463.24 397.3 L461.21 398.76 L459.49 400.34 L459.79 402.59 L457.76 404.25 L454.89 405.7 L451.58 407.04 L448.04 408.32 L444.99 409.85 L440.01 410.58 L435.38 411.44 L430.88 412.38 L426.46 413.39 L421.58 414.15 L416.66 414.91 L409.92 414.4 L403.13 413.69 L396.32 412.76 L390.54 412.54 L385.15 412.61 L380.05 412.97 L374.59 412.94 L369.02 412.73 L362.9 411.63 L357.68 411.77 L351.8 410.62 L346.39 410.21 L340.96 409.63 L335.75 409.7 L330.56 410.15 L325.35 411.89 L319.83 413.33 L314.06 414.46 L308.31 414.08 L302.74 412.98 L297.24 412.04 L291.93 410.84 L286.68 409.82 L281.25 409.31 L275.24 409.71 L269.46 409.62 L262.79 410.53 L257.35 409.86 L252.36 408.77 L248.99 406.32 L245.48 404.33 L241.91 402.63 L238.44 401.05 L233.2 400.79 L227.14 401.02 L221.53 400.9 L216.13 400.61 L209.67 400.83 L203.99 400.58 L200.44 399.39 L197.88 397.87 L193.9 397.01 L190.53 395.96 L184.29 395.88 L179.26 395.35 L172.44 395.28 L168.85 394.28 L165.8 393.16" fill="none" stroke="#111" stroke-width="0.62" stroke-linecap="round" stroke-linejoin="round" vector-effect="non-scaling-stroke"/><path d="M140.29 389.43 L138.98 388.24 L139.13 387 L139.71 385.77 L141.43 384.58 L144.17 383.47 L145.05 382.33 L144.01 381.07 L144.44 379.85 L147.33 378.83 L150.03 377.82 L153.68 376.96 L156.06 375.95 L157.63 374.8 L159.75 373.69 L159.68 372.12 L162.33 371 L164.66 369.77 L166.14 368.26 L169.37 367.13 L172.92 366.05 L177.23 365.17 L180.93 364.06 L184.56 362.87 L185.67 360.58 L188.33 358.73 L192.32 357.34 L197.89 356.64 L204.85 356.68 L211.77 356.81 L217.97 356.6 L224.44 356.62 L231.23 356.96 L237.22 356.81 L241.62 355.35 L245.7 353.4 L250.61 352.01 L256.48 351.51 L263.18 352.04 L270.03 353.02 L276.5 353.77 L282.07 353.21 L287.76 352.82 L293.22 351.81 L298.53 349.91 L304.23 348.68 L310 346.84 L316.03 345.63 L322.16 346.35 L328.14 347.03 L333.78 348.69 L339.52 348.89 L345.25 348.91 L351.09 348.62 L356.9 348.45 L362.5 348.64 L367.96 349 L372.96 349.86 L377.99 350.52 L381.99 352.17 L386.54 353.01 L390.39 354.34 L394.89 354.98 L401.1 354.28 L407.12 353.86 L411.58 354.55 L417.34 354.44 L421.67 355.21 L427.19 355.34 L432.76 355.51 L437.94 355.94 L443.25 356.36 L447.86 357.11 L454.3 357.24 L458.55 358.22 L462.28 359.38 L465.79 360.62 L468.04 362.18 L467.79 364.32 L471.19 365.51 L475.32 366.56 L479.38 367.68 L480.27 369.4 L481.8 370.98 L482.41 372.66 L481.3 374.5 L481.11 376.16 L480.64 377.79 L480.23 379.37 L482.14 380.78 L485.63 382.18 L490.29 383.64 L494.72 385.23 L497.24 386.95 L497.84 388.7 L496.16 390.39 L495.4 392.09 L494.52 393.79 L495.54 395.66 L494.87 397.43 L496.69 399.52 L498.7 401.77 L497.26 403.62 L494.97 405.34 L492.47 407.04 L487.83 408.29 L479.84 408.7 L474.24 409.52 L470.36 410.7 L466.35 411.83 L462.29 412.91 L459.38 414.38 L453.82 414.92 L451.41 416.62 L445.95 417.15 L439.43 417.13 L434.04 417.52 L428.55 417.81 L424.64 418.93 L421.5 420.57 L418.3 422.35 L413.91 423.5 L409.94 425.06 L404.03 425.23 L398.94 426.09 L393.87 427.08 L388.12 427.48 L381.92 427.38 L376.18 427.83 L369.84 427.46 L364.31 428.38 L357.8 427.64 L351.41 426.91 L344.83 425.28 L338.41 423.34 L332.36 421.98 L326.57 421.44 L320.83 421.32 L315.09 420.77 L309.45 419.87 L303.89 419.01 L298.33 418.43 L293.01 417.33 L287.71 416.44 L282.66 415.27 L277.7 414.17 L271.59 414.85 L264.83 416.12 L257.85 417.29 L251.54 417.5 L246.34 416.58 L241.96 415.06 L236.8 414.31 L232.39 413.07 L228.35 411.7 L223.3 411.09 L218.69 410.25 L212.78 410.15 L206.13 410.36 L201.34 409.61 L197.04 408.68 L196.3 406.37 L195.79 404.2 L193.77 402.77 L191.56 401.53 L188.31 400.69 L183.33 400.37 L178.27 400.02 L172.37 399.83 L168.37 399.13 L164.25 398.44 L162.36 397.32 L160.31 396.27 L160.02 395 L157.81 394.04 L153.29 393.34 L148.7 392.57 L145.3 391.62 L142.19 390.58 L141.17 389.39" fill="none" stroke="#111" stroke-width="0.92" stroke-linecap="round" stroke-linejoin="round" vector-effect="non-scaling-stroke"/><path d="M146 385.21 L146.48 383.8 L149.27 382.69 L153.42 381.82 L156.76 380.82 L161.4 380.1 L163.61 378.84 L165.48 377.43 L169.95 376.65 L173.16 375.49 L179.25 375.22 L183.41 374.34 L188.39 373.75 L191.24 372.31 L194.65 370.98 L197.96 369.51 L202.06 368.31 L206.89 367.4 L210.36 365.66 L215.59 364.83 L220.43 363.69 L226.84 363.6 L232.26 362.79 L236.91 361.29 L241.05 359.14 L245.88 357.36 L251.11 355.75 L257.85 355.78 L264.99 356.48 L271.64 356.72 L278.4 357.38 L284.98 358.05 L291.34 358.58 L297.35 358.46 L303.23 357.9 L308.95 355.96 L314.98 355.02 L321.11 354.91 L327.06 356.41 L332.69 358.16 L338.33 358.63 L343.97 358.75 L349.53 358.99 L355.56 358.13 L362.01 356.78 L368.25 356.08 L375.09 354.72 L381.52 354.18 L386.85 354.93 L390.54 357.19 L394.75 358.64 L399.28 359.64 L404.33 360.14 L409.06 360.84 L413.97 361.39 L418.66 362.06 L423.32 362.74 L427.6 363.6 L429.77 365.45 L433.02 366.67 L434.42 368.6 L436.42 370.14 L439.58 371.16 L445.12 371.35 L449.51 372 L454.99 372.38 L457.23 373.73 L461.35 374.57 L464.52 375.69 L469.74 376.39 L473.18 377.53 L477.14 378.62 L480.76 379.82 L484.26 381.1 L488.73 382.31 L490.27 383.92 L489.71 385.72 L489.94 387.41 L487.74 389.2 L490 390.73 L490.11 392.36 L492.51 393.96 L492.3 395.61 L490.33 397.23 L488.35 398.79 L485.53 400.25 L483.65 401.72 L479.43 402.96 L478.28 404.41 L476.93 405.84 L478.21 407.64 L481.09 409.78 L484.11 412.12 L482.76 413.83 L481.33 415.56 L476.93 416.67 L473.98 418.08 L471.79 419.7 L469.9 421.46 L467.1 423.01 L465.52 425.01 L464.41 427.31 L461.57 429.1 L457.15 430.32 L452.56 431.49 L446.71 432.08 L438.39 431.33 L431.19 430.97 L424.74 430.87 L419.53 431.46 L415.11 432.59 L409.83 433.18 L403.52 432.96 L398.78 434.02 L392.8 434.01 L386.34 433.46 L379.97 432.84 L373.44 431.85 L368.02 432.21 L363.17 433.64 L357.96 434.87 L352.53 436.07 L346.79 437 L340.48 436.38 L334.42 436.77 L328.22 436.75 L321.99 436.42 L315.75 436.19 L309.54 435.71 L303.4 434.97 L297.12 434.97 L290.99 434.39 L285.34 432.83 L280.42 430.25 L275.61 428.11 L270.58 426.68 L265.45 425.62 L259.63 425.47 L254.8 424.26 L250.11 423.06 L245.39 422.04 L241.24 420.66 L236.95 419.53 L233.47 417.97 L228.79 417.32 L224.57 416.46 L218.26 416.77 L211.85 417.05 L204.84 417.5 L198.35 417.6 L194.41 416.57 L191.7 415.14 L189.41 413.67 L186.6 412.48 L183.63 411.42 L180.5 410.47 L177.13 409.61 L172.56 409.07 L166.68 408.78 L163.5 407.86 L162.84 406.49 L164.14 404.88 L166.28 403.3 L165.97 402.2 L166.08 401.12 L163.67 400.35 L160.69 399.6 L158.49 398.76 L154.04 397.99 L151.26 397.06 L149.11 396.04 L148.44 394.97 L150.11 393.92 L152.73 392.93 L151.54 391.84 L149.97 390.65 L148.32 389.37 L146.8 388 L146.04 386.61 L148.55 385.53" fill="none" stroke="#111" stroke-width="0.62" stroke-linecap="round" stroke-linejoin="round" vector-effect="non-scaling-stroke"/><path d="M180.91 381.45 L184.43 380.21 L188.52 379.12 L193.18 378.23 L198.9 377.79 L204.74 377.45 L208.82 376.22 L213.17 375.06 L218.07 374.15 L223.63 373.61 L229.61 373.37 L235.45 373.07 L241.41 372.91 L246.08 371.64 L250.89 370.35 L256 369.22 L261.4 368.29 L266.59 366.97 L271.95 365.69 L277.97 365.31 L283.79 364.53 L290.17 364.99 L296.09 364.49 L301.85 363.18 L307.69 361.45 L313.79 360.11 L320.05 358.91 L326.29 359.69 L332.41 360.24 L338.23 361.52 L343.82 362.83 L349.25 363.91 L354.64 364.7 L359.84 365.57 L365.89 364.88 L372.29 363.89 L377.82 364.18 L383.13 364.68 L387.37 366.19 L391.03 368.01 L395.06 369.26 L399.87 369.76 L404.59 370.31 L409.98 370.41 L415.91 370.22 L422.5 369.78 L429.66 369.18 L433.63 370.33 L438.1 371.2 L439.9 373.22 L440.9 375.4 L443.75 376.75 L446.27 378.15 L450.32 379.01 L454.11 379.98 L456.77 381.28 L459.55 382.54 L460.96 384.11 L462.34 385.63 L461.65 387.51 L461 389.28 L461.94 390.7 L463.61 391.98 L466.09 393.17 L469.43 394.3 L471.78 395.58 L473.96 396.92 L474.93 398.37 L476.27 399.8 L478.37 401.25 L481.87 402.73 L483.5 404.31 L484.67 405.93 L485.93 407.61 L487.66 409.35 L487.82 411.08 L485.55 412.63 L483.22 414.14 L479.75 415.48 L478.33 417.04 L477.8 418.73 L476.95 420.42 L473.48 421.67 L470.15 422.9 L465.48 423.81 L462.24 424.98 L457.85 425.84 L452.43 426.34 L449.55 427.52 L446.24 428.58 L444.44 430.18 L445.52 432.98 L444.25 435.09 L441.63 436.77 L437.76 437.97 L432.42 438.48 L428.7 439.82 L423.59 440.43 L420.13 442.08 L416.32 443.64 L412.45 445.33 L408.36 447.03 L403.27 448.08 L397.51 448.62 L391.67 449.1 L384.9 448.55 L377.28 446.72 L370.55 445.68 L364.44 445.34 L358.07 444.39 L352.34 444.53 L346.55 444.65 L340.7 444.66 L334.74 444.28 L328.79 443.7 L322.86 442.25 L317.08 441.5 L311.42 440.42 L305.68 440.32 L299.82 440.53 L293.68 441.26 L287.26 442.25 L281.13 442.23 L275.13 441.88 L269.28 441.3 L263.65 440.46 L257.97 439.77 L252.07 439.33 L246.74 438.36 L241.2 437.64 L236.16 436.55 L231.38 435.36 L226.85 434.1 L224.33 431.68 L221.91 429.46 L219.22 427.62 L215.04 426.72 L211.62 425.51 L207.73 424.61 L204.13 423.63 L202.36 422.02 L198.87 421.16 L196.58 419.94 L194.64 418.71 L192.39 417.66 L191.02 416.45 L185.23 416.41 L179.43 416.27 L172.76 416.22 L168.21 415.65 L166.69 414.51 L165.6 413.36 L165.33 412.15 L164.96 411.02 L164.87 409.92 L163.5 408.98 L161.21 408.1 L159 407.19 L156.23 406.25 L154.01 405.24 L154.2 404.16 L158.94 403.14 L162.33 402.23 L165.87 401.41 L166.79 400.53 L167.66 399.64 L166.17 398.52 L166.67 397.51 L165.69 396.27 L164.37 394.88 L163.75 393.47 L165.75 392.41 L169.33 391.61 L173.54 390.97 L175.01 389.72 L175.52 388.14 L175.13 386.19 L176.13 384.44 L178.18 382.89 L182.3 381.93" fill="none" stroke="#111" stroke-width="0.62" stroke-linecap="round" stroke-linejoin="round" vector-effect="non-scaling-stroke"/><path d="M233.48 379.38 L238.46 378.31 L243.38 377.09 L249.43 376.85 L255.82 377.02 L261.5 376.51 L267.62 376.57 L272.63 375.11 L278.5 374.83 L284.11 374.07 L290.45 374.96 L296.29 374.96 L302.08 375.02 L307.61 373.92 L313.29 373.27 L319.03 372.3 L324.86 371.61 L330.7 371.32 L336.6 370.78 L342.53 370.36 L348.35 370.32 L354.02 370.6 L359.62 370.91 L365.41 370.82 L371.93 369.76 L378.87 368.44 L384.54 368.82 L390.15 369.25 L394.22 371.07 L398.16 372.77 L402.28 374.12 L405.08 376.29 L408.71 377.66 L413.3 378.32 L417.78 379.03 L423.71 378.97 L429.58 379.05 L432.82 380.44 L434.73 382.34 L435.54 384.54 L437.27 386.24 L441.17 387.08 L443.91 388.32 L448.28 389.05 L453.53 389.59 L458.65 390.25 L463.81 391 L468.45 391.96 L469.8 393.65 L468.05 395.86 L467.19 397.78 L466.64 399.56 L469.18 400.87 L470.47 402.35 L473.22 403.7 L472.82 405.34 L472.54 406.93 L472.8 408.46 L472.12 410.01 L470.38 411.55 L466.55 413.02 L464.62 414.4 L464.1 415.78 L466.49 417.29 L467.2 418.79 L468.41 420.37 L467.83 421.85 L466.05 423.22 L466.57 424.87 L466.5 426.49 L465.72 428.06 L466.49 429.96 L465.29 431.56 L465.19 433.45 L464.41 435.28 L462.23 436.82 L457.05 437.55 L452.97 438.52 L448.07 439.19 L444.2 440.15 L441.94 441.71 L438.81 442.99 L435.95 444.44 L430.31 444.66 L425.58 445.26 L419.37 445.02 L414.78 445.58 L408.96 445.37 L403.77 445.45 L399.14 445.88 L396.5 447.89 L393.46 449.83 L390.43 452.11 L386.38 453.71 L381.52 454.69 L375.34 454.16 L369.77 454.35 L364.27 454.68 L358.92 455.37 L353.61 456.39 L348.08 457.33 L342.62 459.07 L336.57 459.44 L330.37 459.29 L324.15 459.07 L317.95 457.83 L312.1 454.75 L306.38 453.3 L300.83 451.9 L295.09 451.53 L289.32 451.21 L283.74 450.5 L278.36 449.52 L272.5 449.4 L267.6 447.95 L263 446.34 L259.07 444.26 L254.78 442.81 L249.16 442.71 L243.43 442.63 L237.07 442.96 L231.09 442.91 L225.61 442.47 L220.07 442.04 L214.82 441.44 L210.81 440.19 L206.19 439.32 L201.27 438.6 L198.5 437 L194.1 436.14 L190.46 435.03 L187.76 433.65 L185.01 432.37 L185.68 430.17 L185.18 428.49 L184.87 426.9 L182.66 425.87 L181.23 424.72 L179.18 423.75 L176.87 422.86 L177.46 421.54 L176.43 420.55 L177.33 419.36 L177.73 418.32 L177.71 417.39 L176.89 416.56 L172.69 415.92 L166.91 415.23 L163.67 414.33 L161.82 413.33 L160.14 412.28 L162.11 411.26 L164.75 410.32 L165.55 409.33 L167.03 408.39 L169.44 407.53 L168.93 406.4 L168.9 405.25 L168.25 403.94 L168.9 402.73 L170.76 401.67 L176.38 401.29 L182.24 401.06 L187.62 400.82 L190.74 400.1 L192.77 399.07 L194.72 397.96 L195.48 396.38 L195.61 394.43 L197.76 393.03 L199.22 391.23 L204.21 390.75 L208.12 389.8 L213.02 389.28 L216.29 387.91 L219.43 386.35 L222.01 384.3 L225.36 382.51 L229.83 381.31 L234.39 380.07" fill="none" stroke="#111" stroke-width="0.62" stroke-linecap="round" stroke-linejoin="round" vector-effect="non-scaling-stroke"/><path d="M294.87 380.48 L300.47 379.39 L306.47 379.92 L312.29 379.96 L318.04 379.87 L323.74 380.2 L329.32 380.74 L335.06 379.98 L340.85 379.31 L346.32 379.77 L351.27 381.14 L356.35 381.86 L361.39 382.43 L366.92 382.18 L372.5 381.93 L378.26 381.57 L383.48 381.87 L389.32 381.57 L394.79 381.7 L400.28 381.86 L404.79 382.78 L408.61 384.11 L413.19 384.87 L418.77 385.02 L425.9 384.43 L431.57 384.76 L436.38 385.57 L439.78 387.03 L442 388.91 L443.58 390.93 L444.99 392.89 L446.53 394.7 L447.28 396.67 L449.51 398.1 L453.96 398.93 L458 399.93 L461.48 401.11 L463.23 402.67 L462.99 404.57 L460.7 406.73 L460.58 408.42 L462.72 409.76 L462.87 411.35 L466.69 412.55 L469.55 413.91 L473.12 415.28 L478.1 416.68 L478.67 418.36 L478.28 420.06 L475.57 421.75 L471.42 423.33 L470.19 424.87 L468.49 426.37 L468.17 427.91 L468.19 429.49 L467.91 431.08 L464.52 432.34 L463.97 433.9 L458.96 434.84 L456.38 436.06 L451.69 436.87 L447.71 437.72 L446.14 439.02 L445.57 440.58 L445.21 442.26 L443.21 443.57 L440.49 444.71 L438.06 445.95 L435.91 447.32 L433.96 448.81 L431.48 450.18 L430.2 452.13 L427.52 453.58 L423.71 454.56 L421.89 456.63 L418.04 457.74 L412.42 457.81 L407.36 458.17 L401.1 457.63 L397 458.59 L392.79 459.54 L388 460.08 L383.47 460.91 L377.8 460.6 L371.97 459.98 L366.48 459.65 L360.51 458.44 L355.17 458.02 L349.65 457.06 L344.8 457.47 L340.07 458.56 L335.32 460.44 L330.3 462.79 L324.76 463.32 L319.1 463.31 L313.43 462.96 L307.8 462.34 L302.2 461.84 L296.32 462.2 L290.42 462.35 L284.02 463.3 L277.49 464.08 L271.41 463.86 L265.65 463.15 L259.96 462.39 L255.38 460.47 L252.21 457.43 L248.55 455.24 L244.07 454 L239.88 452.65 L234.52 452.23 L230.44 450.98 L225.32 450.44 L221.01 449.43 L217.4 448.12 L215.33 446.16 L213.06 444.47 L209.93 443.28 L206.67 442.22 L200.9 442.13 L194.91 442.05 L190.03 441.52 L186.47 440.56 L181.97 439.89 L178.12 439.01 L176.64 437.59 L173.86 436.52 L170.38 435.6 L170.15 434.1 L168.12 432.97 L164.57 432.08 L164.78 430.68 L166.03 429.26 L168.08 427.86 L170.59 426.54 L170.91 425.47 L172.06 424.41 L171.25 423.45 L171.83 422.47 L173.61 421.52 L174.97 420.61 L175.03 419.68 L178.2 418.91 L179.6 418.08 L182.35 417.37 L182.36 416.43 L182.17 415.42 L179.14 413.95 L176.92 412.43 L176.4 411.03 L178.36 409.99 L181.9 409.24 L185.59 408.54 L189.2 407.85 L193.14 407.24 L195.5 406.2 L197.26 404.91 L198.81 403.45 L199.27 401.48 L202.81 400.5 L207.05 399.77 L214.02 400.24 L219.87 400.33 L226.04 400.68 L230.13 400 L233.86 399.08 L236.91 397.65 L240.07 396.13 L242.46 393.87 L246.13 392.33 L250.32 391.06 L255.41 390.51 L260.6 390.05 L265.97 389.8 L270.41 388.37 L274.98 386.88 L279.42 384.89 L284.32 383.25 L289.52 381.86 L295.14 381.24" fill="none" stroke="#111" stroke-width="0.92" stroke-linecap="round" stroke-linejoin="round" vector-effect="non-scaling-stroke"/><path d="M356.06 387.32 L361.69 387.13 L367.01 387.45 L371.85 388.34 L377.02 388.71 L381.5 389.77 L386.44 390.25 L391.23 390.85 L396.67 390.89 L400.23 392.39 L404.67 393.15 L406.88 395.29 L411.66 395.72 L415.63 396.63 L420.87 396.86 L425.67 397.39 L430.57 397.92 L434.33 398.99 L439.69 399.44 L442.91 400.74 L445.32 402.3 L448.85 403.47 L451.23 404.98 L455.8 405.89 L461.42 406.62 L466.28 407.64 L469.57 409.06 L470.35 410.99 L469.27 413.17 L469.16 415.1 L467.04 417.23 L467.21 418.98 L464.53 420.97 L466.29 422.46 L468.36 423.96 L471.24 425.47 L473.12 427.07 L471.56 428.8 L470.51 430.46 L466.42 432.06 L463.06 433.55 L461.57 435.03 L461.36 436.55 L463.18 438.23 L463.89 439.9 L464.9 441.65 L468.06 443.75 L467.73 445.51 L464.56 446.86 L459.67 447.86 L453.64 448.54 L449.75 449.52 L447.35 450.78 L445.52 452.18 L444.26 453.77 L440.17 454.58 L437.71 455.85 L433.07 456.4 L429.21 457.17 L424.36 457.51 L418.08 457.15 L414.36 457.79 L410.13 458.16 L407.97 459.58 L406.21 461.34 L402.12 461.86 L399.24 463.16 L394.45 463.26 L391.16 464.43 L388.09 465.94 L384.44 467.12 L380.02 467.7 L376.53 469.37 L372.06 470.19 L367.36 470.84 L362.57 471.5 L357.35 471.58 L351.48 470.34 L345.97 469.49 L340.92 469.7 L335.74 469.64 L330.68 470.42 L325.4 470.41 L320.08 469.82 L314.9 468.11 L309.8 467.3 L305.02 465.46 L300.2 464.48 L295.4 463.7 L290.43 463.42 L285.04 463.86 L278.6 465.7 L272.42 466.64 L266.37 467.14 L260.77 466.93 L256.53 465.33 L251.48 464.64 L246.69 463.75 L240.66 463.87 L234.79 463.76 L229.18 463.42 L222.31 463.8 L216.94 463.17 L212.41 462.09 L208 460.99 L205.42 459.1 L205.27 456.32 L204.23 454.16 L200.81 453.06 L199.04 451.44 L195.72 450.43 L191.65 449.68 L189.53 448.38 L187.59 447.1 L185.58 445.9 L184.14 444.63 L185.14 442.95 L184.76 441.65 L183.05 440.65 L177.6 440.19 L173.1 439.51 L170.59 438.53 L167.26 437.61 L165.82 436.48 L164.04 435.37 L163.52 434.18 L162.43 433.01 L163.43 431.8 L163.19 430.62 L163.59 429.45 L164.46 428.29 L166.12 427.19 L167.48 426.08 L172.71 425.31 L178.46 424.7 L180.28 423.79 L182.18 422.88 L183.78 421.92 L187.09 421.23 L189.26 420.35 L193.3 419.84 L195.29 418.92 L198.76 418.31 L202.32 417.75 L207 417.51 L209.63 416.7 L209.32 414.88 L208.44 412.66 L208.68 410.63 L211.3 409.35 L214.9 408.42 L218.92 407.63 L223.73 407.22 L228.06 406.57 L233.66 406.64 L237.58 405.75 L241.36 404.69 L243.79 402.56 L247.39 401.08 L251.63 399.97 L256.47 399.33 L262.98 400.39 L269.27 401.51 L274.49 401.64 L279.42 401.48 L284.09 400.96 L288.2 399.31 L292.45 397.53 L297 395.95 L301.86 394.78 L306.85 393.55 L312.09 393.34 L317.3 392.92 L322.49 393.74 L327.71 392.81 L333.07 391.74 L338.72 390.13 L344.55 388.68 L350.34 387.8 L355.8 387.81" fill="none" stroke="#111" stroke-width="0.62" stroke-linecap="round" stroke-linejoin="round" vector-effect="non-scaling-stroke"/><path d="M408.39 400.8 L413.61 401.11 L416.99 402.5 L420.14 403.94 L423.58 405.17 L426.7 406.51 L429.77 407.82 L433.84 408.72 L437.89 409.65 L439.42 411.46 L441.66 412.97 L442.65 414.81 L445.2 416.14 L447.76 417.48 L452.14 418.4 L455.15 419.69 L458.53 420.94 L461.26 422.35 L464.34 423.75 L466.29 425.34 L466.94 427.1 L467.79 428.82 L467.14 430.66 L470.17 432.18 L474.39 433.72 L476.35 435.45 L477.82 437.25 L477.68 439.09 L473.86 440.9 L471.28 442.61 L468.05 444.23 L465.36 445.8 L462.43 447.27 L460.2 448.75 L459.6 450.35 L460.94 452.2 L461.88 454.08 L458.9 455.44 L453.91 456.4 L448.46 457.17 L444.63 458.13 L442.07 459.33 L440.44 460.74 L439.5 462.36 L437.88 463.85 L438.52 466.11 L438.09 468.17 L435.1 469.43 L430.27 469.99 L424.46 470.06 L418.94 470.12 L413.88 470.28 L410.5 471.22 L407.53 472.42 L403.2 472.87 L399.02 473.39 L394.37 473.59 L390.55 474.35 L385.06 473.8 L379.7 473.22 L374.72 472.82 L369.07 471.58 L365.08 472.01 L361.4 472.93 L357.64 473.96 L353.84 475.22 L349.22 475.26 L344.38 474.82 L340.09 475.86 L335.5 476.46 L330.77 477 L325.9 477.25 L320.96 478.12 L315.87 478.51 L310.61 479.3 L305.34 479.33 L300.4 478.08 L295.57 476.87 L290.85 475.74 L285.97 475.11 L280.91 474.8 L275.38 475.12 L270.77 474.13 L266.17 473.22 L262.89 471.06 L258.83 469.9 L255.12 468.57 L252.35 466.63 L248.53 465.67 L244.32 465.04 L237.95 465.75 L231.94 466.09 L225.47 466.55 L219.26 466.73 L215.07 465.86 L212.19 464.45 L208.76 463.34 L205.09 462.38 L200.58 461.73 L195.11 461.37 L189.36 461.03 L183.66 460.58 L180.25 459.47 L177.5 458.2 L174.93 456.93 L174.9 455.18 L176.76 453.2 L179.19 451.29 L178.32 450.04 L177.06 448.88 L176.81 447.63 L175.79 446.51 L174.78 445.4 L172.49 444.38 L173.02 443.19 L175.67 441.98 L177.81 440.87 L180.27 439.84 L178.38 438.81 L175.88 437.7 L174.98 436.56 L172.86 435.3 L172.07 434.04 L173.36 432.91 L173.25 431.62 L174.33 430.41 L175.36 429.17 L177.37 428.04 L179.83 426.97 L181.99 425.84 L184.96 424.85 L187.09 423.66 L191.4 422.99 L198.29 423.08 L203.09 422.68 L208.81 422.64 L211.76 421.73 L215.12 420.93 L218.33 420.04 L222.8 419.65 L226.51 418.94 L230.34 418.26 L235.06 418.04 L240.68 418.37 L244.3 417.6 L248.17 416.93 L251.06 415.52 L252.28 412.63 L255.24 410.8 L258.65 409.14 L263.19 408.4 L268.07 407.99 L273.36 408.11 L278.09 407.59 L283.03 407.39 L287.83 407 L292.45 406.2 L296.92 404.86 L301.44 403.14 L306.38 402.35 L311.49 402.37 L316.6 403.47 L321.47 405.52 L326.12 406.1 L330.78 405.98 L335.45 405.72 L340.32 404.91 L345.33 404.06 L350.92 402.28 L356.14 401.62 L361.61 400.78 L366.34 401.09 L370.71 401.8 L374.9 402.6 L380 402.42 L385.91 401.61 L391.82 400.99 L397.6 400.63 L403.13 400.58 L407.01 401.68" fill="none" stroke="#111" stroke-width="0.62" stroke-linecap="round" stroke-linejoin="round" vector-effect="non-scaling-stroke"/><path d="M444.27 421.67 L447.95 422.82 L450.3 424.35 L451.85 426.05 L452.42 427.92 L454.44 429.46 L455.66 431.14 L458.24 432.59 L460.28 434.15 L459.6 436.05 L458.8 437.91 L458.19 439.68 L459.1 441.3 L459.62 442.94 L461.66 444.52 L462.7 446.18 L464.7 447.85 L466.15 449.57 L467.42 451.34 L467.18 453.1 L465.36 454.78 L464.56 456.49 L462.35 458.08 L462.48 459.87 L464.54 461.92 L465.37 463.92 L464.65 465.76 L462.91 467.46 L457.79 468.53 L452.45 469.44 L447.32 470.27 L443.6 471.33 L439.54 472.25 L435.84 473.2 L433.78 474.61 L432.24 476.23 L429.93 477.63 L427.62 479.08 L421.02 478.81 L416.1 479.09 L410.92 479.15 L406.03 479.24 L402.69 480.08 L400.59 481.68 L398.08 483.17 L396.21 485.23 L393.11 486.63 L388.98 487.35 L384.07 487.43 L378.67 486.98 L372.55 485.61 L367.56 485.2 L363.3 485.62 L358.75 485.68 L354.66 486.51 L349.92 486.34 L344.95 485.56 L340.2 485.13 L335.36 484.13 L330.6 482.88 L326.03 481.8 L321.57 480.23 L317.25 480.16 L312.76 481.08 L308.1 481.84 L303.58 481.56 L299 481.38 L294.63 480.65 L289.75 481 L284.88 481.12 L279.52 481.81 L274.84 481.38 L269.44 481.76 L264.38 481.63 L258.83 481.88 L254.41 481.03 L250.06 480.18 L246.69 478.65 L243.88 476.89 L239.48 476.29 L235.18 475.63 L231.14 474.84 L227.32 473.96 L223.24 473.23 L222.06 471.24 L219.41 470.03 L218.97 468.05 L217.64 466.57 L215.37 465.5 L211.89 464.86 L206.32 464.81 L200.92 464.61 L194.05 464.68 L189.48 464.08 L186.66 463.08 L186.06 461.66 L184.65 460.46 L182.46 459.4 L180.02 458.38 L176.06 457.52 L172.62 456.53 L168.38 455.54 L165.47 454.38 L164.77 453.05 L164.27 451.72 L167.3 450.33 L170.45 449.04 L174.52 447.87 L175.85 446.73 L178.52 445.68 L177.48 444.47 L178.51 443.35 L180.31 442.3 L181.14 441.15 L183.32 440.14 L187.08 439.37 L191.24 438.72 L194.59 438 L195.64 436.85 L194.89 435.25 L195.09 433.75 L196.28 432.37 L197.4 430.9 L200.2 429.82 L201.72 428.3 L203.77 426.85 L207.67 426 L211.57 425.14 L214.81 423.99 L218.45 422.96 L222.55 422.11 L227.1 421.49 L232.13 421.14 L238.34 421.57 L244.02 421.8 L249.7 422.17 L254.06 421.67 L258.27 421.04 L262.54 420.44 L267.22 420.23 L272.09 420.28 L276.47 419.85 L280.85 419.4 L286.03 420.22 L290.29 419.74 L294.72 419.61 L298.42 417.67 L302.33 415.62 L306.49 413.47 L310.95 411.43 L315.83 411.4 L320.65 411.55 L325.39 411.96 L329.96 412.7 L334.63 412.44 L339.19 412.56 L344 411.99 L349.04 411.1 L354.52 409.68 L359.66 409.16 L363.37 410.68 L367.2 411.77 L369.65 414.17 L372.54 415.74 L376.23 416.37 L380.52 416.45 L385.61 415.96 L390.84 415.51 L395.85 415.35 L401.61 414.83 L407.11 414.62 L409.66 416.08 L413.11 417.02 L415.36 418.49 L419.86 418.93 L424.94 419.22 L431.3 419.14 L435.35 420.02 L439.31 420.97 L442.25 422.27" fill="none" stroke="#111" stroke-width="0.62" stroke-linecap="round" stroke-linejoin="round" vector-effect="non-scaling-stroke"/><path d="M461.18 447.64 L462.58 449.35 L464.05 451.08 L462.31 452.97 L460.63 454.79 L460.58 456.53 L459.33 458.26 L461.56 460.02 L460.95 461.76 L459.94 463.47 L457.5 465.06 L452.68 466.41 L452.58 468.09 L450.69 469.59 L451.63 471.44 L450.74 473.09 L451.32 475.01 L449.17 476.49 L448.06 478.18 L447.33 479.98 L444.08 481.23 L440.58 482.37 L437.08 483.47 L436.55 485.43 L435.77 487.42 L434.35 489.28 L431.87 490.83 L428.37 492 L422.05 491.94 L417.35 492.46 L411.3 492.22 L406 492.23 L400.54 492.02 L396.43 492.51 L392.87 493.34 L390.17 494.84 L387.08 496.19 L382.14 496.1 L376.74 495.49 L371.41 494.74 L365.89 493.56 L361.71 493.78 L357.27 493.64 L353.8 495.04 L349.86 495.97 L346.07 497.6 L341.65 498.25 L337.2 499.2 L332.22 498.42 L327.24 496.83 L322.45 494.68 L317.91 494.12 L313.46 493.1 L308.85 493.44 L304.32 493.1 L299.68 493.05 L295.53 491.76 L291.09 491.31 L287.26 489.85 L283.99 487.81 L280.76 486.09 L277.74 484.39 L273.42 484.29 L268.97 484.25 L264.49 484.18 L259.87 484.14 L255.79 483.65 L252.54 482.58 L247.96 482.44 L243.12 482.39 L237.59 482.66 L233.84 481.9 L229.31 481.53 L224.68 481.16 L219.09 481.15 L216.08 480.05 L213.58 478.82 L211.65 477.46 L210.74 475.86 L208.14 474.85 L204.1 474.26 L202.09 473.14 L198.73 472.36 L198.53 470.91 L197.38 469.73 L197.64 468.35 L197.88 467.08 L198.84 465.79 L198.07 464.79 L197.37 463.81 L193.61 463.11 L187.21 462.51 L182.82 461.63 L180.27 460.57 L178.26 459.44 L179.87 458.24 L180.57 457.08 L179.61 455.89 L178.78 454.67 L178.06 453.4 L176.48 452.02 L172.88 450.37 L173.29 448.98 L174.61 447.66 L176.12 446.35 L179.65 445.33 L186.37 444.92 L192.12 444.47 L195.01 443.53 L197.53 442.5 L200.26 441.52 L203.04 440.53 L206.33 439.67 L208.09 438.32 L211.34 437.39 L215.94 436.95 L221.29 436.84 L226.3 436.69 L229.08 435.59 L231.01 434.01 L232.2 431.9 L234 429.91 L237.08 428.48 L240.94 427.45 L244.98 426.49 L248.89 425.37 L253.56 424.8 L257.73 423.77 L262.05 422.82 L267.22 422.72 L271.19 421.26 L276.14 420.91 L281.96 421.95 L287.36 422.7 L292.71 423.77 L297.35 423.69 L302 423.8 L306.44 423.41 L310.88 422.89 L315.43 423.49 L319.83 423.75 L324.15 424.08 L328.45 423.88 L332.39 425.22 L336.56 425.06 L340.79 424.77 L345.2 424.13 L350.53 422.03 L355.92 420.39 L361.06 419.49 L365.75 419.34 L369.14 420.7 L373.2 421.18 L376.82 422.03 L380.06 423.12 L383.83 423.69 L388.81 423.39 L392.99 423.73 L398.21 423.47 L403.02 423.58 L405.53 424.99 L407.43 426.61 L407.12 429.15 L409.09 430.49 L410.78 431.88 L413.94 432.66 L418.57 432.96 L422.76 433.51 L426.75 434.19 L433.18 434.27 L436.94 435.2 L439.1 436.58 L438.93 438.45 L441.02 439.8 L442.01 441.36 L446.23 442.38 L451.35 443.38 L454.91 444.69 L457.92 446.15 L459.61 447.78" fill="none" stroke="#111" stroke-width="0.92" stroke-linecap="round" stroke-linejoin="round" vector-effect="non-scaling-stroke"/><path d="M455.94 475.79 L456.78 477.69 L455.5 479.41 L451.85 480.82 L449.26 482.3 L447.12 483.81 L443.95 485.11 L443.31 486.86 L442.13 488.54 L438.78 489.73 L434.12 490.53 L430.03 491.38 L426.83 492.43 L424.87 493.85 L423.8 495.61 L421.64 497.05 L418.6 498.18 L416.08 499.53 L413.92 501.09 L410.86 502.29 L407.3 503.25 L402.37 503.43 L398.01 503.87 L395.19 505.28 L392.83 507.15 L389.7 508.62 L386.53 510.21 L381.6 510.36 L375.76 509.52 L370.29 508.84 L364.52 507.55 L359.42 506.84 L354.34 505.92 L349.51 505.15 L345.42 505.72 L341.46 506.88 L337.17 507.59 L332.49 507.14 L327.77 506.11 L323.11 503.61 L318.76 502.55 L314.52 501.68 L310.24 501.53 L305.71 502.2 L301.05 502.76 L296.19 503.43 L291.32 503.76 L286.55 503.68 L282.46 502.5 L278.83 500.87 L275.87 498.68 L272.2 497.57 L268.66 496.44 L264.44 496.02 L260.33 495.49 L256.69 494.6 L253.69 493.33 L249.71 492.79 L247.44 491.22 L245.58 489.56 L244.65 487.57 L242.9 486.17 L240.31 485.27 L235.84 485.19 L232.21 484.73 L228.42 484.3 L225.46 483.57 L223.24 482.62 L218.3 482.5 L215.52 481.71 L211.63 481.2 L208.12 480.56 L204.67 479.88 L200.14 479.36 L197.37 478.47 L194.72 477.54 L194.06 476.32 L194.45 475.01 L195.32 473.73 L195.18 472.61 L192.52 471.7 L190.64 470.69 L190.26 469.59 L191.33 468.47 L192.45 467.39 L194.44 466.35 L198.06 465.41 L199.66 464.5 L201.53 463.63 L201.16 462.64 L199.61 461.5 L194.65 459.92 L191.73 458.37 L190.52 456.9 L192.34 455.79 L194.69 454.77 L196.2 453.58 L197.09 452.23 L198.55 450.94 L198.86 449.31 L200.22 447.85 L198.87 445.52 L201.13 444.11 L204.15 442.89 L207.32 441.69 L212.81 441.36 L220.04 441.84 L224.63 441.33 L230.31 441.39 L233.27 440.16 L237.21 439.39 L241.14 438.6 L244.51 437.44 L249.13 437.06 L253.64 436.63 L258.18 436.27 L263.74 436.84 L268.29 436.66 L272.02 435.66 L275.17 433.87 L278.36 431.83 L282.12 430.25 L286.41 429.26 L290.88 428.45 L295.23 427.25 L299.96 426.77 L304.7 426.36 L309.49 426.14 L314.22 425.66 L318.99 425.58 L323.73 425.44 L328.45 425.3 L333 425.85 L337.07 427.65 L340.93 429.2 L344.9 429.93 L348.75 430.63 L352.96 430.59 L356.87 430.98 L360.48 431.69 L364.22 432.14 L367.69 432.82 L370.86 433.7 L373.61 434.84 L376.38 435.84 L380.17 436.02 L384.31 436 L391.05 434.46 L396.09 434.19 L401.02 434.12 L405.06 434.6 L407.13 436.05 L409.29 437.39 L411.94 438.48 L414.15 439.72 L416.97 440.73 L420.15 441.63 L423.09 442.64 L428.77 442.91 L432.58 443.82 L433.73 445.42 L431.73 447.67 L429.21 449.88 L429.09 451.5 L429.35 453.01 L431.25 454.25 L434.28 455.36 L438.11 456.46 L440.92 457.75 L445.27 458.98 L447.31 460.47 L448.5 462.06 L446.56 463.76 L445.1 465.38 L447.46 466.96 L449.36 468.6 L453.24 470.38 L454.93 472.17 L455.06 473.94 L453.67 475.61" fill="none" stroke="#111" stroke-width="0.62" stroke-linecap="round" stroke-linejoin="round" vector-effect="non-scaling-stroke"/></g><g data-layer="chroma_constellation"><path d="M322 364.4 L322 326.4" fill="none" stroke="#111" stroke-width="1.51" stroke-linecap="round" stroke-linejoin="round" vector-effect="non-scaling-stroke"/><path d="M333 367.35 L337.5 359.55" fill="none" stroke="#111" stroke-width="1.04" stroke-linecap="round" stroke-linejoin="round" vector-effect="non-scaling-stroke"/><path d="M341.05 375.4 L355.77 366.9" fill="none" stroke="#111" stroke-width="1.17" stroke-linecap="round" stroke-linejoin="round" vector-effect="non-scaling-stroke"/><path d="M344 386.4 L375 386.4" fill="none" stroke="#111" stroke-width="1.4" stroke-linecap="round" stroke-linejoin="round" vector-effect="non-scaling-stroke"/><path d="M341.05 397.4 L347.98 401.4" fill="none" stroke="#111" stroke-width="1.03" stroke-linecap="round" stroke-linejoin="round" vector-effect="non-scaling-stroke"/><path d="M333 405.45 L344 424.51" fill="none" stroke="#111" stroke-width="1.25" stroke-linecap="round" stroke-linejoin="round" vector-effect="non-scaling-stroke"/><path d="M322 408.4 L322 452.4" fill="none" stroke="#111" stroke-width="1.6" stroke-linecap="round" stroke-linejoin="round" vector-effect="non-scaling-stroke"/><path d="M311 405.45 L305.5 414.98" fill="none" stroke="#111" stroke-width="1.08" stroke-linecap="round" stroke-linejoin="round" vector-effect="non-scaling-stroke"/><path d="M302.95 397.4 L286.49 406.9" fill="none" stroke="#111" stroke-width="1.2" stroke-linecap="round" stroke-linejoin="round" vector-effect="non-scaling-stroke"/><path d="M300 386.4 L271 386.4" fill="none" stroke="#111" stroke-width="1.36" stroke-linecap="round" stroke-linejoin="round" vector-effect="non-scaling-stroke"/><path d="M302.95 375.4 L294.29 370.4" fill="none" stroke="#111" stroke-width="1.06" stroke-linecap="round" stroke-linejoin="round" vector-effect="non-scaling-stroke"/><path d="M311 367.35 L298.5 345.7" fill="none" stroke="#111" stroke-width="1.3" stroke-linecap="round" stroke-linejoin="round" vector-effect="non-scaling-stroke"/><circle cx="322" cy="386.4" r="22" fill="none" stroke="#111" stroke-width="0.9" vector-effect="non-scaling-stroke"/></g><g data-layer="waveform_strata"><path d="M92 732.2 L95.83 732.86 L99.66 732.55 L103.5 732.41 L107.33 732.21 L111.16 732.2 L114.99 732.23 L118.82 731.32 L122.66 731.14 L126.49 731.29 L130.32 731.36 L134.15 731.59 L137.98 731.73 L141.82 731.88 L145.65 731.07 L149.48 731.1 L153.31 731.85 L157.14 732.55 L160.97 732.32 L164.81 731.39 L168.64 730.69 L172.47 729.89 L176.3 729.68 L180.13 730.43 L183.97 730.79 L187.8 730.76 L191.63 729.77 L195.46 729.3 L199.29 729.41 L203.13 730.18 L206.96 731.09 L210.79 731.78 L214.62 731.21 L218.45 730.22 L222.29 729.49 L226.12 729.34 L229.95 729.35 L233.78 728.95 L237.61 728.32 L241.45 727.71 L245.28 726.73 L249.11 726.16 L252.94 726.87 L256.77 727.44 L260.61 727.73 L264.44 727.73 L268.27 728.77 L272.1 729.3 L275.93 730.32 L279.76 730.91 L283.6 731.35 L287.43 730.88 L291.26 730.32 L295.09 730.79 L298.92 731.07 L302.76 731.19 L306.59 730.57 L310.42 729.73 L314.25 728.66 L318.08 728.41 L321.92 729.44 L325.75 730.54 L329.58 731.31 L333.41 731.26 L337.24 730.97 L341.08 731.05 L344.91 731.63 L348.74 732.51 L352.57 733.24 L356.4 733.35 L360.24 732.85 L364.07 731.46 L367.9 731.15 L371.73 731.23 L375.56 731.3 L379.39 731.6 L383.23 731.4 L387.06 730.71 L390.89 729.99 L394.72 730.63 L398.55 731.58 L402.39 731.78 L406.22 731.72 L410.05 732.12 L413.88 731.7 L417.71 731.51 L421.55 731.36 L425.38 730.92 L429.21 730.33 L433.04 729.02 L436.87 728.08 L440.71 728.28 L444.54 727.86 L448.37 727.59 L452.2 727.48 L456.03 727.02 L459.87 727.1 L463.7 727.54 L467.53 729.43 L471.36 730.57 L475.19 730.46 L479.03 729.94 L482.86 729.6 L486.69 729.43 L490.52 729.86 L494.35 730.56 L498.18 730.86 L502.02 729.68 L505.85 728.19 L509.68 727.59 L513.51 727.44 L517.34 728.41 L521.18 729.15 L525.01 729.43 L528.84 729.33 L532.67 729.05 L536.5 729.48 L540.34 730.72 L544.17 731.35 L548 731.87" fill="none" stroke="#111" stroke-width="0.55" stroke-linecap="round" stroke-linejoin="round" vector-effect="non-scaling-stroke"/><path d="M92 746 L95.83 746.9 L99.66 746.25 L103.5 745.84 L107.33 745.96 L111.16 746.04 L114.99 746.02 L118.82 744.98 L122.66 744.11 L126.49 744.74 L130.32 744.81 L134.15 744.83 L137.98 745.41 L141.82 745.1 L145.65 744.33 L149.48 744.44 L153.31 745.38 L157.14 746.37 L160.97 745.99 L164.81 745.05 L168.64 743.96 L172.47 743.05 L176.3 742.55 L180.13 743.31 L183.97 744.56 L187.8 744.11 L191.63 742.57 L195.46 742.09 L199.29 742.45 L203.13 743.17 L206.96 744.14 L210.79 745.06 L214.62 744.6 L218.45 742.98 L222.29 741.97 L226.12 741.75 L229.95 741.86 L233.78 741.27 L237.61 740.8 L241.45 739.81 L245.28 738.82 L249.11 737.94 L252.94 738.57 L256.77 739.39 L260.61 739.76 L264.44 740.12 L268.27 741.13 L272.1 742.36 L275.93 743.39 L279.76 744.23 L283.6 744.74 L287.43 744.28 L291.26 743.78 L295.09 743.97 L298.92 744.8 L302.76 744.2 L306.59 743.4 L310.42 742.34 L314.25 741.26 L318.08 740.96 L321.92 741.9 L325.75 743.76 L329.58 744.67 L333.41 744.07 L337.24 744.06 L341.08 744.28 L344.91 745.34 L348.74 746.31 L352.57 747.32 L356.4 747.5 L360.24 746.74 L364.07 744.89 L367.9 744.53 L371.73 744.64 L375.56 744.85 L379.39 745.2 L383.23 744.88 L387.06 743.69 L390.89 742.98 L394.72 743.71 L398.55 745 L402.39 745.63 L406.22 745.26 L410.05 745.17 L413.88 745.4 L417.71 744.71 L421.55 744.55 L425.38 744.4 L429.21 742.97 L433.04 741.41 L436.87 740.48 L440.71 740.75 L444.54 740.58 L448.37 740.19 L452.2 740.02 L456.03 739.37 L459.87 739.14 L463.7 740.13 L467.53 742.43 L471.36 743.88 L475.19 743.7 L479.03 743.25 L482.86 742.31 L486.69 742.36 L490.52 742.49 L494.35 743.72 L498.18 743.76 L502.02 742.51 L505.85 740.1 L509.68 739.66 L513.51 739.66 L517.34 740.47 L521.18 741.6 L525.01 742.3 L528.84 742.44 L532.67 741.59 L536.5 742.4 L540.34 744.02 L544.17 745.35 L548 745.5" fill="none" stroke="#111" stroke-width="0.55" stroke-linecap="round" stroke-linejoin="round" vector-effect="non-scaling-stroke"/><path d="M92 760.46 L95.83 760.53 L99.66 760.78 L103.5 759.93 L107.33 759.78 L111.16 759.9 L114.99 759.42 L118.82 758.56 L122.66 757.4 L126.49 757.89 L130.32 758.12 L134.15 757.95 L137.98 758.45 L141.82 758.12 L145.65 757.64 L149.48 757.55 L153.31 759 L157.14 760.15 L160.97 760.11 L164.81 758.73 L168.64 756.97 L172.47 755.8 L176.3 755.7 L180.13 756.51 L183.97 757.62 L187.8 757.67 L191.63 755.42 L195.46 754.88 L199.29 755.43 L203.13 756.4 L206.96 757.83 L210.79 758.43 L214.62 758.18 L218.45 756 L222.29 754.88 L226.12 754.45 L229.95 754.51 L233.78 753.69 L237.61 753.51 L241.45 752.09 L245.28 750.27 L249.11 749.66 L252.94 751.16 L256.77 752.09 L260.61 752.73 L264.44 753.18 L268.27 754.26 L272.1 755.17 L275.93 756.74 L279.76 757.93 L283.6 758.15 L287.43 758.1 L291.26 757.19 L295.09 757.19 L298.92 757.72 L302.76 757.88 L306.59 756.05 L310.42 755.35 L314.25 753.93 L318.08 753.59 L321.92 754.43 L325.75 756.79 L329.58 757.57 L333.41 757.56 L337.24 757.35 L341.08 757.5 L344.91 759.02 L348.74 760.38 L352.57 761.49 L356.4 761.73 L360.24 760.44 L364.07 758.46 L367.9 758.26 L371.73 758.28 L375.56 758.15 L379.39 758.75 L383.23 758.07 L387.06 756.92 L390.89 756.03 L394.72 756.87 L398.55 757.85 L402.39 758.87 L406.22 758.49 L410.05 759.05 L413.88 758.45 L417.71 758.2 L421.55 758.09 L425.38 757.25 L429.21 755.86 L433.04 754.01 L436.87 753.39 L440.71 753.37 L444.54 753.38 L448.37 752.47 L452.2 752.1 L456.03 751.77 L459.87 751.4 L463.7 752.58 L467.53 754.98 L471.36 757.11 L475.19 756.61 L479.03 756.18 L482.86 755.09 L486.69 755.43 L490.52 755.62 L494.35 756.52 L498.18 756.34 L502.02 754.97 L505.85 752.82 L509.68 751.42 L513.51 752 L517.34 752.79 L521.18 754.18 L525.01 755.44 L528.84 755.01 L532.67 754.25 L536.5 755.67 L540.34 756.96 L544.17 758.6 L548 759.54" fill="none" stroke="#111" stroke-width="0.55" stroke-linecap="round" stroke-linejoin="round" vector-effect="non-scaling-stroke"/><path d="M92 774.05 L95.83 775.06 L99.66 774.6 L103.5 773.21 L107.33 773.41 L111.16 773.32 L114.99 772.84 L118.82 771.7 L122.66 770.77 L126.49 770.76 L130.32 771.13 L134.15 771.69 L137.98 771.97 L141.82 771.54 L145.65 770.97 L149.48 771.07 L153.31 772.22 L157.14 773.52 L160.97 773.69 L164.81 771.82 L168.64 770.9 L172.47 769.2 L176.3 768.91 L180.13 770.02 L183.97 771.3 L187.8 771.04 L191.63 768.41 L195.46 768.17 L199.29 767.96 L203.13 769.59 L206.96 770.91 L210.79 772.14 L214.62 770.8 L218.45 769.11 L222.29 766.81 L226.12 767.21 L229.95 767.16 L233.78 766.08 L237.61 765.41 L241.45 764.01 L245.28 762.42 L249.11 761.63 L252.94 762.68 L256.77 764.35 L260.61 764.91 L264.44 765.87 L268.27 767.41 L272.1 768.96 L275.93 770.21 L279.76 771.43 L283.6 772.45 L287.43 771.69 L291.26 770.48 L295.09 770.8 L298.92 771.24 L302.76 770.99 L306.59 769.14 L310.42 767.84 L314.25 766.16 L318.08 765.27 L321.92 766.77 L325.75 769.51 L329.58 770.82 L333.41 770.73 L337.24 770.22 L341.08 771.29 L344.91 772.34 L348.74 774.53 L352.57 775.74 L356.4 776.07 L360.24 774.72 L364.07 772.78 L367.9 771.6 L371.73 771.88 L375.56 771.84 L379.39 772.23 L383.23 771.78 L387.06 769.96 L390.89 768.99 L394.72 769.76 L398.55 771 L402.39 772.4 L406.22 771.6 L410.05 771.95 L413.88 771.42 L417.71 771.05 L421.55 770.72 L425.38 770.6 L429.21 768.71 L433.04 767.13 L436.87 765.8 L440.71 766.03 L444.54 766.11 L448.37 764.89 L452.2 764.72 L456.03 764.03 L459.87 764.37 L463.7 765.51 L467.53 768.57 L471.36 770.22 L475.19 769.7 L479.03 769.16 L482.86 768.33 L486.69 768.05 L490.52 768.33 L494.35 769.7 L498.18 769.51 L502.02 767.49 L505.85 764.74 L509.68 763.96 L513.51 763.92 L517.34 765.19 L521.18 766.72 L525.01 768.28 L528.84 768.06 L532.67 767.42 L536.5 768.56 L540.34 770.93 L544.17 772.18 L548 772.85" fill="none" stroke="#111" stroke-width="0.55" stroke-linecap="round" stroke-linejoin="round" vector-effect="non-scaling-stroke"/><path d="M92 788.68 L95.83 788.96 L99.66 788.49 L103.5 787.42 L107.33 786.98 L111.16 787.52 L114.99 786.06 L118.82 784.67 L122.66 783.79 L126.49 783.45 L130.32 784.63 L134.15 784.57 L137.98 785.14 L141.82 784.82 L145.65 783.91 L149.48 784.08 L153.31 785.97 L157.14 787.8 L160.97 787.22 L164.81 786.32 L168.64 784.37 L172.47 782.44 L176.3 781.78 L180.13 783.37 L183.97 785 L187.8 784.64 L191.63 781.6 L195.46 780.91 L199.29 781.17 L203.13 782.15 L206.96 784.17 L210.79 785.46 L214.62 783.94 L218.45 781.81 L222.29 779.29 L226.12 778.89 L229.95 779.17 L233.78 778.27 L237.61 777.89 L241.45 776.67 L245.28 774.08 L249.11 773.22 L252.94 775.51 L256.77 776.79 L260.61 777.23 L264.44 778.85 L268.27 780.18 L272.1 782.08 L275.93 783.13 L279.76 785.43 L283.6 785.78 L287.43 784.3 L291.26 783.1 L295.09 783.68 L298.92 784.57 L302.76 783.27 L306.59 782.01 L310.42 779.75 L314.25 778.09 L318.08 778.1 L321.92 779.24 L325.75 782.31 L329.58 784.03 L333.41 783.72 L337.24 783.68 L341.08 784.48 L344.91 786.28 L348.74 788.34 L352.57 790.1 L356.4 790.49 L360.24 788.76 L364.07 786.4 L367.9 785.66 L371.73 785.35 L375.56 785.41 L379.39 786.17 L383.23 784.54 L387.06 783.21 L390.89 781.52 L394.72 783.03 L398.55 783.88 L402.39 785.09 L406.22 785.36 L410.05 784.88 L413.88 784.5 L417.71 784.57 L421.55 783.97 L425.38 783.54 L429.21 781.89 L433.04 779.54 L436.87 778.26 L440.71 778.6 L444.54 778.36 L448.37 777.49 L452.2 777.26 L456.03 776.54 L459.87 776.37 L463.7 777.65 L467.53 780.79 L471.36 783.74 L475.19 783.03 L479.03 781.71 L482.86 780.78 L486.69 780.69 L490.52 780.31 L494.35 782.37 L498.18 782.1 L502.02 779.54 L505.85 777.1 L509.68 775.59 L513.51 775.62 L517.34 777.31 L521.18 779.79 L525.01 781.18 L528.84 780.66 L532.67 780.29 L536.5 782.21 L540.34 784.36 L544.17 786.73 L548 786.95" fill="none" stroke="#111" stroke-width="0.55" stroke-linecap="round" stroke-linejoin="round" vector-effect="non-scaling-stroke"/><path d="M92 802.66 L95.83 802.62 L99.66 802.47 L103.5 800.99 L107.33 800.11 L111.16 800.26 L114.99 800.09 L118.82 797.94 L122.66 796.75 L126.49 796.97 L130.32 796.66 L134.15 796.98 L137.98 798.62 L141.82 798.31 L145.65 797.17 L149.48 797.14 L153.31 799.41 L157.14 802.24 L160.97 801.12 L164.81 800.02 L168.64 797.71 L172.47 796 L176.3 795.24 L180.13 797.74 L183.97 798.93 L187.8 797.46 L191.63 794.99 L195.46 793.19 L199.29 793.08 L203.13 794.86 L206.96 796.78 L210.79 798.08 L214.62 797.65 L218.45 794.29 L222.29 791.49 L226.12 791.35 L229.95 791.36 L233.78 791.26 L237.61 790.45 L241.45 788.65 L245.28 786.38 L249.11 786.07 L252.94 788.04 L256.77 789.78 L260.61 790.65 L264.44 791.19 L268.27 793.6 L272.1 795.63 L275.93 797.23 L279.76 798.98 L283.6 799.29 L287.43 798.02 L291.26 796.25 L295.09 796.89 L298.92 797.45 L302.76 797.05 L306.59 794.28 L310.42 792.9 L314.25 790.46 L318.08 789.8 L321.92 792.04 L325.75 795.35 L329.58 797.09 L333.41 797.3 L337.24 796.79 L341.08 797.94 L344.91 800.07 L348.74 802.6 L352.57 804.55 L356.4 805 L360.24 803.01 L364.07 800.55 L367.9 799.24 L371.73 799.37 L375.56 799.04 L379.39 799.26 L383.23 797.78 L387.06 795.54 L390.89 794.27 L394.72 795.02 L398.55 797.36 L402.39 798.59 L406.22 797.82 L410.05 798.12 L413.88 798.3 L417.71 797.56 L421.55 797.4 L425.38 796.99 L429.21 795.54 L433.04 792.85 L436.87 791.56 L440.71 791.41 L444.54 791.39 L448.37 790.4 L452.2 790.56 L456.03 789.16 L459.87 789.41 L463.7 790.25 L467.53 794.21 L471.36 796.36 L475.19 795.82 L479.03 795.26 L482.86 793.66 L486.69 792.34 L490.52 793.16 L494.35 794.58 L498.18 794.78 L502.02 792.46 L505.85 788.56 L509.68 787 L513.51 787.68 L517.34 790.01 L521.18 792.29 L525.01 794.46 L528.84 794.31 L532.67 794 L536.5 795.17 L540.34 797.63 L544.17 800.76 L548 801.36" fill="none" stroke="#111" stroke-width="0.55" stroke-linecap="round" stroke-linejoin="round" vector-effect="non-scaling-stroke"/></g><path d="M87 686 L97 686" fill="none" stroke="#111" stroke-width="0.85" stroke-linecap="round" stroke-linejoin="round" vector-effect="non-scaling-stroke"/><path d="M92 681 L92 691" fill="none" stroke="#111" stroke-width="0.85" stroke-linecap="round" stroke-linejoin="round" vector-effect="non-scaling-stroke"/><path d="M112 696.1 L124 696.1" fill="none" stroke="#111" stroke-width="0.85" stroke-linecap="round" stroke-linejoin="round" vector-effect="non-scaling-stroke"/><path d="M118 690.1 L118 702.1" fill="none" stroke="#111" stroke-width="0.85" stroke-linecap="round" stroke-linejoin="round" vector-effect="non-scaling-stroke"/><path d="M137 696.91 L151 696.91" fill="none" stroke="#111" stroke-width="0.85" stroke-linecap="round" stroke-linejoin="round" vector-effect="non-scaling-stroke"/><path d="M144 689.91 L144 703.91" fill="none" stroke="#111" stroke-width="0.85" stroke-linecap="round" stroke-linejoin="round" vector-effect="non-scaling-stroke"/><path d="M165 687.69 L175 687.69" fill="none" stroke="#111" stroke-width="0.85" stroke-linecap="round" stroke-linejoin="round" vector-effect="non-scaling-stroke"/><path d="M170 682.69 L170 692.69" fill="none" stroke="#111" stroke-width="0.85" stroke-linecap="round" stroke-linejoin="round" vector-effect="non-scaling-stroke"/><path d="M190 676.92 L202 676.92" fill="none" stroke="#111" stroke-width="0.85" stroke-linecap="round" stroke-linejoin="round" vector-effect="non-scaling-stroke"/><path d="M196 670.92 L196 682.92" fill="none" stroke="#111" stroke-width="0.85" stroke-linecap="round" stroke-linejoin="round" vector-effect="non-scaling-stroke"/><path d="M215 674.49 L229 674.49" fill="none" stroke="#111" stroke-width="0.85" stroke-linecap="round" stroke-linejoin="round" vector-effect="non-scaling-stroke"/><path d="M222 667.49 L222 681.49" fill="none" stroke="#111" stroke-width="0.85" stroke-linecap="round" stroke-linejoin="round" vector-effect="non-scaling-stroke"/><path d="M243 682.65 L253 682.65" fill="none" stroke="#111" stroke-width="0.85" stroke-linecap="round" stroke-linejoin="round" vector-effect="non-scaling-stroke"/><path d="M248 677.65 L248 687.65" fill="none" stroke="#111" stroke-width="0.85" stroke-linecap="round" stroke-linejoin="round" vector-effect="non-scaling-stroke"/><path d="M268 693.88 L280 693.88" fill="none" stroke="#111" stroke-width="0.85" stroke-linecap="round" stroke-linejoin="round" vector-effect="non-scaling-stroke"/><path d="M274 687.88 L274 699.88" fill="none" stroke="#111" stroke-width="0.85" stroke-linecap="round" stroke-linejoin="round" vector-effect="non-scaling-stroke"/><path d="M293 697.87 L307 697.87" fill="none" stroke="#111" stroke-width="0.85" stroke-linecap="round" stroke-linejoin="round" vector-effect="non-scaling-stroke"/><path d="M300 690.87 L300 704.87" fill="none" stroke="#111" stroke-width="0.85" stroke-linecap="round" stroke-linejoin="round" vector-effect="non-scaling-stroke"/><path d="M321 690.95 L331 690.95" fill="none" stroke="#111" stroke-width="0.85" stroke-linecap="round" stroke-linejoin="round" vector-effect="non-scaling-stroke"/><path d="M326 685.95 L326 695.95" fill="none" stroke="#111" stroke-width="0.85" stroke-linecap="round" stroke-linejoin="round" vector-effect="non-scaling-stroke"/><path d="M346 679.47 L358 679.47" fill="none" stroke="#111" stroke-width="0.85" stroke-linecap="round" stroke-linejoin="round" vector-effect="non-scaling-stroke"/><path d="M352 673.47 L352 685.47" fill="none" stroke="#111" stroke-width="0.85" stroke-linecap="round" stroke-linejoin="round" vector-effect="non-scaling-stroke"/><path d="M371 674 L385 674" fill="none" stroke="#111" stroke-width="0.85" stroke-linecap="round" stroke-linejoin="round" vector-effect="non-scaling-stroke"/><path d="M378 667 L378 681" fill="none" stroke="#111" stroke-width="0.85" stroke-linecap="round" stroke-linejoin="round" vector-effect="non-scaling-stroke"/><path d="M399 679.56 L409 679.56" fill="none" stroke="#111" stroke-width="0.85" stroke-linecap="round" stroke-linejoin="round" vector-effect="non-scaling-stroke"/><path d="M404 674.56 L404 684.56" fill="none" stroke="#111" stroke-width="0.85" stroke-linecap="round" stroke-linejoin="round" vector-effect="non-scaling-stroke"/><path d="M424 691.04 L436 691.04" fill="none" stroke="#111" stroke-width="0.85" stroke-linecap="round" stroke-linejoin="round" vector-effect="non-scaling-stroke"/><path d="M430 685.04 L430 697.04" fill="none" stroke="#111" stroke-width="0.85" stroke-linecap="round" stroke-linejoin="round" vector-effect="non-scaling-stroke"/><path d="M449 697.89 L463 697.89" fill="none" stroke="#111" stroke-width="0.85" stroke-linecap="round" stroke-linejoin="round" vector-effect="non-scaling-stroke"/><path d="M456 690.89 L456 704.89" fill="none" stroke="#111" stroke-width="0.85" stroke-linecap="round" stroke-linejoin="round" vector-effect="non-scaling-stroke"/><path d="M477 693.8 L487 693.8" fill="none" stroke="#111" stroke-width="0.85" stroke-linecap="round" stroke-linejoin="round" vector-effect="non-scaling-stroke"/><path d="M482 688.8 L482 698.8" fill="none" stroke="#111" stroke-width="0.85" stroke-linecap="round" stroke-linejoin="round" vector-effect="non-scaling-stroke"/><path d="M502 682.55 L514 682.55" fill="none" stroke="#111" stroke-width="0.85" stroke-linecap="round" stroke-linejoin="round" vector-effect="non-scaling-stroke"/><path d="M508 676.55 L508 688.55" fill="none" stroke="#111" stroke-width="0.85" stroke-linecap="round" stroke-linejoin="round" vector-effect="non-scaling-stroke"/><path d="M527 674.46 L541 674.46" fill="none" stroke="#111" stroke-width="0.85" stroke-linecap="round" stroke-linejoin="round" vector-effect="non-scaling-stroke"/><path d="M534 667.46 L534 681.46" fill="none" stroke="#111" stroke-width="0.85" stroke-linecap="round" stroke-linejoin="round" vector-effect="non-scaling-stroke"/></g></g>
</svg>