<svg xmlns="http://www.w3.org/2000/svg" viewBox="0 0 640 872">
  <rect width="100%" height="100%" fill="#fff"/>
  <g data-layer="panel_frame"><text x="22" y="42" font-family="Helvetica, Arial, sans-serif" font-size="20" letter-spacing=".04em" fill="#111">05 Composite Strike</text><rect x="20" y="56" width="600" height="760" fill="#fff" stroke="#111" stroke-width="1.2"/></g>
  <g data-layer="sound_vector_engine"><g data-engine="composite_strike"><path d="M94 700 L540 660" fill="none" stroke="#111" stroke-width="5.3" stroke-linecap="round" stroke-linejoin="round" vector-effect="non-scaling-stroke"/><path d="M540 660 L521.49 673.77 L519.33 649.75 Z" fill="#111" stroke="#111" stroke-width="0"/><path d="M308 724 L308 178" fill="none" stroke="#111" stroke-width="4.9" stroke-linecap="round" stroke-linejoin="round" vector-effect="non-scaling-stroke"/><path d="M308 178 L319.66 197.02 L296.34 197.02 Z" fill="#111" stroke="#111" stroke-width="0"/><path d="M162 596 L520 270" fill="none" stroke="#111" stroke-width="4.2" stroke-linecap="round" stroke-linejoin="round" vector-effect="non-scaling-stroke"/><path d="M520 270 L514.16 290.15 L499.39 273.93 Z" fill="#111" stroke="#111" stroke-width="0"/><ellipse cx="308" cy="405.6" rx="96" ry="48" fill="none" stroke="#111" stroke-width="0.95" vector-effect="non-scaling-stroke" transform="rotate(-35 308 405.6)"/><ellipse cx="308" cy="405.6" rx="134" ry="68" fill="none" stroke="#111" stroke-width="0.95" vector-effect="non-scaling-stroke" transform="rotate(-23 308 405.6)"/><ellipse cx="308" cy="405.6" rx="172" ry="88" fill="none" stroke="#111" stroke-width="0.95" vector-effect="non-scaling-stroke" transform="rotate(-11 308 405.6)"/><ellipse cx="308" cy="405.6" rx="210" ry="108" fill="none" stroke="#111" stroke-width="0.95" vector-effect="non-scaling-stroke" transform="rotate(1 308 405.6)"/><g data-layer="r_composite_pcm"><path d="M88.16 613.45 L91.8 612.18 L93.97 609.16 L96.15 606.14 L98.46 603.29 L100.82 600.49 L103.95 598.61 L107.81 597.6 L110.5 595.2 L111.54 590.83 L114.12 588.3 L116.33 585.33 L119.86 583.92 L123.79 583 L127.82 582.18 L130.54 579.81 L134.51 578.93 L136.65 575.88 L138.92 572.97 L141.48 570.41 L144.16 568 L148.19 567.19 L152.15 566.3 L155.7 564.91 L157.12 561 L158.44 556.98 L158.95 551.98 L159.31 546.81 L159.95 541.97 L161.66 538.41 L164.61 536.32 L168.84 535.74 L172.67 534.69 L174.88 531.71 L175.73 527.12 L176.47 522.41 L179.34 520.22 L181.39 517.06 L186.1 517.06 L190.81 517.05 L194.99 516.41 L199.76 516.48 L203.92 515.82 L205.05 511.57 L205.76 506.81 L206.93 502.61 L210.4 501.12 L213.36 499.05 L216.14 496.75 L218.34 493.76 L220.05 490.2 L222.85 487.93 L223.13 482.66 L224.16 478.28 L225 473.69 L227.79 471.41 L230.91 469.51 L234.25 467.88 L237.68 466.35 L240.14 463.68 L243.58 462.16 L247.02 460.65 L251.36 460.21 L255 458.93 L259.13 458.24 L262.7 456.89 L266.62 455.94 L269.63 453.92 L272.36 451.56 L273.35 447.14 L276.74 445.57 L280.15 444.02 L284.36 443.42 L286.92 440.87 L289.24 438.03 L290.6 434.05 L293.25 431.59 L294.36 427.31 L296.54 424.3 L299.25 421.93 L303.8 421.73 L310.05 423.55 L315.11 423.96 L317.9 421.67 L320.38 419.03 L322.51 415.96 L325.41 413.8 L328.07 411.37 L331.86 410.27 L335.82 409.38 L340.85 409.75 L343.33 407.1 L345.86 404.51 L347.33 400.66 L347.15 394.84 L347.57 389.75 L349.19 386.08 L352.14 383.97 L354.79 381.53 L357.87 379.58 L360.84 377.52 L363.7 375.32 L366.06 372.52 L367.4 368.52 L368.76 364.54 L372.82 363.75 L378.07 364.39 L382.18 363.67 L386.31 362.98 L389.62 361.31 L393.43 360.25 L396.49 358.28 L398.93 355.58 L401.62 353.18 L403.39 349.68 L406.25 347.47 L408.32 344.34 L410.23 341.01 L410.94 336.25 L410.83 330.53 L412.24 326.61 L413.67 322.7 L416.48 320.44 L418.46 317.19 L420.28 313.76 L422.25 310.51 L423.79 306.74 L425.71 303.42 L427.72 300.2 L430.4 297.8 L435.84 298.65 L440.86 299.02 L445.84 299.34 L449.58 298.18 L451.72 295.12 L453.98 292.21 L456.56 289.68 L458.73 286.66 L462.98 286.1 L466.44 284.61 L470.91 284.33 L475.25 283.89 L477.36 280.79 L478.11 276.09 L477.75 270.06 L479.29 266.29 L481.6 263.43 L485.05 261.94 L488.85 260.85 L492.91 260.07 L497.59 260.04 L500.57 257.98 L503.39 255.73 L504.19 251.09 L506.26 247.94 L510.25 247.08 L515.1 247.24 L518.98 246.25 L522.36 244.67 L525.65 242.98" fill="none" stroke="#111" stroke-width="0.72" stroke-linecap="round" stroke-linejoin="round" vector-effect="non-scaling-stroke"/><path d="M93.02 620.39 L96.71 619.17 L99.22 616.56 L101.35 613.51 L103.84 610.9 L106.16 608.07 L109.27 606.17 L112.28 604.16 L115.67 602.58 L117.47 599.15 L118.52 594.85 L121.35 592.62 L125.32 591.72 L128.48 589.88 L132.51 589.05 L135.52 587.04 L138.87 585.42 L141.55 583.02 L143.22 579.43 L145.02 576.01 L148.25 574.24 L151.92 573 L156.01 572.24 L158.9 570.08 L161.58 567.68 L161.88 562.5 L163.15 558.46 L163.94 553.85 L164.11 548.52 L166.44 545.71 L169.3 543.51 L173.85 543.3 L176.77 541.18 L179.38 538.68 L180.87 534.9 L181.5 530.1 L183.82 527.29 L186.31 524.66 L190.67 524.21 L194.82 523.53 L199.89 523.92 L203.82 522.97 L207.23 521.43 L208.93 517.87 L209.94 513.52 L211.32 509.61 L213.63 506.77 L216.96 505.13 L219.43 502.48 L222.57 500.61 L224.39 497.21 L226.54 494.19 L226.88 489.06 L228.12 484.97 L229.04 480.52 L231.05 477.34 L234.79 476.17 L238.88 475.42 L241.99 473.51 L244.37 470.77 L247.49 468.88 L250.61 466.98 L255.09 466.68 L258.92 465.62 L262.06 463.76 L266.31 463.19 L270.51 462.56 L273.6 460.64 L275.65 457.49 L277.17 453.74 L280.48 452.08 L283.66 450.26 L287.29 448.97 L290.13 446.75 L292.37 443.83 L294.11 440.34 L296.28 437.34 L297.75 433.52 L299.91 430.52 L302.17 427.62 L307.23 427.99 L312.13 428.19 L317.45 428.86 L321.11 427.61 L322.99 424.27 L324.8 420.85 L328.09 419.16 L330.45 416.39 L334.75 415.88 L338.64 414.89 L343.03 414.48 L345.55 411.89 L348.11 409.36 L350.64 406.77 L350.42 400.99 L350.71 395.8 L352.24 392.05 L354.89 389.61 L358.19 387.94 L360.53 385.14 L363.43 382.99 L366.37 380.89 L368.36 377.69 L369.65 373.67 L372.5 371.46 L375.7 369.67 L379.97 369.12 L384.99 369.44 L389.19 368.82 L391.99 366.56 L394.99 364.53 L398.34 362.91 L400.9 360.36 L402.8 357.06 L405.56 354.74 L407.66 351.66 L410.87 349.88 L412.01 345.68 L411.86 339.97 L412.75 335.49 L413.63 330.99 L415.54 327.68 L418.17 325.23 L420.03 321.87 L421.82 318.42 L423.67 315.05 L425.79 311.99 L427.46 308.42 L429.62 305.41 L432.77 303.55 L437.47 303.5 L443.91 305.5 L447.89 304.61 L452.34 304.28 L454.42 301.17 L456.29 297.82 L459.09 295.56 L461.63 292.99 L464.33 290.62 L467.63 288.93 L472.95 289.62 L476.24 287.92 L478.45 284.98 L479.6 280.79 L479.86 275.56 L481.57 272.03 L483.55 268.8 L486.89 267.18 L490.19 265.5 L493.94 264.35 L498.17 263.75 L501.31 261.89 L503.95 259.44 L505.81 256.07 L507.8 252.87 L511.67 251.85 L516.02 251.4 L520 250.52 L523.26 248.79 L526.15 246.64" fill="none" stroke="#111" stroke-width="0.72" stroke-linecap="round" stroke-linejoin="round" vector-effect="non-scaling-stroke"/><path d="M98.47 628.01 L101.31 625.81 L103.96 623.38 L106.85 621.23 L108.29 617.42 L111.23 615.33 L114.31 613.4 L118.02 612.19 L120.5 609.57 L121.82 605.62 L123.77 602.39 L126.97 600.59 L130.18 598.82 L133.04 596.62 L136.19 594.78 L139.2 592.77 L142.93 591.58 L146.03 589.67 L147.4 585.78 L149.68 582.93 L152.43 580.62 L156.18 579.46 L160.01 578.39 L163.28 576.68 L165.55 573.81 L165.93 568.78 L166.85 564.38 L167.99 560.22 L168.91 555.81 L170.62 552.31 L173.28 549.89 L177.69 549.48 L181.57 548.47 L183.62 545.36 L185.48 542.02 L186.21 537.4 L188.33 534.37 L190.87 531.81 L195.15 531.26 L199.34 530.6 L204.04 530.53 L208.76 530.48 L212.11 528.86 L213.17 524.61 L214.38 520.54 L215.28 516.11 L217.79 513.52 L220.58 511.25 L223.52 509.16 L226.01 506.55 L227.9 503.26 L230.17 500.4 L231.45 496.4 L232.03 491.6 L233.01 487.26 L235.1 484.19 L238.91 483.1 L242.74 482.03 L245.27 479.47 L248.4 477.6 L250.79 474.86 L255.09 474.34 L258.19 472.43 L262.2 471.57 L266.46 470.99 L269.8 469.36 L274.06 468.78 L276.57 466.19 L279.55 464.14 L280.65 459.95 L284.03 458.35 L287.13 456.44 L291.17 455.62 L293.92 453.3 L296.12 450.37 L298.26 447.35 L299.31 443.1 L301.54 440.19 L303.42 436.88 L305.77 434.11 L309.62 433.07 L314.93 433.69 L320.32 434.41 L323.16 432.2 L326.04 430.04 L328.08 426.92 L330.21 423.89 L333.39 422.08 L337.23 421.01 L340.49 419.29 L344.85 418.83 L347.82 416.77 L350.43 414.3 L352.23 410.9 L352.97 406.29 L353.23 401.12 L355.01 397.7 L357.45 395.03 L361.19 393.86 L363.23 390.74 L366.39 388.89 L369.72 387.25 L371.29 383.59 L373.09 380.19 L375.26 377.21 L378.75 375.76 L382.41 374.48 L387.4 374.75 L390.99 373.4 L393.97 371.35 L397.37 369.79 L400.49 367.9 L402.77 365.05 L405.18 362.35 L406.94 358.91 L409.77 356.69 L411.82 353.57 L413.24 349.74 L414.31 345.51 L414.39 340.13 L415.65 336.12 L418.29 333.67 L420.62 330.88 L422.1 327.12 L424.63 324.56 L426.16 320.85 L427.99 317.47 L430.59 315 L432.7 311.96 L435.23 309.39 L440.64 310.14 L445.43 310.16 L450.75 310.8 L453.88 308.93 L456.01 305.91 L458.13 302.88 L460.71 300.37 L463.67 298.3 L466.47 296.04 L469.92 294.54 L474.31 294.11 L478.2 293.11 L480.02 289.74 L481.45 285.91 L481.75 280.79 L482.38 276.04 L485.23 273.85 L487.69 271.2 L491.73 270.37 L495.6 269.35 L499.91 268.83 L502.65 266.5 L505.09 263.84 L507.19 260.78 L508.8 257.17 L512.77 256.26 L517.01 255.66 L520.82 254.57 L525.06 253.97 L527.46 251.25" fill="none" stroke="#111" stroke-width="0.72" stroke-linecap="round" stroke-linejoin="round" vector-effect="non-scaling-stroke"/><path d="M103.72 635.41 L106.98 633.68 L109.8 631.46 L111.6 628.09 L113.56 624.89 L116.4 622.7 L119.32 620.59 L122.29 618.53 L125.05 616.25 L126.65 612.64 L128.21 609.01 L131.87 607.73 L134.58 605.39 L137.84 603.66 L140.89 601.7 L144.4 600.25 L147.52 598.36 L149.53 595.24 L152 592.62 L153.57 588.98 L156.22 586.57 L160.27 585.74 L164.02 584.56 L167.03 582.56 L169.23 579.64 L170.47 575.63 L171.29 571.16 L171.97 566.52 L173.82 563.22 L175.38 559.57 L177.86 556.96 L182.2 556.46 L185.65 554.95 L188.39 552.63 L189.78 548.8 L190.68 544.41 L192.73 541.32 L196.06 539.68 L199.59 538.25 L203.58 537.35 L208.6 537.61 L213 537.17 L216.13 535.29 L217.66 531.62 L218.34 526.98 L219.58 522.99 L221.99 520.3 L224.61 517.86 L227.16 515.32 L229.9 513.02 L232.18 510.19 L234 506.83 L235.1 502.68 L235.86 498.13 L237.3 494.35 L238.9 490.76 L242.22 489.1 L246.25 488.24 L248.97 485.91 L251.86 483.77 L255.14 482.06 L258.55 480.51 L262.1 479.11 L265.93 478.02 L270.27 477.51 L273.66 475.93 L277.65 475.03 L280.53 472.87 L283.01 470.27 L284.56 466.62 L287.29 464.3 L290.66 462.69 L294.14 461.22 L297 459.04 L299.31 456.24 L301.45 453.26 L303.08 449.69 L304.03 445.37 L306.64 442.9 L309.29 440.5 L313.28 439.59 L318.4 439.96 L322.31 438.97 L326.26 438.02 L328.33 434.95 L330.04 431.48 L332.71 429.09 L335.29 426.6 L338.88 425.25 L343.22 424.74 L347.54 424.2 L350.15 421.75 L352.79 419.32 L355.2 416.64 L354.91 410.91 L355.66 406.35 L358.48 404.13 L360.49 401 L363.99 399.54 L366.27 396.72 L369.14 394.54 L372.02 392.39 L373.69 388.88 L375.5 385.52 L377.31 382.15 L380.78 380.67 L384.97 379.98 L389.67 379.89 L393.29 378.56 L396.23 376.48 L399.17 374.39 L402.15 372.35 L404.66 369.78 L406.78 366.77 L408.81 363.66 L411.4 361.18 L413.71 358.38 L415.29 354.76 L415.67 349.78 L416.49 345.31 L417.93 341.53 L420.44 338.96 L422.54 335.93 L424.76 333.03 L426.52 329.61 L429.15 327.18 L430.31 323.09 L432.26 319.89 L434.73 317.26 L437.78 315.31 L442.7 315.46 L447.58 315.55 L452.2 315.36 L456.25 314.52 L458.49 311.65 L460.28 308.27 L462.89 305.81 L465.03 302.82 L468.69 301.54 L471.29 299.07 L476.18 299.19 L479.46 297.48 L481.34 294.21 L482.22 289.8 L482.84 285.09 L484.04 281.05 L486.06 277.92 L489.39 276.27 L492.69 274.59 L496.12 273.05 L501.03 273.2 L503.93 271.06 L506.21 268.23 L508.03 264.89 L510.24 261.98 L514 260.81 L517.81 259.71 L522.48 259.57 L525.44 257.51 L528.76 255.85" fill="none" stroke="#111" stroke-width="0.72" stroke-linecap="round" stroke-linejoin="round" vector-effect="non-scaling-stroke"/><path d="M108.18 641.92 L111.97 640.78 L114.48 638.22 L116.78 635.43 L118.84 632.37 L121.58 630.08 L124.58 628.06 L127.47 625.92 L129.91 623.28 L131.78 620.02 L133.04 616.07 L136.34 614.39 L139.35 612.38 L142.18 610.18 L145.46 608.48 L148.07 606.03 L151.71 604.72 L154.22 602.17 L155.96 598.76 L158.14 595.84 L160.72 593.36 L164.4 592.1 L167.76 590.47 L170.88 588.59 L173.04 585.64 L174.58 582.01 L175.53 577.73 L176.48 573.44 L178.16 569.96 L180.24 566.92 L182.56 564.16 L186.77 563.48 L190.72 562.52 L192.61 559.28 L194 555.48 L195.71 552.04 L197.38 548.55 L200.9 547.11 L204.39 545.64 L208.4 544.74 L212 543.39 L216.7 543.26 L219.34 540.84 L221.47 537.86 L222.37 533.52 L223.6 529.54 L226.19 527.08 L228.35 524.13 L231.62 522.41 L233.25 518.88 L235.91 516.48 L237.78 513.22 L238.49 508.67 L240.05 505.06 L241.01 500.78 L243.42 498.11 L246.91 496.64 L250.23 494.98 L253.66 493.44 L255.84 490.52 L259.3 489.02 L262.56 487.29 L266.43 486.23 L270.47 485.37 L273.79 483.71 L277.4 482.37 L281.46 481.53 L284.18 479.21 L286.77 476.74 L288.47 473.28 L290.68 470.39 L294.31 469.07 L297.57 467.34 L300.71 465.49 L303.09 462.78 L304.79 459.32 L305.85 455.16 L307.5 451.65 L309.81 448.87 L312.22 446.2 L315.73 444.76 L321.09 445.35 L325.09 444.45 L328.61 443.01 L330.24 439.47 L332.73 436.89 L334.98 434.04 L338.12 432.19 L341.86 430.99 L345.27 429.43 L349.79 429.1 L352.53 426.8 L355.2 424.42 L357.78 421.94 L357.59 416.38 L358.92 412.52 L360.68 409.14 L363.77 407.21 L366.63 405.05 L369.28 402.64 L372.01 400.32 L374.95 398.25 L376.68 394.82 L378.08 391.03 L380.53 388.41 L383.66 386.54 L387.83 385.82 L391.99 385.09 L395.85 384.02 L398.45 381.57 L401.24 379.32 L404 377.05 L406.07 373.99 L408.43 371.27 L410.71 368.46 L413.61 366.33 L415.86 363.49 L417.26 359.7 L417.45 354.57 L418.17 350.03 L419.53 346.2 L422.36 344 L424.35 340.86 L426.73 338.15 L428.96 335.28 L431.4 332.66 L433.32 329.44 L434.97 325.93 L437.09 322.94 L440.15 320.99 L445.52 321.6 L450.23 321.48 L454.43 320.8 L457.9 319.3 L459.95 316.23 L462.9 314.17 L465.19 311.36 L467.1 308.13 L470.48 306.54 L473.2 304.22 L477.66 303.82 L481.15 302.35 L483.11 299.18 L484.12 294.97 L483.9 289.37 L485.29 285.58 L488.19 283.45 L491.17 281.41 L494.14 279.36 L497.43 277.67 L501.6 276.95 L504.71 275.06 L507.42 272.73 L508.77 268.89 L511.34 266.39 L514.54 264.6 L518.97 264.17 L523.2 263.51 L526.73 262.08 L529.15 259.43" fill="none" stroke="#111" stroke-width="0.72" stroke-linecap="round" stroke-linejoin="round" vector-effect="non-scaling-stroke"/><path d="M113.72 649.65 L117.19 648.14 L119.34 645.2 L121.63 642.41 L124.14 639.87 L126.35 637 L129.13 634.75 L132.25 632.87 L135.1 630.69 L136.76 627.22 L138.11 623.4 L140.55 620.79 L143.92 619.18 L146.71 616.93 L150.12 615.37 L152.97 613.2 L155.87 611.08 L158.62 608.79 L160.43 605.48 L162.54 602.5 L164.38 599.22 L168.56 598.5 L172.44 597.44 L175.49 595.48 L177.61 592.51 L178.63 588.34 L180.25 584.83 L181.33 580.73 L182.7 576.93 L184.67 573.8 L187.8 571.93 L191.81 571.02 L195.27 569.51 L197.61 566.78 L198.79 562.78 L200.43 559.29 L202.76 556.55 L205.53 554.29 L208.93 552.71 L212.25 551.04 L216.33 550.21 L220.98 549.99 L223.64 547.61 L225.48 544.33 L226.06 539.68 L227.6 536.08 L229.77 533.16 L232.72 531.1 L235.45 528.79 L237.35 525.59 L238.96 522.06 L241.52 519.57 L242.24 515.07 L243.79 511.48 L245.34 507.88 L247.57 505.04 L250.83 503.3 L254.59 502.12 L257.71 500.24 L260 497.45 L262.75 495.17 L266.93 494.45 L270.07 492.59 L273.61 491.15 L277.82 490.46 L281.36 489.03 L284.84 487.55 L287.72 485.41 L290.22 482.85 L291.8 479.29 L294.23 476.65 L298.08 475.57 L300.99 473.46 L304.12 471.59 L305.55 467.87 L307.94 465.19 L309.05 461.12 L310.55 457.47 L312.86 454.71 L314.92 451.67 L319.2 451.06 L323.86 450.85 L327.64 449.69 L330.83 447.88 L332.97 444.93 L335.12 441.99 L337.79 439.62 L340.95 437.78 L344.16 436 L347.88 434.77 L352.11 434.1 L354.96 431.92 L357.65 429.57 L359.85 426.69 L360.76 422.4 L361.58 418.01 L363.57 414.9 L366.68 413 L369 410.26 L372.26 408.53 L374.65 405.85 L377.2 403.35 L379.54 400.62 L381.03 396.96 L383.22 394.06 L386.04 391.86 L390.05 390.95 L394.02 389.99 L397.29 388.26 L400.04 385.99 L403.17 384.11 L405.79 381.69 L408.39 379.23 L410.25 375.99 L412.47 373.12 L414.92 370.51 L417.25 367.77 L418.96 364.35 L419.94 360.14 L420.32 355.28 L421.76 351.57 L424.59 349.37 L426.56 346.23 L429.63 344.3 L431.04 340.56 L433.79 338.27 L435.73 335.1 L437.72 331.99 L439.68 328.85 L442.81 326.98 L447.35 326.64 L452.5 326.96 L457.01 326.6 L460.34 324.94 L462.17 321.66 L464.67 319.1 L466.65 315.98 L468.73 312.96 L472 311.25 L474.63 308.83 L479.05 308.37 L482.6 306.95 L484.06 303.26 L485.57 299.62 L485.33 294.09 L487.49 291.16 L489.49 288.06 L492.37 285.92 L495.44 283.98 L498.79 282.34 L503.19 281.85 L506.42 280.09 L508.29 276.85 L510.56 274.05 L512.61 270.99 L516.49 269.94 L520.6 269.14 L524.22 267.8 L528.12 266.77 L530.62 264.21" fill="none" stroke="#111" stroke-width="0.72" stroke-linecap="round" stroke-linejoin="round" vector-effect="non-scaling-stroke"/><path d="M118.91 656.98 L121.75 654.79 L124.43 652.44 L126.83 649.79 L129.08 646.98 L131.44 644.28 L134.08 641.88 L137.42 640.23 L139.56 637.3 L141 633.63 L142.96 630.5 L145.3 627.78 L148.75 626.26 L151.67 624.16 L154.16 621.61 L156.68 619.08 L160.35 617.78 L162.65 615.03 L164.18 611.44 L166.18 608.37 L168.78 605.92 L172.5 604.69 L176.55 603.79 L179.26 601.47 L181.74 598.9 L182.53 594.53 L184.18 591.07 L185.69 587.47 L187.5 584.19 L188.99 580.56 L192.54 579.14 L196.39 578.04 L199.26 575.89 L201.85 573.44 L203.19 569.65 L204.73 566.08 L207.08 563.38 L209.75 561.01 L213.4 559.69 L216.66 557.96 L220.58 556.93 L224.72 556.14 L227.5 553.9 L228.84 550.11 L229.86 545.98 L231.55 542.57 L233.47 539.41 L236.53 537.46 L238.66 534.52 L240.83 531.62 L243.4 529.14 L245.05 525.69 L246.22 521.72 L247.86 518.25 L249.31 514.58 L251.14 511.32 L254.61 509.81 L258.13 508.36 L261.45 506.69 L264.15 504.37 L266.75 501.92 L270.83 501.07 L274.19 499.44 L277.97 498.26 L281.57 496.89 L285.18 495.53 L288.49 493.86 L291.4 491.76 L293.75 489.05 L295.83 486.05 L297.65 482.78 L301.42 481.59 L304.52 479.69 L306.96 477.08 L309.38 474.45 L310.74 470.68 L312.55 467.39 L313.6 463.3 L315.95 460.59 L318.34 457.93 L321.98 456.6 L326.77 456.51 L330.62 455.41 L333.47 453.24 L335.75 450.45 L337.95 447.58 L340.58 445.18 L343.48 443.06 L347.1 441.71 L350.8 440.46 L354.38 439.07 L357.41 437.09 L360.12 434.76 L362.19 431.76 L362.86 427.25 L364.35 423.63 L366.24 420.43 L369.12 418.3 L372.06 416.21 L374.93 414.07 L377.52 411.61 L379.98 409.03 L381.83 405.79 L383.52 402.38 L385.63 399.41 L388.39 397.14 L392.72 396.56 L395.95 394.79 L399.73 393.62 L402.33 391.18 L404.93 388.73 L407.62 386.4 L410 383.73 L412.38 381.05 L413.96 377.51 L416.6 375.12 L419.1 372.58 L420.93 369.31 L422.03 365.27 L422.84 360.92 L424.05 356.99 L426.37 354.25 L429.27 352.14 L431.56 349.36 L433.5 346.22 L436.18 343.86 L438.38 341 L440.08 337.6 L442.71 335.19 L445.73 333.21 L449.82 332.36 L454.78 332.44 L458.56 331.27 L462.01 329.74 L463.86 326.49 L466.72 324.33 L468.64 321.17 L470.87 318.33 L473.47 315.9 L476.71 314.14 L480.24 312.7 L483.56 311.03 L485.63 308.03 L486.57 303.81 L487.05 299.1 L488.89 295.85 L490.76 292.63 L493.69 290.55 L496.98 288.84 L500.34 287.22 L504.46 286.4 L507.05 283.96 L509.96 281.85 L512.12 278.94 L513.85 275.57 L517.66 274.42 L521.48 273.29 L525.32 272.18 L529.1 271.01 L531.94 268.82" fill="none" stroke="#111" stroke-width="0.72" stroke-linecap="round" stroke-linejoin="round" vector-effect="non-scaling-stroke"/><path d="M123.85 664.05 L126.8 661.98 L129.29 659.44 L131.85 656.96 L134.11 654.18 L136.37 651.39 L139.19 649.19 L141.78 646.75 L143.97 643.89 L145.95 640.81 L147.49 637.27 L150.19 634.94 L152.99 632.72 L155.61 630.31 L158.71 628.4 L161.09 625.74 L164 623.64 L166.68 621.3 L168.68 618.23 L170.94 615.44 L173.59 613.07 L176.7 611.17 L180.73 610.24 L183.6 608.09 L185.38 604.8 L186.86 601.2 L188.54 597.8 L190.25 594.43 L191.58 590.67 L194.15 588.21 L196.58 585.59 L200.59 584.64 L203.73 582.78 L206.61 580.65 L208.24 577.2 L209.73 573.6 L211.7 570.51 L214.03 567.79 L217.2 565.96 L220.81 564.6 L224.93 563.76 L228.46 562.31 L231.48 560.32 L232.75 556.5 L234.12 552.77 L235.27 548.82 L237.33 545.81 L239.86 543.31 L242.93 541.38 L244.7 538.08 L246.8 535.12 L249.18 532.45 L250.33 528.5 L252.08 525.18 L253.17 521.16 L255.99 518.96 L259.31 517.29 L262.4 515.37 L265.3 513.26 L268.36 511.31 L270.94 508.86 L274.57 507.51 L277.94 505.89 L282 504.99 L285.24 503.24 L288.95 501.98 L292.03 500.05 L295.22 498.24 L297.21 495.16 L299.24 492.13 L301.15 488.98 L304.81 487.66 L307.44 485.27 L310.49 483.31 L312.3 480.05 L313.6 476.25 L315.8 473.4 L316.9 469.39 L319.18 466.63 L321.69 464.1 L325.28 462.71 L329.57 462.06 L332.91 460.4 L336.54 459.06 L338.43 455.88 L340.36 452.75 L343.57 450.95 L346.53 448.9 L349.33 446.69 L353.2 445.59 L357.22 444.65 L359.89 442.3 L362.59 439.98 L365.17 437.52 L365.65 432.86 L366.87 428.98 L369.26 426.33 L371.84 423.87 L374.53 421.54 L377.74 419.76 L380.3 417.28 L382.65 414.58 L384.71 411.59 L386.25 408.05 L388.5 405.25 L391.26 402.98 L394.49 401.22 L398.05 399.8 L401.37 398.12 L404.13 395.86 L406.74 393.44 L409.35 391.02 L412 388.65 L413.93 385.5 L416.27 382.81 L418.76 380.26 L421.28 377.75 L422.64 374.01 L423.99 370.26 L424.68 365.82 L426.47 362.54 L429.13 360.17 L431.62 357.63 L434.09 355.06 L436.34 352.26 L438.67 349.55 L441.05 346.89 L443.16 343.95 L445.09 340.81 L447.88 338.58 L452.55 338.33 L456.8 337.63 L461.07 336.96 L463.72 334.57 L466.12 331.93 L468.37 329.14 L470.18 325.88 L472.42 323.07 L475.17 320.79 L478.09 318.7 L481.88 317.53 L484.6 315.22 L486.98 312.55 L487.91 308.37 L488.54 303.87 L490.2 300.45 L492.74 297.95 L495.51 295.7 L498.37 293.55 L502.1 292.31 L505.54 290.75 L508.88 289.1 L511.14 286.32 L513.48 283.62 L515.5 280.58 L519.13 279.23 L522.43 277.53 L526.53 276.68 L530.21 275.39 L532.85 273" fill="none" stroke="#111" stroke-width="4.8" stroke-linecap="round" stroke-linejoin="round" vector-effect="non-scaling-stroke"/><path d="M129.28 671.64 L133.07 670.44 L135.16 667.49 L137.28 664.57 L139.82 662.09 L141.76 658.98 L144.77 656.99 L147.53 654.73 L149.72 651.88 L151.44 648.55 L152.97 645.02 L154.94 641.95 L157.66 639.65 L161.05 638.04 L163.54 635.51 L166.32 633.27 L169.4 631.34 L171.38 628.27 L173.49 625.35 L175.7 622.53 L178.05 619.84 L181.67 618.47 L185.11 616.92 L188.35 615.16 L190.29 612.05 L191.87 608.57 L193.65 605.3 L194.5 601.08 L196.13 597.64 L198.78 595.28 L201.53 593.01 L205.67 592.17 L209.03 590.54 L211.02 587.48 L212.26 583.66 L213.79 580.13 L215.55 576.83 L218.17 574.43 L221.83 573.11 L225.52 571.81 L228.74 570.02 L232.44 568.75 L235.4 566.7 L236.76 562.99 L237.6 558.74 L238.83 554.91 L241.16 552.21 L243.74 549.77 L246.52 547.53 L248.46 544.42 L250.49 541.41 L252.21 538.08 L253.58 534.38 L255 530.75 L256.62 527.3 L258.52 524.16 L262.37 523.03 L265.93 521.6 L268.91 519.56 L271.37 517 L274.55 515.17 L278.15 513.79 L281.52 512.16 L285.52 511.18 L289.24 509.92 L292.33 508 L295.99 506.67 L298.68 504.34 L301.02 501.65 L302.58 498.15 L304.66 495.2 L307.87 493.4 L310.9 491.42 L313.59 489.09 L315.86 486.33 L316.75 482.14 L318.29 478.62 L320.15 475.44 L321.66 471.88 L324.2 469.4 L327.66 467.87 L331.97 467.2 L336.13 466.39 L339.27 464.54 L341.22 461.44 L343.96 459.16 L346.35 456.52 L349.42 454.59 L352.49 452.65 L356.65 451.84 L360.4 450.6 L363.45 448.64 L366.18 446.35 L368.76 443.91 L369.3 439.36 L370.63 435.62 L372.61 432.56 L374.96 429.88 L377.6 427.5 L380.14 425.01 L383.23 423.1 L385.8 420.64 L387.62 417.42 L388.87 413.6 L390.44 410.11 L393.83 408.5 L397.55 407.23 L401.01 405.7 L404.42 404.11 L406.67 401.33 L409 398.63 L411.6 396.21 L413.95 393.52 L416.23 390.77 L418.17 387.67 L421.25 385.73 L423.42 382.87 L425.14 379.54 L425.67 374.97 L426.6 370.83 L428.34 367.52 L431.18 365.34 L433.7 362.83 L435.61 359.7 L437.64 356.69 L440.55 354.58 L442.47 351.46 L444.56 348.51 L446.49 345.4 L449.91 343.82 L453.7 342.62 L458.52 342.5 L463.04 342.06 L466.07 340.08 L467.55 336.5 L470.31 334.24 L471.96 330.84 L474.28 328.13 L476.73 325.55 L479.8 323.61 L483.09 321.9 L486.23 320.03 L488.7 317.47 L489.5 313.2 L489.93 308.53 L490.82 304.35 L492.91 301.39 L495.75 299.22 L499.51 297.99 L502.6 296.08 L506.95 295.47 L510.01 293.52 L512.47 290.95 L513.98 287.39 L516.37 284.76 L520.19 283.6 L524.08 282.51 L528.5 281.96 L531.96 280.43 L534.58 278.02" fill="none" stroke="#111" stroke-width="0.72" stroke-linecap="round" stroke-linejoin="round" vector-effect="non-scaling-stroke"/><path d="M135.12 679.63 L139 678.51 L141.53 676.02 L143.32 672.78 L145.13 669.57 L147.45 666.87 L149.99 664.39 L152.9 662.29 L154.62 658.98 L156.05 655.38 L157.75 652.05 L159.79 649.07 L162.96 647.22 L165.27 644.52 L168.55 642.79 L171.23 640.45 L174.36 638.58 L176.4 635.59 L178.24 632.41 L180.45 629.59 L182.71 626.83 L186.69 625.81 L189.95 624.07 L193.31 622.42 L195.51 619.6 L196.96 616.01 L198.08 612.09 L199.98 608.97 L201.28 605.23 L203.34 602.27 L205.87 599.78 L210.17 599.09 L213.62 597.53 L215.89 594.79 L216.82 590.68 L218.55 587.37 L219.96 583.75 L222.53 581.31 L226.22 580 L229.26 578.02 L233 576.76 L237.44 576.22 L239.41 573.16 L240.86 569.57 L241.64 565.31 L242.8 561.43 L244.53 558.13 L247.36 555.95 L250.19 553.77 L252.14 550.7 L253.72 547.24 L255.61 544.1 L256.86 540.31 L258.47 536.9 L259.82 533.21 L261.56 529.92 L265.72 529.09 L269.36 527.72 L272.35 525.71 L274.99 523.33 L278.45 521.78 L281.47 519.8 L285.73 519.06 L289.37 517.71 L292.84 516.18 L296.07 514.4 L300.22 513.55 L303.08 511.4 L304.43 507.71 L306.19 504.45 L308.26 501.49 L311.86 500.09 L314.37 497.58 L316.91 495.1 L319.07 492.24 L319.82 487.95 L321.85 484.95 L322.5 480.56 L324.44 477.47 L326.93 474.94 L330.48 473.49 L335.41 473.44 L339.05 472.07 L342.42 470.44 L344.48 467.48 L346.42 464.39 L349.09 462.05 L352.35 460.3 L356.2 459.15 L359.74 457.69 L364.37 457.33 L367.09 455.04 L369.84 452.78 L371.89 449.8 L372.77 445.64 L373.77 441.6 L375.29 438.09 L378.18 435.97 L381.12 433.9 L383.46 431.21 L386.64 429.39 L388.29 426 L390.28 422.97 L391.65 419.3 L393.3 415.92 L395.73 413.33 L400.15 412.77 L403.84 411.45 L406.44 409.04 L409.22 406.81 L411.85 404.42 L414.41 401.96 L416.76 399.29 L418.28 395.78 L420.47 392.95 L423.55 391.02 L425.28 387.72 L427.11 384.52 L428.3 380.67 L428.85 376.17 L430.34 372.64 L433.08 370.35 L435.26 367.52 L437.55 364.78 L439.73 361.94 L441.95 359.14 L443.93 356.1 L446.47 353.61 L448.69 350.82 L451.11 348.22 L455.44 347.55 L460.53 347.66 L464.37 346.51 L467.83 344.97 L469.69 341.8 L471.84 338.92 L473.89 335.95 L475.39 332.42 L477.97 329.98 L481.03 328.03 L484.76 326.76 L487.82 324.81 L489.65 321.61 L490.61 317.54 L490.55 312.42 L492.18 309.02 L493.87 305.67 L496.97 303.77 L500.14 301.93 L503.69 300.48 L508.07 299.87 L511.36 298.15 L513.21 294.98 L515.54 292.28 L517.74 289.46 L521.6 288.33 L525.29 287.01 L529.81 286.54 L533.46 285.2 L536.1 282.82" fill="none" stroke="#111" stroke-width="0.72" stroke-linecap="round" stroke-linejoin="round" vector-effect="non-scaling-stroke"/><path d="M141.45 688.09 L144.43 686.07 L147.01 683.63 L149.25 680.86 L150.74 677.34 L152.31 673.91 L155.96 672.55 L158.48 670.05 L160.26 666.82 L161.38 662.93 L162.92 659.47 L164.54 656.08 L167.53 654.06 L170.16 651.67 L172.86 649.36 L175.75 647.24 L178.43 644.91 L181.44 642.91 L183.09 639.55 L185.3 636.75 L187.88 634.32 L190.99 632.43 L195.41 631.83 L199.07 630.47 L200.94 627.33 L202 623.39 L203.02 619.4 L204.08 615.46 L205.42 611.78 L208.12 609.48 L210.99 607.33 L214.78 606.11 L218.66 604.97 L220.23 601.53 L221.51 597.81 L222.77 594.07 L224.78 591.06 L226.72 587.99 L230.2 586.46 L233.5 584.75 L237.74 583.98 L241.66 582.88 L243.5 579.71 L245.09 576.3 L245.79 571.99 L246.14 567.33 L248.41 564.59 L250.57 561.74 L253.11 559.27 L255.09 556.25 L256.96 553.1 L258.72 549.85 L260.63 546.75 L261.49 542.61 L262.85 538.97 L265.4 536.51 L268.29 534.39 L272.26 533.33 L275.69 531.75 L278.53 529.59 L281.76 527.8 L285.09 526.12 L289.26 525.27 L293.19 524.19 L296.79 522.78 L300.52 521.49 L303.74 519.7 L306.47 517.42 L308.16 514.1 L309.73 510.67 L312.23 508.15 L315.01 505.92 L317.93 503.83 L320.55 501.44 L322.03 497.91 L323.16 494.03 L324.02 489.88 L325.9 486.75 L327.09 482.94 L329.15 479.99 L332.75 478.58 L337.9 478.71 L342.33 478.13 L345.23 476.01 L347.75 473.52 L349.75 470.51 L352.46 468.22 L356.13 466.86 L359.12 464.85 L363.38 464.09 L368.06 463.75 L370.8 461.49 L373.58 459.25 L375.81 456.47 L375.7 451.36 L376.66 447.31 L379.04 444.68 L381.37 442 L384.16 439.78 L386.89 437.5 L388.95 434.55 L391.72 432.31 L393.17 428.75 L394.19 424.76 L395.24 420.81 L398.24 418.8 L401.8 417.35 L405.91 416.44 L408.89 414.4 L411.95 412.46 L414.43 409.93 L416.5 406.99 L418.44 403.91 L421.01 401.48 L422.67 398.13 L425.54 395.99 L427.68 393.11 L428.92 389.35 L429.97 385.39 L430.65 381.07 L432.48 377.89 L434.86 375.26 L437.18 372.57 L439.96 370.34 L442.02 367.39 L444.25 364.61 L445.96 361.31 L447.83 358.18 L450.51 355.84 L452.7 353.02 L457.42 352.72 L462.21 352.5 L466.34 351.61 L469.46 349.72 L471.8 347.05 L473.29 343.53 L475.41 340.64 L477.21 337.43 L479.23 334.45 L482.6 332.81 L486.42 331.6 L489.14 329.32 L491.39 326.56 L491.69 321.85 L491 316.17 L492.56 312.71 L494.68 309.82 L498 308.13 L501.4 306.52 L505.04 305.14 L509.23 304.32 L512.08 302.16 L515.1 300.16 L516.73 296.78 L519.23 294.27 L522.57 292.61 L527.2 292.21 L531.86 291.86 L535.51 290.49 L537.84 287.81" fill="none" stroke="#111" stroke-width="0.72" stroke-linecap="round" stroke-linejoin="round" vector-effect="non-scaling-stroke"/><path d="M147.11 695.86 L150.31 694.04 L152.5 691.23 L155 688.73 L156.33 685.08 L158.14 681.9 L161.13 679.88 L163.5 677.25 L165.76 674.51 L166.54 670.31 L166.98 665.8 L169.26 663.07 L172.47 661.26 L174.66 658.46 L178.38 657.15 L180.27 654.05 L183.17 651.94 L186.37 650.12 L187.88 646.65 L189.89 643.66 L192.65 641.41 L196.41 640.14 L200.5 639.19 L204.28 637.94 L206.04 634.72 L206.74 630.45 L208.7 627.41 L209.78 623.52 L210.58 619.35 L212.91 616.68 L215.3 614.07 L219.43 613.16 L223.56 612.26 L225.05 608.76 L226.48 605.21 L226.45 600.23 L228.96 597.73 L230.73 594.51 L233.79 592.56 L237.3 591.05 L242.08 590.77 L245.35 589.02 L248.31 586.97 L249.12 582.81 L249.62 578.35 L249.93 573.7 L251.47 570.25 L254.53 568.3 L257.28 566.04 L258.62 562.4 L260.74 559.52 L262.32 556.11 L264.1 552.91 L264.21 548.06 L265.94 544.8 L268.33 542.19 L271.94 540.77 L275.94 539.74 L279.56 538.34 L282.65 536.4 L285.4 534.15 L288.73 532.46 L292.61 531.3 L296.78 530.44 L300.07 528.71 L304.33 527.93 L307.86 526.43 L310.7 524.27 L312.19 520.77 L313.23 516.83 L315.25 513.86 L318.42 512.01 L321.85 510.41 L323.84 507.41 L325.62 504.21 L326.33 499.95 L326.97 495.62 L328.18 491.85 L329.38 488.07 L332.25 485.93 L335.7 484.36 L341.12 484.72 L345.16 483.72 L348.59 482.13 L351.11 479.65 L352.85 476.4 L355.74 474.28 L358.77 472.29 L363.2 471.67 L367.08 470.52 L371.36 469.77 L374.59 467.98 L377.38 465.76 L379.61 462.99 L379.82 458.24 L379.93 453.4 L381.78 450.26 L385.03 448.49 L387.66 446.1 L390.11 443.55 L391.87 440.33 L394.41 437.87 L395.77 434.24 L396.61 430.11 L397.49 426.01 L400.51 424.03 L404.25 422.74 L408.29 421.74 L411.45 419.89 L413.94 417.37 L416.32 414.75 L418.94 412.36 L420.91 409.33 L422.82 406.25 L425.24 403.67 L428.22 401.64 L429.71 398.14 L431.14 394.59 L432.37 390.84 L432.41 385.94 L433.9 382.44 L436.96 380.48 L439.3 377.82 L441.82 375.33 L443.11 371.65 L445.78 369.31 L447.41 365.95 L449.51 363.06 L451.8 360.35 L454.3 357.84 L459.77 358.25 L464.46 357.89 L468.98 357.36 L471.92 355.29 L473.69 352.08 L475.25 348.65 L476.6 345.01 L478.63 342.06 L481.09 339.52 L483.92 337.33 L487.58 335.97 L490.22 333.6 L492.71 331.09 L492.2 325.63 L491.82 320.31 L493.7 317.19 L495.7 314.2 L498.62 312.1 L502.57 311.02 L505.98 309.41 L510 308.39 L513.4 306.78 L516.23 304.59 L518.23 301.6 L520.74 299.1 L524.09 297.43 L528.43 296.73 L533.61 296.85 L536.64 294.87 L539.27 292.5" fill="none" stroke="#111" stroke-width="0.72" stroke-linecap="round" stroke-linejoin="round" vector-effect="non-scaling-stroke"/><path d="M153.31 704.13 L155.98 701.8 L159.11 699.91 L160.75 696.58 L162.14 693.02 L163.79 689.7 L166.37 687.28 L169.07 684.97 L170.76 681.69 L171.85 677.84 L172.36 673.42 L174.78 670.84 L176.85 667.94 L179.73 665.8 L183.12 664.16 L185.09 661.15 L188.41 659.44 L190.89 656.92 L192.18 653.26 L194.47 650.56 L197.16 648.24 L201.78 647.78 L205.22 646.19 L209.05 644.98 L211.11 642.05 L212.46 638.45 L213.29 634.34 L213.86 629.98 L215.72 626.88 L217.43 623.61 L220.57 621.73 L224.42 620.53 L227.77 618.85 L230 616.09 L230.42 611.59 L231.34 607.58 L232.64 603.92 L234.98 601.26 L238.07 599.34 L242.18 598.39 L245.71 596.88 L249.43 595.56 L252.58 593.69 L252.56 588.76 L252.94 584.22 L253.01 579.39 L255.19 576.58 L257.94 574.32 L260.27 571.65 L262.73 569.12 L264.25 565.68 L266.14 562.59 L267.58 559.08 L268.16 554.73 L268.98 550.61 L271.86 548.48 L275.82 547.39 L279.14 545.68 L282.67 544.17 L286.04 542.52 L288.73 540.19 L292.8 539.21 L297 538.35 L300.88 537.17 L304.05 535.32 L308.03 534.24 L311.3 532.49 L314.21 530.38 L315.75 526.96 L317.03 523.29 L319.27 520.54 L321.55 517.84 L324.59 515.86 L326.44 512.73 L328.65 509.95 L329.04 505.42 L329.92 501.37 L330.34 496.86 L332 493.56 L334.9 491.45 L338.57 490.08 L343.52 489.93 L348.61 489.93 L352.42 488.69 L353.87 485.18 L356.2 482.52 L359.17 480.47 L362.66 478.93 L366 477.24 L370.81 476.96 L375.67 476.74 L378.46 474.52 L381.25 472.3 L383.9 469.95 L383.49 464.64 L383.32 459.58 L385.5 456.77 L387.26 453.56 L390.54 451.81 L392.66 448.94 L395 446.29 L397.28 443.59 L397.89 439.27 L399.59 436 L400.7 432.16 L402.72 429.21 L406.68 428.11 L410.98 427.34 L413.93 425.28 L416.09 422.45 L419.25 420.59 L421.74 418.08 L423.7 415.06 L425.22 411.62 L427.97 409.36 L429.83 406.25 L432.68 404.09 L434.22 400.66 L434.48 396.01 L434.42 391.05 L436.69 388.33 L438.85 385.51 L441.7 383.34 L443.64 380.3 L445.27 376.97 L447.85 374.55 L449.23 370.97 L451.39 368.14 L453.18 364.96 L456.56 363.31 L460.71 362.4 L466.23 362.81 L470.85 362.35 L473.91 360.39 L474.98 356.51 L476.11 352.7 L478.39 349.99 L479.58 346.24 L481.99 343.64 L484.49 341.14 L489.04 340.62 L492.15 338.71 L493.76 335.36 L493.65 330.35 L492.89 324.71 L493.69 320.57 L495.88 317.77 L499.44 316.3 L502.8 314.63 L507.27 314.02 L511.97 313.65 L515.3 311.94 L518.02 309.66 L519.51 306.19 L521.63 303.32 L526.02 302.65 L530.9 302.44 L535.14 301.61 L538.71 300.14 L541.42 297.85" fill="none" stroke="#111" stroke-width="0.72" stroke-linecap="round" stroke-linejoin="round" vector-effect="non-scaling-stroke"/><path d="M159.53 712.39 L162.09 709.96 L164.12 707.01 L165.47 703.44 L167.78 700.77 L169.09 697.14 L171.19 694.27 L173.48 691.58 L175.16 688.31 L175.97 684.22 L176.98 680.31 L178.72 677.1 L181.17 674.56 L184.49 672.84 L187.4 670.73 L190.19 668.52 L193.22 666.53 L196.03 664.33 L197.93 661.26 L199.35 657.75 L201.91 655.31 L206.65 654.94 L210.55 653.77 L214.6 652.74 L217.15 650.29 L217.41 645.68 L219.16 642.48 L219.78 638.21 L220.86 634.37 L222.59 631.14 L225.58 629.12 L229.08 627.57 L232.62 626.06 L234.82 623.28 L235.38 618.95 L235.81 614.51 L236.71 610.5 L239.18 607.98 L241.98 605.76 L245.4 604.14 L249.57 603.23 L253.58 602.16 L256.6 600.16 L257.05 595.72 L256.2 590.06 L257.03 585.99 L259.01 583 L261.76 580.75 L264.18 578.19 L265.86 574.92 L267.62 571.71 L269.53 568.67 L270.73 564.94 L271.56 560.87 L272.14 556.56 L275.24 554.64 L279.2 553.52 L283.48 552.71 L286.27 550.49 L289.5 548.69 L292.77 546.92 L296.95 546.02 L300.09 544.13 L304.22 543.18 L308.04 541.93 L311.59 540.43 L315.34 539.12 L318.47 537.22 L319.34 533.19 L319.85 528.81 L322.48 526.44 L324.83 523.8 L327.46 521.43 L330.59 519.53 L331.55 515.59 L331.49 510.67 L332.82 507.08 L333.44 502.81 L334.76 499.19 L336.68 496.15 L341.31 495.67 L347.08 496.27 L351.07 495.18 L354.72 493.78 L357.85 491.88 L359.45 488.54 L362.04 486.12 L366.36 485.36 L369.58 483.54 L374.84 483.66 L379.48 483.19 L382.39 481.08 L385.18 478.86 L386.91 475.64 L386.87 470.74 L387.47 466.46 L388.53 462.6 L391.21 460.27 L393.76 457.83 L395.35 454.48 L397.96 452.09 L399.81 448.97 L400.59 444.86 L401.93 441.27 L402.22 436.68 L405.25 434.69 L409.4 433.76 L412.73 432.05 L416.04 430.32 L418.22 427.52 L421.12 425.41 L423.69 422.98 L426.07 420.38 L428.26 417.59 L430.39 414.74 L432.42 411.81 L434.51 408.92 L436.1 405.58 L436.75 401.33 L436.91 396.62 L438.63 393.39 L440.36 390.17 L443.85 388.61 L445.89 385.68 L447.84 382.67 L449.28 379.17 L451.48 376.39 L453.68 373.62 L455.54 370.52 L457.33 367.36 L462.93 367.79 L467.56 367.32 L471.99 366.64 L475.18 364.8 L477.15 361.81 L478.1 357.85 L479.19 354.02 L481.41 351.26 L482.87 347.79 L486.35 346.22 L490.23 345.03 L492.65 342.46 L495.06 339.88 L494.47 334.47 L494.21 329.36 L494.89 325.15 L496.73 322.03 L499.69 319.97 L503.86 319.06 L508.09 318.2 L512.48 317.49 L516.62 316.55 L518.94 313.88 L521.14 311.11 L523.59 308.57 L527.71 307.6 L532.2 306.99 L536.35 306.07 L540.78 305.39 L542.91 302.55" fill="none" stroke="#111" stroke-width="0.72" stroke-linecap="round" stroke-linejoin="round" vector-effect="non-scaling-stroke"/><path d="M165.38 720.27 L168.04 717.93 L169.67 714.63 L170.93 711 L172.09 707.26 L173.75 703.99 L176.58 701.8 L179.4 699.61 L180.9 696.19 L181.11 691.57 L180.95 686.62 L183.16 683.86 L185.87 681.56 L189.25 679.89 L192.6 678.19 L195.38 675.96 L197.67 673.28 L200.23 670.84 L202.94 668.55 L203.97 664.69 L207.51 663.17 L212.22 662.73 L216.21 661.62 L220.17 660.49 L222.71 658.04 L222.96 653.46 L223.49 649.14 L224.05 644.84 L225.74 641.6 L226.92 637.89 L229.8 635.75 L233.82 634.68 L237.03 632.84 L239.45 630.28 L240.11 626.08 L240.1 621.26 L240.91 617.2 L243.33 614.63 L245.97 612.28 L249.79 611.02 L253.52 609.67 L258.22 609.22 L259.62 605.7 L260.48 601.69 L260.34 596.75 L260.62 592.2 L261.7 588.39 L264.36 586.05 L267.74 584.38 L269.41 581.12 L270.74 577.54 L273.23 575.05 L274.51 571.42 L274.51 566.61 L275.45 562.66 L278.48 560.67 L282.3 559.4 L287.17 559.12 L290.52 557.42 L292.86 554.78 L296.73 553.57 L299.78 551.58 L303.89 550.59 L307.9 549.51 L312.34 548.82 L315.4 546.85 L319.9 546.22 L321.6 542.98 L322.89 539.37 L323.34 534.97 L325.8 532.45 L327.88 529.56 L331.02 527.67 L333.12 524.81 L333.85 520.68 L334.47 516.44 L335.76 512.83 L336.07 508.31 L336.82 504.19 L338.97 501.37 L344.26 501.47 L349.16 501.21 L354.68 501.53 L358.06 499.86 L360.56 497.37 L362.42 494.28 L366.3 493.08 L369.54 491.27 L373.08 489.75 L378.15 489.64 L383.59 489.89 L386.38 487.67 L389.14 485.42 L390.74 482.1 L390.57 477.12 L391.03 472.74 L391.81 468.65 L394.45 466.3 L396.79 463.66 L398.63 460.56 L400.68 457.64 L402.73 454.74 L403.84 450.96 L404.34 446.6 L404.57 442.01 L407.46 439.88 L411.31 438.65 L415.16 437.41 L418.9 436.08 L421.36 433.55 L424.07 431.25 L426.23 428.45 L428.8 426.02 L430.92 423.18 L432.68 420 L434.86 417.21 L437.18 414.56 L439.32 411.73 L438.84 406.47 L439.01 401.82 L440.24 398.15 L443.31 396.19 L445.74 393.64 L447.92 390.85 L449.24 387.27 L451.88 384.9 L453.11 381.24 L455.12 378.29 L457.24 375.44 L459.24 372.49 L464.01 372.11 L469.29 372.2 L474.21 371.97 L476.89 369.64 L477.83 365.7 L479.04 362.02 L480.55 358.61 L481.98 355.12 L483.95 352.14 L487.06 350.21 L491.25 349.3 L494.6 347.6 L496.52 344.56 L495.65 338.95 L495.23 333.75 L495.9 329.55 L497.58 326.3 L500.7 324.39 L505.24 323.8 L509.12 322.59 L514.74 323 L518.02 321.23 L520.4 318.63 L522.45 315.72 L524.98 313.26 L529.52 312.67 L533.55 311.59 L539.02 311.87 L542.3 310.1 L545.72 308.47" fill="none" stroke="#111" stroke-width="0.72" stroke-linecap="round" stroke-linejoin="round" vector-effect="non-scaling-stroke"/></g><g data-layer="texture_hatching"><path d="M82 256 L166 210" fill="none" stroke="#111" stroke-width="1.25" stroke-linecap="round" stroke-linejoin="round" vector-effect="non-scaling-stroke"/><path d="M100.17 293.46 L184.17 247.46" fill="none" stroke="#111" stroke-width="0.58" stroke-linecap="round" stroke-linejoin="round" vector-effect="non-scaling-stroke"/><path d="M118.35 327.08 L202.35 281.08" fill="none" stroke="#111" stroke-width="0.58" stroke-linecap="round" stroke-linejoin="round" vector-effect="non-scaling-stroke"/><path d="M136.52 353.69 L220.52 307.69" fill="none" stroke="#111" stroke-width="0.58" stroke-linecap="round" stroke-linejoin="round" vector-effect="non-scaling-stroke"/><path d="M154.7 371.26 L238.7 325.26" fill="none" stroke="#111" stroke-width="0.58" stroke-linecap="round" stroke-linejoin="round" vector-effect="non-scaling-stroke"/><path d="M172.87 379.24 L256.87 333.24" fill="none" stroke="#111" stroke-width="0.58" stroke-linecap="round" stroke-linejoin="round" vector-effect="non-scaling-stroke"/><path d="M191.04 378.69 L275.04 332.69" fill="none" stroke="#111" stroke-width="1.25" stroke-linecap="round" stroke-linejoin="round" vector-effect="non-scaling-stroke"/><path d="M209.22 372.08 L293.22 326.08" fill="none" stroke="#111" stroke-width="0.58" stroke-linecap="round" stroke-linejoin="round" vector-effect="non-scaling-stroke"/><path d="M227.39 362.88 L311.39 316.88" fill="none" stroke="#111" stroke-width="0.58" stroke-linecap="round" stroke-linejoin="round" vector-effect="non-scaling-stroke"/><path d="M245.57 354.99 L329.57 308.99" fill="none" stroke="#111" stroke-width="0.58" stroke-linecap="round" stroke-linejoin="round" vector-effect="non-scaling-stroke"/><path d="M263.74 352.09 L347.74 306.09" fill="none" stroke="#111" stroke-width="0.58" stroke-linecap="round" stroke-linejoin="round" vector-effect="non-scaling-stroke"/><path d="M281.91 357.04 L365.91 311.04" fill="none" stroke="#111" stroke-width="0.58" stroke-linecap="round" stroke-linejoin="round" vector-effect="non-scaling-stroke"/><path d="M300.09 371.39 L384.09 325.39" fill="none" stroke="#111" stroke-width="1.25" stroke-linecap="round" stroke-linejoin="round" vector-effect="non-scaling-stroke"/><path d="M318.26 395.14 L402.26 349.14" fill="none" stroke="#111" stroke-width="0.58" stroke-linecap="round" stroke-linejoin="round" vector-effect="non-scaling-stroke"/><path d="M336.43 426.73 L420.43 380.73" fill="none" stroke="#111" stroke-width="0.58" stroke-linecap="round" stroke-linejoin="round" vector-effect="non-scaling-stroke"/><path d="M354.61 463.32 L438.61 417.32" fill="none" stroke="#111" stroke-width="0.58" stroke-linecap="round" stroke-linejoin="round" vector-effect="non-scaling-stroke"/><path d="M372.78 501.21 L456.78 455.21" fill="none" stroke="#111" stroke-width="0.58" stroke-linecap="round" stroke-linejoin="round" vector-effect="non-scaling-stroke"/><path d="M390.96 536.52 L474.96 490.52" fill="none" stroke="#111" stroke-width="0.58" stroke-linecap="round" stroke-linejoin="round" vector-effect="non-scaling-stroke"/><path d="M409.13 565.76 L493.13 519.76" fill="none" stroke="#111" stroke-width="1.25" stroke-linecap="round" stroke-linejoin="round" vector-effect="non-scaling-stroke"/><path d="M427.3 586.47 L511.3 540.47" fill="none" stroke="#111" stroke-width="0.58" stroke-linecap="round" stroke-linejoin="round" vector-effect="non-scaling-stroke"/><path d="M445.48 597.61 L529.48 551.61" fill="none" stroke="#111" stroke-width="0.58" stroke-linecap="round" stroke-linejoin="round" vector-effect="non-scaling-stroke"/><path d="M463.65 599.69 L547.65 553.69" fill="none" stroke="#111" stroke-width="0.58" stroke-linecap="round" stroke-linejoin="round" vector-effect="non-scaling-stroke"/><path d="M481.83 594.76 L565.83 548.76" fill="none" stroke="#111" stroke-width="0.58" stroke-linecap="round" stroke-linejoin="round" vector-effect="non-scaling-stroke"/><path d="M500 586 L584 540" fill="none" stroke="#111" stroke-width="0.58" stroke-linecap="round" stroke-linejoin="round" vector-effect="non-scaling-stroke"/></g><g data-layer="time_axis"><path d="M136.86 729.63 L139.14 762.37" fill="none" stroke="#111" stroke-width="0.66" stroke-linecap="round" stroke-linejoin="round" vector-effect="non-scaling-stroke"/><path d="M143.29 729.93 L145.47 761.18" fill="none" stroke="#111" stroke-width="0.66" stroke-linecap="round" stroke-linejoin="round" vector-effect="non-scaling-stroke"/><path d="M150.03 734.63 L151.49 755.59" fill="none" stroke="#111" stroke-width="0.66" stroke-linecap="round" stroke-linejoin="round" vector-effect="non-scaling-stroke"/><path d="M156.22 731.4 L158.07 757.93" fill="none" stroke="#111" stroke-width="0.66" stroke-linecap="round" stroke-linejoin="round" vector-effect="non-scaling-stroke"/><path d="M163.13 738.5 L163.92 749.94" fill="none" stroke="#111" stroke-width="0.66" stroke-linecap="round" stroke-linejoin="round" vector-effect="non-scaling-stroke"/><path d="M169.23 734.08 L170.58 753.47" fill="none" stroke="#111" stroke-width="0.66" stroke-linecap="round" stroke-linejoin="round" vector-effect="non-scaling-stroke"/><path d="M175.46 731.54 L177.11 755.13" fill="none" stroke="#111" stroke-width="0.66" stroke-linecap="round" stroke-linejoin="round" vector-effect="non-scaling-stroke"/><path d="M181.79 730.33 L183.54 755.45" fill="none" stroke="#111" stroke-width="0.66" stroke-linecap="round" stroke-linejoin="round" vector-effect="non-scaling-stroke"/><path d="M188.13 729.21 L189.97 755.68" fill="none" stroke="#111" stroke-width="0.66" stroke-linecap="round" stroke-linejoin="round" vector-effect="non-scaling-stroke"/><path d="M193.98 721.23 L196.88 762.77" fill="none" stroke="#111" stroke-width="0.66" stroke-linecap="round" stroke-linejoin="round" vector-effect="non-scaling-stroke"/><path d="M200.71 725.7 L202.91 757.41" fill="none" stroke="#111" stroke-width="0.66" stroke-linecap="round" stroke-linejoin="round" vector-effect="non-scaling-stroke"/><path d="M207.83 735.98 L208.55 746.24" fill="none" stroke="#111" stroke-width="0.66" stroke-linecap="round" stroke-linejoin="round" vector-effect="non-scaling-stroke"/><path d="M214.21 735.48 L214.93 745.85" fill="none" stroke="#111" stroke-width="0.66" stroke-linecap="round" stroke-linejoin="round" vector-effect="non-scaling-stroke"/><path d="M220.45 732.98 L221.46 747.46" fill="none" stroke="#111" stroke-width="0.66" stroke-linecap="round" stroke-linejoin="round" vector-effect="non-scaling-stroke"/><path d="M226.66 730.06 L228.01 749.49" fill="none" stroke="#111" stroke-width="0.66" stroke-linecap="round" stroke-linejoin="round" vector-effect="non-scaling-stroke"/><path d="M232.99 729.01 L234.43 749.66" fill="none" stroke="#111" stroke-width="0.66" stroke-linecap="round" stroke-linejoin="round" vector-effect="non-scaling-stroke"/><path d="M239.66 732.58 L240.53 745.2" fill="none" stroke="#111" stroke-width="0.66" stroke-linecap="round" stroke-linejoin="round" vector-effect="non-scaling-stroke"/><path d="M246.01 731.75 L246.94 745.14" fill="none" stroke="#111" stroke-width="0.66" stroke-linecap="round" stroke-linejoin="round" vector-effect="non-scaling-stroke"/><path d="M252.28 729.75 L253.43 746.25" fill="none" stroke="#111" stroke-width="0.66" stroke-linecap="round" stroke-linejoin="round" vector-effect="non-scaling-stroke"/><path d="M258.67 729.46 L259.8 745.65" fill="none" stroke="#111" stroke-width="0.66" stroke-linecap="round" stroke-linejoin="round" vector-effect="non-scaling-stroke"/><path d="M265 728.21 L266.24 746.01" fill="none" stroke="#111" stroke-width="0.66" stroke-linecap="round" stroke-linejoin="round" vector-effect="non-scaling-stroke"/><path d="M270.78 719.16 L273.22 754.18" fill="none" stroke="#111" stroke-width="0.66" stroke-linecap="round" stroke-linejoin="round" vector-effect="non-scaling-stroke"/><path d="M277 716.36 L279.76 756.09" fill="none" stroke="#111" stroke-width="0.66" stroke-linecap="round" stroke-linejoin="round" vector-effect="non-scaling-stroke"/><path d="M283.8 721.97 L285.72 749.59" fill="none" stroke="#111" stroke-width="0.66" stroke-linecap="round" stroke-linejoin="round" vector-effect="non-scaling-stroke"/><path d="M290.32 723.56 L291.96 747.1" fill="none" stroke="#111" stroke-width="0.66" stroke-linecap="round" stroke-linejoin="round" vector-effect="non-scaling-stroke"/><path d="M297.09 728.61 L297.96 741.17" fill="none" stroke="#111" stroke-width="0.66" stroke-linecap="round" stroke-linejoin="round" vector-effect="non-scaling-stroke"/><path d="M303.32 726.11 L304.49 742.78" fill="none" stroke="#111" stroke-width="0.66" stroke-linecap="round" stroke-linejoin="round" vector-effect="non-scaling-stroke"/><path d="M309.76 726.5 L310.81 741.5" fill="none" stroke="#111" stroke-width="0.66" stroke-linecap="round" stroke-linejoin="round" vector-effect="non-scaling-stroke"/><path d="M316.35 729 L316.98 738.11" fill="none" stroke="#111" stroke-width="0.66" stroke-linecap="round" stroke-linejoin="round" vector-effect="non-scaling-stroke"/><path d="M322.53 725.72 L323.56 740.5" fill="none" stroke="#111" stroke-width="0.66" stroke-linecap="round" stroke-linejoin="round" vector-effect="non-scaling-stroke"/><path d="M328.9 725.07 L329.96 740.26" fill="none" stroke="#111" stroke-width="0.66" stroke-linecap="round" stroke-linejoin="round" vector-effect="non-scaling-stroke"/><path d="M334.94 719.69 L336.68 744.75" fill="none" stroke="#111" stroke-width="0.66" stroke-linecap="round" stroke-linejoin="round" vector-effect="non-scaling-stroke"/><path d="M341.86 727.06 L342.52 736.49" fill="none" stroke="#111" stroke-width="0.66" stroke-linecap="round" stroke-linejoin="round" vector-effect="non-scaling-stroke"/><path d="M347.73 719.3 L349.41 743.37" fill="none" stroke="#111" stroke-width="0.66" stroke-linecap="round" stroke-linejoin="round" vector-effect="non-scaling-stroke"/><path d="M354.18 719.85 L355.72 741.93" fill="none" stroke="#111" stroke-width="0.66" stroke-linecap="round" stroke-linejoin="round" vector-effect="non-scaling-stroke"/><path d="M360.21 714.3 L362.46 746.59" fill="none" stroke="#111" stroke-width="0.66" stroke-linecap="round" stroke-linejoin="round" vector-effect="non-scaling-stroke"/><path d="M366.05 706.06 L369.38 753.94" fill="none" stroke="#111" stroke-width="0.66" stroke-linecap="round" stroke-linejoin="round" vector-effect="non-scaling-stroke"/><path d="M372.67 709.07 L375.52 750.04" fill="none" stroke="#111" stroke-width="0.66" stroke-linecap="round" stroke-linejoin="round" vector-effect="non-scaling-stroke"/><path d="M379.8 719.42 L381.15 738.8" fill="none" stroke="#111" stroke-width="0.66" stroke-linecap="round" stroke-linejoin="round" vector-effect="non-scaling-stroke"/><path d="M386.18 718.98 L387.53 738.35" fill="none" stroke="#111" stroke-width="0.66" stroke-linecap="round" stroke-linejoin="round" vector-effect="non-scaling-stroke"/><path d="M392.7 720.56 L393.77 735.88" fill="none" stroke="#111" stroke-width="0.66" stroke-linecap="round" stroke-linejoin="round" vector-effect="non-scaling-stroke"/><path d="M399.11 720.53 L400.12 735.03" fill="none" stroke="#111" stroke-width="0.66" stroke-linecap="round" stroke-linejoin="round" vector-effect="non-scaling-stroke"/><path d="M405.66 722.49 L406.34 732.17" fill="none" stroke="#111" stroke-width="0.66" stroke-linecap="round" stroke-linejoin="round" vector-effect="non-scaling-stroke"/><path d="M411.52 714.57 L413.24 739.2" fill="none" stroke="#111" stroke-width="0.66" stroke-linecap="round" stroke-linejoin="round" vector-effect="non-scaling-stroke"/><path d="M417.9 714.1 L419.62 738.79" fill="none" stroke="#111" stroke-width="0.66" stroke-linecap="round" stroke-linejoin="round" vector-effect="non-scaling-stroke"/><path d="M424.32 714.14 L425.97 737.86" fill="none" stroke="#111" stroke-width="0.66" stroke-linecap="round" stroke-linejoin="round" vector-effect="non-scaling-stroke"/><path d="M430.73 714.13 L432.32 736.99" fill="none" stroke="#111" stroke-width="0.66" stroke-linecap="round" stroke-linejoin="round" vector-effect="non-scaling-stroke"/><path d="M437.5 719.32 L438.31 730.91" fill="none" stroke="#111" stroke-width="0.66" stroke-linecap="round" stroke-linejoin="round" vector-effect="non-scaling-stroke"/><path d="M443.53 713.86 L445.04 735.48" fill="none" stroke="#111" stroke-width="0.66" stroke-linecap="round" stroke-linejoin="round" vector-effect="non-scaling-stroke"/><path d="M449.79 711.65 L451.54 736.8" fill="none" stroke="#111" stroke-width="0.66" stroke-linecap="round" stroke-linejoin="round" vector-effect="non-scaling-stroke"/><path d="M455.98 708.52 L458.11 739.03" fill="none" stroke="#111" stroke-width="0.66" stroke-linecap="round" stroke-linejoin="round" vector-effect="non-scaling-stroke"/><path d="M462.11 704.35 L464.75 742.32" fill="none" stroke="#111" stroke-width="0.66" stroke-linecap="round" stroke-linejoin="round" vector-effect="non-scaling-stroke"/><path d="M469.22 714.46 L470.4 731.31" fill="none" stroke="#111" stroke-width="0.66" stroke-linecap="round" stroke-linejoin="round" vector-effect="non-scaling-stroke"/><path d="M475.84 717.38 L476.54 727.51" fill="none" stroke="#111" stroke-width="0.66" stroke-linecap="round" stroke-linejoin="round" vector-effect="non-scaling-stroke"/><path d="M481.9 712.4 L483.24 731.6" fill="none" stroke="#111" stroke-width="0.66" stroke-linecap="round" stroke-linejoin="round" vector-effect="non-scaling-stroke"/><path d="M488.39 713.5 L489.51 729.61" fill="none" stroke="#111" stroke-width="0.66" stroke-linecap="round" stroke-linejoin="round" vector-effect="non-scaling-stroke"/><path d="M494.92 715.19 L495.75 727.03" fill="none" stroke="#111" stroke-width="0.66" stroke-linecap="round" stroke-linejoin="round" vector-effect="non-scaling-stroke"/><path d="M500.91 709.14 L502.52 732.19" fill="none" stroke="#111" stroke-width="0.66" stroke-linecap="round" stroke-linejoin="round" vector-effect="non-scaling-stroke"/><path d="M506.99 704.34 L509.2 736.11" fill="none" stroke="#111" stroke-width="0.66" stroke-linecap="round" stroke-linejoin="round" vector-effect="non-scaling-stroke"/><path d="M513.84 710.6 L515.12 728.96" fill="none" stroke="#111" stroke-width="0.66" stroke-linecap="round" stroke-linejoin="round" vector-effect="non-scaling-stroke"/><path d="M520.53 714.61 L521.19 724.06" fill="none" stroke="#111" stroke-width="0.66" stroke-linecap="round" stroke-linejoin="round" vector-effect="non-scaling-stroke"/><path d="M526.84 713.14 L527.64 724.64" fill="none" stroke="#111" stroke-width="0.66" stroke-linecap="round" stroke-linejoin="round" vector-effect="non-scaling-stroke"/><path d="M532.91 708.33 L534.32 728.56" fill="none" stroke="#111" stroke-width="0.66" stroke-linecap="round" stroke-linejoin="round" vector-effect="non-scaling-stroke"/><path d="M539.07 704.71 L540.93 731.29" fill="none" stroke="#111" stroke-width="0.66" stroke-linecap="round" stroke-linejoin="round" vector-effect="non-scaling-stroke"/></g><g data-layer="chroma_constellation"><path d="M508 268 L508 219.36" fill="none" stroke="#111" stroke-width="1.47" stroke-linecap="round" stroke-linejoin="round" vector-effect="non-scaling-stroke"/><path d="M517 270.41 L522.76 260.43" fill="none" stroke="#111" stroke-width="1" stroke-linecap="round" stroke-linejoin="round" vector-effect="non-scaling-stroke"/><path d="M523.59 277 L542.43 266.12" fill="none" stroke="#111" stroke-width="1.13" stroke-linecap="round" stroke-linejoin="round" vector-effect="non-scaling-stroke"/><path d="M526 286 L565.68 286" fill="none" stroke="#111" stroke-width="1.36" stroke-linecap="round" stroke-linejoin="round" vector-effect="non-scaling-stroke"/><path d="M523.59 295 L532.46 300.12" fill="none" stroke="#111" stroke-width="0.99" stroke-linecap="round" stroke-linejoin="round" vector-effect="non-scaling-stroke"/><path d="M517 301.59 L531.08 325.98" fill="none" stroke="#111" stroke-width="1.21" stroke-linecap="round" stroke-linejoin="round" vector-effect="non-scaling-stroke"/><path d="M508 304 L508 360.32" fill="none" stroke="#111" stroke-width="1.56" stroke-linecap="round" stroke-linejoin="round" vector-effect="non-scaling-stroke"/><path d="M499 301.59 L491.96 313.78" fill="none" stroke="#111" stroke-width="1.04" stroke-linecap="round" stroke-linejoin="round" vector-effect="non-scaling-stroke"/><path d="M492.41 295 L471.35 307.16" fill="none" stroke="#111" stroke-width="1.16" stroke-linecap="round" stroke-linejoin="round" vector-effect="non-scaling-stroke"/><path d="M490 286 L452.88 286" fill="none" stroke="#111" stroke-width="1.32" stroke-linecap="round" stroke-linejoin="round" vector-effect="non-scaling-stroke"/><path d="M492.41 277 L481.33 270.6" fill="none" stroke="#111" stroke-width="1.02" stroke-linecap="round" stroke-linejoin="round" vector-effect="non-scaling-stroke"/><path d="M499 270.41 L483 242.7" fill="none" stroke="#111" stroke-width="1.26" stroke-linecap="round" stroke-linejoin="round" vector-effect="non-scaling-stroke"/><circle cx="508" cy="286" r="18" fill="none" stroke="#111" stroke-width="0.86" vector-effect="non-scaling-stroke"/></g><path d="M333.32 423.6 L336.83 431.12 L339.06 438.21 L339.98 444.49 L339.55 449.6 L337.78 453.25 L334.72 455.25 L330.45 455.47 L325.07 453.91 L318.71 450.66 L311.54 445.89 L303.73 439.87 L295.48 432.95 L287 425.5 L278.49 417.94 L270.16 410.7 L262.23 404.18 L254.9 398.75 L248.34 394.71 L242.72 392.29 L238.17 391.61 L234.82 392.73 L232.75 395.58 L232 399.99 L232.6 405.72 L234.53 412.46 L237.75 419.82 L242.17 427.38 L247.68 434.74 L254.14 441.48 L261.4 447.21 L269.28 451.62 L277.57 454.47 L286.07 455.59 L294.57 454.91 L302.85 452.49 L310.72 448.45 L317.97 443.02 L324.42 436.5 L329.91 429.26 L334.31 421.7 L337.51 414.25 L339.42 407.33 L340 401.31 L339.23 396.54 L337.13 393.29 L333.76 391.73 L329.2 391.95 L323.56 393.95 L316.99 397.6 L309.64 402.71 L301.71 408.99 L293.38 416.08 L284.86 423.6 L276.38 431.12 L268.14 438.21 L260.34 444.49 L253.18 449.6 L246.84 453.25 L241.47 455.25 L237.22 455.47 L234.18 453.91 L232.44 450.66 L232.03 445.89 L232.96 439.87 L235.22 432.95 L238.74 425.5 L243.45 417.94 L249.21 410.7 L255.89 404.18 L263.32 398.75 L271.32 394.71 L279.68 392.29 L288.2 391.61 L296.67 392.73 L304.87 395.58 L312.6 399.99 L319.66 405.72 L325.89 412.46 L331.12 419.82 L335.23 427.38 L338.11 434.74 L339.69 441.48 L339.93 447.21 L338.83 451.62 L336.41 454.47 L332.73 455.59 L327.89 454.91 L322 452.49 L315.22 448.45 L307.71 443.02 L299.65 436.5 L291.26 429.26 L282.73 421.7 L274.29 414.25 L266.14 407.33 L258.48 401.31 L251.51 396.54 L245.4 393.29 L240.3 391.73 L236.34 391.95 L233.62 393.95 L232.21 397.6 L232.13 402.71 L233.4 408.99 L235.98 416.08 L239.81 423.6 L244.79 431.12 L250.8 438.21 L257.68 444.49 L265.28 449.6 L273.38 453.25 L281.81 455.25 L290.33 455.47 L298.75 453.91 L306.85 450.66 L314.43 445.89 L321.3 439.87 L327.3 432.95 L332.26 425.5 L336.07 417.94 L338.63 410.7 L339.88 404.18 L339.78 398.75 L338.34 394.71 L335.6 392.29 L331.63 391.61 L326.51 392.73 L320.38 395.58 L313.4 399.99 L305.74 405.72 L297.58 412.46 L289.13 419.82 L280.61 427.38 L272.22 434.74 L264.17 441.48 L256.67 447.21 L249.9 451.62 L244.02 454.47 L239.2 455.59 L235.54 454.91 L233.14 452.49 L232.06 448.45 L232.33 443.02 L233.93 436.5 L236.83 429.26 L240.95 421.7 L246.2 414.25 L252.44 407.33 L259.52 401.31 L267.26 396.54 L275.47 393.29 L283.94 391.73 L292.45 391.95 L300.81 393.95 L308.8 397.6 L316.22 402.71 L322.89 408.99 L328.64 416.08 L333.32 423.6" fill="none" stroke="#111" stroke-width="1.05" stroke-linecap="round" stroke-linejoin="round" vector-effect="non-scaling-stroke"/></g></g>
</svg>