<svg xmlns="http://www.w3.org/2000/svg" viewBox="0 0 640 872">
  <rect width="100%" height="100%" fill="#fff"/>
  <g data-layer="panel_frame"><text x="22" y="42" font-family="Helvetica, Arial, sans-serif" font-size="20" letter-spacing=".04em" fill="#111">03 Carrier Storm</text><rect x="20" y="56" width="600" height="760" fill="#fff" stroke="#111" stroke-width="1.2"/></g>
  <g data-layer="sound_vector_engine"><g data-engine="carrier_storm"><path d="M320 718 L320 188" fill="none" stroke="#111" stroke-width="4.6" stroke-linecap="round" stroke-linejoin="round" vector-effect="non-scaling-stroke"/><path d="M320 188 L331.36 206.53 L308.64 206.53 Z" fill="#111" stroke="#111" stroke-width="0"/><path d="M102 498.8 L540 338.8" fill="none" stroke="#111" stroke-width="4.8" stroke-linecap="round" stroke-linejoin="round" vector-effect="non-scaling-stroke"/><path d="M540 338.8 L526.25 356.13 L518.32 334.41 Z" fill="#111" stroke="#111" stroke-width="0"/><path d="M160 640 L510 254" fill="none" stroke="#111" stroke-width="3.1" stroke-linecap="round" stroke-linejoin="round" vector-effect="non-scaling-stroke"/><path d="M510 254 L506.5 272.56 L491.87 259.3 Z" fill="#111" stroke="#111" stroke-width="0"/><ellipse cx="320" cy="382.8" rx="50" ry="28" fill="none" stroke="#111" stroke-width="0.85" vector-effect="non-scaling-stroke"/><ellipse cx="320" cy="382.8" rx="86" ry="52" fill="none" stroke="#111" stroke-width="0.85" vector-effect="non-scaling-stroke" transform="rotate(11 320 382.8)"/><ellipse cx="320" cy="382.8" rx="122" ry="76" fill="none" stroke="#111" stroke-width="0.85" vector-effect="non-scaling-stroke" transform="rotate(22 320 382.8)"/><ellipse cx="320" cy="382.8" rx="158" ry="100" fill="none" stroke="#111" stroke-width="0.85" vector-effect="non-scaling-stroke" transform="rotate(33 320 382.8)"/><ellipse cx="320" cy="382.8" rx="194" ry="124" fill="none" stroke="#111" stroke-width="0.85" vector-effect="non-scaling-stroke" transform="rotate(44 320 382.8)"/><g data-layer="pcm_carrier_storm"><path d="M321.66 376.57 L319.72 375.01 L317.23 375.48 L314.79 375.79 L312.66 374.92 L310.31 374.87 L307.48 376.64 L305.27 376.09 L303.31 374.6 L301.19 373.69 L299.17 372.42 L296.69 372.86 L294.35 372.78 L292.76 369.9 L290.84 368.23 L287.92 370.34 L285.19 371.73 L282.24 373.97 L280.11 373.09 L278.7 369.52 L276.42 369.22 L273.28 372.16 L271.03 371.72 L269.21 369.71 L267.83 366.03 L265.99 364.07 L263.21 365.65 L260.09 368.51 L257.91 367.83 L255.73 367.17 L253.09 368.21 L250.23 370.07 L247.2 372.6 L244.88 372.45 L243.08 370.35 L241.18 368.63 L239.44 366.31 L237.72 363.92 L236.07 361.25 L234.74 357.37 L232.67 356.29 L230.19 356.74 L227.82 356.77 L226.14 354.21 L223.73 354.43 L220.95 356 L218.19 357.5 L215.37 359.22 L213.92 355.79 L212.88 350.85 L210.63 350.44 L208.13 350.96 L206.19 349.39 L204.51 346.83 L203.16 343.04 L201.04 342.15 L198.3 343.58 L195.3 345.98 L192.98 345.82 L190.88 344.84 L188.71 344.14 L186.24 344.53 L183.36 346.51 L181.45 344.8 L180.13 340.9 L178.12 339.6 L175.9 339.06 L173.46 339.38 L171.09 339.4 L168.74 339.39 L166.19 340.09 L162.88 343.65 L160.09 345.26 L157.95 344.46 L155.53 344.65 L153.12 344.84 L150.65 345.28 L148.55 344.28 L147.4 339.75 L146.07 335.89 L143.99 334.83 L141.42 335.62 L139.03 335.73 L136.86 335.01 L135.3 332.03 L132.94 332.01 L129.38 336.54 L126.74 337.57 L124.54 336.99 L122.9 334.26 L121.48 330.75 L119.14 330.69 L116.67 331.08 L115.12 328.04 L113.79 324.17 L111.82 322.71" fill="none" stroke="#111" stroke-width="1.28" stroke-linecap="round" stroke-linejoin="round" vector-effect="non-scaling-stroke"/><path d="M324.01 376.34 L322.5 374.24 L320.33 373.19 L317.17 373.76 L315.78 371.47 L313.38 370.8 L309.45 372.6 L307.99 370.4 L306.14 368.86 L304.39 367.15 L302.72 365.29 L299.5 365.95 L297.31 364.95 L297.41 360.25 L296.02 357.95 L292.18 359.61 L288.6 360.83 L284.8 362.42 L283.24 360.4 L282.73 356.68 L280.57 355.63 L276.36 357.87 L273.85 357.39 L273.58 353.28 L273.39 349.06 L272.18 346.48 L268.39 348.04 L263.91 350.73 L262.13 349.06 L259.41 348.9 L256.48 349.09 L252.93 350.28 L249.25 351.66 L246.91 350.91 L246.03 347.79 L244.83 345.19 L243.31 343.11 L242.97 339.11 L242.54 335.27 L242.26 331.18 L241.25 328.28 L238.49 328.19 L236 327.68 L234.79 325.08 L232.2 324.73 L228.62 325.95 L224.88 327.45 L221.89 327.73 L221.7 323.5 L222.27 318.04 L220.63 316.15 L217.93 315.97 L216.23 314.17 L215.68 310.53 L215.73 305.92 L213.94 304.26 L210.74 304.87 L206.64 306.95 L204.35 306.1 L202.66 304.3 L200.35 303.47 L197.4 303.7 L194.47 303.88 L192.83 301.99 L192.24 298.4 L191.37 295.28 L189.33 294.02 L186.52 294.02 L183.83 293.81 L182.05 292.15 L178.36 293.56 L173.78 296.41 L170.73 296.78 L168.94 295.14 L166.08 295.21 L163.54 294.77 L160.7 294.8 L159.21 292.67 L159.51 287.65 L160.34 281.78 L158.02 280.98 L155.08 281.18 L152.93 280.11 L150.9 278.84 L150.13 275.55 L147.65 275.01 L142.17 279.31 L138.84 280.14 L137.47 277.81 L136.92 274.17 L136.41 270.45 L133.9 269.95 L131.47 269.34 L131.24 265.18 L131.04 260.97 L130.35 257.53" fill="none" stroke="#111" stroke-width="0.58" stroke-linecap="round" stroke-linejoin="round" vector-effect="non-scaling-stroke"/><path d="M326.15 376.12 L325.86 372.72 L322.57 372.58 L320.11 371.54 L318.86 369.18 L315.67 368.94 L311.08 370.22 L310.07 367.61 L308.91 365.15 L307.42 363.06 L306.08 360.8 L302.36 361.14 L300.19 359.78 L300.94 355.26 L300.78 351.72 L296.4 352.76 L291.66 354.2 L288.04 354.43 L286.52 352.37 L287.14 347.98 L285.32 346.24 L279.68 348.66 L277.62 347.2 L277.25 343.88 L278.55 338.75 L278.13 335.5 L273.88 336.41 L268.27 338.8 L266.13 337.4 L263.53 336.52 L260.47 336.13 L256.68 336.54 L251.76 338.18 L249.71 336.7 L249.58 333.12 L249.62 329.37 L248.98 326.35 L249.13 322.47 L249.91 317.91 L250.81 313.22 L249.99 310.39 L246.85 310.1 L244.42 309.03 L243.4 306.43 L241.41 304.87 L236.5 306.51 L232.36 307.29 L229.11 307.11 L229.19 303.31 L232.05 296.49 L230.63 294.32 L227.29 294.24 L226.76 291.1 L227.48 286.6 L228.48 281.8 L227.06 279.64 L222.55 280.83 L218.31 281.73 L216.51 279.97 L214.24 278.72 L212.49 276.91 L210.09 275.81 L205.62 276.96 L204.91 274.01 L205.02 270.18 L204.58 266.94 L202.68 265.29 L200.07 264.43 L197.05 264 L195.61 261.85 L191.1 263.03 L185.54 265.37 L182.42 265.05 L180.6 263.32 L177.89 262.55 L175.62 261.3 L172.59 260.88 L171.11 258.78 L173.05 252.96 L175.34 246.76 L173.03 245.55 L169.68 245.49 L167.04 244.64 L165.34 242.78 L165.89 238.46 L163.36 237.5 L156.76 240.97 L152 242.43 L151.44 239.32 L151.17 235.91 L151.81 231.5 L149.59 230.2 L147.44 228.82 L148.61 223.84 L149.73 218.91 L148.79 216.21" fill="none" stroke="#111" stroke-width="0.58" stroke-linecap="round" stroke-linejoin="round" vector-effect="non-scaling-stroke"/><path d="M328.69 374.16 L327.33 371.7 L323.86 371.35 L320.36 371.03 L319.88 367.69 L316.1 367.65 L311.96 367.96 L309.42 366.68 L308.51 363.78 L307.29 361.18 L305.86 358.8 L302.81 358.02 L300.18 356.83 L301.2 352.01 L301.5 347.91 L296.27 349.3 L291.92 349.82 L287.53 350.38 L286.24 347.86 L287.55 342.74 L284.14 342.33 L279.32 343.31 L275.75 343.06 L275.89 339.12 L277.4 333.81 L278.07 329.34 L272.44 331.13 L266.31 333.41 L263.68 332.22 L261.08 331 L257.97 330.29 L254.25 330.19 L247.9 332.69 L246.16 330.62 L246.4 326.57 L246.77 322.39 L246.15 319.21 L246.5 315.06 L248.06 309.7 L248.8 305.15 L247.97 302.17 L245.48 300.85 L242.04 300.46 L241.95 296.75 L239.55 295.33 L234.17 296.86 L228.44 298.76 L225.32 298.05 L227.1 292.47 L229.18 286.6 L228.24 283.73 L225.75 282.39 L223.98 280.36 L226.27 274.28 L227.57 269.18 L226.24 266.69 L221.33 267.76 L215.72 269.54 L213.59 267.85 L212.91 264.72 L210.56 263.25 L207.28 262.7 L202.09 264.05 L201.04 261.29 L201.97 256.57 L201.21 253.52 L199.07 251.83 L197.1 249.99 L194.13 249.14 L191.59 247.86 L187.64 247.98 L180.97 250.8 L178.11 249.84 L176.26 247.87 L173.48 246.83 L170.96 245.53 L166.94 245.72 L165.49 243.35 L168.5 236.56 L171.01 230.26 L168.97 228.47 L164.81 228.8 L161.68 228.12 L160.52 225.46 L161.87 220.31 L158.71 219.65 L150.52 223.99 L146.19 224.48 L144.95 221.92 L145.66 217.4 L146.9 212.36 L145.06 210.38 L142.44 209.18 L144.08 203.75 L145.84 198.19 L145.49 194.73" fill="none" stroke="#111" stroke-width="0.58" stroke-linecap="round" stroke-linejoin="round" vector-effect="non-scaling-stroke"/><path d="M329.23 374.01 L329.45 369.8 L325.2 369.85 L321.85 369.04 L320.71 366.13 L316.89 365.77 L310.96 367.42 L308.71 365.57 L308.8 361.48 L306.83 359.37 L305.63 356.51 L301.84 356.12 L298.81 355.02 L301.78 348.19 L301.77 344.2 L297.03 344.72 L290.21 347.21 L286.49 346.77 L285.08 344.1 L286.62 338.64 L282.89 338.2 L276.68 340.12 L273.63 339.02 L273.76 334.9 L275.46 329.28 L276.34 324.44 L269.46 327.01 L262.39 329.74 L260.34 327.7 L257.92 326.01 L254.64 325.13 L250.29 325.28 L243.83 327.43 L240.8 326.33 L242.13 321.06 L241.97 317.21 L242.66 312.56 L243.07 308.17 L244.93 302.4 L245.73 297.64 L245.93 293.45 L241.43 293.74 L238.55 292.49 L238.37 288.66 L234.47 288.38 L230.04 288.6 L223.74 290.61 L219.82 290.34 L221.53 284.72 L225.2 277.22 L223.78 274.58 L221.69 272.57 L220.08 270.1 L222.2 264.09 L224.39 258 L223.11 255.22 L218.18 255.92 L211.77 258.04 L208.89 256.78 L207.69 253.93 L206.15 251.4 L201.26 252.06 L196.78 252.33 L195.64 249.41 L196.58 244.52 L196.07 241.01 L193.24 239.71 L190.59 238.23 L188.62 236.11 L186.55 234.09 L181.31 235.08 L174.03 238.02 L170.29 237.59 L168.1 235.67 L165.56 234.09 L162.29 233.21 L159.39 231.98 L156.79 230.45 L161.04 222.41 L164.89 214.74 L161.98 213.52 L158.09 213.23 L154.17 212.96 L152.12 210.92 L153.54 205.57 L149.38 205.53 L141.67 208.88 L136.16 210.13 L135.66 206.61 L136.21 202.09 L137.84 196.53 L136.45 193.87 L132.74 193.4 L135.82 186.46 L138.04 180.35 L137.09 177.26" fill="none" stroke="#111" stroke-width="0.58" stroke-linecap="round" stroke-linejoin="round" vector-effect="non-scaling-stroke"/><path d="M325.72 378.83 L324.92 375.72 L321.8 374.21 L319.37 372.23 L318.42 369.22 L315.36 367.68 L311.49 366.69 L309.65 364.3 L308.74 361.26 L307.45 358.49 L305.86 355.92 L303.64 353.8 L301.47 351.64 L302.31 347.38 L301.71 344.13 L298.24 342.87 L294.69 341.67 L291.17 340.44 L290.07 337.53 L289.68 334.13 L287.79 331.78 L283.22 331.28 L280.74 329.33 L280.62 325.74 L281.21 321.67 L280.69 318.36 L275.99 317.95 L271.15 317.64 L269.83 314.89 L267.37 312.93 L264.86 311 L261.8 309.45 L257.24 308.95 L255.61 306.41 L255.83 302.58 L255.69 299.02 L254.4 296.24 L255.3 291.95 L255.13 288.4 L255.73 284.32 L254.8 281.29 L251.39 279.99 L249.2 277.84 L248.56 274.61 L246.25 272.55 L242.5 271.48 L238.03 270.92 L235.6 268.93 L236.04 264.96 L237.63 260.19 L236.4 257.37 L234.51 255.01 L233.43 252.1 L234.29 247.83 L234.78 243.83 L233.52 241.03 L230.18 239.68 L225.81 239.04 L223.86 236.73 L222.36 234.1 L220.81 231.5 L217.61 230.06 L213.36 229.33 L211.94 226.65 L212.27 222.75 L211.68 219.49 L209.47 217.36 L207.69 214.93 L205.36 212.87 L203.97 210.17 L200.5 208.9 L195.77 208.52 L193.13 206.68 L190.82 204.62 L189.28 202.02 L186.69 200.14 L184.07 198.29 L182.34 195.82 L184.63 190.57 L185.78 186.1 L183.43 184.06 L180.57 182.38 L177.5 180.84 L176.61 177.79 L176.29 174.34 L173.44 172.65 L168.05 172.73 L164.08 171.81 L163.72 168.39 L163.82 164.65 L163.94 160.9 L162.63 158.14 L160.06 156.26 L161.32 151.71 L162.36 147.33 L161.82 144.03" fill="none" stroke="#111" stroke-width="0.58" stroke-linecap="round" stroke-linejoin="round" vector-effect="non-scaling-stroke"/><path d="M329.32 380.35 L328.41 377.41 L326.47 374.74 L324.09 372.19 L323.62 369.14 L322.22 366.33 L317.61 364.37 L317.1 361.33 L317.24 358.11 L316.53 355.13 L315.75 352.16 L314.69 349.26 L313.33 346.44 L316.98 342.3 L317.94 338.87 L314.07 336.71 L309.96 334.62 L307.4 332.11 L306.54 329.16 L309.1 325.32 L307.11 322.66 L303.29 320.49 L300.85 317.96 L301.8 314.53 L303.64 310.87 L304.66 307.43 L300.04 305.46 L295.93 303.37 L294.52 300.56 L293.3 297.71 L290.93 295.16 L287.92 292.77 L284.16 290.58 L283.52 287.58 L285.13 283.97 L286.6 280.41 L287.29 277.05 L289.13 273.39 L292.13 269.43 L293.26 265.95 L293.89 262.61 L291.57 260.05 L288.88 257.58 L288.82 254.42 L288.04 251.44 L283.92 249.35 L279.79 247.26 L276.92 244.84 L279.52 240.98 L283.34 236.8 L284.52 233.31 L283.28 230.46 L282.73 227.43 L286.05 223.38 L288.91 219.45 L288.81 216.3 L285.44 214.01 L280.54 212.13 L279.56 209.2 L278.74 206.24 L278.11 203.23 L275.75 200.68 L271.84 198.53 L271.53 195.44 L273.31 191.79 L274.09 188.41 L272.98 185.52 L271.95 182.62 L270.11 179.93 L269.01 177.04 L266.81 174.44 L261.88 172.56 L258.78 170.2 L259.04 166.96 L257.07 164.3 L256.12 161.37 L253.7 158.83 L253.14 155.8 L256.51 151.74 L259.94 147.66 L258.1 144.97 L255.91 142.37 L253.72 139.77 L252.68 136.86 L255.04 133.07 L253.2 130.38 L246.35 129 L242.71 126.78 L243.04 123.52 L245.37 119.73 L248.37 115.77 L247.57 112.8 L246.26 109.97 L248.89 106.1 L251.81 102.15 L253.4 98.56" fill="none" stroke="#111" stroke-width="0.58" stroke-linecap="round" stroke-linejoin="round" vector-effect="non-scaling-stroke"/><path d="M331.44 384.74 L332.56 381.65 L331.13 378.11 L329.86 374.6 L330.29 371.39 L328.37 367.77 L324.93 363.9 L326.3 360.84 L328.15 357.86 L328.97 354.71 L329.73 351.55 L329.87 348.28 L330.54 345.11 L334.69 342.52 L338.46 339.87 L336.25 336.2 L333.19 332.39 L330.42 328.63 L331.77 325.57 L335.63 322.94 L334.3 319.42 L329.9 315.38 L329.38 312 L332.57 309.25 L335.92 306.53 L337.87 303.57 L335 299.79 L329.96 295.65 L330.62 292.47 L331.23 289.28 L330.58 285.88 L328.58 282.25 L324.59 278.28 L325.25 275.1 L328.79 272.41 L331.72 269.62 L333.8 266.69 L337.85 264.08 L342.24 261.54 L345.86 258.86 L347.16 255.79 L345.84 252.28 L345.62 248.95 L346.24 245.77 L345.84 242.41 L342.92 238.62 L339.02 234.67 L337.47 231.11 L342.01 228.59 L349.56 226.59 L351.29 223.59 L350.82 220.22 L353.75 217.43 L358.26 214.9 L363.07 212.43 L364.45 209.38 L362.19 205.7 L358.07 201.71 L357.97 198.4 L358.22 195.15 L359.33 192.05 L356.31 188.25 L353.92 184.55 L354.52 181.36 L358.34 178.72 L360.11 175.73 L360.79 172.56 L361.52 169.39 L360.97 166.01 L361.42 162.79 L360.03 159.26 L354.66 155.06 L353.71 151.61 L355.18 148.57 L354.34 145.14 L354 141.79 L352.39 138.22 L353.32 135.09 L360.21 132.97 L365.65 130.6 L364.37 127.1 L363.54 123.67 L360.75 119.9 L362.48 116.9 L365.28 114.09 L365.55 110.84 L358.32 106.32 L355.94 102.63 L358.66 99.8 L362.74 97.2 L366.73 94.59 L368.41 91.59 L368.22 88.26 L372.95 85.78 L378.13 83.37 L380.19 80.43" fill="none" stroke="#111" stroke-width="1.28" stroke-linecap="round" stroke-linejoin="round" vector-effect="non-scaling-stroke"/><path d="M331.45 388.39 L332.69 386.81 L331.64 384.11 L330.49 381.37 L332.41 380.12 L330.54 377.03 L326.83 373.03 L328.16 371.5 L330.56 370.48 L332.04 369.02 L334.14 367.86 L333.09 365.17 L334.75 363.79 L339.93 364.13 L343.61 363.75 L341.6 360.58 L338.57 356.92 L335.99 353.48 L337.76 352.16 L342.47 352.27 L340.84 349.29 L336.92 345.2 L336.85 342.98 L338.77 341.73 L344.18 342.19 L346.49 341.13 L343.28 337.38 L339.09 333.15 L338.8 330.82 L340.05 329.25 L339.78 326.93 L336.74 323.26 L334.22 319.85 L335.84 318.46 L339.31 317.97 L342.49 317.34 L346.36 317.04 L350.47 316.86 L355.47 317.12 L358.78 316.55 L361.5 315.7 L358.42 312.01 L358.55 309.89 L359.93 308.38 L359.62 306.04 L357.23 302.69 L353.65 298.76 L351.64 295.59 L357.42 296.23 L365.13 297.81 L366.85 296.47 L367.47 294.58 L370.32 293.8 L376.04 294.4 L381.28 294.77 L383.01 293.43 L380.1 289.83 L376.53 285.9 L376.5 283.7 L376.77 281.65 L378.32 280.23 L375.08 276.46 L372.21 272.87 L374.51 271.81 L378.04 271.35 L380.26 270.25 L381.8 268.82 L381.98 266.72 L382.45 264.77 L382.93 262.82 L382.26 260.31 L377.55 255.83 L375.89 252.83 L378.41 251.88 L378.47 249.72 L378.49 247.55 L376.31 244.3 L378.05 242.97 L384.26 243.81 L390.6 244.72 L390.27 242.38 L387.55 238.86 L387.08 236.45 L387.84 234.64 L392.25 234.61 L391.47 232.04 L385.14 226.77 L383.32 223.7 L385.32 222.49 L390.88 223.02 L395.64 223.16 L396.71 221.5 L397.96 219.92 L402.87 220.14 L409.42 221.15 L411.07 219.77" fill="none" stroke="#111" stroke-width="0.58" stroke-linecap="round" stroke-linejoin="round" vector-effect="non-scaling-stroke"/><path d="M331.96 390.01 L335.13 389.37 L333.49 385.83 L332.1 382.43 L332.85 380.33 L331.58 377.01 L329.03 372.92 L328.76 370.2 L331.66 369.4 L334.58 368.6 L336.69 367.32 L336.87 364.88 L338.23 363.14 L344.77 364.53 L347.59 363.68 L346.75 360.61 L343.71 356.23 L340.88 351.96 L343.68 351.1 L347.5 350.85 L347.06 348.03 L343.26 343.18 L341.05 339.3 L345.18 339.23 L350.23 339.72 L353 338.84 L348.71 333.7 L344.49 328.6 L344.77 326.21 L347.36 325.22 L345.96 321.82 L344.64 318.47 L343.03 314.95 L343.49 312.67 L349.02 313.45 L353.34 313.5 L354.72 311.78 L361.09 313.07 L364.56 312.6 L369.99 313.32 L372.17 312.09 L369.53 307.94 L368.65 304.85 L371.69 304.13 L371.36 301.38 L368.57 297.14 L364.11 291.89 L364.61 289.64 L368.91 289.68 L378.53 292.93 L381.76 292.32 L382.24 290.06 L384.61 288.93 L390.44 289.89 L397.36 291.51 L399.41 290.19 L396.56 285.92 L392.8 281.1 L393.09 278.72 L393.12 276.18 L394.36 274.38 L391.99 270.39 L389.28 266.21 L390.45 264.35 L395.52 264.86 L397.71 263.63 L399.99 262.45 L400.21 260.02 L400.73 257.78 L402.13 256.07 L400.74 252.68 L397.2 247.99 L395.88 244.64 L398.1 243.43 L397.55 240.54 L397.37 237.88 L397.14 235.18 L397.96 233.12 L405.44 235.08 L410.72 235.71 L410.74 233.17 L408.95 229.53 L407.94 226.37 L409.91 225 L415.15 225.61 L414.18 222.47 L408.41 216.43 L405.34 212.03 L409.23 211.82 L414.48 212.43 L419.61 212.97 L422.07 211.9 L421.56 209.04 L428.27 210.53 L434.28 211.6 L438.25 211.44" fill="none" stroke="#111" stroke-width="0.58" stroke-linecap="round" stroke-linejoin="round" vector-effect="non-scaling-stroke"/><path d="M326.72 386.96 L327.91 384.88 L327.84 382.03 L327.92 379.27 L329.9 377.68 L329.5 374.62 L328.08 370.93 L329.15 368.78 L331.33 367.32 L332.95 365.51 L335.23 364.11 L336.15 361.87 L337.69 360.01 L341.9 359.81 L344.24 358.44 L343.84 355.38 L342.61 351.81 L342.69 349.05 L344.49 347.35 L347.7 346.53 L347.39 343.52 L345.8 339.73 L345.49 336.72 L348.18 335.57 L351.61 334.89 L354.05 333.59 L352.57 329.86 L350.67 325.87 L352.35 324.1 L353.84 322.21 L354.45 319.78 L354.26 316.85 L352.77 313.12 L354.5 311.38 L358.29 310.91 L360.32 309.35 L363.12 308.28 L366.29 307.43 L369.54 306.63 L372.15 305.43 L374.09 303.82 L373.59 300.7 L374.04 298.17 L375.6 296.32 L376.08 293.81 L375.21 290.46 L373.92 286.85 L374.01 284.09 L377.94 283.71 L382.78 283.89 L385.45 282.74 L386.63 280.65 L389 279.31 L392.78 278.84 L396.78 278.5 L398.5 276.76 L397.9 273.57 L395.88 269.51 L396.94 267.36 L398.39 265.44 L398.69 262.81 L398.12 259.65 L397.45 256.42 L399.18 254.68 L402.35 253.84 L403.75 251.89 L405.36 250.08 L406.32 247.86 L407.77 245.94 L409.3 244.08 L409.44 241.36 L408.08 237.7 L407.64 234.62 L409.82 233.16 L409.78 230.32 L410.67 228.06 L410.96 225.43 L411.86 223.17 L416.04 222.95 L420.3 222.77 L421.08 220.44 L421.01 217.59 L420.24 214.3 L422.45 212.86 L424.98 211.61 L425.41 209.07 L423.32 204.96 L423.05 201.98 L424.68 200.18 L429 200.05 L432.66 199.5 L434.07 197.56 L435.41 195.58 L439.27 195.16 L443.2 194.77 L444.92 193.03" fill="none" stroke="#111" stroke-width="0.58" stroke-linecap="round" stroke-linejoin="round" vector-effect="non-scaling-stroke"/><path d="M327.84 388.93 L329.6 386.95 L330.04 383.95 L329.65 380.29 L331.25 378.19 L331.66 375.17 L330.17 370.66 L331.74 368.53 L334.3 367.18 L336.97 365.92 L339.18 364.3 L340.31 361.84 L342.7 360.35 L347.36 360.64 L350.3 359.59 L350.42 356.34 L349.6 352.35 L349.36 348.81 L351.18 346.88 L355.25 346.72 L354.94 343.12 L353.41 338.58 L353.53 335.32 L356.04 333.94 L359.95 333.64 L363.37 332.97 L361.35 328.04 L360.48 324.01 L361.64 321.57 L363.4 319.6 L364.15 316.83 L365.26 314.35 L364.59 310.47 L365.43 307.78 L369.84 307.88 L373.56 307.44 L375.57 305.66 L379.43 305.33 L382.84 304.64 L386.45 304.12 L388.73 302.55 L388.55 299.06 L388.49 295.67 L391.05 294.32 L391.85 291.59 L391.22 287.75 L390.58 283.9 L390.64 280.6 L395.04 280.69 L401.22 282.17 L404.54 281.41 L405.99 279.2 L408.37 277.71 L413.52 278.39 L417.99 278.53 L420.1 276.83 L418.95 272.58 L417.65 268.22 L418.52 265.55 L419.86 263.24 L421.34 261.05 L420.22 256.83 L419.31 252.77 L422.19 251.67 L426.14 251.4 L428.42 249.84 L430.11 247.81 L431.41 245.48 L432.94 243.33 L435.15 241.7 L435.58 238.69 L434.12 234.2 L434.54 231.18 L436.55 229.4 L437.3 226.64 L438.53 224.25 L438.63 220.98 L440 218.7 L445.23 219.44 L449.7 219.58 L450 216.47 L450.42 213.45 L450.02 209.79 L451.63 207.69 L455.47 207.35 L456.51 204.81 L453.92 199.43 L454.02 196.17 L456.98 195.13 L461.08 194.99 L465.68 195.24 L467.79 193.53 L468.57 190.8 L473.22 191.08 L478.51 191.86 L481.16 190.59" fill="none" stroke="#111" stroke-width="0.58" stroke-linecap="round" stroke-linejoin="round" vector-effect="non-scaling-stroke"/><path d="M326.55 391.63 L329.52 390.61 L329.99 386.22 L330.95 382.49 L333.68 381.13 L334.82 377.65 L335.24 373.19 L337.35 371 L340.78 370.6 L343.14 368.75 L347.25 369.27 L349.26 366.95 L351.4 364.81 L357.17 367.57 L360.62 367.19 L361.73 363.66 L362.15 359.19 L362.36 354.45 L364.72 352.61 L369.38 353.86 L370.14 349.87 L369.72 344.27 L371.07 341.06 L374 339.99 L378.21 340.63 L382.12 340.88 L381.95 335.62 L381.87 330.49 L383.78 328.03 L386.41 326.55 L388.26 324.02 L389.45 320.6 L389.73 315.95 L392.25 314.32 L397.11 315.84 L401.4 316.6 L404.38 315.59 L408.38 315.96 L412.93 317.07 L417.09 317.65 L419.73 316.18 L420.59 312.32 L421.13 308.02 L424.31 307.27 L426.15 304.72 L426.59 300.29 L426.15 294.67 L428.07 292.23 L433.43 294.43 L439 296.91 L442.74 296.93 L445.19 295.2 L448.65 294.84 L453.89 296.9 L459.24 299.08 L462.04 297.83 L462.39 293.26 L462.16 287.93 L463.42 284.61 L465.82 282.81 L467.15 279.57 L467.73 275.33 L467.52 270.01 L470.95 269.61 L474.82 269.81 L478.42 269.63 L481.41 268.64 L483.55 266.5 L485.36 263.91 L488.72 263.41 L489.63 259.62 L489.21 254.02 L490.62 250.89 L493.14 249.26 L495.25 247.08 L497.6 245.22 L498.54 241.46 L500.44 238.99 L505.98 241.44 L511.19 243.44 L512.84 240.63 L513.58 236.6 L514.6 232.95 L517.14 231.35 L521.72 232.5 L522.75 228.86 L522.07 222.91 L522.67 218.69 L526.3 218.57 L531.25 220.21 L536.52 222.29 L538.75 220.27 L540.78 217.98 L546.22 220.28 L551.71 222.66 L554.11 220.87" fill="none" stroke="#111" stroke-width="0.58" stroke-linecap="round" stroke-linejoin="round" vector-effect="non-scaling-stroke"/><path d="M324.05 395.16 L327.26 394.04 L329.82 390.94 L331.94 386.51 L335.17 385.48 L337.52 381.74 L339.47 376.78 L342.64 375.58 L346.23 375.62 L349.94 376.04 L354.08 377.75 L356.83 375.26 L360.35 375.08 L365.39 379.55 L369.66 381.69 L371.79 377.29 L373.57 371.81 L375.64 367.22 L379.13 366.98 L383.31 368.82 L385.67 365.13 L386.93 358.06 L389.57 355.22 L393.18 355.33 L397.65 358.07 L401.42 358.67 L403.62 354.48 L405.01 347.82 L408.29 346.94 L411.67 346.34 L414.67 344.61 L417.25 341.57 L418.97 335.91 L422.42 335.54 L426.96 338.48 L431.37 341.03 L435.07 341.43 L439.01 342.53 L443.47 345.26 L447.81 347.59 L451.12 346.77 L453.08 341.88 L455.77 339.18 L459.16 338.61 L462.16 336.87 L463.78 330.91 L465.78 326.12 L468.62 323.87 L473.66 328.35 L479.08 333.99 L482.99 335.02 L485.99 333.27 L490.06 334.78 L495.18 339.48 L499.96 343.16 L503.39 342.74 L505.4 337.96 L506.57 330.63 L509.16 327.64 L512.35 326.46 L515.17 324.17 L517.46 320.25 L519.17 314.57 L522.9 315.06 L526.93 316.45 L531.07 318.16 L534.25 316.97 L537.55 316.13 L540.89 315.44 L544.27 314.84 L546.71 311.38 L548.49 305.92 L551.04 302.79 L554.38 302.07 L557.33 300.19 L559.85 296.96 L562.3 293.55 L565.23 291.58 L570.27 296.05 L575.46 300.99 L578.09 298.13 L580.12 293.41 L582.82 290.73 L586.15 289.99 L590.64 292.8 L593.29 289.99 L594.37 282.37 L596.6 278.29 L600.82 280.25 L605.7 284.25 L610.31 287.39 L613.72 286.89 L616.93 285.8 L621.29 288.21 L626.68 293.73 L630.26 293.76" fill="none" stroke="#111" stroke-width="0.58" stroke-linecap="round" stroke-linejoin="round" vector-effect="non-scaling-stroke"/><path d="M321.12 397.09 L324.79 396.51 L328.23 393.07 L331.64 389.17 L335.44 390.29 L338.91 387.27 L342.17 381.49 L345.92 381.92 L349.72 383.15 L353.47 383.51 L357.34 385.53 L360.97 384.51 L364.78 385.74 L368.96 391.74 L372.91 394.78 L376.39 391.82 L379.58 385.15 L383.07 382.33 L386.78 382.25 L390.76 385.67 L394.14 381.48 L397.31 374.62 L400.76 371.22 L404.63 373.19 L408.62 376.83 L412.57 379.81 L415.85 374.27 L418.98 366.92 L422.76 367.74 L426.51 368.27 L430.04 365.96 L433.54 363.17 L436.97 359.57 L440.69 359.72 L444.69 363.34 L448.66 366.68 L452.47 367.91 L456.47 371.63 L460.37 374.01 L464.4 377.97 L468.09 377.73 L471.52 374.15 L475.04 371.67 L478.76 371.8 L482.33 370.04 L485.57 364.01 L488.94 359.59 L492.58 358.63 L496.75 364.57 L501.11 372.79 L505.01 375.17 L508.7 374.89 L512.65 377.98 L516.79 383.36 L520.89 388.32 L524.63 388.67 L527.97 383.96 L531.03 375.56 L534.65 374.41 L538.28 373.35 L541.92 372.41 L545.25 367.58 L548.45 361.05 L552.25 362.16 L556.27 366.11 L560.13 367.93 L563.85 368.15 L567.68 369.58 L571.34 368.95 L575 368.26 L578.67 367.74 L581.83 360.73 L585.29 357.52 L589.12 358.99 L592.55 355.37 L596.17 354.15 L599.59 350.43 L603.25 349.76 L607.41 355.49 L611.56 361.07 L615.12 359.13 L618.52 355.17 L621.96 351.68 L625.68 351.75 L629.77 356.67 L633.39 355.45 L636.39 346.34 L639.87 343.37 L643.74 345.46 L647.9 351.17 L652.15 357.96 L655.8 357.17 L659.43 356.12 L663.62 362.22 L667.66 366.37 L671.57 368.95" fill="none" stroke="#111" stroke-width="1.28" stroke-linecap="round" stroke-linejoin="round" vector-effect="non-scaling-stroke"/><path d="M319.83 390.91 L323.76 391.04 L327.74 389.16 L331.72 387.38 L335.67 386.78 L339.64 385.36 L343.63 382.77 L347.55 383.84 L351.47 384.34 L355.38 386.07 L359.29 387 L363.22 387.45 L367.16 387.73 L371.03 390.84 L374.93 392.71 L378.91 390.62 L382.88 388.98 L386.88 386.03 L390.81 386.75 L394.7 388.79 L398.68 386.83 L402.7 383.04 L406.66 381.92 L410.59 382.31 L414.48 384.62 L418.37 386.81 L422.37 384.21 L426.39 380.4 L430.31 380.88 L434.22 382.29 L438.18 381.57 L442.14 380.3 L446.12 378.39 L450.07 378.08 L453.94 380.9 L457.85 382.25 L461.77 383.14 L465.65 385.9 L469.56 387.37 L473.47 388.76 L477.38 389.91 L481.37 387.5 L485.33 386.45 L489.27 386.48 L493.22 386 L497.21 383.51 L501.19 381.36 L505.14 380.82 L509.02 383.85 L512.84 389.41 L516.74 391.06 L520.69 390.78 L524.59 392.5 L528.47 395.41 L532.33 398.75 L536.26 399.1 L540.27 395.99 L544.26 393.28 L548.24 391.26 L552.19 391.14 L556.13 390.83 L560.12 388.22 L564.11 385.89 L568.05 386.01 L571.92 388.94 L575.82 390.74 L579.76 390.71 L583.68 391.81 L587.62 391.68 L591.55 392.19 L595.51 390.9 L599.52 387.87 L603.47 387.15 L607.41 386.98 L611.37 386.02 L615.31 385.87 L619.29 383.87 L623.26 382.67 L627.12 386.13 L630.98 389.94 L634.94 389.01 L638.91 387.34 L642.88 385.78 L646.82 385.68 L650.71 388.25 L654.65 388.13 L658.66 384.5 L662.64 382.5 L666.54 384.63 L670.42 387.26 L674.29 390.47 L678.2 391.79 L682.16 390.65 L686.03 393.95 L689.92 396.38 L693.84 397.07" fill="none" stroke="#111" stroke-width="0.58" stroke-linecap="round" stroke-linejoin="round" vector-effect="non-scaling-stroke"/><path d="M319.69 392.39 L322.03 391.84 L324.43 389.18 L326.81 387.17 L329.13 387.14 L331.49 385.72 L333.89 383.24 L336.2 383.45 L338.48 384.74 L340.76 385.72 L343.01 388.03 L345.31 388.38 L347.64 387.93 L349.8 392.84 L352.06 394.61 L354.42 393.42 L356.87 389.26 L359.3 385.92 L361.58 387.1 L363.86 388.22 L366.24 386.28 L368.7 381.74 L371.07 380.25 L373.32 382.1 L375.58 384.06 L377.8 386.96 L380.22 383.74 L382.67 379.69 L384.99 379.65 L387.25 381.52 L389.58 381.17 L391.97 378.91 L394.34 377.22 L396.65 377.28 L398.9 379.53 L401.14 381.78 L403.45 382.15 L405.69 384.53 L407.9 387.97 L410.18 388.92 L412.49 389.13 L414.9 386.33 L417.25 385.45 L419.54 386.22 L421.87 385.84 L424.3 382.31 L426.69 380.05 L429.04 379.11 L431.22 383.38 L433.32 390.06 L435.61 390.98 L437.92 391.05 L440.16 393.72 L442.38 396.49 L444.56 400.96 L446.86 401.27 L449.27 398.5 L451.77 392.85 L454.13 391.43 L456.46 391.28 L458.78 391.06 L461.19 388.31 L463.64 384.05 L465.91 385.58 L468.15 388.09 L470.41 389.83 L472.7 390.72 L474.99 391.49 L477.3 391.56 L479.6 392.1 L481.93 391.72 L484.37 388.07 L486.76 385.88 L489.06 386.37 L491.39 385.81 L493.76 384.4 L496.14 382.27 L498.51 380.79 L500.69 385.07 L502.91 388.18 L505.25 387.48 L507.65 384.73 L509.99 384.15 L512.28 384.89 L514.5 387.9 L516.86 386.77 L519.34 381.63 L521.69 380.47 L523.93 382.96 L526.13 386.62 L528.32 390.51 L530.63 390.84 L532.95 390.68 L535.18 393.49 L537.36 397.62 L539.68 397.74" fill="none" stroke="#111" stroke-width="0.58" stroke-linecap="round" stroke-linejoin="round" vector-effect="non-scaling-stroke"/><path d="M319.12 393.48 L321.65 393.75 L324.4 391.32 L327.22 388.11 L329.73 388.61 L332.43 386.82 L335.3 383.03 L337.74 384.41 L340.08 387.01 L342.54 388.09 L344.85 390.98 L347.43 390.72 L349.88 391.96 L352.03 396.75 L354.39 399.14 L357.15 396.64 L359.99 393.09 L362.91 388.73 L365.37 389.83 L367.8 391.33 L370.43 390.43 L373.51 384.03 L376.16 382.87 L378.62 383.99 L380.89 387.35 L383.18 390.58 L386 387.35 L388.9 383.18 L391.48 382.76 L393.92 384.17 L396.51 383.69 L399.1 383.3 L401.91 380.2 L404.47 380.13 L406.7 383.94 L409.09 385.97 L411.59 386.56 L413.85 390.18 L416.15 393.2 L418.54 395.16 L421.05 395.63 L423.94 391.61 L426.53 391.15 L429.04 391.74 L431.66 390.92 L434.46 387.89 L437.23 385.22 L439.85 384.44 L442.01 389.15 L443.88 397.44 L446.27 399.44 L448.84 399.27 L451.18 401.78 L453.34 406.59 L455.53 410.9 L458.05 411.27 L460.87 408.14 L463.89 402.44 L466.61 400.39 L469.27 399.08 L471.87 398.51 L474.6 396.38 L477.58 391.27 L479.94 393.61 L482.12 398.13 L484.51 400.02 L486.96 401.34 L489.44 402.15 L492.08 401.1 L494.41 403.85 L497.19 401.12 L500.09 396.86 L502.8 394.98 L505.22 396.58 L507.9 395.13 L510.6 393.27 L513.39 390.39 L515.95 390.38 L518.19 394.1 L520.38 398.51 L522.94 398.44 L525.81 394.63 L528.46 393.4 L530.86 395.21 L533.12 398.81 L535.78 397.54 L538.79 391.98 L541.47 390.49 L543.8 393.1 L545.93 398.29 L548.1 402.84 L550.57 403.91 L553.23 402.56 L555.43 406.86 L557.56 411.9 L560.14 411.59" fill="none" stroke="#111" stroke-width="0.58" stroke-linecap="round" stroke-linejoin="round" vector-effect="non-scaling-stroke"/><path d="M316.65 395.1 L319.47 395.15 L322.94 392.82 L326.63 389.66 L329.3 390.25 L332.4 389.31 L335.94 386.69 L338.37 388.19 L340.31 391.46 L342.67 393.21 L344.64 396.37 L347.26 397.15 L349.87 397.98 L350.88 404.69 L352.89 407.7 L356.43 405.12 L360.17 401.78 L363.95 398.32 L366.83 398.16 L368.55 402.23 L371.84 400.55 L376.33 394.5 L379.62 392.81 L381.83 395.1 L383.47 399.47 L385.32 403.08 L389.18 399.33 L393.17 395.08 L395.32 397.62 L397.84 398.76 L400.68 398.74 L403.64 398.27 L407.34 395.08 L409.9 396.09 L411.35 401.16 L413.5 403.7 L415.83 405.54 L417.8 408.72 L419.75 411.93 L421.86 414.59 L424.22 416.34 L427.85 413.41 L431.36 410.95 L433.64 412.98 L436.5 412.88 L439.8 411.18 L443.37 408.49 L446.45 407.55 L447.46 414.24 L447.97 422.77 L449.77 426.58 L452.46 427.1 L454.4 430.4 L455.8 435.64 L457.33 440.45 L459.95 441.22 L463.7 437.87 L468.07 432.23 L471.61 429.65 L474.23 430.44 L477.23 429.81 L480.82 427.02 L484.87 422.56 L486.95 425.36 L488.54 429.92 L490.61 432.71 L493 434.33 L495.43 435.82 L498.01 436.77 L500.22 439.07 L503.19 438.54 L507.09 434.65 L510.45 432.72 L513.37 432.38 L516.39 431.73 L519.7 429.95 L523.25 427.34 L526.19 426.97 L527.32 433.19 L528.67 438.65 L531.6 438.28 L535.21 435.46 L538.17 434.98 L540.7 436.11 L542.16 441.15 L545.14 440.61 L549.21 436.06 L552.54 434.24 L554.43 437.71 L555.89 442.77 L556.78 449.91 L559.34 450.89 L562.41 450.04 L564.11 454.21 L565.1 460.95 L567.85 461.26" fill="none" stroke="#111" stroke-width="0.58" stroke-linecap="round" stroke-linejoin="round" vector-effect="non-scaling-stroke"/><path d="M312.66 394.21 L315.83 394.48 L319.62 393.8 L323.97 392.25 L325.92 394.43 L329.67 393.8 L334.4 391.65 L336.75 393.21 L336.94 398.13 L338.52 400.88 L338.96 405.39 L342.13 405.68 L344.13 407.77 L342.23 415.93 L343.14 419.72 L347.38 418.35 L353.52 414.01 L357.99 412.26 L360.68 413.29 L361.97 416.49 L366.44 414.76 L373.03 409.72 L376.76 409.14 L377.84 412.66 L377.47 418.45 L378.35 422.28 L382.53 420.99 L388.15 417.46 L389.32 420.86 L390.94 423.53 L394.42 423.33 L397.35 423.99 L402.32 421.48 L405.13 422.32 L404.6 428.34 L405.72 431.81 L407.47 434.3 L408.39 438.08 L409.38 441.75 L409.52 446.72 L412.53 447.25 L417.36 444.95 L420.21 445.74 L421.85 448.39 L425.19 448.41 L429.27 447.28 L433.87 445.33 L437.25 445.29 L435.52 453.17 L433.09 462.16 L433.71 466.41 L436.16 467.8 L437.27 471.28 L436.04 478.41 L435.93 483.78 L438.35 485.23 L444.25 481.26 L449.87 477.73 L453.86 476.73 L457.59 476.15 L459.95 477.68 L465.25 474.66 L469.5 473.26 L471.78 474.92 L471.31 480.87 L471.37 485.98 L472.84 488.9 L474.78 491.09 L477.38 492.25 L479.11 494.76 L482.57 494.6 L488.52 490.55 L492.39 489.76 L493.9 492.61 L497.41 492.37 L501.89 490.61 L505.86 489.64 L509.76 488.79 L508.24 496.36 L508.11 501.76 L510.75 502.87 L515.48 500.73 L519.22 500.13 L520.69 503.05 L520.44 508.63 L522.77 510.22 L528.74 506.16 L533.21 504.41 L532.85 510.18 L532.52 515.89 L531.16 523.22 L534.24 523.63 L537.62 523.59 L536.89 529.93 L536.53 535.69 L539.04 537" fill="none" stroke="#111" stroke-width="0.58" stroke-linecap="round" stroke-linejoin="round" vector-effect="non-scaling-stroke"/><path d="M314.9 386.93 L317.08 388.82 L320.05 390.09 L323.19 391.22 L324.85 393.54 L327.93 394.72 L330.77 396.09 L332.14 398.65 L333.39 401.3 L333.38 404.97 L334.03 408.12 L336.55 409.74 L337.74 412.44 L336.45 417.16 L337.17 420.24 L340.71 421.04 L344.74 421.45 L349.41 421.34 L351.52 423.29 L351.73 426.79 L355.17 427.68 L360.07 427.38 L362.63 428.97 L364.07 431.47 L363.61 435.52 L364.19 438.71 L367.86 439.41 L371.15 440.41 L372.48 443 L373.88 445.53 L375.38 447.99 L378.89 448.81 L382.49 449.57 L383.87 452.12 L383.95 455.73 L384.86 458.65 L386.15 461.27 L387.25 464.05 L387.55 467.48 L388.33 470.51 L390.06 472.78 L393.84 473.39 L396.36 475.02 L397.13 478.06 L399.81 479.55 L402.95 480.68 L406.17 481.74 L408.38 483.62 L407.18 488.26 L405.15 493.57 L405.95 496.58 L407.84 498.72 L408.5 501.86 L407.64 506.22 L407.62 509.9 L409.51 512.03 L413.68 512.33 L418.34 512.23 L421.97 512.96 L423.65 515.26 L426.53 516.6 L430.01 517.46 L433.24 518.51 L434.31 521.31 L433.98 525.24 L435.13 527.98 L435.59 531.27 L437.25 533.59 L438.96 535.87 L439.91 538.77 L442.57 540.29 L446.9 540.46 L449.54 541.98 L452.3 543.42 L454.3 545.46 L457.71 546.37 L460.9 547.46 L463.46 549.06 L462.8 553.25 L462.1 557.49 L465.25 558.6 L468.25 559.85 L470.87 561.39 L471.46 564.58 L471.23 568.43 L473.38 570.36 L477.98 570.3 L480.55 571.89 L481.01 575.19 L480.66 579.14 L479.94 583.39 L481.38 585.89 L484.53 587.01 L484.16 590.97 L483.62 595.07 L485.84 596.94" fill="none" stroke="#111" stroke-width="0.58" stroke-linecap="round" stroke-linejoin="round" vector-effect="non-scaling-stroke"/><path d="M313.05 386.55 L314.83 388.96 L318.26 390.47 L321.06 392.32 L321.96 395.2 L325.51 396.65 L328.66 398.31 L329.94 400.99 L329.22 404.74 L328.85 408.3 L328.26 411.99 L330.08 414.37 L331.88 416.77 L329.17 421.59 L328.49 425.33 L333.21 426.14 L337.77 427.05 L342.68 427.76 L344.27 430.26 L343.98 433.79 L347.29 435.36 L353.19 435.54 L356.11 437.33 L356.33 440.58 L354.88 444.73 L354.4 448.35 L357.71 449.93 L361.77 451.1 L362.56 454.04 L363.33 456.99 L364.86 459.53 L366.94 461.77 L370.91 462.99 L373.15 465.15 L371.51 469.39 L372.39 472.29 L372.94 475.35 L373.23 478.56 L373.16 481.96 L373.43 485.18 L374.63 487.9 L378.19 489.34 L380.73 491.34 L380.45 494.85 L383.14 496.77 L385.79 498.7 L390.38 499.59 L392.01 502.07 L388.98 507.07 L385.28 512.44 L385.26 515.81 L385.66 518.96 L386.8 521.71 L384.67 526.23 L383.35 530.3 L384.98 532.79 L389.34 533.8 L395.14 534.03 L398.29 535.7 L400.52 537.86 L403.21 539.77 L406.07 541.59 L410.99 542.3 L411.18 545.56 L408.83 550.19 L409.24 553.34 L409.5 556.56 L409.44 559.96 L410.62 562.69 L411.18 565.75 L414.57 567.28 L419.91 567.77 L422.78 569.58 L424.15 572.21 L426.74 574.17 L429.69 575.94 L434.14 576.9 L436.63 578.93 L433.68 583.88 L432.86 587.69 L434.42 590.22 L437.88 591.71 L440.59 593.62 L440.7 596.92 L438.72 601.35 L440.43 603.8 L446.42 603.92 L449.24 605.77 L448.51 609.53 L446.48 613.99 L445.21 618.04 L446.35 620.79 L449.04 622.7 L447.35 626.98 L446.13 631 L447.53 633.61" fill="none" stroke="#111" stroke-width="1.28" stroke-linecap="round" stroke-linejoin="round" vector-effect="non-scaling-stroke"/><path d="M312 386.77 L314.22 389.18 L317.68 390.97 L321.15 392.75 L321.39 396.15 L325.1 397.81 L329.35 399.21 L329.49 402.65 L328.5 406.65 L328.26 410.28 L327.98 413.93 L328.48 417.19 L329.81 420.04 L326.88 425 L326.77 428.56 L331.45 429.75 L336.28 430.86 L341.43 431.81 L344.17 433.96 L343.39 437.86 L347.05 439.54 L353.84 439.68 L357.15 441.55 L356.32 445.47 L354.97 449.65 L353.78 453.75 L357.25 455.53 L361.54 456.91 L363.24 459.58 L362.27 463.57 L365.03 465.7 L367.26 468.1 L371.66 469.43 L373.36 472.1 L372.67 475.94 L373.31 479.14 L374.3 482.16 L373.92 485.85 L373.06 489.79 L372.41 493.62 L373.31 496.68 L378.35 497.69 L381.22 499.77 L380.11 503.83 L382.74 506.03 L385.9 507.98 L390.73 509.08 L391.56 512.18 L388.35 517.29 L383.23 523.33 L383.5 526.71 L384.47 529.74 L384.44 533.26 L381.96 538 L380.39 542.29 L382.15 544.92 L388.38 545.34 L394.89 545.62 L397.87 547.65 L399.93 550.13 L402.42 552.4 L406.67 553.8 L411.23 555.05 L410.82 558.76 L407.83 563.75 L406.97 567.69 L406.89 571.24 L408.03 574.18 L409.66 576.88 L410.02 580.21 L412.97 582.25 L418.24 583.14 L422.34 584.62 L424.29 587.16 L426.44 589.6 L430.45 591.12 L434.92 592.4 L437.77 594.5 L434.99 599.39 L432.72 604.02 L434.08 606.86 L438.05 608.4 L440.35 610.76 L440.5 614.2 L438.02 618.94 L440.51 621.21 L446.38 621.8 L449.56 623.73 L448.56 627.74 L446.26 632.39 L443.38 637.33 L444.03 640.52 L447.98 642.06 L446.46 646.33 L444.51 650.81 L445.73 653.71" fill="none" stroke="#111" stroke-width="0.58" stroke-linecap="round" stroke-linejoin="round" vector-effect="non-scaling-stroke"/><path d="M310.99 386.87 L313.13 389.55 L316.11 391.85 L321.65 392.99 L321.45 396.73 L323.71 399.35 L328.86 400.67 L329.04 404.24 L327.56 408.55 L326.66 412.61 L326.07 416.52 L326.64 419.91 L328.1 422.9 L324.57 428.14 L323.97 432.06 L329.4 433.25 L335.5 434.14 L341.74 434.96 L343.8 437.68 L341.89 442.19 L346.53 443.73 L354.03 443.99 L357.25 446.18 L357.12 449.89 L353.5 455.17 L352.64 459.21 L356.98 460.89 L361.42 462.53 L362.97 465.48 L362.31 469.42 L363.79 472.4 L367.48 474.38 L372.77 475.63 L373.53 478.93 L372.79 482.91 L373.37 486.3 L373.8 489.75 L372.6 493.94 L372.15 497.79 L372.11 501.46 L373.09 504.66 L376.62 506.71 L380.52 508.59 L380.32 512.33 L381.51 515.44 L385.96 517.07 L390.12 518.84 L390.97 522.1 L386.96 527.56 L380.36 534.19 L380.48 537.79 L380.84 541.27 L382.05 544.37 L378.07 549.81 L376.37 554.23 L378.27 557.02 L384.24 557.96 L391.92 558.14 L395.59 560.13 L398.92 562.27 L400.52 565.19 L405.39 566.64 L410.29 568.07 L408.75 572.41 L405.31 577.61 L404.23 581.75 L404.72 585.17 L403.99 589.15 L405.55 592.09 L406.46 595.32 L408.75 597.94 L416.15 598.24 L420.58 599.88 L422.17 602.81 L426.24 604.61 L429.73 606.68 L434.21 608.31 L437.19 610.6 L433.91 615.73 L430.18 621.06 L432.56 623.64 L436.6 625.46 L439.67 627.72 L439.31 631.52 L435.41 636.94 L436.84 639.94 L444.76 640 L447.3 642.5 L446.09 646.69 L442.77 651.84 L440.83 656.36 L441.07 659.9 L444.91 661.81 L443.41 666.14 L440.16 671.25 L442.21 673.97" fill="none" stroke="#111" stroke-width="0.58" stroke-linecap="round" stroke-linejoin="round" vector-effect="non-scaling-stroke"/><path d="M308.79 385.33 L311.03 386.79 L314.25 388.03 L316.82 389.41 L315.94 391.57 L319.34 392.77 L322.07 394.11 L322.03 396.08 L318.09 398.94 L317.41 401.06 L313.48 403.91 L314.08 405.74 L313.67 407.79 L308.6 410.9 L307.71 413.07 L313.03 413.83 L320.13 414.19 L325.35 414.97 L326.51 416.67 L324.44 419.1 L327.23 420.43 L335.48 420.53 L337.83 421.97 L336.76 424.17 L331.04 427.43 L327.84 430.11 L331.42 431.27 L336.41 432.1 L335.95 434.17 L334.79 436.4 L335.98 438.09 L339.1 439.35 L343.07 440.42 L345.53 441.82 L340.98 444.81 L341.6 446.64 L341.12 448.71 L339.17 451.11 L336.8 453.61 L335.15 455.95 L334.77 458 L339.55 458.88 L341.64 460.37 L339.48 462.82 L339.72 464.73 L342.79 466 L347 467.02 L348.85 468.56 L341.5 472.18 L332.47 476.19 L330.07 478.69 L331.43 480.35 L329.32 482.79 L326.42 485.41 L321.77 488.42 L322.95 490.12 L329.21 490.67 L338.49 490.54 L341.15 491.9 L341.37 493.81 L344.15 495.15 L346.7 496.54 L352.65 497.15 L349.97 499.72 L344.37 502.95 L342.09 505.43 L340.56 507.74 L340.14 509.8 L340.04 511.78 L338.94 514 L341.54 515.37 L348.81 515.69 L352.84 516.75 L352.94 518.69 L356.75 519.79 L359.54 521.12 L365.55 521.73 L367.21 523.31 L362.62 526.31 L356.76 529.6 L358.36 531.2 L360.54 532.67 L363.98 533.86 L362.1 536.25 L355.62 539.68 L355.83 541.59 L363.59 541.8 L365.7 543.29 L363.15 545.83 L359.91 548.52 L354.1 551.8 L354.29 553.72 L358.34 554.77 L353.59 557.81 L350.03 560.58 L351.47 562.21" fill="none" stroke="#111" stroke-width="0.58" stroke-linecap="round" stroke-linejoin="round" vector-effect="non-scaling-stroke"/><path d="M315.04 381.96 L314.18 383.94 L315.58 386.31 L317.2 388.71 L316.35 390.7 L316.63 392.88 L317.96 395.23 L317.03 397.2 L314.93 398.97 L313 400.78 L310.46 402.47 L310.51 404.61 L310.48 406.74 L306.7 408.22 L304.9 410.05 L307.53 412.62 L310.7 415.29 L313.64 417.92 L313 419.94 L311.79 421.86 L313.19 424.23 L316.62 426.94 L317.05 429.15 L315.22 430.97 L312.2 432.58 L309.47 434.25 L310.66 436.58 L313.16 439.13 L311.72 441.02 L310.97 443.02 L311.18 445.18 L311.53 447.37 L314.13 449.94 L313.97 452.05 L312.02 453.84 L310.53 455.72 L311.11 457.95 L309.08 459.73 L306.73 461.46 L305.64 463.41 L304.92 465.42 L306.45 467.8 L307.05 470.04 L305.71 471.94 L305.37 474.01 L306.83 476.39 L307.89 478.7 L307.78 480.81 L303.33 482.18 L298.46 483.48 L296.6 485.3 L296.12 487.34 L295.12 489.3 L292.79 491.04 L289.88 492.67 L289.99 494.82 L292.84 497.44 L296.46 500.18 L297.53 502.49 L297.66 504.64 L298.24 506.87 L299.24 509.17 L301.17 511.63 L300.2 513.59 L296.25 515.05 L294.28 516.84 L292.34 518.64 L291.81 520.68 L290.7 522.63 L290.14 524.66 L291.48 527.02 L294.83 529.71 L295.82 532.01 L295.82 534.14 L297.5 536.55 L298.37 538.83 L300.76 541.37 L301.29 543.59 L297.55 545.08 L294.25 546.65 L293.88 548.72 L295.12 551.06 L295.67 553.28 L294.09 555.14 L291.05 556.75 L290.29 558.76 L293.39 561.41 L294.46 563.72 L292.63 565.54 L289.06 567.06 L286.76 568.8 L285.69 570.75 L287.14 573.13 L285.33 574.95 L282.23 576.55 L282.09 578.66" fill="none" stroke="#111" stroke-width="0.58" stroke-linecap="round" stroke-linejoin="round" vector-effect="non-scaling-stroke"/><path d="M314.96 379.58 L313.83 381.7 L313.9 384.59 L313.93 387.45 L311.54 388.77 L311.13 391.35 L312.51 395.07 L310.08 396.36 L306.44 396.88 L303.39 397.78 L300.44 398.74 L300.2 401.43 L298.24 403.02 L293.77 403.01 L291.94 404.69 L293.03 408.23 L295.33 412.54 L297.02 416.45 L296.36 418.87 L294.05 420.24 L294.37 423.29 L297.53 428.14 L297.08 430.7 L294.35 431.8 L289.2 431.36 L286.49 432.47 L286.86 435.55 L287.83 439.01 L285.66 440.47 L283.74 442.08 L283.09 444.51 L282.38 446.9 L284.78 451.27 L283.68 453.41 L280.02 453.92 L278.55 455.82 L277.83 458.2 L274.18 458.72 L271.65 459.95 L268.74 460.93 L267.17 462.77 L268.69 466.58 L267.83 468.88 L265.15 470.01 L263.79 471.98 L263.91 474.9 L265.02 478.45 L263.96 480.62 L257.86 479.57 L252.43 478.95 L249.86 480.15 L248.95 482.41 L245.76 483.22 L243.2 484.43 L239 484.59 L238.23 486.94 L240.33 491.12 L243.86 496.21 L243.9 499.09 L242.67 501.14 L242.15 503.65 L242.96 507.01 L243.64 510.28 L240.4 511.06 L235.88 511.02 L232.97 512 L230.49 513.26 L228.68 514.95 L227 516.72 L224.47 517.95 L224.95 521.1 L227.9 525.82 L228.02 528.74 L228.5 531.88 L228.83 534.94 L228.49 537.56 L229.7 541.17 L229.99 544.2 L224.54 543.57 L219.99 543.51 L219.08 545.77 L219.24 548.71 L218.72 551.22 L215.79 552.2 L211.45 552.27 L210.21 554.32 L213.11 559.01 L213.41 562.04 L210.16 562.82 L205.99 563 L201.61 563.05 L201.34 565.72 L200.93 568.3 L197.57 569 L194.33 569.77 L192.92 571.71" fill="none" stroke="#111" stroke-width="0.58" stroke-linecap="round" stroke-linejoin="round" vector-effect="non-scaling-stroke"/><path d="M314.55 377.21 L313.37 379.88 L312.42 382.79 L312.02 386.25 L309.53 387.58 L308.24 390.13 L308.13 393.89 L305.27 394.84 L301.51 394.86 L297.42 394.55 L294.33 395.26 L293.01 397.78 L290.3 398.88 L286.3 398.65 L282.95 399.1 L283.74 403.78 L285.78 409.75 L286.69 414.56 L285.28 417 L282.13 417.64 L281.18 420.54 L283.74 427.05 L282.71 429.87 L278.64 429.57 L274.35 429.05 L269.83 428.3 L269.05 431.37 L269.94 436.16 L267.29 437.32 L264.25 438.08 L262.71 440.38 L262.95 444.5 L263 448.43 L262.24 451.53 L258.44 451.51 L255.88 452.76 L254 454.71 L250.41 454.91 L247.16 455.45 L243.74 455.83 L241.54 457.45 L241.5 461.28 L240.55 464.19 L236.54 463.95 L235.25 466.51 L234.66 469.78 L234.78 473.78 L232.09 474.9 L226.93 473.49 L220.08 470.34 L216.81 470.86 L215.25 473.14 L212.94 474.66 L208.17 473.64 L204.37 473.62 L202.98 476.07 L204.66 481.67 L206.62 487.55 L205.99 490.78 L204.45 493.09 L203.19 495.67 L202.7 499.05 L202.94 503.17 L199.7 503.72 L194.38 502.15 L190.3 501.85 L186.62 501.95 L184.81 503.97 L182.42 505.4 L180.32 507.12 L179.72 510.38 L181.48 516.06 L182.34 520.82 L180.71 523.02 L180.44 526.63 L180.41 530.47 L181 534.96 L180.03 537.84 L174.65 536.2 L169.08 534.36 L167.72 536.85 L166.69 539.67 L165.32 542.15 L162.31 542.94 L156.77 541.14 L154.51 542.7 L157.07 549.2 L156.31 552.29 L152.72 552.49 L148.23 551.76 L143.12 550.4 L141.94 553.07 L141.72 556.72 L137.79 556.57 L132.86 555.39 L131.47 557.84" fill="none" stroke="#111" stroke-width="0.58" stroke-linecap="round" stroke-linejoin="round" vector-effect="non-scaling-stroke"/><path d="M315 377.02 L312.92 379.13 L312.13 382.73 L310.68 385.56 L308.09 387.07 L306.33 389.55 L306.09 393.77 L302.5 394.13 L298.26 393.74 L294.15 393.5 L290.97 394.34 L288.46 395.94 L286.38 398.05 L281.68 397.12 L277.83 397.18 L279.52 403.64 L280.75 409.57 L281.69 415.16 L280.19 417.94 L276.24 417.88 L275.79 421.87 L278.26 429.23 L276.23 431.39 L272.09 431.12 L267.09 429.84 L261.84 428.29 L261.9 432.87 L262.45 438.01 L258.45 437.89 L255.26 438.72 L254.49 442.33 L253.9 446.16 L254.69 451.58 L253.29 454.46 L248.78 453.77 L246.49 455.62 L243.8 457.02 L239.98 457.12 L236.92 458.09 L232.18 457.13 L230.07 459.19 L229.92 463.53 L228.65 466.57 L224.41 466.18 L221.49 467.31 L221.74 472.1 L220.7 475.41 L219.52 478.55 L212.37 474.8 L205.75 471.67 L201.32 471.06 L200.21 474.28 L196.79 474.83 L192.94 474.9 L187.97 473.66 L186.36 476.31 L188.21 482.96 L190.14 489.69 L189.48 493.43 L187.42 495.56 L185.46 497.81 L184.98 501.76 L184.78 506.02 L180.88 506.03 L174.68 503.38 L171.13 503.78 L167.37 503.95 L164.37 504.98 L161.91 506.65 L159.79 508.71 L158.41 511.62 L161.07 519.2 L161.21 523.87 L159.87 526.83 L158.95 530.28 L158.9 534.72 L159.55 539.97 L157.76 542.41 L151.37 539.54 L146.51 538.43 L143.77 539.77 L143.14 543.56 L142.03 546.78 L137.34 545.88 L132.34 544.6 L129.33 545.63 L131.48 552.62 L131.26 556.88 L127.62 557.18 L121.96 555.15 L116.89 553.8 L114.97 556.08 L115.41 561.11 L110.24 559.64 L105.98 559.23 L103.21 560.54" fill="none" stroke="#111" stroke-width="1.28" stroke-linecap="round" stroke-linejoin="round" vector-effect="non-scaling-stroke"/><path d="M314.28 376 L311.16 377.22 L310.55 381.42 L310.78 386.61 L306.16 386.04 L305.02 389.62 L304.57 394 L300.19 393.72 L296.12 393.8 L292.45 394.36 L287.94 393.93 L285.6 396.06 L283.45 398.44 L277.53 396.32 L274.01 397.06 L275.87 404.2 L277.13 410.61 L278.55 417.23 L276.81 420.07 L272.82 420.26 L272.5 424.79 L274.62 432.23 L273.37 435.67 L268.14 434.38 L261.61 431.55 L256.28 430.14 L256.55 435.38 L257.17 441.03 L253.7 441.84 L250.16 442.56 L248.33 445.29 L248.29 450.17 L248.7 455.59 L247.67 459.29 L243.65 459.42 L239.99 460 L237.87 462.4 L233.21 461.79 L229.19 461.94 L224.79 461.63 L222.25 463.53 L221.67 467.76 L219.37 469.96 L215.67 470.48 L213.26 472.54 L212.15 476.14 L212.07 480.97 L209.72 483.1 L202.95 479.97 L194.9 475.33 L191.27 475.94 L189.94 479.29 L185.83 479.32 L181.17 478.7 L176.41 477.98 L174.7 480.86 L176.41 487.81 L178.35 495.04 L178.14 499.72 L175.92 502 L172.98 503.43 L173.16 508.56 L173.56 513.96 L168.71 513.12 L162.25 510.36 L157.64 509.81 L153.09 509.33 L150.64 511.33 L148.35 513.54 L145.67 515.27 L145.21 519.65 L147.73 527.57 L147.4 532.1 L146.64 536.12 L146.28 540.61 L145.53 544.64 L146.21 550.37 L144.13 552.83 L138.07 550.54 L131.41 547.55 L129.54 550.25 L127.54 552.79 L125.7 555.53 L121.45 555.4 L115.45 553.2 L112.63 554.77 L114.59 562.02 L114.15 566.42 L110.57 567.09 L105.49 565.97 L99.17 563.39 L98.05 566.97 L97.36 571.08 L92.69 570.45 L87.22 568.88 L85.1 571.28" fill="none" stroke="#111" stroke-width="0.58" stroke-linecap="round" stroke-linejoin="round" vector-effect="non-scaling-stroke"/><path d="M317.26 378.62 L314.37 380.53 L312.5 383.98 L310.27 386.89 L306.64 387.68 L303.84 389.72 L302.22 393.56 L298.38 394.02 L294.93 395.06 L290.93 395.29 L287.55 396.44 L284.79 398.54 L281.81 400.31 L277.63 400.25 L274.53 401.83 L273.31 406.29 L272.22 410.93 L271.07 415.49 L268.26 417.52 L264.55 418.18 L262.22 420.93 L261.65 426.39 L258.92 428.53 L255.39 429.46 L250.32 428.04 L246 427.76 L244.38 431.6 L242.56 435.14 L239.29 436.47 L236.42 438.41 L233.44 440.17 L231.79 443.97 L230.76 448.71 L227.94 450.73 L224.12 451.2 L221.33 453.27 L218.23 454.84 L214.87 456.05 L211.13 456.64 L206.91 456.52 L203.79 458.08 L201.96 461.6 L198.96 463.33 L195.49 464.36 L192.63 466.31 L190.29 469.06 L188.43 472.53 L185.58 474.5 L180.51 473.07 L175.6 471.9 L171.95 472.65 L169.51 475.23 L165.96 476.14 L162.45 477.09 L158.08 476.75 L155.51 479.14 L154.34 483.67 L153.53 488.74 L151.79 492.4 L148.71 494.02 L145.88 496.01 L143.98 499.43 L141.77 502.38 L138.13 503.13 L133.18 501.9 L129.64 502.81 L125.66 503.05 L122.86 505.1 L119.7 506.59 L116.84 508.54 L115.19 512.35 L114.08 516.97 L112.84 521.39 L110.36 523.91 L108.51 527.41 L106.56 530.75 L104.35 533.68 L102.16 536.66 L96.99 535.08 L92.29 534.23 L89.5 536.29 L87.04 538.84 L84.66 541.53 L81.08 542.38 L76.44 541.62 L73.59 543.59 L72.79 548.69 L70.45 551.42 L67.23 552.82 L62.64 552.14 L58.65 552.37 L56.23 554.99 L54.11 558.08 L49.85 557.88 L45.75 557.94 L42.59 559.44" fill="none" stroke="#111" stroke-width="0.58" stroke-linecap="round" stroke-linejoin="round" vector-effect="non-scaling-stroke"/><path d="M318.47 378.22 L314.53 378.56 L311.24 380.84 L308.31 384.2 L303.93 383.22 L300.75 385.85 L297.56 388.43 L293.73 389.11 L289.04 387.19 L284.95 387.1 L280.92 387.15 L277.52 389.12 L274.02 390.78 L269.35 388.93 L265.53 389.65 L263.06 394.36 L260.84 399.88 L258.07 403.71 L254.76 405.94 L250.43 405.12 L247.16 407.47 L245.12 413.47 L241.54 414.91 L237.21 414.08 L232.48 412.05 L227.54 409.41 L224.54 412.55 L222.01 417.12 L218.4 418.44 L214.14 417.83 L210.76 419.84 L208.11 424.06 L205.49 428.34 L202.39 431.21 L197.97 430.09 L194.24 431.08 L190.67 432.5 L186.54 432.3 L181.93 430.63 L177.94 430.82 L173.67 430.17 L170.73 433.51 L167.32 435.42 L162.78 433.98 L159.25 435.53 L156.26 438.73 L153.18 441.64 L149.51 442.79 L144.87 441.02 L139.49 437.08 L135.3 436.67 L131.84 438.44 L128.31 440 L123.71 438.38 L119.22 437.08 L115.8 438.96 L113.37 443.81 L111.54 450.49 L108.26 452.79 L104.35 453.21 L100.67 454.34 L97.67 457.5 L94.96 461.51 L90.41 460.03 L85.35 457.03 L81.24 456.86 L77.2 456.9 L73.25 457.2 L69.88 459.26 L65.8 459.18 L63.13 463.33 L61.19 469.64 L58.15 472.67 L55.1 475.7 L51.8 477.93 L48.99 481.66 L46.26 485.64 L42.81 487.44 L37.76 484.47 L32.75 481.58 L29.09 482.76 L25.61 484.49 L22.16 486.31 L18.18 486.52 L13.25 483.9 L9.49 484.78 L7.56 491.12 L4.3 493.52 L0.21 493.4 L-4.08 492.69 L-8.76 490.82 L-12.34 492.24 L-15.02 496.36 L-19.66 494.6 L-24.17 493.24 L-27.68 494.86" fill="none" stroke="#111" stroke-width="0.58" stroke-linecap="round" stroke-linejoin="round" vector-effect="non-scaling-stroke"/></g><g data-layer="chroma_constellation"><path d="M320 368.8 L320 324.72" fill="none" stroke="#111" stroke-width="1.41" stroke-linecap="round" stroke-linejoin="round" vector-effect="non-scaling-stroke"/><path d="M327 370.68 L332.22 361.63" fill="none" stroke="#111" stroke-width="0.94" stroke-linecap="round" stroke-linejoin="round" vector-effect="non-scaling-stroke"/><path d="M332.12 375.8 L349.2 365.94" fill="none" stroke="#111" stroke-width="1.07" stroke-linecap="round" stroke-linejoin="round" vector-effect="non-scaling-stroke"/><path d="M334 382.8 L369.96 382.8" fill="none" stroke="#111" stroke-width="1.3" stroke-linecap="round" stroke-linejoin="round" vector-effect="non-scaling-stroke"/><path d="M332.12 389.8 L340.16 394.44" fill="none" stroke="#111" stroke-width="0.93" stroke-linecap="round" stroke-linejoin="round" vector-effect="non-scaling-stroke"/><path d="M327 394.92 L339.76 417.03" fill="none" stroke="#111" stroke-width="1.15" stroke-linecap="round" stroke-linejoin="round" vector-effect="non-scaling-stroke"/><path d="M320 396.8 L320 447.84" fill="none" stroke="#111" stroke-width="1.5" stroke-linecap="round" stroke-linejoin="round" vector-effect="non-scaling-stroke"/><path d="M313 394.92 L306.62 405.97" fill="none" stroke="#111" stroke-width="0.98" stroke-linecap="round" stroke-linejoin="round" vector-effect="non-scaling-stroke"/><path d="M307.88 389.8 L288.79 400.82" fill="none" stroke="#111" stroke-width="1.1" stroke-linecap="round" stroke-linejoin="round" vector-effect="non-scaling-stroke"/><path d="M306 382.8 L272.36 382.8" fill="none" stroke="#111" stroke-width="1.26" stroke-linecap="round" stroke-linejoin="round" vector-effect="non-scaling-stroke"/><path d="M307.88 375.8 L297.83 370" fill="none" stroke="#111" stroke-width="0.96" stroke-linecap="round" stroke-linejoin="round" vector-effect="non-scaling-stroke"/><path d="M313 370.68 L298.5 345.56" fill="none" stroke="#111" stroke-width="1.2" stroke-linecap="round" stroke-linejoin="round" vector-effect="non-scaling-stroke"/><circle cx="320" cy="382.8" r="14" fill="none" stroke="#111" stroke-width="0.8" vector-effect="non-scaling-stroke"/></g><g data-layer="time_axis"><path d="M100.71 714.39 L103.29 745.61" fill="none" stroke="#111" stroke-width="0.75" stroke-linecap="round" stroke-linejoin="round" vector-effect="non-scaling-stroke"/><path d="M107.62 713.62 L110.23 745.24" fill="none" stroke="#111" stroke-width="0.75" stroke-linecap="round" stroke-linejoin="round" vector-effect="non-scaling-stroke"/><path d="M114.94 717.93 L116.74 739.78" fill="none" stroke="#111" stroke-width="0.75" stroke-linecap="round" stroke-linejoin="round" vector-effect="non-scaling-stroke"/><path d="M121.74 715.89 L123.79 740.68" fill="none" stroke="#111" stroke-width="0.75" stroke-linecap="round" stroke-linejoin="round" vector-effect="non-scaling-stroke"/><path d="M129.21 721.94 L130.16 733.49" fill="none" stroke="#111" stroke-width="0.75" stroke-linecap="round" stroke-linejoin="round" vector-effect="non-scaling-stroke"/><path d="M135.89 718.56 L137.31 735.72" fill="none" stroke="#111" stroke-width="0.75" stroke-linecap="round" stroke-linejoin="round" vector-effect="non-scaling-stroke"/><path d="M142.56 714.84 L144.49 738.3" fill="none" stroke="#111" stroke-width="0.75" stroke-linecap="round" stroke-linejoin="round" vector-effect="non-scaling-stroke"/><path d="M149.42 713.54 L151.47 738.46" fill="none" stroke="#111" stroke-width="0.75" stroke-linecap="round" stroke-linejoin="round" vector-effect="non-scaling-stroke"/><path d="M156.36 713.21 L158.37 737.65" fill="none" stroke="#111" stroke-width="0.75" stroke-linecap="round" stroke-linejoin="round" vector-effect="non-scaling-stroke"/><path d="M162.52 703.49 L166.05 746.22" fill="none" stroke="#111" stroke-width="0.75" stroke-linecap="round" stroke-linejoin="round" vector-effect="non-scaling-stroke"/><path d="M169.97 709.28 L172.45 739.29" fill="none" stroke="#111" stroke-width="0.75" stroke-linecap="round" stroke-linejoin="round" vector-effect="non-scaling-stroke"/><path d="M177.6 717.3 L178.66 730.13" fill="none" stroke="#111" stroke-width="0.75" stroke-linecap="round" stroke-linejoin="round" vector-effect="non-scaling-stroke"/><path d="M184.7 718.91 L185.4 727.37" fill="none" stroke="#111" stroke-width="0.75" stroke-linecap="round" stroke-linejoin="round" vector-effect="non-scaling-stroke"/><path d="M191.26 714 L192.68 731.14" fill="none" stroke="#111" stroke-width="0.75" stroke-linecap="round" stroke-linejoin="round" vector-effect="non-scaling-stroke"/><path d="M198.1 712.4 L199.68 731.6" fill="none" stroke="#111" stroke-width="0.75" stroke-linecap="round" stroke-linejoin="round" vector-effect="non-scaling-stroke"/><path d="M204.96 711.18 L206.66 731.68" fill="none" stroke="#111" stroke-width="0.75" stroke-linecap="round" stroke-linejoin="round" vector-effect="non-scaling-stroke"/><path d="M212.15 713.78 L213.31 727.93" fill="none" stroke="#111" stroke-width="0.75" stroke-linecap="round" stroke-linejoin="round" vector-effect="non-scaling-stroke"/><path d="M219.05 713.06 L220.25 727.51" fill="none" stroke="#111" stroke-width="0.75" stroke-linecap="round" stroke-linejoin="round" vector-effect="non-scaling-stroke"/><path d="M225.79 710.28 L227.35 729.15" fill="none" stroke="#111" stroke-width="0.75" stroke-linecap="round" stroke-linejoin="round" vector-effect="non-scaling-stroke"/><path d="M232.87 711.59 L234.12 726.7" fill="none" stroke="#111" stroke-width="0.75" stroke-linecap="round" stroke-linejoin="round" vector-effect="non-scaling-stroke"/><path d="M239.69 709.76 L241.14 727.38" fill="none" stroke="#111" stroke-width="0.75" stroke-linecap="round" stroke-linejoin="round" vector-effect="non-scaling-stroke"/><path d="M246.01 702 L248.65 734" fill="none" stroke="#111" stroke-width="0.75" stroke-linecap="round" stroke-linejoin="round" vector-effect="non-scaling-stroke"/><path d="M252.71 698.68 L255.8 736.17" fill="none" stroke="#111" stroke-width="0.75" stroke-linecap="round" stroke-linejoin="round" vector-effect="non-scaling-stroke"/><path d="M260.09 703.66 L262.26 730.05" fill="none" stroke="#111" stroke-width="0.75" stroke-linecap="round" stroke-linejoin="round" vector-effect="non-scaling-stroke"/><path d="M267.2 705.44 L268.99 727.13" fill="none" stroke="#111" stroke-width="0.75" stroke-linecap="round" stroke-linejoin="round" vector-effect="non-scaling-stroke"/><path d="M274.59 710.53 L275.44 720.9" fill="none" stroke="#111" stroke-width="0.75" stroke-linecap="round" stroke-linejoin="round" vector-effect="non-scaling-stroke"/><path d="M281.28 707.19 L282.59 723.09" fill="none" stroke="#111" stroke-width="0.75" stroke-linecap="round" stroke-linejoin="round" vector-effect="non-scaling-stroke"/><path d="M288.33 708.16 L289.39 720.99" fill="none" stroke="#111" stroke-width="0.75" stroke-linecap="round" stroke-linejoin="round" vector-effect="non-scaling-stroke"/><path d="M295.35 708.87 L296.2 719.13" fill="none" stroke="#111" stroke-width="0.75" stroke-linecap="round" stroke-linejoin="round" vector-effect="non-scaling-stroke"/><path d="M302.18 707.17 L303.22 719.69" fill="none" stroke="#111" stroke-width="0.75" stroke-linecap="round" stroke-linejoin="round" vector-effect="non-scaling-stroke"/><path d="M308.97 704.97 L310.27 720.75" fill="none" stroke="#111" stroke-width="0.75" stroke-linecap="round" stroke-linejoin="round" vector-effect="non-scaling-stroke"/><path d="M315.54 700.23 L317.54 724.34" fill="none" stroke="#111" stroke-width="0.75" stroke-linecap="round" stroke-linejoin="round" vector-effect="non-scaling-stroke"/><path d="M323.04 706.68 L323.88 716.75" fill="none" stroke="#111" stroke-width="0.75" stroke-linecap="round" stroke-linejoin="round" vector-effect="non-scaling-stroke"/><path d="M329.31 698.14 L331.45 724.14" fill="none" stroke="#111" stroke-width="0.75" stroke-linecap="round" stroke-linejoin="round" vector-effect="non-scaling-stroke"/><path d="M336.38 699.41 L338.22 721.73" fill="none" stroke="#111" stroke-width="0.75" stroke-linecap="round" stroke-linejoin="round" vector-effect="non-scaling-stroke"/><path d="M342.86 693.5 L345.58 726.5" fill="none" stroke="#111" stroke-width="0.75" stroke-linecap="round" stroke-linejoin="round" vector-effect="non-scaling-stroke"/><path d="M349.17 685.51 L353.12 733.35" fill="none" stroke="#111" stroke-width="0.75" stroke-linecap="round" stroke-linejoin="round" vector-effect="non-scaling-stroke"/><path d="M356.39 688.6 L359.74 729.11" fill="none" stroke="#111" stroke-width="0.75" stroke-linecap="round" stroke-linejoin="round" vector-effect="non-scaling-stroke"/><path d="M364.16 698.35 L365.8 718.22" fill="none" stroke="#111" stroke-width="0.75" stroke-linecap="round" stroke-linejoin="round" vector-effect="non-scaling-stroke"/><path d="M371.22 699.39 L372.59 716.04" fill="none" stroke="#111" stroke-width="0.75" stroke-linecap="round" stroke-linejoin="round" vector-effect="non-scaling-stroke"/><path d="M378.21 699.68 L379.44 714.61" fill="none" stroke="#111" stroke-width="0.75" stroke-linecap="round" stroke-linejoin="round" vector-effect="non-scaling-stroke"/><path d="M385.2 699.97 L386.29 713.17" fill="none" stroke="#111" stroke-width="0.75" stroke-linecap="round" stroke-linejoin="round" vector-effect="non-scaling-stroke"/><path d="M392.32 701.83 L393.01 710.17" fill="none" stroke="#111" stroke-width="0.75" stroke-linecap="round" stroke-linejoin="round" vector-effect="non-scaling-stroke"/><path d="M398.55 692.87 L400.62 717.99" fill="none" stroke="#111" stroke-width="0.75" stroke-linecap="round" stroke-linejoin="round" vector-effect="non-scaling-stroke"/><path d="M405.35 690.78 L407.67 718.93" fill="none" stroke="#111" stroke-width="0.75" stroke-linecap="round" stroke-linejoin="round" vector-effect="non-scaling-stroke"/><path d="M412.46 692.57 L414.4 716" fill="none" stroke="#111" stroke-width="0.75" stroke-linecap="round" stroke-linejoin="round" vector-effect="non-scaling-stroke"/><path d="M419.28 690.76 L421.42 716.67" fill="none" stroke="#111" stroke-width="0.75" stroke-linecap="round" stroke-linejoin="round" vector-effect="non-scaling-stroke"/><path d="M426.85 698.09 L427.69 708.19" fill="none" stroke="#111" stroke-width="0.75" stroke-linecap="round" stroke-linejoin="round" vector-effect="non-scaling-stroke"/><path d="M433.42 693.25 L434.96 711.9" fill="none" stroke="#111" stroke-width="0.75" stroke-linecap="round" stroke-linejoin="round" vector-effect="non-scaling-stroke"/><path d="M440.16 690.46 L442.06 713.54" fill="none" stroke="#111" stroke-width="0.75" stroke-linecap="round" stroke-linejoin="round" vector-effect="non-scaling-stroke"/><path d="M446.74 685.78 L449.32 717.07" fill="none" stroke="#111" stroke-width="0.75" stroke-linecap="round" stroke-linejoin="round" vector-effect="non-scaling-stroke"/><path d="M453.43 682.46 L456.47 719.25" fill="none" stroke="#111" stroke-width="0.75" stroke-linecap="round" stroke-linejoin="round" vector-effect="non-scaling-stroke"/><path d="M461.25 692.72 L462.5 707.85" fill="none" stroke="#111" stroke-width="0.75" stroke-linecap="round" stroke-linejoin="round" vector-effect="non-scaling-stroke"/><path d="M468.45 695.52 L469.14 703.91" fill="none" stroke="#111" stroke-width="0.75" stroke-linecap="round" stroke-linejoin="round" vector-effect="non-scaling-stroke"/><path d="M475.02 690.7 L476.41 707.58" fill="none" stroke="#111" stroke-width="0.75" stroke-linecap="round" stroke-linejoin="round" vector-effect="non-scaling-stroke"/><path d="M482.02 691.08 L483.25 706.06" fill="none" stroke="#111" stroke-width="0.75" stroke-linecap="round" stroke-linejoin="round" vector-effect="non-scaling-stroke"/><path d="M489.12 692.74 L489.99 703.26" fill="none" stroke="#111" stroke-width="0.75" stroke-linecap="round" stroke-linejoin="round" vector-effect="non-scaling-stroke"/><path d="M495.45 685.04 L497.5 709.82" fill="none" stroke="#111" stroke-width="0.75" stroke-linecap="round" stroke-linejoin="round" vector-effect="non-scaling-stroke"/><path d="M502.11 681.29 L504.68 712.42" fill="none" stroke="#111" stroke-width="0.75" stroke-linecap="round" stroke-linejoin="round" vector-effect="non-scaling-stroke"/><path d="M509.6 687.6 L511.03 704.97" fill="none" stroke="#111" stroke-width="0.75" stroke-linecap="round" stroke-linejoin="round" vector-effect="non-scaling-stroke"/><path d="M516.89 691.55 L517.58 699.88" fill="none" stroke="#111" stroke-width="0.75" stroke-linecap="round" stroke-linejoin="round" vector-effect="non-scaling-stroke"/><path d="M523.66 689.11 L524.66 701.17" fill="none" stroke="#111" stroke-width="0.75" stroke-linecap="round" stroke-linejoin="round" vector-effect="non-scaling-stroke"/><path d="M530.26 684.67 L531.9 704.47" fill="none" stroke="#111" stroke-width="0.75" stroke-linecap="round" stroke-linejoin="round" vector-effect="non-scaling-stroke"/><path d="M536.86 680.18 L539.14 707.82" fill="none" stroke="#111" stroke-width="0.75" stroke-linecap="round" stroke-linejoin="round" vector-effect="non-scaling-stroke"/></g><path d="M540 382.8 L548 382.8" fill="none" stroke="#111" stroke-width="0.75" stroke-linecap="round" stroke-linejoin="round" vector-effect="non-scaling-stroke"/><path d="M544 378.8 L544 386.8" fill="none" stroke="#111" stroke-width="0.75" stroke-linecap="round" stroke-linejoin="round" vector-effect="non-scaling-stroke"/><path d="M540.03 426.41 L552.03 426.41" fill="none" stroke="#111" stroke-width="0.75" stroke-linecap="round" stroke-linejoin="round" vector-effect="non-scaling-stroke"/><path d="M546.03 420.41 L546.03 432.41" fill="none" stroke="#111" stroke-width="0.75" stroke-linecap="round" stroke-linejoin="round" vector-effect="non-scaling-stroke"/><path d="M527.31 470.64 L535.31 470.64" fill="none" stroke="#111" stroke-width="0.75" stroke-linecap="round" stroke-linejoin="round" vector-effect="non-scaling-stroke"/><path d="M531.31 466.64 L531.31 474.64" fill="none" stroke="#111" stroke-width="0.75" stroke-linecap="round" stroke-linejoin="round" vector-effect="non-scaling-stroke"/><path d="M493.61 512.12 L505.61 512.12" fill="none" stroke="#111" stroke-width="0.75" stroke-linecap="round" stroke-linejoin="round" vector-effect="non-scaling-stroke"/><path d="M499.61 506.12 L499.61 518.12" fill="none" stroke="#111" stroke-width="0.75" stroke-linecap="round" stroke-linejoin="round" vector-effect="non-scaling-stroke"/><path d="M428 522.47 L436 522.47" fill="none" stroke="#111" stroke-width="0.75" stroke-linecap="round" stroke-linejoin="round" vector-effect="non-scaling-stroke"/><path d="M432 518.47 L432 526.47" fill="none" stroke="#111" stroke-width="0.75" stroke-linecap="round" stroke-linejoin="round" vector-effect="non-scaling-stroke"/><path d="M374.56 545.54 L386.56 545.54" fill="none" stroke="#111" stroke-width="0.75" stroke-linecap="round" stroke-linejoin="round" vector-effect="non-scaling-stroke"/><path d="M380.56 539.54 L380.56 551.54" fill="none" stroke="#111" stroke-width="0.75" stroke-linecap="round" stroke-linejoin="round" vector-effect="non-scaling-stroke"/><path d="M316 558.48 L324 558.48" fill="none" stroke="#111" stroke-width="0.75" stroke-linecap="round" stroke-linejoin="round" vector-effect="non-scaling-stroke"/><path d="M320 554.48 L320 562.48" fill="none" stroke="#111" stroke-width="0.75" stroke-linecap="round" stroke-linejoin="round" vector-effect="non-scaling-stroke"/><path d="M248.26 559.45 L260.26 559.45" fill="none" stroke="#111" stroke-width="0.75" stroke-linecap="round" stroke-linejoin="round" vector-effect="non-scaling-stroke"/><path d="M254.26 553.45 L254.26 565.45" fill="none" stroke="#111" stroke-width="0.75" stroke-linecap="round" stroke-linejoin="round" vector-effect="non-scaling-stroke"/><path d="M204 522.47 L212 522.47" fill="none" stroke="#111" stroke-width="0.75" stroke-linecap="round" stroke-linejoin="round" vector-effect="non-scaling-stroke"/><path d="M208 518.47 L208 526.47" fill="none" stroke="#111" stroke-width="0.75" stroke-linecap="round" stroke-linejoin="round" vector-effect="non-scaling-stroke"/><path d="M148.54 501.93 L160.54 501.93" fill="none" stroke="#111" stroke-width="0.75" stroke-linecap="round" stroke-linejoin="round" vector-effect="non-scaling-stroke"/><path d="M154.54 495.93 L154.54 507.93" fill="none" stroke="#111" stroke-width="0.75" stroke-linecap="round" stroke-linejoin="round" vector-effect="non-scaling-stroke"/><path d="M104.69 470.64 L112.69 470.64" fill="none" stroke="#111" stroke-width="0.75" stroke-linecap="round" stroke-linejoin="round" vector-effect="non-scaling-stroke"/><path d="M108.69 466.64 L108.69 474.64" fill="none" stroke="#111" stroke-width="0.75" stroke-linecap="round" stroke-linejoin="round" vector-effect="non-scaling-stroke"/><path d="M68.65 430.13 L80.65 430.13" fill="none" stroke="#111" stroke-width="0.75" stroke-linecap="round" stroke-linejoin="round" vector-effect="non-scaling-stroke"/><path d="M74.65 424.13 L74.65 436.13" fill="none" stroke="#111" stroke-width="0.75" stroke-linecap="round" stroke-linejoin="round" vector-effect="non-scaling-stroke"/><path d="M92 382.8 L100 382.8" fill="none" stroke="#111" stroke-width="0.75" stroke-linecap="round" stroke-linejoin="round" vector-effect="non-scaling-stroke"/><path d="M96 378.8 L96 386.8" fill="none" stroke="#111" stroke-width="0.75" stroke-linecap="round" stroke-linejoin="round" vector-effect="non-scaling-stroke"/><path d="M87.97 339.19 L99.97 339.19" fill="none" stroke="#111" stroke-width="0.75" stroke-linecap="round" stroke-linejoin="round" vector-effect="non-scaling-stroke"/><path d="M93.97 333.19 L93.97 345.19" fill="none" stroke="#111" stroke-width="0.75" stroke-linecap="round" stroke-linejoin="round" vector-effect="non-scaling-stroke"/><path d="M104.69 294.96 L112.69 294.96" fill="none" stroke="#111" stroke-width="0.75" stroke-linecap="round" stroke-linejoin="round" vector-effect="non-scaling-stroke"/><path d="M108.69 290.96 L108.69 298.96" fill="none" stroke="#111" stroke-width="0.75" stroke-linecap="round" stroke-linejoin="round" vector-effect="non-scaling-stroke"/><path d="M134.39 253.48 L146.39 253.48" fill="none" stroke="#111" stroke-width="0.75" stroke-linecap="round" stroke-linejoin="round" vector-effect="non-scaling-stroke"/><path d="M140.39 247.48 L140.39 259.48" fill="none" stroke="#111" stroke-width="0.75" stroke-linecap="round" stroke-linejoin="round" vector-effect="non-scaling-stroke"/><path d="M204 243.13 L212 243.13" fill="none" stroke="#111" stroke-width="0.75" stroke-linecap="round" stroke-linejoin="round" vector-effect="non-scaling-stroke"/><path d="M208 239.13 L208 247.13" fill="none" stroke="#111" stroke-width="0.75" stroke-linecap="round" stroke-linejoin="round" vector-effect="non-scaling-stroke"/><path d="M253.44 220.06 L265.44 220.06" fill="none" stroke="#111" stroke-width="0.75" stroke-linecap="round" stroke-linejoin="round" vector-effect="non-scaling-stroke"/><path d="M259.44 214.06 L259.44 226.06" fill="none" stroke="#111" stroke-width="0.75" stroke-linecap="round" stroke-linejoin="round" vector-effect="non-scaling-stroke"/><path d="M316 207.12 L324 207.12" fill="none" stroke="#111" stroke-width="0.75" stroke-linecap="round" stroke-linejoin="round" vector-effect="non-scaling-stroke"/><path d="M320 203.12 L320 211.12" fill="none" stroke="#111" stroke-width="0.75" stroke-linecap="round" stroke-linejoin="round" vector-effect="non-scaling-stroke"/><path d="M379.74 206.15 L391.74 206.15" fill="none" stroke="#111" stroke-width="0.75" stroke-linecap="round" stroke-linejoin="round" vector-effect="non-scaling-stroke"/><path d="M385.74 200.15 L385.74 212.15" fill="none" stroke="#111" stroke-width="0.75" stroke-linecap="round" stroke-linejoin="round" vector-effect="non-scaling-stroke"/><path d="M428 243.13 L436 243.13" fill="none" stroke="#111" stroke-width="0.75" stroke-linecap="round" stroke-linejoin="round" vector-effect="non-scaling-stroke"/><path d="M432 239.13 L432 247.13" fill="none" stroke="#111" stroke-width="0.75" stroke-linecap="round" stroke-linejoin="round" vector-effect="non-scaling-stroke"/><path d="M479.46 263.67 L491.46 263.67" fill="none" stroke="#111" stroke-width="0.75" stroke-linecap="round" stroke-linejoin="round" vector-effect="non-scaling-stroke"/><path d="M485.46 257.67 L485.46 269.67" fill="none" stroke="#111" stroke-width="0.75" stroke-linecap="round" stroke-linejoin="round" vector-effect="non-scaling-stroke"/><path d="M527.31 294.96 L535.31 294.96" fill="none" stroke="#111" stroke-width="0.75" stroke-linecap="round" stroke-linejoin="round" vector-effect="non-scaling-stroke"/><path d="M531.31 290.96 L531.31 298.96" fill="none" stroke="#111" stroke-width="0.75" stroke-linecap="round" stroke-linejoin="round" vector-effect="non-scaling-stroke"/><path d="M559.35 335.47 L571.35 335.47" fill="none" stroke="#111" stroke-width="0.75" stroke-linecap="round" stroke-linejoin="round" vector-effect="non-scaling-stroke"/><path d="M565.35 329.47 L565.35 341.47" fill="none" stroke="#111" stroke-width="0.75" stroke-linecap="round" stroke-linejoin="round" vector-effect="non-scaling-stroke"/><path d="M348.13 382.8 L342.45 389.85 L336.22 396.5 L329.58 402.38 L322.7 407.17 L315.75 410.6 L308.91 412.47 L302.35 412.68 L296.22 411.22 L290.69 408.17 L285.89 403.7 L281.94 398.06 L278.94 391.56 L276.96 384.58 L276.06 377.49 L276.25 370.71 L277.53 364.6 L279.87 359.5 L283.22 355.72 L287.47 353.44 L292.54 352.81 L298.3 353.86 L304.59 356.53 L311.27 360.67 L318.17 366.04 L325.11 372.35 L331.93 379.25 L338.45 386.35 L344.51 393.25 L349.95 399.56 L354.65 404.93 L358.49 409.07 L361.37 411.74 L363.21 412.79 L363.98 412.16 L363.65 409.88 L362.23 406.1 L359.76 401 L356.3 394.89 L351.93 388.11 L346.77 381.02 L340.94 374.04 L334.59 367.54 L327.87 361.9 L320.96 357.43 L314.02 354.38 L307.24 352.92 L300.77 353.13 L294.78 355 L289.42 358.43 L284.82 363.22 L281.1 369.1 L278.35 375.75 L276.63 382.8 L276 389.85 L276.47 396.5 L278.02 402.38 L280.62 407.17 L284.2 410.6 L288.67 412.47 L293.92 412.68 L299.83 411.22 L306.23 408.17 L312.98 403.7 L319.91 398.06 L326.84 391.56 L333.59 384.58 L340.01 377.49 L345.93 370.71 L351.2 364.6 L355.7 359.5 L359.3 355.72 L361.93 353.44 L363.5 352.81 L364 353.86 L363.4 356.53 L361.71 360.67 L358.99 366.04 L355.29 372.35 L350.71 379.25 L345.37 386.35 L339.4 393.25 L332.94 399.56 L326.16 404.93 L319.22 409.07 L312.31 411.74 L305.58 412.79 L299.22 412.16 L293.37 409.88 L288.19 406.1 L283.8 401 L280.32 394.89 L277.82 388.11 L276.37 381.02 L276.02 374.04 L276.76 367.54 L278.57 361.9 L281.42 357.43 L285.24 354.38 L289.92 352.92 L295.34 353.13 L301.39 355 L307.9 358.43 L314.71 363.22 L321.65 369.1 L328.55 375.75 L335.24 382.8 L341.54 389.85 L347.31 396.5 L352.4 402.38 L356.69 407.17 L360.05 410.6 L362.42 412.47 L363.73 412.68 L363.95 411.22 L363.07 408.17 L361.13 403.7 L358.15 398.06 L354.22 391.56 L349.44 384.58 L343.93 377.49 L337.82 370.71 L331.27 364.6 L324.43 359.5 L317.48 355.72 L310.6 353.44 L303.95 352.81 L297.7 353.86 L292.01 356.53 L287.01 360.67 L282.84 366.04 L279.6 372.35 L277.36 379.25 L276.18 386.35 L276.1 393.25 L277.11 399.56 L279.19 404.93 L282.29 409.07 L286.33 411.74 L291.21 412.79 L296.8 412.16 L302.98 409.88 L309.58 406.1 L316.44 401 L323.38 394.89 L330.25 388.11 L336.86 381.02 L343.04 374.04 L348.66 367.54 L353.55 361.9 L357.62 357.43 L360.74 354.38 L362.85 352.92 L363.89 353.13 L363.83 355 L362.69 358.43 L360.48 363.22 L357.25 369.1 L353.1 375.75 L348.13 382.8" fill="none" stroke="#111" stroke-width="1.1" stroke-linecap="round" stroke-linejoin="round" vector-effect="non-scaling-stroke"/></g></g>
</svg>