<svg xmlns="http://www.w3.org/2000/svg" viewBox="0 0 1200 1200" role="img" aria-labelledby="title desc">
  <title id="title">Procession Echo</title>
  <desc id="desc">Generated from OBJ-style geometric primitives, one black ink with white negative space.</desc>
  <path d="M401.8 372.6 L469.8 372.6 L469.8 352.8 L401.8 352.8Z" fill="#111" stroke="#111" stroke-width="10" stroke-linejoin="round" stroke-linecap="round"/>
  <path d="M469.8 372.6 L401.8 372.6 L401.8 406.5 L469.8 406.5Z" fill="#111" stroke="#111" stroke-width="10" stroke-linejoin="round" stroke-linecap="round"/>
  <path d="M401.8 406.5 L401.8 372.6 L401.8 352.8 L401.8 386.8Z" fill="#111" stroke="#111" stroke-width="10" stroke-linejoin="round" stroke-linecap="round"/>
  <path d="M469.8 372.6 L469.8 406.5 L469.8 386.8 L469.8 352.8Z" fill="#111" stroke="#111" stroke-width="10" stroke-linejoin="round" stroke-linecap="round"/>
  <path d="M469.8 352.8 L469.8 386.8 L401.8 386.8 L401.8 352.8Z" fill="#111" stroke="#111" stroke-width="10" stroke-linejoin="round" stroke-linecap="round"/>
  <path d="M469.8 406.5 L401.8 406.5 L401.8 386.8 L469.8 386.8Z" fill="#111" stroke="#111" stroke-width="10" stroke-linejoin="round" stroke-linecap="round"/>
  <path d="M361.0 475.2 L427.5 508.5 L427.5 303.3 L361.0 270.1Z" fill="#111" stroke="#111" stroke-width="10" stroke-linejoin="round" stroke-linecap="round"/>
  <path d="M361.0 475.2 L130.0 590.7 L196.5 624.0 L427.5 508.5Z" fill="#111" stroke="#111" stroke-width="10" stroke-linejoin="round" stroke-linecap="round"/>
  <path d="M130.0 590.7 L361.0 475.2 L361.0 270.1 L130.0 385.6Z" fill="#111" stroke="#111" stroke-width="10" stroke-linejoin="round" stroke-linecap="round"/>
  <path d="M427.5 508.5 L196.5 624.0 L196.5 418.8 L427.5 303.3Z" fill="#111" stroke="#111" stroke-width="10" stroke-linejoin="round" stroke-linecap="round"/>
  <path d="M373.0 557.9 L424.7 583.8 L424.7 421.6 L373.0 395.8Z" fill="#111" stroke="#111" stroke-width="10" stroke-linejoin="round" stroke-linecap="round"/>
  <path d="M361.0 270.1 L427.5 303.3 L196.5 418.8 L130.0 385.6Z" fill="#fff" stroke="#111" stroke-width="10" stroke-linejoin="round" stroke-linecap="round"/>
  <path d="M373.0 557.9 L197.4 645.7 L249.2 671.5 L424.7 583.8Z" fill="#111" stroke="#111" stroke-width="10" stroke-linejoin="round" stroke-linecap="round"/>
  <path d="M197.4 645.7 L373.0 557.9 L373.0 395.8 L197.4 483.5Z" fill="#111" stroke="#111" stroke-width="10" stroke-linejoin="round" stroke-linecap="round"/>
  <path d="M196.5 624.0 L130.0 590.7 L130.0 385.6 L196.5 418.8Z" fill="#111" stroke="#111" stroke-width="10" stroke-linejoin="round" stroke-linecap="round"/>
  <path d="M322.9 660.2 L922.6 751.9 L922.6 661.8 L322.9 570.2Z" fill="#111" stroke="#111" stroke-width="10" stroke-linejoin="round" stroke-linecap="round"/>
  <path d="M424.7 583.8 L249.2 671.5 L249.2 509.4 L424.7 421.6Z" fill="#111" stroke="#111" stroke-width="10" stroke-linejoin="round" stroke-linecap="round"/>
  <path d="M373.0 395.8 L424.7 421.6 L249.2 509.4 L197.4 483.5Z" fill="#fff" stroke="#111" stroke-width="10" stroke-linejoin="round" stroke-linecap="round"/>
  <path d="M400.2 579.0 L843.8 646.8 L843.8 561.8 L400.2 494.0Z" fill="#111" stroke="#111" stroke-width="10" stroke-linejoin="round" stroke-linecap="round"/>
  <path d="M249.2 671.5 L197.4 645.7 L197.4 483.5 L249.2 509.4Z" fill="#111" stroke="#111" stroke-width="10" stroke-linejoin="round" stroke-linecap="round"/>
  <path d="M189.2 878.9 L322.9 660.2 L322.9 570.2 L189.2 788.8Z" fill="#111" stroke="#111" stroke-width="10" stroke-linejoin="round" stroke-linecap="round"/>
  <path d="M489.5 496.6 L783.1 541.5 L783.1 461.4 L489.5 416.5Z" fill="#111" stroke="#111" stroke-width="10" stroke-linejoin="round" stroke-linecap="round"/>
  <path d="M310.5 725.8 L400.2 579.0 L400.2 494.0 L310.5 640.8Z" fill="#111" stroke="#111" stroke-width="10" stroke-linejoin="round" stroke-linecap="round"/>
  <path d="M432.2 590.3 L489.5 496.6 L489.5 416.5 L432.2 510.2Z" fill="#111" stroke="#111" stroke-width="10" stroke-linejoin="round" stroke-linecap="round"/>
  <path d="M322.9 660.2 L189.2 878.9 L788.9 970.6 L922.6 751.9Z" fill="#111" stroke="#111" stroke-width="10" stroke-linejoin="round" stroke-linecap="round"/>
  <path d="M400.2 579.0 L310.5 725.8 L754.0 793.6 L843.8 646.8Z" fill="#111" stroke="#111" stroke-width="10" stroke-linejoin="round" stroke-linecap="round"/>
  <path d="M604.4 469.7 L723.1 487.9 L723.1 262.7 L604.4 244.5Z" fill="#111" stroke="#111" stroke-width="10" stroke-linejoin="round" stroke-linecap="round"/>
  <path d="M489.5 496.6 L432.2 590.3 L725.8 635.2 L783.1 541.5Z" fill="#111" stroke="#111" stroke-width="10" stroke-linejoin="round" stroke-linecap="round"/>
  <path d="M604.4 469.7 L564.3 535.3 L682.9 553.4 L723.1 487.9Z" fill="#111" stroke="#111" stroke-width="10" stroke-linejoin="round" stroke-linecap="round"/>
  <path d="M322.9 570.2 L922.6 661.8 L788.9 880.5 L189.2 788.8Z" fill="#fff" stroke="#111" stroke-width="10" stroke-linejoin="round" stroke-linecap="round"/>
  <path d="M400.2 494.0 L843.8 561.8 L754.0 708.6 L310.5 640.8Z" fill="#fff" stroke="#111" stroke-width="10" stroke-linejoin="round" stroke-linecap="round"/>
  <path d="M489.5 416.5 L783.1 461.4 L725.8 555.1 L432.2 510.2Z" fill="#fff" stroke="#111" stroke-width="10" stroke-linejoin="round" stroke-linecap="round"/>
  <path d="M564.3 535.3 L604.4 469.7 L604.4 244.5 L564.3 310.1Z" fill="#111" stroke="#111" stroke-width="10" stroke-linejoin="round" stroke-linecap="round"/>
  <path d="M783.1 541.5 L725.8 635.2 L725.8 555.1 L783.1 461.4Z" fill="#111" stroke="#111" stroke-width="10" stroke-linejoin="round" stroke-linecap="round"/>
  <path d="M843.8 646.8 L754.0 793.6 L754.0 708.6 L843.8 561.8Z" fill="#111" stroke="#111" stroke-width="10" stroke-linejoin="round" stroke-linecap="round"/>
  <path d="M723.1 487.9 L682.9 553.4 L682.9 328.3 L723.1 262.7Z" fill="#111" stroke="#111" stroke-width="10" stroke-linejoin="round" stroke-linecap="round"/>
  <path d="M603.8 235.3 L692.7 235.3 L692.7 209.4 L603.8 209.4Z" fill="#111" stroke="#111" stroke-width="10" stroke-linejoin="round" stroke-linecap="round"/>
  <path d="M922.6 751.9 L788.9 970.6 L788.9 880.5 L922.6 661.8Z" fill="#111" stroke="#111" stroke-width="10" stroke-linejoin="round" stroke-linecap="round"/>
  <path d="M815.3 562.2 L1052.7 598.5 L1052.7 393.3 L815.3 357.0Z" fill="#111" stroke="#111" stroke-width="10" stroke-linejoin="round" stroke-linecap="round"/>
  <path d="M725.8 635.2 L432.2 590.3 L432.2 510.2 L725.8 555.1Z" fill="#111" stroke="#111" stroke-width="10" stroke-linejoin="round" stroke-linecap="round"/>
  <path d="M604.4 244.5 L723.1 262.7 L682.9 328.3 L564.3 310.1Z" fill="#fff" stroke="#111" stroke-width="10" stroke-linejoin="round" stroke-linecap="round"/>
  <path d="M682.9 553.4 L564.3 535.3 L564.3 310.1 L682.9 328.3Z" fill="#111" stroke="#111" stroke-width="10" stroke-linejoin="round" stroke-linecap="round"/>
  <path d="M692.7 235.3 L603.8 235.3 L603.8 279.7 L692.7 279.7Z" fill="#111" stroke="#111" stroke-width="10" stroke-linejoin="round" stroke-linecap="round"/>
  <path d="M692.7 235.3 L692.7 279.7 L692.7 253.8 L692.7 209.4Z" fill="#111" stroke="#111" stroke-width="10" stroke-linejoin="round" stroke-linecap="round"/>
  <path d="M603.8 279.7 L603.8 235.3 L603.8 209.4 L603.8 253.8Z" fill="#111" stroke="#111" stroke-width="10" stroke-linejoin="round" stroke-linecap="round"/>
  <path d="M692.7 209.4 L692.7 253.8 L603.8 253.8 L603.8 209.4Z" fill="#fff" stroke="#111" stroke-width="10" stroke-linejoin="round" stroke-linecap="round"/>
  <path d="M754.0 793.6 L310.5 725.8 L310.5 640.8 L754.0 708.6Z" fill="#111" stroke="#111" stroke-width="10" stroke-linejoin="round" stroke-linecap="round"/>
  <path d="M892.0 478.3 L903.4 478.3 L903.4 440.3 L892.0 440.3Z" fill="#111" stroke="#111" stroke-width="10" stroke-linejoin="round" stroke-linecap="round"/>
  <path d="M880.8 479.1 L892.0 478.3 L892.0 440.3 L880.8 441.1Z" fill="#111" stroke="#111" stroke-width="10" stroke-linejoin="round" stroke-linecap="round"/>
  <path d="M903.4 478.3 L914.6 479.1 L914.6 441.1 L903.4 440.3Z" fill="#111" stroke="#111" stroke-width="10" stroke-linejoin="round" stroke-linecap="round"/>
  <path d="M869.9 480.7 L880.8 479.1 L880.8 441.1 L869.9 442.7Z" fill="#111" stroke="#111" stroke-width="10" stroke-linejoin="round" stroke-linecap="round"/>
  <path d="M914.6 479.1 L925.6 480.7 L925.6 442.7 L914.6 441.1Z" fill="#111" stroke="#111" stroke-width="10" stroke-linejoin="round" stroke-linecap="round"/>
  <path d="M892.0 478.3 L894.4 495.0 L901.0 495.0 L903.4 478.3Z" fill="#111" stroke="#111" stroke-width="10" stroke-linejoin="round" stroke-linecap="round"/>
  <path d="M859.5 483.1 L869.9 480.7 L869.9 442.7 L859.5 445.1Z" fill="#111" stroke="#111" stroke-width="10" stroke-linejoin="round" stroke-linecap="round"/>
  <path d="M925.6 480.7 L935.9 483.1 L935.9 445.1 L925.6 442.7Z" fill="#111" stroke="#111" stroke-width="10" stroke-linejoin="round" stroke-linecap="round"/>
  <path d="M880.8 479.1 L887.9 495.5 L894.4 495.0 L892.0 478.3Z" fill="#111" stroke="#111" stroke-width="10" stroke-linejoin="round" stroke-linecap="round"/>
  <path d="M903.4 478.3 L901.0 495.0 L907.5 495.5 L914.6 479.1Z" fill="#111" stroke="#111" stroke-width="10" stroke-linejoin="round" stroke-linecap="round"/>
  <path d="M815.3 562.2 L742.7 680.9 L980.1 717.2 L1052.7 598.5Z" fill="#111" stroke="#111" stroke-width="10" stroke-linejoin="round" stroke-linecap="round"/>
  <path d="M869.9 480.7 L881.6 496.4 L887.9 495.5 L880.8 479.1Z" fill="#111" stroke="#111" stroke-width="10" stroke-linejoin="round" stroke-linecap="round"/>
  <path d="M914.6 479.1 L907.5 495.5 L913.9 496.4 L925.6 480.7Z" fill="#111" stroke="#111" stroke-width="10" stroke-linejoin="round" stroke-linecap="round"/>
  <path d="M935.9 483.1 L945.5 486.2 L945.5 448.2 L935.9 445.1Z" fill="#111" stroke="#111" stroke-width="10" stroke-linejoin="round" stroke-linecap="round"/>
  <path d="M849.9 486.2 L859.5 483.1 L859.5 445.1 L849.9 448.2Z" fill="#111" stroke="#111" stroke-width="10" stroke-linejoin="round" stroke-linecap="round"/>
  <path d="M859.5 483.1 L875.6 497.8 L881.6 496.4 L869.9 480.7Z" fill="#111" stroke="#111" stroke-width="10" stroke-linejoin="round" stroke-linecap="round"/>
  <path d="M925.6 480.7 L913.9 496.4 L919.9 497.8 L935.9 483.1Z" fill="#111" stroke="#111" stroke-width="10" stroke-linejoin="round" stroke-linecap="round"/>
  <path d="M935.9 483.1 L919.9 497.8 L925.4 499.6 L945.5 486.2Z" fill="#111" stroke="#111" stroke-width="10" stroke-linejoin="round" stroke-linecap="round"/>
  <path d="M849.9 486.2 L870.0 499.6 L875.6 497.8 L859.5 483.1Z" fill="#111" stroke="#111" stroke-width="10" stroke-linejoin="round" stroke-linecap="round"/>
  <path d="M841.4 489.9 L849.9 486.2 L849.9 448.2 L841.4 451.9Z" fill="#111" stroke="#111" stroke-width="10" stroke-linejoin="round" stroke-linecap="round"/>
  <path d="M945.5 486.2 L954.1 489.9 L954.1 451.9 L945.5 448.2Z" fill="#111" stroke="#111" stroke-width="10" stroke-linejoin="round" stroke-linecap="round"/>
  <path d="M692.7 279.7 L603.8 279.7 L603.8 253.8 L692.7 253.8Z" fill="#111" stroke="#111" stroke-width="10" stroke-linejoin="round" stroke-linecap="round"/>
  <path d="M841.4 489.9 L865.0 501.7 L870.0 499.6 L849.9 486.2Z" fill="#111" stroke="#111" stroke-width="10" stroke-linejoin="round" stroke-linecap="round"/>
  <path d="M945.5 486.2 L925.4 499.6 L930.4 501.7 L954.1 489.9Z" fill="#111" stroke="#111" stroke-width="10" stroke-linejoin="round" stroke-linecap="round"/>
  <path d="M742.7 680.9 L815.3 562.2 L815.3 357.0 L742.7 475.7Z" fill="#111" stroke="#111" stroke-width="10" stroke-linejoin="round" stroke-linecap="round"/>
  <path d="M892.0 440.3 L903.4 440.3 L901.0 457.0 L894.4 457.0Z" fill="#111" stroke="#111" stroke-width="10" stroke-linejoin="round" stroke-linecap="round"/>
  <path d="M880.8 441.1 L892.0 440.3 L894.4 457.0 L887.9 457.5Z" fill="#111" stroke="#111" stroke-width="10" stroke-linejoin="round" stroke-linecap="round"/>
  <path d="M903.4 440.3 L914.6 441.1 L907.5 457.5 L901.0 457.0Z" fill="#111" stroke="#111" stroke-width="10" stroke-linejoin="round" stroke-linecap="round"/>
  <path d="M833.9 494.2 L841.4 489.9 L841.4 451.9 L833.9 456.2Z" fill="#111" stroke="#111" stroke-width="10" stroke-linejoin="round" stroke-linecap="round"/>
  <path d="M954.1 489.9 L961.5 494.2 L961.5 456.2 L954.1 451.9Z" fill="#111" stroke="#111" stroke-width="10" stroke-linejoin="round" stroke-linecap="round"/>
  <path d="M954.1 489.9 L930.4 501.7 L934.7 504.2 L961.5 494.2Z" fill="#111" stroke="#111" stroke-width="10" stroke-linejoin="round" stroke-linecap="round"/>
  <path d="M833.9 494.2 L860.7 504.2 L865.0 501.7 L841.4 489.9Z" fill="#111" stroke="#111" stroke-width="10" stroke-linejoin="round" stroke-linecap="round"/>
  <path d="M914.6 441.1 L925.6 442.7 L913.9 458.4 L907.5 457.5Z" fill="#111" stroke="#111" stroke-width="10" stroke-linejoin="round" stroke-linecap="round"/>
  <path d="M869.9 442.7 L880.8 441.1 L887.9 457.5 L881.6 458.4Z" fill="#111" stroke="#111" stroke-width="10" stroke-linejoin="round" stroke-linecap="round"/>
  <path d="M859.5 445.1 L869.9 442.7 L881.6 458.4 L875.6 459.8Z" fill="#111" stroke="#111" stroke-width="10" stroke-linejoin="round" stroke-linecap="round"/>
  <path d="M925.6 442.7 L935.9 445.1 L919.9 459.8 L913.9 458.4Z" fill="#111" stroke="#111" stroke-width="10" stroke-linejoin="round" stroke-linecap="round"/>
  <path d="M894.4 495.0 L894.4 457.0 L901.0 457.0 L901.0 495.0Z" fill="#111" stroke="#111" stroke-width="10" stroke-linejoin="round" stroke-linecap="round"/>
  <path d="M887.9 495.5 L887.9 457.5 L894.4 457.0 L894.4 495.0Z" fill="#111" stroke="#111" stroke-width="10" stroke-linejoin="round" stroke-linecap="round"/>
  <path d="M901.0 495.0 L901.0 457.0 L907.5 457.5 L907.5 495.5Z" fill="#111" stroke="#111" stroke-width="10" stroke-linejoin="round" stroke-linecap="round"/>
  <path d="M907.5 495.5 L907.5 457.5 L913.9 458.4 L913.9 496.4Z" fill="#111" stroke="#111" stroke-width="10" stroke-linejoin="round" stroke-linecap="round"/>
  <path d="M881.6 496.4 L881.6 458.4 L887.9 457.5 L887.9 495.5Z" fill="#111" stroke="#111" stroke-width="10" stroke-linejoin="round" stroke-linecap="round"/>
  <path d="M961.5 494.2 L934.7 504.2 L938.3 507.0 L967.7 499.0Z" fill="#111" stroke="#111" stroke-width="10" stroke-linejoin="round" stroke-linecap="round"/>
  <path d="M827.8 499.0 L857.1 507.0 L860.7 504.2 L833.9 494.2Z" fill="#111" stroke="#111" stroke-width="10" stroke-linejoin="round" stroke-linecap="round"/>
  <path d="M935.9 445.1 L945.5 448.2 L925.4 461.6 L919.9 459.8Z" fill="#111" stroke="#111" stroke-width="10" stroke-linejoin="round" stroke-linecap="round"/>
  <path d="M849.9 448.2 L859.5 445.1 L875.6 459.8 L870.0 461.6Z" fill="#111" stroke="#111" stroke-width="10" stroke-linejoin="round" stroke-linecap="round"/>
  <path d="M961.5 494.2 L967.7 499.0 L967.7 461.0 L961.5 456.2Z" fill="#111" stroke="#111" stroke-width="10" stroke-linejoin="round" stroke-linecap="round"/>
  <path d="M827.8 499.0 L833.9 494.2 L833.9 456.2 L827.8 461.0Z" fill="#111" stroke="#111" stroke-width="10" stroke-linejoin="round" stroke-linecap="round"/>
  <path d="M875.6 497.8 L875.6 459.8 L881.6 458.4 L881.6 496.4Z" fill="#111" stroke="#111" stroke-width="10" stroke-linejoin="round" stroke-linecap="round"/>
  <path d="M913.9 496.4 L913.9 458.4 L919.9 459.8 L919.9 497.8Z" fill="#111" stroke="#111" stroke-width="10" stroke-linejoin="round" stroke-linecap="round"/>
  <path d="M870.0 499.6 L870.0 461.6 L875.6 459.8 L875.6 497.8Z" fill="#111" stroke="#111" stroke-width="10" stroke-linejoin="round" stroke-linecap="round"/>
  <path d="M919.9 497.8 L919.9 459.8 L925.4 461.6 L925.4 499.6Z" fill="#111" stroke="#111" stroke-width="10" stroke-linejoin="round" stroke-linecap="round"/>
  <path d="M945.5 448.2 L954.1 451.9 L930.4 463.7 L925.4 461.6Z" fill="#111" stroke="#111" stroke-width="10" stroke-linejoin="round" stroke-linecap="round"/>
  <path d="M841.4 451.9 L849.9 448.2 L870.0 461.6 L865.0 463.7Z" fill="#111" stroke="#111" stroke-width="10" stroke-linejoin="round" stroke-linecap="round"/>
  <path d="M823.0 504.2 L854.4 510.0 L857.1 507.0 L827.8 499.0Z" fill="#111" stroke="#111" stroke-width="10" stroke-linejoin="round" stroke-linecap="round"/>
  <path d="M967.7 499.0 L938.3 507.0 L941.0 510.0 L972.4 504.2Z" fill="#111" stroke="#111" stroke-width="10" stroke-linejoin="round" stroke-linecap="round"/>
  <path d="M925.4 499.6 L925.4 461.6 L930.4 463.7 L930.4 501.7Z" fill="#111" stroke="#111" stroke-width="10" stroke-linejoin="round" stroke-linecap="round"/>
  <path d="M865.0 501.7 L865.0 463.7 L870.0 461.6 L870.0 499.6Z" fill="#111" stroke="#111" stroke-width="10" stroke-linejoin="round" stroke-linecap="round"/>
  <path d="M967.7 499.0 L972.4 504.2 L972.4 466.1 L967.7 461.0Z" fill="#111" stroke="#111" stroke-width="10" stroke-linejoin="round" stroke-linecap="round"/>
  <path d="M823.0 504.2 L827.8 499.0 L827.8 461.0 L823.0 466.1Z" fill="#111" stroke="#111" stroke-width="10" stroke-linejoin="round" stroke-linecap="round"/>
  <path d="M954.1 451.9 L961.5 456.2 L934.7 466.2 L930.4 463.7Z" fill="#111" stroke="#111" stroke-width="10" stroke-linejoin="round" stroke-linecap="round"/>
  <path d="M833.9 456.2 L841.4 451.9 L865.0 463.7 L860.7 466.2Z" fill="#111" stroke="#111" stroke-width="10" stroke-linejoin="round" stroke-linecap="round"/>
  <path d="M860.7 504.2 L860.7 466.2 L865.0 463.7 L865.0 501.7Z" fill="#111" stroke="#111" stroke-width="10" stroke-linejoin="round" stroke-linecap="round"/>
  <path d="M930.4 501.7 L930.4 463.7 L934.7 466.2 L934.7 504.2Z" fill="#111" stroke="#111" stroke-width="10" stroke-linejoin="round" stroke-linecap="round"/>
  <path d="M819.8 509.6 L852.5 513.2 L854.4 510.0 L823.0 504.2Z" fill="#111" stroke="#111" stroke-width="10" stroke-linejoin="round" stroke-linecap="round"/>
  <path d="M972.4 504.2 L941.0 510.0 L942.9 513.2 L975.6 509.6Z" fill="#111" stroke="#111" stroke-width="10" stroke-linejoin="round" stroke-linecap="round"/>
  <path d="M857.1 507.0 L857.1 469.0 L860.7 466.2 L860.7 504.2Z" fill="#111" stroke="#111" stroke-width="10" stroke-linejoin="round" stroke-linecap="round"/>
  <path d="M934.7 504.2 L934.7 466.2 L938.3 469.0 L938.3 507.0Z" fill="#111" stroke="#111" stroke-width="10" stroke-linejoin="round" stroke-linecap="round"/>
  <path d="M961.5 456.2 L967.7 461.0 L938.3 469.0 L934.7 466.2Z" fill="#111" stroke="#111" stroke-width="10" stroke-linejoin="round" stroke-linecap="round"/>
  <path d="M827.8 461.0 L833.9 456.2 L860.7 466.2 L857.1 469.0Z" fill="#111" stroke="#111" stroke-width="10" stroke-linejoin="round" stroke-linecap="round"/>
  <path d="M819.8 509.6 L823.0 504.2 L823.0 466.1 L819.8 471.6Z" fill="#111" stroke="#111" stroke-width="10" stroke-linejoin="round" stroke-linecap="round"/>
  <path d="M972.4 504.2 L975.6 509.6 L975.6 471.6 L972.4 466.1Z" fill="#111" stroke="#111" stroke-width="10" stroke-linejoin="round" stroke-linecap="round"/>
  <path d="M854.4 510.0 L854.4 472.0 L857.1 469.0 L857.1 507.0Z" fill="#111" stroke="#111" stroke-width="10" stroke-linejoin="round" stroke-linecap="round"/>
  <path d="M938.3 507.0 L938.3 469.0 L941.0 472.0 L941.0 510.0Z" fill="#111" stroke="#111" stroke-width="10" stroke-linejoin="round" stroke-linecap="round"/>
  <path d="M818.2 515.2 L851.6 516.4 L852.5 513.2 L819.8 509.6Z" fill="#111" stroke="#111" stroke-width="10" stroke-linejoin="round" stroke-linecap="round"/>
  <path d="M975.6 509.6 L942.9 513.2 L943.8 516.4 L977.2 515.2Z" fill="#111" stroke="#111" stroke-width="10" stroke-linejoin="round" stroke-linecap="round"/>
  <path d="M823.0 466.1 L827.8 461.0 L857.1 469.0 L854.4 472.0Z" fill="#111" stroke="#111" stroke-width="10" stroke-linejoin="round" stroke-linecap="round"/>
  <path d="M967.7 461.0 L972.4 466.1 L941.0 472.0 L938.3 469.0Z" fill="#111" stroke="#111" stroke-width="10" stroke-linejoin="round" stroke-linecap="round"/>
  <path d="M852.5 513.2 L852.5 475.1 L854.4 472.0 L854.4 510.0Z" fill="#111" stroke="#111" stroke-width="10" stroke-linejoin="round" stroke-linecap="round"/>
  <path d="M941.0 510.0 L941.0 472.0 L942.9 475.1 L942.9 513.2Z" fill="#111" stroke="#111" stroke-width="10" stroke-linejoin="round" stroke-linecap="round"/>
  <path d="M788.9 970.6 L189.2 878.9 L189.2 788.8 L788.9 880.5Z" fill="#111" stroke="#111" stroke-width="10" stroke-linejoin="round" stroke-linecap="round"/>
  <path d="M818.2 515.2 L819.8 509.6 L819.8 471.6 L818.2 477.2Z" fill="#111" stroke="#111" stroke-width="10" stroke-linejoin="round" stroke-linecap="round"/>
  <path d="M975.6 509.6 L977.2 515.2 L977.2 477.2 L975.6 471.6Z" fill="#111" stroke="#111" stroke-width="10" stroke-linejoin="round" stroke-linecap="round"/>
  <path d="M818.2 520.9 L851.6 519.7 L851.6 516.4 L818.2 515.2Z" fill="#111" stroke="#111" stroke-width="10" stroke-linejoin="round" stroke-linecap="round"/>
  <path d="M977.2 515.2 L943.8 516.4 L943.8 519.7 L977.2 520.9Z" fill="#111" stroke="#111" stroke-width="10" stroke-linejoin="round" stroke-linecap="round"/>
  <path d="M819.8 471.6 L823.0 466.1 L854.4 472.0 L852.5 475.1Z" fill="#111" stroke="#111" stroke-width="10" stroke-linejoin="round" stroke-linecap="round"/>
  <path d="M972.4 466.1 L975.6 471.6 L942.9 475.1 L941.0 472.0Z" fill="#111" stroke="#111" stroke-width="10" stroke-linejoin="round" stroke-linecap="round"/>
  <path d="M851.6 516.4 L851.6 478.4 L852.5 475.1 L852.5 513.2Z" fill="#111" stroke="#111" stroke-width="10" stroke-linejoin="round" stroke-linecap="round"/>
  <path d="M942.9 513.2 L942.9 475.1 L943.8 478.4 L943.8 516.4Z" fill="#111" stroke="#111" stroke-width="10" stroke-linejoin="round" stroke-linecap="round"/>
  <path d="M819.8 526.6 L852.5 523.0 L851.6 519.7 L818.2 520.9Z" fill="#111" stroke="#111" stroke-width="10" stroke-linejoin="round" stroke-linecap="round"/>
  <path d="M977.2 520.9 L943.8 519.7 L942.9 523.0 L975.6 526.6Z" fill="#111" stroke="#111" stroke-width="10" stroke-linejoin="round" stroke-linecap="round"/>
  <path d="M851.6 519.7 L851.6 481.7 L851.6 478.4 L851.6 516.4Z" fill="#111" stroke="#111" stroke-width="10" stroke-linejoin="round" stroke-linecap="round"/>
  <path d="M977.2 515.2 L977.2 520.9 L977.2 482.9 L977.2 477.2Z" fill="#111" stroke="#111" stroke-width="10" stroke-linejoin="round" stroke-linecap="round"/>
  <path d="M943.8 516.4 L943.8 478.4 L943.8 481.7 L943.8 519.7Z" fill="#111" stroke="#111" stroke-width="10" stroke-linejoin="round" stroke-linecap="round"/>
  <path d="M818.2 520.9 L818.2 515.2 L818.2 477.2 L818.2 482.9Z" fill="#111" stroke="#111" stroke-width="10" stroke-linejoin="round" stroke-linecap="round"/>
  <path d="M818.2 477.2 L819.8 471.6 L852.5 475.1 L851.6 478.4Z" fill="#111" stroke="#111" stroke-width="10" stroke-linejoin="round" stroke-linecap="round"/>
  <path d="M975.6 471.6 L977.2 477.2 L943.8 478.4 L942.9 475.1Z" fill="#111" stroke="#111" stroke-width="10" stroke-linejoin="round" stroke-linecap="round"/>
  <path d="M943.8 519.7 L943.8 481.7 L942.9 485.0 L942.9 523.0Z" fill="#111" stroke="#111" stroke-width="10" stroke-linejoin="round" stroke-linecap="round"/>
  <path d="M852.5 523.0 L852.5 485.0 L851.6 481.7 L851.6 519.7Z" fill="#111" stroke="#111" stroke-width="10" stroke-linejoin="round" stroke-linecap="round"/>
  <path d="M975.6 526.6 L942.9 523.0 L941.0 526.2 L972.4 532.0Z" fill="#111" stroke="#111" stroke-width="10" stroke-linejoin="round" stroke-linecap="round"/>
  <path d="M823.0 532.0 L854.4 526.2 L852.5 523.0 L819.8 526.6Z" fill="#111" stroke="#111" stroke-width="10" stroke-linejoin="round" stroke-linecap="round"/>
  <path d="M977.2 477.2 L977.2 482.9 L943.8 481.7 L943.8 478.4Z" fill="#111" stroke="#111" stroke-width="10" stroke-linejoin="round" stroke-linecap="round"/>
  <path d="M818.2 482.9 L818.2 477.2 L851.6 478.4 L851.6 481.7Z" fill="#111" stroke="#111" stroke-width="10" stroke-linejoin="round" stroke-linecap="round"/>
  <path d="M977.2 520.9 L975.6 526.6 L975.6 488.5 L977.2 482.9Z" fill="#111" stroke="#111" stroke-width="10" stroke-linejoin="round" stroke-linecap="round"/>
  <path d="M819.8 526.6 L818.2 520.9 L818.2 482.9 L819.8 488.5Z" fill="#111" stroke="#111" stroke-width="10" stroke-linejoin="round" stroke-linecap="round"/>
  <path d="M854.4 526.2 L854.4 488.1 L852.5 485.0 L852.5 523.0Z" fill="#111" stroke="#111" stroke-width="10" stroke-linejoin="round" stroke-linecap="round"/>
  <path d="M942.9 523.0 L942.9 485.0 L941.0 488.1 L941.0 526.2Z" fill="#111" stroke="#111" stroke-width="10" stroke-linejoin="round" stroke-linecap="round"/>
  <path d="M827.8 537.2 L857.1 529.2 L854.4 526.2 L823.0 532.0Z" fill="#111" stroke="#111" stroke-width="10" stroke-linejoin="round" stroke-linecap="round"/>
  <path d="M972.4 532.0 L941.0 526.2 L938.3 529.2 L967.7 537.2Z" fill="#111" stroke="#111" stroke-width="10" stroke-linejoin="round" stroke-linecap="round"/>
  <path d="M1052.7 598.5 L980.1 717.2 L980.1 512.0 L1052.7 393.3Z" fill="#111" stroke="#111" stroke-width="10" stroke-linejoin="round" stroke-linecap="round"/>
  <path d="M977.2 482.9 L975.6 488.5 L942.9 485.0 L943.8 481.7Z" fill="#111" stroke="#111" stroke-width="10" stroke-linejoin="round" stroke-linecap="round"/>
  <path d="M819.8 488.5 L818.2 482.9 L851.6 481.7 L852.5 485.0Z" fill="#111" stroke="#111" stroke-width="10" stroke-linejoin="round" stroke-linecap="round"/>
  <path d="M857.1 529.2 L857.1 491.1 L854.4 488.1 L854.4 526.2Z" fill="#111" stroke="#111" stroke-width="10" stroke-linejoin="round" stroke-linecap="round"/>
  <path d="M941.0 526.2 L941.0 488.1 L938.3 491.1 L938.3 529.2Z" fill="#111" stroke="#111" stroke-width="10" stroke-linejoin="round" stroke-linecap="round"/>
  <path d="M975.6 526.6 L972.4 532.0 L972.4 494.0 L975.6 488.5Z" fill="#111" stroke="#111" stroke-width="10" stroke-linejoin="round" stroke-linecap="round"/>
  <path d="M823.0 532.0 L819.8 526.6 L819.8 488.5 L823.0 494.0Z" fill="#111" stroke="#111" stroke-width="10" stroke-linejoin="round" stroke-linecap="round"/>
  <path d="M833.9 542.0 L860.7 531.9 L857.1 529.2 L827.8 537.2Z" fill="#111" stroke="#111" stroke-width="10" stroke-linejoin="round" stroke-linecap="round"/>
  <path d="M967.7 537.2 L938.3 529.2 L934.7 531.9 L961.5 542.0Z" fill="#111" stroke="#111" stroke-width="10" stroke-linejoin="round" stroke-linecap="round"/>
  <path d="M860.7 531.9 L860.7 493.9 L857.1 491.1 L857.1 529.2Z" fill="#111" stroke="#111" stroke-width="10" stroke-linejoin="round" stroke-linecap="round"/>
  <path d="M938.3 529.2 L938.3 491.1 L934.7 493.9 L934.7 531.9Z" fill="#111" stroke="#111" stroke-width="10" stroke-linejoin="round" stroke-linecap="round"/>
  <path d="M975.6 488.5 L972.4 494.0 L941.0 488.1 L942.9 485.0Z" fill="#111" stroke="#111" stroke-width="10" stroke-linejoin="round" stroke-linecap="round"/>
  <path d="M823.0 494.0 L819.8 488.5 L852.5 485.0 L854.4 488.1Z" fill="#111" stroke="#111" stroke-width="10" stroke-linejoin="round" stroke-linecap="round"/>
  <path d="M934.7 531.9 L934.7 493.9 L930.4 496.4 L930.4 534.4Z" fill="#111" stroke="#111" stroke-width="10" stroke-linejoin="round" stroke-linecap="round"/>
  <path d="M865.0 534.4 L865.0 496.4 L860.7 493.9 L860.7 531.9Z" fill="#111" stroke="#111" stroke-width="10" stroke-linejoin="round" stroke-linecap="round"/>
  <path d="M841.4 546.3 L865.0 534.4 L860.7 531.9 L833.9 542.0Z" fill="#111" stroke="#111" stroke-width="10" stroke-linejoin="round" stroke-linecap="round"/>
  <path d="M961.5 542.0 L934.7 531.9 L930.4 534.4 L954.1 546.3Z" fill="#111" stroke="#111" stroke-width="10" stroke-linejoin="round" stroke-linecap="round"/>
  <path d="M815.3 357.0 L1052.7 393.3 L980.1 512.0 L742.7 475.7Z" fill="#fff" stroke="#111" stroke-width="10" stroke-linejoin="round" stroke-linecap="round"/>
  <path d="M972.4 532.0 L967.7 537.2 L967.7 499.2 L972.4 494.0Z" fill="#111" stroke="#111" stroke-width="10" stroke-linejoin="round" stroke-linecap="round"/>
  <path d="M827.8 537.2 L823.0 532.0 L823.0 494.0 L827.8 499.2Z" fill="#111" stroke="#111" stroke-width="10" stroke-linejoin="round" stroke-linecap="round"/>
  <path d="M930.4 534.4 L930.4 496.4 L925.4 498.6 L925.4 536.6Z" fill="#111" stroke="#111" stroke-width="10" stroke-linejoin="round" stroke-linecap="round"/>
  <path d="M870.0 536.6 L870.0 498.6 L865.0 496.4 L865.0 534.4Z" fill="#111" stroke="#111" stroke-width="10" stroke-linejoin="round" stroke-linecap="round"/>
  <path d="M827.8 499.2 L823.0 494.0 L854.4 488.1 L857.1 491.1Z" fill="#111" stroke="#111" stroke-width="10" stroke-linejoin="round" stroke-linecap="round"/>
  <path d="M972.4 494.0 L967.7 499.2 L938.3 491.1 L941.0 488.1Z" fill="#111" stroke="#111" stroke-width="10" stroke-linejoin="round" stroke-linecap="round"/>
  <path d="M954.1 546.3 L930.4 534.4 L925.4 536.6 L945.5 550.0Z" fill="#111" stroke="#111" stroke-width="10" stroke-linejoin="round" stroke-linecap="round"/>
  <path d="M849.9 550.0 L870.0 536.6 L865.0 534.4 L841.4 546.3Z" fill="#111" stroke="#111" stroke-width="10" stroke-linejoin="round" stroke-linecap="round"/>
  <path d="M925.4 536.6 L925.4 498.6 L919.9 500.3 L919.9 538.4Z" fill="#111" stroke="#111" stroke-width="10" stroke-linejoin="round" stroke-linecap="round"/>
  <path d="M875.6 538.4 L875.6 500.3 L870.0 498.6 L870.0 536.6Z" fill="#111" stroke="#111" stroke-width="10" stroke-linejoin="round" stroke-linecap="round"/>
  <path d="M919.9 538.4 L919.9 500.3 L913.9 501.7 L913.9 539.7Z" fill="#111" stroke="#111" stroke-width="10" stroke-linejoin="round" stroke-linecap="round"/>
  <path d="M881.6 539.7 L881.6 501.7 L875.6 500.3 L875.6 538.4Z" fill="#111" stroke="#111" stroke-width="10" stroke-linejoin="round" stroke-linecap="round"/>
  <path d="M833.9 542.0 L827.8 537.2 L827.8 499.2 L833.9 503.9Z" fill="#111" stroke="#111" stroke-width="10" stroke-linejoin="round" stroke-linecap="round"/>
  <path d="M967.7 537.2 L961.5 542.0 L961.5 503.9 L967.7 499.2Z" fill="#111" stroke="#111" stroke-width="10" stroke-linejoin="round" stroke-linecap="round"/>
  <path d="M859.5 553.1 L875.6 538.4 L870.0 536.6 L849.9 550.0Z" fill="#111" stroke="#111" stroke-width="10" stroke-linejoin="round" stroke-linecap="round"/>
  <path d="M945.5 550.0 L925.4 536.6 L919.9 538.4 L935.9 553.1Z" fill="#111" stroke="#111" stroke-width="10" stroke-linejoin="round" stroke-linecap="round"/>
  <path d="M833.9 503.9 L827.8 499.2 L857.1 491.1 L860.7 493.9Z" fill="#111" stroke="#111" stroke-width="10" stroke-linejoin="round" stroke-linecap="round"/>
  <path d="M967.7 499.2 L961.5 503.9 L934.7 493.9 L938.3 491.1Z" fill="#111" stroke="#111" stroke-width="10" stroke-linejoin="round" stroke-linecap="round"/>
  <path d="M913.9 539.7 L913.9 501.7 L907.5 502.6 L907.5 540.7Z" fill="#111" stroke="#111" stroke-width="10" stroke-linejoin="round" stroke-linecap="round"/>
  <path d="M887.9 540.7 L887.9 502.6 L881.6 501.7 L881.6 539.7Z" fill="#111" stroke="#111" stroke-width="10" stroke-linejoin="round" stroke-linecap="round"/>
  <path d="M907.5 540.7 L907.5 502.6 L901.0 503.1 L901.0 541.1Z" fill="#111" stroke="#111" stroke-width="10" stroke-linejoin="round" stroke-linecap="round"/>
  <path d="M894.4 541.1 L894.4 503.1 L887.9 502.6 L887.9 540.7Z" fill="#111" stroke="#111" stroke-width="10" stroke-linejoin="round" stroke-linecap="round"/>
  <path d="M901.0 541.1 L901.0 503.1 L894.4 503.1 L894.4 541.1Z" fill="#111" stroke="#111" stroke-width="10" stroke-linejoin="round" stroke-linecap="round"/>
  <path d="M935.9 553.1 L919.9 538.4 L913.9 539.7 L925.6 555.4Z" fill="#111" stroke="#111" stroke-width="10" stroke-linejoin="round" stroke-linecap="round"/>
  <path d="M869.9 555.4 L881.6 539.7 L875.6 538.4 L859.5 553.1Z" fill="#111" stroke="#111" stroke-width="10" stroke-linejoin="round" stroke-linecap="round"/>
  <path d="M925.6 555.4 L913.9 539.7 L907.5 540.7 L914.6 557.0Z" fill="#111" stroke="#111" stroke-width="10" stroke-linejoin="round" stroke-linecap="round"/>
  <path d="M880.8 557.0 L887.9 540.7 L881.6 539.7 L869.9 555.4Z" fill="#111" stroke="#111" stroke-width="10" stroke-linejoin="round" stroke-linecap="round"/>
  <path d="M961.5 503.9 L954.1 508.2 L930.4 496.4 L934.7 493.9Z" fill="#111" stroke="#111" stroke-width="10" stroke-linejoin="round" stroke-linecap="round"/>
  <path d="M841.4 508.2 L833.9 503.9 L860.7 493.9 L865.0 496.4Z" fill="#111" stroke="#111" stroke-width="10" stroke-linejoin="round" stroke-linecap="round"/>
  <path d="M841.4 546.3 L833.9 542.0 L833.9 503.9 L841.4 508.2Z" fill="#111" stroke="#111" stroke-width="10" stroke-linejoin="round" stroke-linecap="round"/>
  <path d="M961.5 542.0 L954.1 546.3 L954.1 508.2 L961.5 503.9Z" fill="#111" stroke="#111" stroke-width="10" stroke-linejoin="round" stroke-linecap="round"/>
  <path d="M914.6 557.0 L907.5 540.7 L901.0 541.1 L903.4 557.8Z" fill="#111" stroke="#111" stroke-width="10" stroke-linejoin="round" stroke-linecap="round"/>
  <path d="M892.0 557.8 L894.4 541.1 L887.9 540.7 L880.8 557.0Z" fill="#111" stroke="#111" stroke-width="10" stroke-linejoin="round" stroke-linecap="round"/>
  <path d="M903.4 557.8 L901.0 541.1 L894.4 541.1 L892.0 557.8Z" fill="#111" stroke="#111" stroke-width="10" stroke-linejoin="round" stroke-linecap="round"/>
  <path d="M954.1 508.2 L945.5 512.0 L925.4 498.6 L930.4 496.4Z" fill="#111" stroke="#111" stroke-width="10" stroke-linejoin="round" stroke-linecap="round"/>
  <path d="M849.9 512.0 L841.4 508.2 L865.0 496.4 L870.0 498.6Z" fill="#111" stroke="#111" stroke-width="10" stroke-linejoin="round" stroke-linecap="round"/>
  <path d="M849.9 550.0 L841.4 546.3 L841.4 508.2 L849.9 512.0Z" fill="#111" stroke="#111" stroke-width="10" stroke-linejoin="round" stroke-linecap="round"/>
  <path d="M954.1 546.3 L945.5 550.0 L945.5 512.0 L954.1 508.2Z" fill="#111" stroke="#111" stroke-width="10" stroke-linejoin="round" stroke-linecap="round"/>
  <path d="M945.5 512.0 L935.9 515.0 L919.9 500.3 L925.4 498.6Z" fill="#111" stroke="#111" stroke-width="10" stroke-linejoin="round" stroke-linecap="round"/>
  <path d="M859.5 515.0 L849.9 512.0 L870.0 498.6 L875.6 500.3Z" fill="#111" stroke="#111" stroke-width="10" stroke-linejoin="round" stroke-linecap="round"/>
  <path d="M935.9 515.0 L925.6 517.4 L913.9 501.7 L919.9 500.3Z" fill="#111" stroke="#111" stroke-width="10" stroke-linejoin="round" stroke-linecap="round"/>
  <path d="M869.9 517.4 L859.5 515.0 L875.6 500.3 L881.6 501.7Z" fill="#111" stroke="#111" stroke-width="10" stroke-linejoin="round" stroke-linecap="round"/>
  <path d="M945.5 550.0 L935.9 553.1 L935.9 515.0 L945.5 512.0Z" fill="#111" stroke="#111" stroke-width="10" stroke-linejoin="round" stroke-linecap="round"/>
  <path d="M859.5 553.1 L849.9 550.0 L849.9 512.0 L859.5 515.0Z" fill="#111" stroke="#111" stroke-width="10" stroke-linejoin="round" stroke-linecap="round"/>
  <path d="M925.6 517.4 L914.6 519.0 L907.5 502.6 L913.9 501.7Z" fill="#111" stroke="#111" stroke-width="10" stroke-linejoin="round" stroke-linecap="round"/>
  <path d="M880.8 519.0 L869.9 517.4 L881.6 501.7 L887.9 502.6Z" fill="#111" stroke="#111" stroke-width="10" stroke-linejoin="round" stroke-linecap="round"/>
  <path d="M914.6 519.0 L903.4 519.8 L901.0 503.1 L907.5 502.6Z" fill="#111" stroke="#111" stroke-width="10" stroke-linejoin="round" stroke-linecap="round"/>
  <path d="M892.0 519.8 L880.8 519.0 L887.9 502.6 L894.4 503.1Z" fill="#111" stroke="#111" stroke-width="10" stroke-linejoin="round" stroke-linecap="round"/>
  <path d="M935.9 553.1 L925.6 555.4 L925.6 517.4 L935.9 515.0Z" fill="#111" stroke="#111" stroke-width="10" stroke-linejoin="round" stroke-linecap="round"/>
  <path d="M869.9 555.4 L859.5 553.1 L859.5 515.0 L869.9 517.4Z" fill="#111" stroke="#111" stroke-width="10" stroke-linejoin="round" stroke-linecap="round"/>
  <path d="M903.4 519.8 L892.0 519.8 L894.4 503.1 L901.0 503.1Z" fill="#111" stroke="#111" stroke-width="10" stroke-linejoin="round" stroke-linecap="round"/>
  <path d="M925.6 555.4 L914.6 557.0 L914.6 519.0 L925.6 517.4Z" fill="#111" stroke="#111" stroke-width="10" stroke-linejoin="round" stroke-linecap="round"/>
  <path d="M880.8 557.0 L869.9 555.4 L869.9 517.4 L880.8 519.0Z" fill="#111" stroke="#111" stroke-width="10" stroke-linejoin="round" stroke-linecap="round"/>
  <path d="M892.0 557.8 L880.8 557.0 L880.8 519.0 L892.0 519.8Z" fill="#111" stroke="#111" stroke-width="10" stroke-linejoin="round" stroke-linecap="round"/>
  <path d="M914.6 557.0 L903.4 557.8 L903.4 519.8 L914.6 519.0Z" fill="#111" stroke="#111" stroke-width="10" stroke-linejoin="round" stroke-linecap="round"/>
  <path d="M903.4 557.8 L892.0 557.8 L892.0 519.8 L903.4 519.8Z" fill="#111" stroke="#111" stroke-width="10" stroke-linejoin="round" stroke-linecap="round"/>
  <path d="M920.3 868.2 L971.1 893.6 L971.1 718.4 L920.3 693.0Z" fill="#111" stroke="#111" stroke-width="10" stroke-linejoin="round" stroke-linecap="round"/>
  <path d="M980.1 717.2 L742.7 680.9 L742.7 475.7 L980.1 512.0Z" fill="#111" stroke="#111" stroke-width="10" stroke-linejoin="round" stroke-linecap="round"/>
  <path d="M1025.7 878.4 L1070.0 900.6 L1070.0 755.5 L1025.7 733.3Z" fill="#111" stroke="#111" stroke-width="10" stroke-linejoin="round" stroke-linecap="round"/>
  <path d="M920.3 868.2 L726.3 965.2 L777.1 990.6 L971.1 893.6Z" fill="#111" stroke="#111" stroke-width="10" stroke-linejoin="round" stroke-linecap="round"/>
  <path d="M1025.7 878.4 L864.0 959.3 L908.3 981.4 L1070.0 900.6Z" fill="#111" stroke="#111" stroke-width="10" stroke-linejoin="round" stroke-linecap="round"/>
  <path d="M726.3 965.2 L920.3 868.2 L920.3 693.0 L726.3 790.0Z" fill="#111" stroke="#111" stroke-width="10" stroke-linejoin="round" stroke-linecap="round"/>
  <path d="M864.0 959.3 L1025.7 878.4 L1025.7 733.3 L864.0 814.1Z" fill="#111" stroke="#111" stroke-width="10" stroke-linejoin="round" stroke-linecap="round"/>
  <path d="M971.1 893.6 L777.1 990.6 L777.1 815.4 L971.1 718.4Z" fill="#111" stroke="#111" stroke-width="10" stroke-linejoin="round" stroke-linecap="round"/>
  <path d="M1070.0 900.6 L908.3 981.4 L908.3 836.3 L1070.0 755.5Z" fill="#111" stroke="#111" stroke-width="10" stroke-linejoin="round" stroke-linecap="round"/>
  <path d="M1025.7 733.3 L1070.0 755.5 L908.3 836.3 L864.0 814.1Z" fill="#fff" stroke="#111" stroke-width="10" stroke-linejoin="round" stroke-linecap="round"/>
  <path d="M920.3 693.0 L971.1 718.4 L777.1 815.4 L726.3 790.0Z" fill="#fff" stroke="#111" stroke-width="10" stroke-linejoin="round" stroke-linecap="round"/>
  <path d="M908.3 981.4 L864.0 959.3 L864.0 814.1 L908.3 836.3Z" fill="#111" stroke="#111" stroke-width="10" stroke-linejoin="round" stroke-linecap="round"/>
  <path d="M742.3 917.4 L812.9 917.4 L812.9 896.8 L742.3 896.8Z" fill="#111" stroke="#111" stroke-width="10" stroke-linejoin="round" stroke-linecap="round"/>
  <path d="M777.1 990.6 L726.3 965.2 L726.3 790.0 L777.1 815.4Z" fill="#111" stroke="#111" stroke-width="10" stroke-linejoin="round" stroke-linecap="round"/>
  <path d="M812.9 917.4 L742.3 917.4 L742.3 952.6 L812.9 952.6Z" fill="#111" stroke="#111" stroke-width="10" stroke-linejoin="round" stroke-linecap="round"/>
  <path d="M742.3 952.6 L742.3 917.4 L742.3 896.8 L742.3 932.1Z" fill="#111" stroke="#111" stroke-width="10" stroke-linejoin="round" stroke-linecap="round"/>
  <path d="M812.9 917.4 L812.9 952.6 L812.9 932.1 L812.9 896.8Z" fill="#111" stroke="#111" stroke-width="10" stroke-linejoin="round" stroke-linecap="round"/>
  <path d="M812.9 896.8 L812.9 932.1 L742.3 932.1 L742.3 896.8Z" fill="#111" stroke="#111" stroke-width="10" stroke-linejoin="round" stroke-linecap="round"/>
  <path d="M812.9 952.6 L742.3 952.6 L742.3 932.1 L812.9 932.1Z" fill="#111" stroke="#111" stroke-width="10" stroke-linejoin="round" stroke-linecap="round"/>
</svg>
