<?xml version="1.0" encoding="UTF-8"?>
<svg xmlns="http://www.w3.org/2000/svg" xmlns:inkscape="http://www.inkscape.org/namespaces/inkscape" version="1.1" viewBox="0 0 1200 1200" data-artist-master-revision="illustrator-v2" data-genre-pattern="ヒップホップ" data-engine="terra-hiphop-turntable-v2" data-pcm-status="production-injected" data-screenprint-stroke-policy="sqrt-w2-plus-4-v1" data-screenprint-min-stroke="2" stroke-width="2.24">
  <defs>
    <style>
      .cls-1 {
        stroke-width: 8.25px;
      }

      .cls-1, .cls-2, .cls-3, .cls-4, .cls-5, .cls-6 {
        fill: none;
        stroke: #fff;
      }

      .cls-2 {
        stroke-width: 5.39px;
      }

      .cls-3 {
        stroke-width: 4.38px;
      }

      .cls-7 {
        fill: #fff;
      }

      .cls-4 {
        stroke-width: 6.9px;
      }

      .cls-4, .cls-5, .cls-6 {
        stroke-linecap: round;
        stroke-linejoin: round;
      }

      .cls-5 {
        stroke-width: 3.69px;
      }

      .cls-6 {
        stroke-width: 11.77px;
      }
    </style>
  </defs>
  <!-- Generator: Adobe Illustrator 28.7.8, SVG Export Plug-In . SVG Version: 1.2.0 Build 200)  -->
  <g>
    <g id="_レイヤー_1" data-name="レイヤー_1">
      <g id="_x30_0_x5F_BACKGROUND" inkscape:groupmode="layer" inkscape:label="00 BACKGROUND">
        <rect y="0" width="1200" height="1200"/>
      </g>
      <g id="sound_form_surface">
        <g id="_x36_0_x5F_DISPLAY_x5F_GRAIN" inkscape:groupmode="layer" inkscape:label="60 DISPLAY GRAIN">
          <g id="terra_grain_field">
            <circle class="cls-7" cx="798.7" cy="694.6" r="1"/>
            <circle class="cls-7" cx="817.9" cy="683.3" r=".3"/>
            <circle class="cls-7" cx="851.5" cy="681.7" r="1.5"/>
            <circle class="cls-7" cx="873.7" cy="679.6" r=".9"/>
            <circle class="cls-7" cx="201" cy="674.1" r=".4"/>
            <circle class="cls-7" cx="205" cy="541.6" r=".9"/>
            <circle class="cls-7" cx="219" cy="542.5" r="1.4"/>
            <circle class="cls-7" cx="251.3" cy="534.4" r="1.3"/>
            <circle class="cls-7" cx="274.5" cy="534.8" r=".6"/>
            <circle class="cls-7" cx="315.6" cy="531.9" r=".4"/>
            <circle class="cls-7" cx="317.8" cy="527.6" r="1.1"/>
            <circle class="cls-7" cx="341.2" cy="527.1" r="1.3"/>
            <circle class="cls-7" cx="396.3" cy="518.4" r="1.2"/>
            <circle class="cls-7" cx="409.2" cy="528.6" r="1.2"/>
            <circle class="cls-7" cx="420.8" cy="524.7" r="1.1"/>
            <circle class="cls-7" cx="460.3" cy="538" r="1.3"/>
            <circle class="cls-7" cx="496.2" cy="539.9" r=".6"/>
            <circle class="cls-7" cx="505.6" cy="544.7" r=".9"/>
            <circle class="cls-7" cx="528.5" cy="540.2" r=".6"/>
            <circle class="cls-7" cx="560.8" cy="556.1" r=".5"/>
            <circle class="cls-7" cx="587.2" cy="555.1" r=".9"/>
            <circle class="cls-7" cx="613.2" cy="563.7" r="1.5"/>
            <circle class="cls-7" cx="635" cy="565.4" r=".8"/>
            <circle class="cls-7" cx="659.3" cy="573.6" r=".6"/>
            <circle class="cls-7" cx="693.1" cy="574.6" r="1.4"/>
            <circle class="cls-7" cx="709.7" cy="574.2" r="1.2"/>
            <circle class="cls-7" cx="731.4" cy="575.4" r="1.2"/>
            <circle class="cls-7" cx="757.3" cy="577.4" r=".7"/>
            <circle class="cls-7" cx="778" cy="579.4" r=".7"/>
            <circle class="cls-7" cx="803.4" cy="577.5" r=".8"/>
            <circle class="cls-7" cx="838.4" cy="572.2" r=".8"/>
            <circle class="cls-7" cx="863.5" cy="568.2" r="1.2"/>
            <circle class="cls-7" cx="887.6" cy="569" r="1"/>
            <circle class="cls-7" cx="905.5" cy="557.4" r=".4"/>
            <circle class="cls-7" cx="236.5" cy="552.4" r=".7"/>
            <circle class="cls-7" cx="255.7" cy="559.9" r="1"/>
            <circle class="cls-7" cx="278.3" cy="554.6" r="1.6"/>
            <circle class="cls-7" cx="305.6" cy="550" r=".3"/>
            <circle class="cls-7" cx="326.8" cy="547.2" r=".6"/>
            <circle class="cls-7" cx="357.5" cy="535.5" r=".6"/>
            <circle class="cls-7" cx="380.2" cy="541.2" r=".5"/>
            <circle class="cls-7" cx="400.5" cy="538.3" r="1.5"/>
            <circle class="cls-7" cx="433" cy="540.5" r=".4"/>
            <circle class="cls-7" cx="448.7" cy="539.5" r="1.6"/>
            <circle class="cls-7" cx="475.2" cy="547" r="1.3"/>
            <circle class="cls-7" cx="499.6" cy="545.3" r="1.2"/>
            <circle class="cls-7" cx="528.2" cy="555.5" r=".5"/>
            <circle class="cls-7" cx="547.3" cy="556.7" r=".6"/>
            <circle class="cls-7" cx="579.3" cy="570" r=".5"/>
            <circle class="cls-7" cx="588.8" cy="572.5" r=".9"/>
            <circle class="cls-7" cx="617.3" cy="577" r="1.5"/>
            <circle class="cls-7" cx="641.5" cy="585" r="1"/>
            <circle class="cls-7" cx="672.3" cy="591.3" r="1.1"/>
            <circle class="cls-7" cx="675.6" cy="598.1" r=".6"/>
            <circle class="cls-7" cx="697.3" cy="598.9" r=".7"/>
            <circle class="cls-7" cx="744.7" cy="595.6" r=".5"/>
            <circle class="cls-7" cx="774.1" cy="594.3" r="1.3"/>
            <circle class="cls-7" cx="794.5" cy="593" r="1.6"/>
            <circle class="cls-7" cx="827.3" cy="587.5" r="1"/>
            <circle class="cls-7" cx="837.1" cy="582.3" r=".5"/>
            <circle class="cls-7" cx="861.3" cy="579.5" r=".8"/>
            <circle class="cls-7" cx="895.4" cy="581.5" r=".5"/>
            <circle class="cls-7" cx="217.3" cy="574" r="1.4"/>
            <circle class="cls-7" cx="232.6" cy="575.2" r=".8"/>
            <circle class="cls-7" cx="264.6" cy="566.1" r=".7"/>
            <circle class="cls-7" cx="294.9" cy="557.1" r="1"/>
            <circle class="cls-7" cx="317.5" cy="561.7" r="1"/>
            <circle class="cls-7" cx="339.7" cy="552.4" r=".9"/>
            <circle class="cls-7" cx="358.8" cy="562.9" r=".6"/>
            <circle class="cls-7" cx="382.4" cy="563" r=".7"/>
            <circle class="cls-7" cx="411.5" cy="561.5" r="1.5"/>
            <circle class="cls-7" cx="429.1" cy="560.5" r="1.3"/>
            <circle class="cls-7" cx="458.6" cy="570" r=".9"/>
            <circle class="cls-7" cx="489.5" cy="570.1" r=".5"/>
            <circle class="cls-7" cx="512.7" cy="570.9" r=".7"/>
            <circle class="cls-7" cx="533.8" cy="582.9" r="1.5"/>
            <circle class="cls-7" cx="555.9" cy="590.5" r=".7"/>
            <circle class="cls-7" cx="579.9" cy="587.9" r="1.1"/>
            <circle class="cls-7" cx="606.8" cy="597.8" r="1.7"/>
            <circle class="cls-7" cx="627.2" cy="596.2" r=".4"/>
            <circle class="cls-7" cx="656.3" cy="601.9" r=".4"/>
            <circle class="cls-7" cx="679.1" cy="611.3" r="1.2"/>
            <circle class="cls-7" cx="703.2" cy="612.6" r="1.5"/>
            <circle class="cls-7" cx="728.5" cy="612" r="1.3"/>
            <circle class="cls-7" cx="749.8" cy="609.2" r="1.7"/>
            <circle class="cls-7" cx="776" cy="609.8" r="1.6"/>
            <circle class="cls-7" cx="812.2" cy="607.5" r="1.3"/>
            <circle class="cls-7" cx="851.8" cy="609.1" r=".7"/>
            <circle class="cls-7" cx="853.2" cy="604.5" r=".8"/>
            <circle class="cls-7" cx="899.8" cy="597.8" r=".4"/>
            <circle class="cls-7" cx="935.1" cy="584.4" r="1.6"/>
            <circle class="cls-7" cx="250.5" cy="592.2" r="1.7"/>
            <circle class="cls-7" cx="266.1" cy="593.1" r=".5"/>
            <circle class="cls-7" cx="303.9" cy="584.7" r=".6"/>
            <circle class="cls-7" cx="326.5" cy="578.6" r=".7"/>
            <circle class="cls-7" cx="344.9" cy="575.3" r="1.5"/>
            <circle class="cls-7" cx="381.2" cy="571.1" r="1.5"/>
            <circle class="cls-7" cx="408.7" cy="572.9" r="1.5"/>
            <circle class="cls-7" cx="418.9" cy="570.3" r="1.5"/>
            <circle class="cls-7" cx="448.6" cy="570.6" r=".9"/>
            <circle class="cls-7" cx="470.2" cy="575" r=".6"/>
            <circle class="cls-7" cx="502.4" cy="576.8" r="1.7"/>
            <circle class="cls-7" cx="520" cy="582.3" r=".4"/>
            <circle class="cls-7" cx="541.8" cy="592" r="1.3"/>
            <circle class="cls-7" cx="577.2" cy="595.3" r=".8"/>
            <circle class="cls-7" cx="599.5" cy="593.7" r="1"/>
            <circle class="cls-7" cx="621.6" cy="601.4" r="1.7"/>
            <circle class="cls-7" cx="646.3" cy="614.3" r=".7"/>
            <circle class="cls-7" cx="667.4" cy="608.7" r=".5"/>
            <circle class="cls-7" cx="688.1" cy="611.7" r="1"/>
            <circle class="cls-7" cx="721.5" cy="623.4" r="1.4"/>
            <circle class="cls-7" cx="742.2" cy="618.3" r="1"/>
            <circle class="cls-7" cx="765.4" cy="625" r="1.1"/>
            <circle class="cls-7" cx="787.1" cy="622.2" r=".9"/>
            <circle class="cls-7" cx="816.4" cy="628.3" r="1.2"/>
            <circle class="cls-7" cx="835.8" cy="626.4" r=".7"/>
            <circle class="cls-7" cx="857" cy="619.7" r="1.6"/>
            <circle class="cls-7" cx="912.7" cy="609.1" r="1.5"/>
            <circle class="cls-7" cx="921.4" cy="605.9" r="1.7"/>
            <circle class="cls-7" cx="232.8" cy="605.8" r=".4"/>
            <circle class="cls-7" cx="254.9" cy="605.2" r=".8"/>
            <circle class="cls-7" cx="275.8" cy="596.9" r="1.5"/>
            <circle class="cls-7" cx="302.5" cy="595.8" r="1.3"/>
            <circle class="cls-7" cx="318.5" cy="590.4" r=".6"/>
            <circle class="cls-7" cx="353.1" cy="584.8" r=".6"/>
            <circle class="cls-7" cx="377.8" cy="581.7" r="1.6"/>
            <circle class="cls-7" cx="395.6" cy="583" r="1.4"/>
            <circle class="cls-7" cx="423.5" cy="584.6" r="1"/>
            <circle class="cls-7" cx="445.5" cy="592.5" r=".7"/>
            <circle class="cls-7" cx="474.1" cy="594.9" r="1"/>
            <circle class="cls-7" cx="488.5" cy="590" r="1.4"/>
            <circle class="cls-7" cx="512.4" cy="597.5" r="1.7"/>
            <circle class="cls-7" cx="543.4" cy="607.1" r="1.6"/>
            <circle class="cls-7" cx="572.2" cy="607" r="1.4"/>
            <circle class="cls-7" cx="591.5" cy="619.9" r="1.6"/>
            <circle class="cls-7" cx="614.1" cy="619.7" r=".8"/>
            <circle class="cls-7" cx="647.3" cy="626.3" r="1.5"/>
            <circle class="cls-7" cx="659.8" cy="630.7" r=".5"/>
            <circle class="cls-7" cx="683.5" cy="633.2" r=".5"/>
            <circle class="cls-7" cx="735.3" cy="633.5" r=".5"/>
            <circle class="cls-7" cx="742.4" cy="634.3" r=".6"/>
            <circle class="cls-7" cx="763.3" cy="639.5" r=".6"/>
            <circle class="cls-7" cx="801.2" cy="633.5" r=".4"/>
            <circle class="cls-7" cx="829.8" cy="624.7" r=".6"/>
            <circle class="cls-7" cx="852.3" cy="628.6" r=".9"/>
            <circle class="cls-7" cx="868.3" cy="622.3" r="1.2"/>
            <circle class="cls-7" cx="907.2" cy="616.3" r="1.4"/>
            <circle class="cls-7" cx="930.9" cy="611" r=".8"/>
            <circle class="cls-7" cx="279.2" cy="605.3" r="1.3"/>
            <circle class="cls-7" cx="302.4" cy="600.4" r="1"/>
            <circle class="cls-7" cx="322" cy="592.6" r=".9"/>
            <circle class="cls-7" cx="353.6" cy="589.9" r="1.2"/>
            <circle class="cls-7" cx="379.5" cy="585.5" r="1"/>
            <circle class="cls-7" cx="401.3" cy="586" r="1.5"/>
            <circle class="cls-7" cx="415.9" cy="582.1" r="1"/>
            <circle class="cls-7" cx="465" cy="583.7" r="1.2"/>
            <circle class="cls-7" cx="489.4" cy="588.8" r="1.5"/>
            <circle class="cls-7" cx="516.3" cy="592.3" r=".7"/>
            <circle class="cls-7" cx="544.7" cy="602.1" r=".8"/>
            <circle class="cls-7" cx="562.1" cy="605.5" r=".4"/>
            <circle class="cls-7" cx="584.6" cy="604.4" r="1.4"/>
            <circle class="cls-7" cx="607.2" cy="612" r="1.7"/>
            <circle class="cls-7" cx="641.5" cy="619.8" r=".9"/>
            <circle class="cls-7" cx="653.5" cy="628.6" r="1"/>
            <circle class="cls-7" cx="675.4" cy="634.9" r="1"/>
            <circle class="cls-7" cx="698.7" cy="628.8" r=".9"/>
            <circle class="cls-7" cx="723.8" cy="628.7" r="1"/>
            <circle class="cls-7" cx="754.8" cy="631.3" r="1.2"/>
            <circle class="cls-7" cx="765.3" cy="633.3" r="1.6"/>
            <circle class="cls-7" cx="796.4" cy="629.9" r="1.6"/>
            <circle class="cls-7" cx="830.4" cy="630" r="1"/>
            <circle class="cls-7" cx="846.3" cy="623.5" r="1"/>
            <circle class="cls-7" cx="890.8" cy="621.4" r="1.4"/>
            <circle class="cls-7" cx="889.4" cy="614.2" r="1"/>
            <circle class="cls-7" cx="222.2" cy="611.6" r="1.7"/>
            <circle class="cls-7" cx="237.5" cy="607" r=".6"/>
            <circle class="cls-7" cx="292" cy="603.3" r="1.2"/>
            <circle class="cls-7" cx="286.8" cy="602.2" r=".5"/>
            <circle class="cls-7" cx="305.5" cy="593.3" r=".7"/>
            <circle class="cls-7" cx="354.8" cy="592.5" r=".4"/>
            <circle class="cls-7" cx="368.5" cy="594.9" r="1.4"/>
            <circle class="cls-7" cx="383.3" cy="585" r=".5"/>
            <circle class="cls-7" cx="406.9" cy="591.6" r="1.1"/>
            <circle class="cls-7" cx="448.7" cy="584.7" r="1.6"/>
            <circle class="cls-7" cx="456.7" cy="594.8" r="1.2"/>
            <circle class="cls-7" cx="515.2" cy="604.7" r=".7"/>
            <circle class="cls-7" cx="521.8" cy="606.4" r=".9"/>
            <circle class="cls-7" cx="543.3" cy="611" r="1"/>
            <circle class="cls-7" cx="576" cy="621.6" r="1.4"/>
            <circle class="cls-7" cx="617.5" cy="626" r=".7"/>
            <circle class="cls-7" cx="640.7" cy="630" r="1"/>
            <circle class="cls-7" cx="690.3" cy="633.3" r="1.6"/>
            <circle class="cls-7" cx="716.5" cy="636" r="1.1"/>
            <circle class="cls-7" cx="738.7" cy="629.2" r="1.4"/>
            <circle class="cls-7" cx="783.6" cy="632.1" r="1.4"/>
            <circle class="cls-7" cx="791.3" cy="629.3" r="1"/>
            <circle class="cls-7" cx="811.4" cy="623.1" r="1.4"/>
            <circle class="cls-7" cx="847.9" cy="618.8" r="1.3"/>
            <circle class="cls-7" cx="875.2" cy="620.7" r="1.4"/>
            <circle class="cls-7" cx="884.9" cy="612" r="1"/>
            <circle class="cls-7" cx="208.6" cy="609.2" r="1.2"/>
            <circle class="cls-7" cx="247.9" cy="598.7" r=".6"/>
            <circle class="cls-7" cx="276.1" cy="601.4" r="1.6"/>
            <circle class="cls-7" cx="271.5" cy="591.9" r="1"/>
            <circle class="cls-7" cx="325" cy="586.6" r="1.1"/>
            <circle class="cls-7" cx="350.6" cy="586.8" r="1.6"/>
            <circle class="cls-7" cx="392.9" cy="583.6" r=".7"/>
            <circle class="cls-7" cx="423.1" cy="585.5" r=".5"/>
            <circle class="cls-7" cx="443.5" cy="590.8" r=".6"/>
            <circle class="cls-7" cx="461.9" cy="587.9" r="1.4"/>
            <circle class="cls-7" cx="498.2" cy="596" r="1.3"/>
            <circle class="cls-7" cx="540.6" cy="598.7" r=".4"/>
            <circle class="cls-7" cx="588.7" cy="617.4" r=".5"/>
            <circle class="cls-7" cx="606.9" cy="619.7" r="1.6"/>
            <circle class="cls-7" cx="686.8" cy="631.5" r="1.2"/>
            <circle class="cls-7" cx="708" cy="626.7" r=".9"/>
            <circle class="cls-7" cx="734.1" cy="637.1" r=".4"/>
            <circle class="cls-7" cx="750.5" cy="635.7" r="1.6"/>
            <circle class="cls-7" cx="782.6" cy="630.1" r=".5"/>
            <circle class="cls-7" cx="803.4" cy="628.1" r="1"/>
            <circle class="cls-7" cx="822.9" cy="620.2" r="1.1"/>
            <circle class="cls-7" cx="849.6" cy="619.6" r="1.4"/>
            <circle class="cls-7" cx="871.8" cy="616.2" r="1.2"/>
            <circle class="cls-7" cx="899.1" cy="604.5" r=".4"/>
            <circle class="cls-7" cx="315.4" cy="591.4" r="1.2"/>
            <circle class="cls-7" cx="343.8" cy="586.5" r="1.4"/>
            <circle class="cls-7" cx="364.3" cy="579.3" r="1.3"/>
            <circle class="cls-7" cx="385.9" cy="586.5" r=".7"/>
            <circle class="cls-7" cx="407.8" cy="589.7" r=".5"/>
            <circle class="cls-7" cx="432.4" cy="583.5" r="1.5"/>
            <circle class="cls-7" cx="436.3" cy="595.7" r="1.4"/>
            <circle class="cls-7" cx="485.6" cy="591.8" r=".7"/>
            <circle class="cls-7" cx="509.1" cy="593.5" r="1"/>
            <circle class="cls-7" cx="536" cy="605" r=".9"/>
            <circle class="cls-7" cx="566.9" cy="617" r="1.2"/>
            <circle class="cls-7" cx="597.5" cy="613.7" r=".9"/>
            <circle class="cls-7" cx="605.5" cy="628" r="1.2"/>
            <circle class="cls-7" cx="625.1" cy="626.1" r=".7"/>
            <circle class="cls-7" cx="706.3" cy="635.2" r=".9"/>
            <circle class="cls-7" cx="722" cy="629.3" r=".7"/>
            <circle class="cls-7" cx="770.7" cy="627.4" r="1.4"/>
            <circle class="cls-7" cx="774.3" cy="633.9" r="1.2"/>
            <circle class="cls-7" cx="798.6" cy="626" r="1.2"/>
            <circle class="cls-7" cx="829.2" cy="619.5" r="1.5"/>
            <circle class="cls-7" cx="845.4" cy="612.2" r=".5"/>
            <circle class="cls-7" cx="192.6" cy="613.8" r="1.5"/>
            <circle class="cls-7" cx="217.6" cy="609.3" r="1.5"/>
            <circle class="cls-7" cx="233.5" cy="601.1" r="1.1"/>
            <circle class="cls-7" cx="260.5" cy="593.5" r="1.2"/>
            <circle class="cls-7" cx="291.1" cy="591.7" r="1"/>
            <circle class="cls-7" cx="330.9" cy="590.9" r="1.4"/>
            <circle class="cls-7" cx="357.2" cy="585.6" r=".5"/>
            <circle class="cls-7" cx="384.6" cy="593.7" r="1.3"/>
            <circle class="cls-7" cx="415.7" cy="595" r=".5"/>
            <circle class="cls-7" cx="468.5" cy="606.6" r="1.6"/>
            <circle class="cls-7" cx="491" cy="598.8" r=".9"/>
            <circle class="cls-7" cx="511" cy="613.5" r="1.4"/>
            <circle class="cls-7" cx="527.5" cy="618.9" r="1.2"/>
            <circle class="cls-7" cx="568.1" cy="625.8" r="1.3"/>
            <circle class="cls-7" cx="584.3" cy="626.4" r=".5"/>
            <circle class="cls-7" cx="603.2" cy="633.3" r="1.1"/>
            <circle class="cls-7" cx="642.2" cy="638.3" r="1.5"/>
            <circle class="cls-7" cx="667" cy="632.5" r=".5"/>
            <circle class="cls-7" cx="688.7" cy="641.2" r="1.6"/>
            <circle class="cls-7" cx="710.9" cy="640.6" r=".8"/>
            <circle class="cls-7" cx="756" cy="635.4" r="1"/>
            <circle class="cls-7" cx="782.9" cy="636.7" r="1.6"/>
            <circle class="cls-7" cx="789" cy="634.6" r=".8"/>
            <circle class="cls-7" cx="858.2" cy="631.1" r=".5"/>
            <circle class="cls-7" cx="882.9" cy="623.7" r=".8"/>
            <circle class="cls-7" cx="224.9" cy="619.2" r="1.6"/>
            <circle class="cls-7" cx="261.2" cy="612.3" r=".4"/>
            <circle class="cls-7" cx="274.7" cy="606.5" r="1.5"/>
            <circle class="cls-7" cx="305.5" cy="597.6" r=".8"/>
            <circle class="cls-7" cx="328.1" cy="603.4" r=".5"/>
            <circle class="cls-7" cx="348.3" cy="599" r="1.1"/>
            <circle class="cls-7" cx="369.2" cy="601" r="1.3"/>
            <circle class="cls-7" cx="403.4" cy="600.3" r="1"/>
            <circle class="cls-7" cx="424.1" cy="600" r="1.1"/>
            <circle class="cls-7" cx="444" cy="602" r=".9"/>
            <circle class="cls-7" cx="502.2" cy="607.9" r="1.4"/>
            <circle class="cls-7" cx="527.1" cy="605.9" r=".7"/>
            <circle class="cls-7" cx="595.6" cy="622.8" r="1.5"/>
            <circle class="cls-7" cx="597.8" cy="630.1" r="1.2"/>
            <circle class="cls-7" cx="622.6" cy="638.1" r=".7"/>
            <circle class="cls-7" cx="674.2" cy="643.2" r="1.2"/>
            <circle class="cls-7" cx="692" cy="647.2" r="1.3"/>
            <circle class="cls-7" cx="693.4" cy="645" r=".8"/>
            <circle class="cls-7" cx="725" cy="648.6" r="1.5"/>
            <circle class="cls-7" cx="773.3" cy="650.2" r="1.4"/>
            <circle class="cls-7" cx="772.5" cy="641.6" r=".8"/>
            <circle class="cls-7" cx="785.5" cy="641" r=".8"/>
            <circle class="cls-7" cx="822.4" cy="638.7" r=".4"/>
            <circle class="cls-7" cx="844.1" cy="633.8" r=".9"/>
            <circle class="cls-7" cx="861" cy="639.6" r="1.5"/>
            <circle class="cls-7" cx="893.3" cy="625.9" r="1"/>
            <circle class="cls-7" cx="222.6" cy="629.2" r="1.2"/>
            <circle class="cls-7" cx="239" cy="626.2" r=".7"/>
            <circle class="cls-7" cx="273.8" cy="624.5" r=".3"/>
            <circle class="cls-7" cx="314.3" cy="618" r="1"/>
            <circle class="cls-7" cx="313.6" cy="609.5" r=".8"/>
            <circle class="cls-7" cx="352.8" cy="604.4" r="1"/>
            <circle class="cls-7" cx="384.7" cy="604.9" r=".8"/>
            <circle class="cls-7" cx="401" cy="609.6" r="1.3"/>
            <circle class="cls-7" cx="426.6" cy="603" r="1.4"/>
            <circle class="cls-7" cx="464.9" cy="606.7" r=".5"/>
            <circle class="cls-7" cx="484.3" cy="614.1" r=".8"/>
            <circle class="cls-7" cx="514.1" cy="615.5" r="1.5"/>
            <circle class="cls-7" cx="537.8" cy="615.3" r="1.2"/>
            <circle class="cls-7" cx="590.1" cy="634.5" r=".5"/>
            <circle class="cls-7" cx="610.9" cy="637.4" r="1.1"/>
            <circle class="cls-7" cx="631.6" cy="645.3" r="1.2"/>
            <circle class="cls-7" cx="659.3" cy="645.9" r=".5"/>
            <circle class="cls-7" cx="678.6" cy="650.1" r=".5"/>
            <circle class="cls-7" cx="709.8" cy="652.2" r=".5"/>
            <circle class="cls-7" cx="740" cy="660.7" r="1.5"/>
            <circle class="cls-7" cx="754.5" cy="662.1" r="1.1"/>
            <circle class="cls-7" cx="778" cy="653" r="1.5"/>
            <circle class="cls-7" cx="812.1" cy="652.2" r=".6"/>
            <circle class="cls-7" cx="839" cy="654.8" r="1.3"/>
            <circle class="cls-7" cx="851.6" cy="647" r="1.1"/>
            <circle class="cls-7" cx="883.6" cy="651.7" r=".9"/>
            <circle class="cls-7" cx="906.7" cy="636.1" r="1.6"/>
            <circle class="cls-7" cx="934.4" cy="631.7" r=".9"/>
            <circle class="cls-7" cx="252.6" cy="633" r=".8"/>
            <circle class="cls-7" cx="302.2" cy="622" r=".9"/>
            <circle class="cls-7" cx="326" cy="623.7" r="1.6"/>
            <circle class="cls-7" cx="370.5" cy="617.1" r=".8"/>
            <circle class="cls-7" cx="378.4" cy="615.5" r="1"/>
            <circle class="cls-7" cx="402.6" cy="620.9" r=".6"/>
            <circle class="cls-7" cx="421" cy="620.5" r="1.4"/>
            <circle class="cls-7" cx="445" cy="624.4" r="1.3"/>
            <circle class="cls-7" cx="468.7" cy="626" r="1.5"/>
            <circle class="cls-7" cx="493.7" cy="621.4" r="1.7"/>
            <circle class="cls-7" cx="520.2" cy="632.8" r="1.5"/>
            <circle class="cls-7" cx="542.5" cy="635.1" r=".4"/>
            <circle class="cls-7" cx="571.4" cy="645" r="1.7"/>
            <circle class="cls-7" cx="588" cy="641.3" r=".5"/>
            <circle class="cls-7" cx="615.6" cy="657" r=".4"/>
            <circle class="cls-7" cx="642.8" cy="654.3" r="1.5"/>
            <circle class="cls-7" cx="667.1" cy="661.9" r="1"/>
            <circle class="cls-7" cx="687.3" cy="659" r="1.2"/>
            <circle class="cls-7" cx="709.9" cy="663.8" r=".6"/>
            <circle class="cls-7" cx="735.2" cy="671" r="1.1"/>
            <circle class="cls-7" cx="760" cy="663.5" r="1.1"/>
            <circle class="cls-7" cx="789.7" cy="667.7" r=".4"/>
            <circle class="cls-7" cx="815.7" cy="666.3" r=".7"/>
            <circle class="cls-7" cx="829.2" cy="658.5" r="1.7"/>
            <circle class="cls-7" cx="856.7" cy="651.5" r=".6"/>
            <circle class="cls-7" cx="909.6" cy="648.6" r=".9"/>
            <circle class="cls-7" cx="906" cy="642.7" r="1"/>
            <circle class="cls-7" cx="234.8" cy="647.3" r=".9"/>
            <circle class="cls-7" cx="265.2" cy="641.9" r=".9"/>
            <circle class="cls-7" cx="307.7" cy="632.6" r=".8"/>
            <circle class="cls-7" cx="321.2" cy="632.3" r="1.5"/>
            <circle class="cls-7" cx="336.5" cy="629.1" r=".9"/>
            <circle class="cls-7" cx="381.9" cy="614.9" r=".7"/>
            <circle class="cls-7" cx="426.1" cy="613.6" r="1"/>
            <circle class="cls-7" cx="457.2" cy="627.3" r=".5"/>
            <circle class="cls-7" cx="474.1" cy="627.9" r=".8"/>
            <circle class="cls-7" cx="505.8" cy="621.3" r="1.7"/>
            <circle class="cls-7" cx="525.7" cy="630.8" r="1.3"/>
            <circle class="cls-7" cx="552.2" cy="631.2" r="1"/>
            <circle class="cls-7" cx="573.7" cy="637.6" r="1.2"/>
            <circle class="cls-7" cx="598.3" cy="639.2" r="1.6"/>
            <circle class="cls-7" cx="625.1" cy="652.1" r=".5"/>
            <circle class="cls-7" cx="645.8" cy="654.4" r=".5"/>
            <circle class="cls-7" cx="666.6" cy="655.4" r=".6"/>
            <circle class="cls-7" cx="694.2" cy="658.2" r=".4"/>
            <circle class="cls-7" cx="721.6" cy="670.1" r=".6"/>
            <circle class="cls-7" cx="744.5" cy="667.5" r="1.3"/>
            <circle class="cls-7" cx="766.8" cy="669.6" r="1.2"/>
            <circle class="cls-7" cx="809.4" cy="668.2" r=".9"/>
            <circle class="cls-7" cx="839.2" cy="658.7" r=".8"/>
            <circle class="cls-7" cx="861.6" cy="660.2" r=".4"/>
            <circle class="cls-7" cx="882.2" cy="649.3" r=".9"/>
            <circle class="cls-7" cx="905.5" cy="649.3" r=".6"/>
            <circle class="cls-7" cx="923.5" cy="642.9" r=".3"/>
            <circle class="cls-7" cx="253.8" cy="649.6" r="1.6"/>
            <circle class="cls-7" cx="283.4" cy="639.1" r=".5"/>
            <circle class="cls-7" cx="301" cy="629.4" r=".5"/>
            <circle class="cls-7" cx="302.7" cy="633.9" r=".6"/>
            <circle class="cls-7" cx="344.4" cy="627.4" r="1.5"/>
            <circle class="cls-7" cx="383.6" cy="616" r="1.3"/>
            <circle class="cls-7" cx="395.4" cy="616.3" r="1.2"/>
            <circle class="cls-7" cx="423.8" cy="616" r="1"/>
            <circle class="cls-7" cx="473.9" cy="626.8" r=".4"/>
            <circle class="cls-7" cx="464.5" cy="626.1" r="1.5"/>
            <circle class="cls-7" cx="484.8" cy="636.3" r=".4"/>
            <circle class="cls-7" cx="539.6" cy="642.6" r=".8"/>
            <circle class="cls-7" cx="565.4" cy="641.6" r="1.2"/>
            <circle class="cls-7" cx="589.3" cy="651.8" r="1.2"/>
            <circle class="cls-7" cx="632.9" cy="658.9" r=".6"/>
            <circle class="cls-7" cx="660.6" cy="670" r="1.4"/>
            <circle class="cls-7" cx="685" cy="667.5" r=".4"/>
            <circle class="cls-7" cx="711.8" cy="670.5" r="1.3"/>
            <circle class="cls-7" cx="731.4" cy="665.6" r="1.6"/>
            <circle class="cls-7" cx="755.3" cy="668" r="1.6"/>
            <circle class="cls-7" cx="799.2" cy="661.1" r="1.3"/>
            <circle class="cls-7" cx="853" cy="659.2" r="1.2"/>
            <circle class="cls-7" cx="870" cy="648.9" r="1.4"/>
            <circle class="cls-7" cx="898.9" cy="647" r=".5"/>
            <circle class="cls-7" cx="216.6" cy="640.9" r="1.5"/>
            <circle class="cls-7" cx="272.5" cy="631.4" r="1.6"/>
            <circle class="cls-7" cx="281.8" cy="636" r=".5"/>
            <circle class="cls-7" cx="296.6" cy="631.3" r=".4"/>
            <circle class="cls-7" cx="339.1" cy="622.7" r=".7"/>
            <circle class="cls-7" cx="358.9" cy="618.2" r=".7"/>
            <circle class="cls-7" cx="389.4" cy="617.8" r="1.2"/>
            <circle class="cls-7" cx="392.5" cy="622.9" r="1.7"/>
            <circle class="cls-7" cx="433.1" cy="625.7" r=".8"/>
            <circle class="cls-7" cx="461.6" cy="620.3" r=".4"/>
            <circle class="cls-7" cx="513.8" cy="630.3" r="1.2"/>
            <circle class="cls-7" cx="531" cy="635.5" r=".4"/>
            <circle class="cls-7" cx="550.2" cy="641.7" r="1.5"/>
            <circle class="cls-7" cx="572.1" cy="634.4" r="1.1"/>
            <circle class="cls-7" cx="604.2" cy="646.4" r=".8"/>
            <circle class="cls-7" cx="628.6" cy="655" r=".6"/>
            <circle class="cls-7" cx="679.9" cy="660.9" r=".9"/>
            <circle class="cls-7" cx="716.2" cy="664.5" r=".9"/>
            <circle class="cls-7" cx="767.6" cy="662.3" r="1.6"/>
            <circle class="cls-7" cx="816.6" cy="660.8" r=".6"/>
            <circle class="cls-7" cx="844.5" cy="653.8" r=".5"/>
            <circle class="cls-7" cx="863.7" cy="656" r=".5"/>
            <circle class="cls-7" cx="916.7" cy="646.3" r=".8"/>
            <circle class="cls-7" cx="238" cy="640.3" r="1.6"/>
            <circle class="cls-7" cx="256.8" cy="641.3" r=".8"/>
            <circle class="cls-7" cx="330.3" cy="619.8" r="1.4"/>
            <circle class="cls-7" cx="346.6" cy="618.5" r="1.2"/>
            <circle class="cls-7" cx="451" cy="629.1" r="1.2"/>
            <circle class="cls-7" cx="495" cy="629" r=".9"/>
            <circle class="cls-7" cx="590.7" cy="645.4" r="1.2"/>
            <circle class="cls-7" cx="606.6" cy="651.2" r="1.3"/>
            <circle class="cls-7" cx="615.4" cy="663.4" r=".4"/>
            <circle class="cls-7" cx="665" cy="665.5" r="1.3"/>
            <circle class="cls-7" cx="689.8" cy="665.2" r="1.6"/>
            <circle class="cls-7" cx="708.5" cy="672.9" r="1.4"/>
            <circle class="cls-7" cx="756.2" cy="670.9" r="1.5"/>
            <circle class="cls-7" cx="783" cy="659.6" r=".5"/>
            <circle class="cls-7" cx="853.6" cy="651.7" r=".6"/>
            <circle class="cls-7" cx="866" cy="651" r=".4"/>
            <circle class="cls-7" cx="200.9" cy="647.9" r="1"/>
            <circle class="cls-7" cx="225.5" cy="641.8" r=".8"/>
            <circle class="cls-7" cx="242" cy="638.1" r="1.3"/>
            <circle class="cls-7" cx="261.6" cy="631.8" r="1.2"/>
            <circle class="cls-7" cx="287.4" cy="627.7" r=".6"/>
            <circle class="cls-7" cx="313.2" cy="624.7" r="1.2"/>
            <circle class="cls-7" cx="355.8" cy="624.8" r=".4"/>
            <circle class="cls-7" cx="381.8" cy="623.3" r="1.3"/>
            <circle class="cls-7" cx="412.3" cy="622.7" r="1.3"/>
            <circle class="cls-7" cx="463" cy="635.7" r="1.3"/>
            <circle class="cls-7" cx="506.8" cy="643.2" r=".3"/>
            <circle class="cls-7" cx="529.2" cy="645" r=".5"/>
            <circle class="cls-7" cx="563.5" cy="656.9" r="1"/>
            <circle class="cls-7" cx="585.5" cy="666.4" r="1.4"/>
            <circle class="cls-7" cx="597.1" cy="662.1" r=".9"/>
            <circle class="cls-7" cx="636.2" cy="671.1" r="1.2"/>
            <circle class="cls-7" cx="653" cy="677.4" r="1"/>
            <circle class="cls-7" cx="678.2" cy="670.1" r="1.5"/>
            <circle class="cls-7" cx="701.5" cy="675.4" r="1"/>
            <circle class="cls-7" cx="749.6" cy="669.7" r=".5"/>
            <circle class="cls-7" cx="821.3" cy="664.6" r=".8"/>
            <circle class="cls-7" cx="867.9" cy="654.2" r=".8"/>
            <circle class="cls-7" cx="215.4" cy="650.7" r="1.2"/>
            <circle class="cls-7" cx="248.8" cy="647.1" r="1.5"/>
            <circle class="cls-7" cx="251.5" cy="642.1" r=".9"/>
            <circle class="cls-7" cx="294.1" cy="644.9" r="1"/>
            <circle class="cls-7" cx="313.5" cy="635.6" r="1.2"/>
            <circle class="cls-7" cx="345.6" cy="635.2" r=".5"/>
            <circle class="cls-7" cx="357.9" cy="630.9" r=".8"/>
            <circle class="cls-7" cx="394.5" cy="636.5" r="1.5"/>
            <circle class="cls-7" cx="416.8" cy="634.3" r="1.3"/>
            <circle class="cls-7" cx="433.1" cy="640.2" r="1"/>
            <circle class="cls-7" cx="461.6" cy="631.1" r=".5"/>
            <circle class="cls-7" cx="485.8" cy="646.5" r="1.3"/>
            <circle class="cls-7" cx="515.7" cy="648" r="1.6"/>
            <circle class="cls-7" cx="533.4" cy="649.8" r=".5"/>
            <circle class="cls-7" cx="566.9" cy="662.8" r="1"/>
            <circle class="cls-7" cx="587" cy="659.1" r="1.3"/>
            <circle class="cls-7" cx="600.5" cy="666.8" r="1.4"/>
            <circle class="cls-7" cx="654" cy="681.8" r=".6"/>
            <circle class="cls-7" cx="687.9" cy="680.3" r=".8"/>
            <circle class="cls-7" cx="698.1" cy="682.7" r="1.2"/>
            <circle class="cls-7" cx="733.6" cy="680.9" r=".4"/>
            <circle class="cls-7" cx="754.3" cy="684.8" r="1.5"/>
            <circle class="cls-7" cx="762.2" cy="679.7" r="1.3"/>
            <circle class="cls-7" cx="789.5" cy="682.8" r=".6"/>
            <circle class="cls-7" cx="820.7" cy="685.5" r=".6"/>
            <circle class="cls-7" cx="849.1" cy="673.2" r="1.5"/>
            <circle class="cls-7" cx="878.2" cy="664.9" r=".6"/>
            <circle class="cls-7" cx="226.2" cy="666.8" r=".5"/>
            <circle class="cls-7" cx="254.7" cy="659.2" r=".9"/>
            <circle class="cls-7" cx="272.3" cy="654" r=".5"/>
            <circle class="cls-7" cx="296.7" cy="652.6" r="1.4"/>
            <circle class="cls-7" cx="326.9" cy="654" r=".7"/>
            <circle class="cls-7" cx="339.5" cy="648.5" r=".8"/>
            <circle class="cls-7" cx="387" cy="639.2" r="1.1"/>
            <circle class="cls-7" cx="398.7" cy="646.3" r="1.2"/>
            <circle class="cls-7" cx="417.5" cy="650.3" r="1.5"/>
            <circle class="cls-7" cx="453.9" cy="661.1" r=".6"/>
            <circle class="cls-7" cx="469.9" cy="652.2" r=".9"/>
            <circle class="cls-7" cx="500.5" cy="671.5" r="1"/>
            <circle class="cls-7" cx="521.2" cy="675.3" r="1.4"/>
            <circle class="cls-7" cx="546.7" cy="674.2" r=".7"/>
            <circle class="cls-7" cx="570.2" cy="682.1" r=".3"/>
            <circle class="cls-7" cx="591" cy="690.6" r=".6"/>
            <circle class="cls-7" cx="618.4" cy="697.5" r=".6"/>
            <circle class="cls-7" cx="638.3" cy="700.1" r="1.6"/>
            <circle class="cls-7" cx="672.8" cy="699.2" r=".7"/>
            <circle class="cls-7" cx="690.3" cy="707.7" r=".3"/>
            <circle class="cls-7" cx="712.8" cy="710.1" r="1.3"/>
            <circle class="cls-7" cx="770" cy="706.2" r=".8"/>
            <circle class="cls-7" cx="788.3" cy="702.9" r=".7"/>
            <circle class="cls-7" cx="836.1" cy="690.8" r=".4"/>
            <circle class="cls-7" cx="862.8" cy="696.3" r="1.5"/>
            <circle class="cls-7" cx="870" cy="684.8" r="1"/>
            <circle class="cls-7" cx="916.4" cy="684.2" r="1.4"/>
            <circle class="cls-7" cx="244.3" cy="675.8" r=".4"/>
            <circle class="cls-7" cx="255.4" cy="674.8" r="1.2"/>
            <circle class="cls-7" cx="293.2" cy="667.4" r=".7"/>
            <circle class="cls-7" cx="317.5" cy="668.1" r="1.1"/>
            <circle class="cls-7" cx="345.4" cy="670.4" r="1.2"/>
            <circle class="cls-7" cx="367.3" cy="664.2" r=".8"/>
            <circle class="cls-7" cx="385.4" cy="661" r="1.6"/>
            <circle class="cls-7" cx="411.2" cy="667.3" r="1.5"/>
            <circle class="cls-7" cx="435.4" cy="659.2" r=".8"/>
            <circle class="cls-7" cx="459.5" cy="661.8" r=".5"/>
            <circle class="cls-7" cx="492.6" cy="674.9" r="1"/>
            <path class="cls-7" d="M513,670.2c.9,0,1.6.7,1.6,1.6s-.7,1.6-1.6,1.6-1.6-.7-1.6-1.6.7-1.6,1.6-1.6Z"/>
            <circle class="cls-7" cx="540.4" cy="676.6" r="1.4"/>
            <circle class="cls-7" cx="555.1" cy="679.8" r="1.6"/>
            <circle class="cls-7" cx="590.4" cy="695.1" r="1.3"/>
            <circle class="cls-7" cx="610.9" cy="701.1" r=".6"/>
            <circle class="cls-7" cx="636.3" cy="699" r="1.6"/>
            <circle class="cls-7" cx="657.9" cy="705.5" r="1"/>
            <circle class="cls-7" cx="678.4" cy="709.7" r=".9"/>
            <circle class="cls-7" cx="700.3" cy="719.9" r="1.5"/>
            <circle class="cls-7" cx="733.1" cy="714" r="1.4"/>
            <circle class="cls-7" cx="753.9" cy="722" r="1"/>
            <circle class="cls-7" cx="781.7" cy="721.8" r="1.6"/>
            <circle class="cls-7" cx="776.3" cy="724.5" r=".8"/>
            <circle class="cls-7" cx="830.5" cy="711.7" r=".7"/>
            <circle class="cls-7" cx="847.8" cy="713.5" r="1.1"/>
            <circle class="cls-7" cx="849.7" cy="714" r="1"/>
            <circle class="cls-7" cx="876.1" cy="711.8" r="1.3"/>
            <circle class="cls-7" cx="910.7" cy="693.5" r="1.5"/>
            <circle class="cls-7" cx="249.5" cy="695.6" r="1.4"/>
            <circle class="cls-7" cx="241.4" cy="694.4" r="1.6"/>
            <circle class="cls-7" cx="277.5" cy="685.1" r=".8"/>
            <circle class="cls-7" cx="302.4" cy="690.1" r="1.7"/>
            <circle class="cls-7" cx="321.5" cy="676" r="1.7"/>
            <circle class="cls-7" cx="348.9" cy="684.9" r=".8"/>
            <circle class="cls-7" cx="366.2" cy="683.2" r="1.7"/>
            <circle class="cls-7" cx="405.2" cy="685.2" r="1.7"/>
            <circle class="cls-7" cx="418.5" cy="678.9" r="1.4"/>
            <circle class="cls-7" cx="440.2" cy="678.8" r="1.1"/>
            <circle class="cls-7" cx="468.1" cy="684" r=".6"/>
            <circle class="cls-7" cx="498.4" cy="694.9" r="1.5"/>
            <circle class="cls-7" cx="519.7" cy="698.7" r="1.5"/>
            <circle class="cls-7" cx="542.3" cy="702.4" r=".9"/>
            <circle class="cls-7" cx="573.3" cy="698.9" r=".7"/>
            <circle class="cls-7" cx="590.3" cy="706.8" r=".7"/>
            <circle class="cls-7" cx="615" cy="718.9" r="1"/>
            <circle class="cls-7" cx="648.4" cy="727.7" r="1.7"/>
            <circle class="cls-7" cx="672.5" cy="724.8" r="1.4"/>
            <circle class="cls-7" cx="684.4" cy="731.1" r="1.4"/>
            <circle class="cls-7" cx="712.7" cy="724.2" r=".6"/>
            <circle class="cls-7" cx="761.6" cy="726.3" r="1"/>
            <circle class="cls-7" cx="810.9" cy="730.2" r=".5"/>
            <circle class="cls-7" cx="831.1" cy="726" r="1.4"/>
            <circle class="cls-7" cx="864.1" cy="726.7" r="1.2"/>
            <circle class="cls-7" cx="883.2" cy="715.1" r="1.5"/>
            <circle class="cls-7" cx="900.7" cy="713.7" r="1"/>
            <circle class="cls-7" cx="939" cy="707.3" r="1.3"/>
            <circle class="cls-7" cx="254.1" cy="705.8" r=".9"/>
            <circle class="cls-7" cx="273.5" cy="697.6" r="1.2"/>
            <circle class="cls-7" cx="310.6" cy="701.3" r="1.1"/>
            <circle class="cls-7" cx="327.3" cy="695.4" r="1.2"/>
            <circle class="cls-7" cx="358.6" cy="685.9" r=".5"/>
            <circle class="cls-7" cx="376" cy="690.2" r="1.4"/>
            <circle class="cls-7" cx="422.4" cy="683.5" r="1.2"/>
            <circle class="cls-7" cx="453.9" cy="685.2" r=".4"/>
            <circle class="cls-7" cx="480.7" cy="690.4" r="1"/>
            <circle class="cls-7" cx="518.4" cy="689.8" r="1"/>
            <circle class="cls-7" cx="581" cy="706.5" r=".9"/>
            <circle class="cls-7" cx="597.3" cy="712" r="1.1"/>
            <circle class="cls-7" cx="626.2" cy="718.2" r="1.1"/>
            <circle class="cls-7" cx="651.2" cy="715.5" r="1"/>
            <circle class="cls-7" cx="665.5" cy="725" r=".7"/>
            <circle class="cls-7" cx="692.1" cy="734.1" r="1.3"/>
            <circle class="cls-7" cx="720.8" cy="730.5" r=".7"/>
            <circle class="cls-7" cx="745" cy="738.7" r="1.2"/>
            <circle class="cls-7" cx="761.7" cy="733.5" r="1.6"/>
            <circle class="cls-7" cx="793.1" cy="731" r="1.4"/>
            <circle class="cls-7" cx="818.2" cy="736.1" r="1.7"/>
            <circle class="cls-7" cx="840.8" cy="731.5" r=".5"/>
            <circle class="cls-7" cx="857.1" cy="729.5" r="1.3"/>
            <circle class="cls-7" cx="883.7" cy="724.8" r="1.2"/>
            <circle class="cls-7" cx="913.6" cy="717.1" r=".8"/>
            <circle class="cls-7" cx="928.3" cy="713" r="1.3"/>
            <circle class="cls-7" cx="278.5" cy="710.4" r="1.6"/>
            <circle class="cls-7" cx="332.4" cy="689" r=".5"/>
            <circle class="cls-7" cx="345" cy="697" r="1.1"/>
            <circle class="cls-7" cx="370.1" cy="687.2" r="1.5"/>
            <circle class="cls-7" cx="393.6" cy="690.2" r="1"/>
            <circle class="cls-7" cx="404.9" cy="685" r=".5"/>
            <circle class="cls-7" cx="427.9" cy="689.6" r=".6"/>
            <circle class="cls-7" cx="466.7" cy="689.6" r="1.1"/>
            <circle class="cls-7" cx="483" cy="686.2" r="1.6"/>
            <circle class="cls-7" cx="488.4" cy="694.7" r=".5"/>
            <circle class="cls-7" cx="515.1" cy="696.9" r="1.6"/>
            <circle class="cls-7" cx="567" cy="710.6" r="1.5"/>
            <circle class="cls-7" cx="565.7" cy="716.8" r="1.5"/>
            <circle class="cls-7" cx="583.8" cy="713.2" r="1"/>
            <circle class="cls-7" cx="614.3" cy="722.5" r="1.4"/>
            <circle class="cls-7" cx="631.8" cy="729" r="1.3"/>
            <circle class="cls-7" cx="658.3" cy="725" r=".5"/>
            <circle class="cls-7" cx="686.4" cy="737.7" r=".9"/>
            <circle class="cls-7" cx="707.8" cy="737.9" r="1"/>
            <circle class="cls-7" cx="731.7" cy="731.3" r="1.6"/>
            <circle class="cls-7" cx="749.1" cy="732.5" r="1.3"/>
            <circle class="cls-7" cx="782.3" cy="733.5" r=".4"/>
            <circle class="cls-7" cx="800.5" cy="724.7" r="1.3"/>
            <circle class="cls-7" cx="822.4" cy="726.1" r=".9"/>
            <circle class="cls-7" cx="844" cy="719.7" r="1.7"/>
            <circle class="cls-7" cx="869.3" cy="715" r=".5"/>
            <circle class="cls-7" cx="893.1" cy="704.5" r="1.3"/>
            <circle class="cls-7" cx="222.5" cy="705.3" r="1.1"/>
            <circle class="cls-7" cx="218.4" cy="582" r=".4"/>
            <circle class="cls-7" cx="236.7" cy="572.7" r="1.2"/>
            <circle class="cls-7" cx="258.8" cy="567.8" r=".7"/>
            <circle class="cls-7" cx="292.8" cy="561.7" r="1.5"/>
            <circle class="cls-7" cx="307.4" cy="556.3" r=".8"/>
            <circle class="cls-7" cx="348.3" cy="555.9" r=".8"/>
            <circle class="cls-7" cx="362" cy="557.6" r=".8"/>
            <circle class="cls-7" cx="390.2" cy="554.9" r="1.7"/>
            <circle class="cls-7" cx="412.6" cy="554.7" r="1"/>
            <circle class="cls-7" cx="449.2" cy="556.6" r="1.5"/>
            <circle class="cls-7" cx="482.5" cy="560.3" r="1.4"/>
            <circle class="cls-7" cx="535.4" cy="571.6" r="1.5"/>
            <circle class="cls-7" cx="530.2" cy="565.1" r=".6"/>
            <circle class="cls-7" cx="556.5" cy="572.7" r="1.3"/>
            <circle class="cls-7" cx="590.8" cy="579.4" r="1.6"/>
            <circle class="cls-7" cx="613" cy="587.8" r="1.6"/>
            <circle class="cls-7" cx="624.6" cy="588.1" r="1.3"/>
            <circle class="cls-7" cx="694.7" cy="593.9" r="1"/>
            <circle class="cls-7" cx="715" cy="596.4" r="1.7"/>
            <circle class="cls-7" cx="772" cy="598" r=".5"/>
            <circle class="cls-7" cx="789.6" cy="588.6" r="1.3"/>
            <circle class="cls-7" cx="813.8" cy="595.3" r="1.1"/>
            <circle class="cls-7" cx="820.5" cy="590.8" r="1.4"/>
            <circle class="cls-7" cx="860.3" cy="581.3" r=".7"/>
            <circle class="cls-7" cx="881.5" cy="577.7" r="1.1"/>
            <circle class="cls-7" cx="905.8" cy="568.5" r="1.5"/>
            <circle class="cls-7" cx="261.9" cy="567.3" r="1.2"/>
            <circle class="cls-7" cx="285.3" cy="551.6" r=".8"/>
            <circle class="cls-7" cx="337.1" cy="545.3" r="1.3"/>
            <circle class="cls-7" cx="356.8" cy="553.9" r="1.5"/>
            <circle class="cls-7" cx="375.2" cy="551.9" r=".8"/>
            <circle class="cls-7" cx="394.4" cy="544.9" r="1.1"/>
            <circle class="cls-7" cx="431.6" cy="551.4" r="1"/>
            <circle class="cls-7" cx="451.1" cy="544.3" r="1.3"/>
            <circle class="cls-7" cx="461" cy="545.9" r=".6"/>
            <circle class="cls-7" cx="497.1" cy="549.1" r="1.1"/>
            <circle class="cls-7" cx="524.6" cy="562.3" r=".7"/>
            <circle class="cls-7" cx="536.1" cy="560.3" r=".8"/>
            <circle class="cls-7" cx="570.7" cy="569" r="1.4"/>
            <circle class="cls-7" cx="609.5" cy="580.7" r="1.1"/>
            <circle class="cls-7" cx="607.4" cy="582.4" r="1.1"/>
            <circle class="cls-7" cx="653.1" cy="581.4" r=".3"/>
            <circle class="cls-7" cx="678.7" cy="587.4" r=".7"/>
            <circle class="cls-7" cx="732.8" cy="594.2" r="1.3"/>
            <circle class="cls-7" cx="756.3" cy="590.8" r=".4"/>
            <circle class="cls-7" cx="803.7" cy="581.6" r=".5"/>
            <circle class="cls-7" cx="824.3" cy="584.2" r="1.2"/>
            <circle class="cls-7" cx="849.7" cy="574.8" r="1.4"/>
            <circle class="cls-7" cx="872.5" cy="564" r="1.5"/>
            <circle class="cls-7" cx="199.6" cy="565" r=".8"/>
            <circle class="cls-7" cx="221.2" cy="555" r="1.5"/>
            <circle class="cls-7" cx="246.6" cy="555.7" r=".5"/>
            <circle class="cls-7" cx="262.6" cy="549.5" r="1.1"/>
            <circle class="cls-7" cx="291.7" cy="545.1" r="1.1"/>
            <circle class="cls-7" cx="316.8" cy="544.6" r=".9"/>
            <circle class="cls-7" cx="340.1" cy="542.4" r=".5"/>
            <circle class="cls-7" cx="364.8" cy="548.9" r=".8"/>
            <circle class="cls-7" cx="392.7" cy="539.9" r=".3"/>
            <circle class="cls-7" cx="413.3" cy="544.8" r="1.6"/>
            <circle class="cls-7" cx="439.8" cy="554.6" r="1.2"/>
            <circle class="cls-7" cx="469.4" cy="548.9" r=".5"/>
            <circle class="cls-7" cx="500.6" cy="561.7" r="1.2"/>
            <circle class="cls-7" cx="561.2" cy="569.2" r=".5"/>
            <circle class="cls-7" cx="631.3" cy="579.7" r="1.4"/>
            <circle class="cls-7" cx="676.3" cy="580.8" r="1.4"/>
            <circle class="cls-7" cx="706.1" cy="588.1" r=".8"/>
            <circle class="cls-7" cx="724.9" cy="593.4" r=".4"/>
            <circle class="cls-7" cx="752.3" cy="587.7" r="1.1"/>
            <circle class="cls-7" cx="773.1" cy="581" r="1.1"/>
          </g>
        </g>
        <g id="_x31_0_x5F_PRIMARY_x5F_STRUCTURE" inkscape:groupmode="layer" inkscape:label="10 PRIMARY STRUCTURE">
          <g id="terra_primary_structure">
            <circle class="cls-7" cx="383.2" cy="669.5" r="101"/>
            <path class="cls-4" d="M323.6,610.9c48.8-22.2,105.7,6.1,124.7,42.5" vector-effect="non-scaling-stroke"/>
            <circle class="cls-7" cx="756.1" cy="593.7" r="80"/>
            <path class="cls-5" d="M708.9,547.4c38.6-17.6,83.7,4.8,98.7,33.6" vector-effect="non-scaling-stroke"/>
            <path class="cls-6" d="M191.1,812.7l655.4-92.7" vector-effect="non-scaling-stroke"/>
            <path class="cls-3" d="M756.1,593.7l180.8-159.9" vector-effect="non-scaling-stroke"/>
          </g>
        </g>
        <g id="_x32_0_x5F_GENRE_x5F_OBJECT" inkscape:groupmode="layer" inkscape:label="20 GENRE OBJECT">
          <g id="terra_genre_object">
            <circle class="cls-1" cx="338" cy="492.7" r="62"/>
            <circle class="cls-7" cx="338" cy="492.7" r="11"/>
            <path class="cls-2" d="M412,434.7l-43,50-17,36" vector-effect="non-scaling-stroke"/>
          </g>
        </g>
      </g>
    </g>
  </g>
<g id="90_PROTECTED_PCM__PRODUCTION_ONLY" inkscape:groupmode="layer" inkscape:label="90 PROTECTED PCM - PRODUCTION ONLY" data-edit-policy="production-injected"></g></svg>