<?xml version="1.0" encoding="UTF-8"?>
<svg xmlns="http://www.w3.org/2000/svg" xmlns:inkscape="http://www.inkscape.org/namespaces/inkscape" version="1.1" viewBox="0 0 1200 1200" data-artist-master-revision="illustrator-v2" data-genre-pattern="オペラ" data-engine="terra-opera-stage-v1" data-pcm-status="production-injected" data-screenprint-stroke-policy="sqrt-w2-plus-4-v1" data-screenprint-min-stroke="2" stroke-width="2.24">
  <defs>
    <style>
      .cls-1 {
        fill: #fff;
      }

      .cls-2 {
        fill: none;
        stroke: #fff;
        stroke-miterlimit: 10;
        stroke-width: 2.01px;
      }
    </style>
  </defs>
  <!-- Generator: Adobe Illustrator 28.7.8, SVG Export Plug-In . SVG Version: 1.2.0 Build 200)  -->
  <g>
    <g id="_レイヤー_1" data-name="レイヤー_1">
      <g id="_x30_0_x5F_BACKGROUND" inkscape:groupmode="layer" inkscape:label="00 BACKGROUND">
        <rect y="0" width="1200" height="1200"/>
      </g>
      <g id="_x36_0_x5F_DISPLAY_x5F_GRAIN" inkscape:groupmode="layer" inkscape:label="60 DISPLAY GRAIN">
        <g id="terra_grain_field">
          <circle class="cls-1" cx="741.1" cy="677.7" r=".5"/>
          <circle class="cls-1" cx="779.8" cy="659.5" r="1.2"/>
          <circle class="cls-1" cx="800.5" cy="666.3" r="1.4"/>
          <circle class="cls-1" cx="826.7" cy="669.5" r=".3"/>
          <circle class="cls-1" cx="846.8" cy="703" r="1.5"/>
          <circle class="cls-1" cx="876.1" cy="706.7" r=".7"/>
          <circle class="cls-1" cx="897.6" cy="713.6" r="1.3"/>
          <circle class="cls-1" cx="747.3" cy="652.6" r="1.3"/>
          <circle class="cls-1" cx="765.1" cy="680.3" r=".9"/>
          <circle class="cls-1" cx="797.4" cy="674.8" r="1.5"/>
          <circle class="cls-1" cx="813" cy="702.9" r=".5"/>
          <circle class="cls-1" cx="843" cy="680.5" r=".6"/>
          <circle class="cls-1" cx="877.7" cy="694" r=".4"/>
          <circle class="cls-1" cx="903.8" cy="694.8" r="1.3"/>
          <circle class="cls-1" cx="732.5" cy="684.7" r="1.6"/>
          <circle class="cls-1" cx="766.1" cy="691.4" r=".5"/>
          <circle class="cls-1" cx="791.3" cy="703.6" r=".4"/>
          <circle class="cls-1" cx="823.4" cy="680.5" r=".4"/>
          <circle class="cls-1" cx="845.8" cy="693.4" r=".5"/>
          <circle class="cls-1" cx="873.8" cy="699.3" r="1.1"/>
          <circle class="cls-1" cx="884" cy="734.4" r=".8"/>
          <circle class="cls-1" cx="737" cy="666.1" r=".7"/>
          <circle class="cls-1" cx="766" cy="674.8" r="1.5"/>
          <circle class="cls-1" cx="797.8" cy="679.8" r="1"/>
          <circle class="cls-1" cx="805.3" cy="712.3" r=".4"/>
          <circle class="cls-1" cx="834.3" cy="721.9" r="1.6"/>
          <circle class="cls-1" cx="854.6" cy="732.8" r="1.5"/>
          <circle class="cls-1" cx="894.1" cy="715.8" r="1.2"/>
          <circle class="cls-1" cx="744.6" cy="670.8" r=".8"/>
          <circle class="cls-1" cx="770.3" cy="681.5" r=".6"/>
          <circle class="cls-1" cx="775.4" cy="713.7" r=".8"/>
          <circle class="cls-1" cx="808.6" cy="719.8" r="1.3"/>
          <circle class="cls-1" cx="838.4" cy="707.8" r="1.3"/>
          <circle class="cls-1" cx="867.7" cy="716.9" r="1.1"/>
          <circle class="cls-1" cx="886.8" cy="730.6" r="1"/>
          <circle class="cls-1" cx="729.4" cy="701.6" r="1"/>
          <circle class="cls-1" cx="750.9" cy="708.6" r=".9"/>
          <circle class="cls-1" cx="784.5" cy="696" r=".5"/>
          <circle class="cls-1" cx="816" cy="705.5" r=".3"/>
          <circle class="cls-1" cx="840.2" cy="719.2" r=".9"/>
          <circle class="cls-1" cx="848.8" cy="747" r="1.6"/>
          <circle class="cls-1" cx="865.4" cy="758.8" r="1.4"/>
          <circle class="cls-1" cx="732.9" cy="679.6" r=".3"/>
          <circle class="cls-1" cx="758.3" cy="690.4" r=".5"/>
          <circle class="cls-1" cx="803.9" cy="739.9" r=".3"/>
          <circle class="cls-1" cx="828.4" cy="730" r="1.4"/>
          <circle class="cls-1" cx="842.2" cy="756" r="1.4"/>
          <circle class="cls-1" cx="887.9" cy="750.1" r="1.5"/>
          <circle class="cls-1" cx="726.8" cy="690.4" r=".8"/>
          <circle class="cls-1" cx="763.5" cy="700.9" r=".8"/>
          <circle class="cls-1" cx="769.7" cy="734.6" r="1.2"/>
          <circle class="cls-1" cx="798.9" cy="716.7" r=".5"/>
          <circle class="cls-1" cx="817" cy="751.2" r=".7"/>
          <circle class="cls-1" cx="859.8" cy="746.9" r="1.2"/>
          <circle class="cls-1" cx="862.6" cy="780.1" r="1.4"/>
          <circle class="cls-1" cx="738.5" cy="694.9" r="1.5"/>
          <circle class="cls-1" cx="736.7" cy="724.9" r="1.5"/>
          <circle class="cls-1" cx="781.5" cy="715.9" r=".5"/>
          <circle class="cls-1" cx="794.7" cy="748" r="1.5"/>
          <circle class="cls-1" cx="826.8" cy="739.8" r="1.2"/>
          <circle class="cls-1" cx="835.5" cy="777.7" r=".8"/>
          <circle class="cls-1" cx="864" cy="764.1" r=".6"/>
          <circle class="cls-1" cx="717.1" cy="718.8" r=".5"/>
          <circle class="cls-1" cx="753.3" cy="708.5" r=".7"/>
          <circle class="cls-1" cx="766.3" cy="735.5" r="1.5"/>
          <circle class="cls-1" cx="806.1" cy="741.8" r=".5"/>
          <circle class="cls-1" cx="801.1" cy="767.7" r=".4"/>
          <circle class="cls-1" cx="835" cy="759.3" r=".9"/>
          <circle class="cls-1" cx="859.7" cy="788.1" r=".7"/>
          <circle class="cls-1" cx="726.4" cy="700.6" r="1"/>
          <circle class="cls-1" cx="746.7" cy="730.4" r=".9"/>
          <circle class="cls-1" cx="787.6" cy="767.1" r="1.1"/>
          <circle class="cls-1" cx="808.5" cy="756.5" r="1.2"/>
          <circle class="cls-1" cx="827.9" cy="772.8" r="1.5"/>
          <circle class="cls-1" cx="854.3" cy="785.8" r=".8"/>
          <circle class="cls-1" cx="729.6" cy="718.2" r="1.1"/>
          <circle class="cls-1" cx="742" cy="741" r=".9"/>
          <circle class="cls-1" cx="767.5" cy="746.9" r="1.2"/>
          <circle class="cls-1" cx="781.8" cy="758.2" r="1.5"/>
          <circle class="cls-1" cx="804" cy="761" r="1.2"/>
          <circle class="cls-1" cx="822.8" cy="796" r=".7"/>
          <circle class="cls-1" cx="849.2" cy="798.5" r=".4"/>
          <circle class="cls-1" cx="712.5" cy="736.2" r="1.2"/>
          <circle class="cls-1" cx="750.4" cy="732.6" r="1.5"/>
          <circle class="cls-1" cx="757.1" cy="765.4" r=".6"/>
          <circle class="cls-1" cx="788.7" cy="758.2" r="1"/>
          <circle class="cls-1" cx="791.4" cy="794.5" r=".5"/>
          <circle class="cls-1" cx="820.3" cy="785.5" r=".4"/>
          <circle class="cls-1" cx="828.5" cy="822.7" r=".5"/>
          <circle class="cls-1" cx="731" cy="723.4" r="1.3"/>
          <circle class="cls-1" cx="721.7" cy="745.8" r="1.5"/>
          <circle class="cls-1" cx="765.6" cy="749.9" r=".9"/>
          <circle class="cls-1" cx="764" cy="783.6" r="1.2"/>
          <circle class="cls-1" cx="798.5" cy="777" r=".8"/>
          <circle class="cls-1" cx="793.9" cy="807" r="1.1"/>
          <circle class="cls-1" cx="837.2" cy="808.5" r="1.1"/>
          <circle class="cls-1" cx="703.4" cy="733.1" r="1"/>
          <circle class="cls-1" cx="739.6" cy="738.1" r="1.3"/>
          <circle class="cls-1" cx="738.5" cy="772.2" r=".8"/>
          <circle class="cls-1" cx="775.5" cy="767.8" r=".6"/>
          <circle class="cls-1" cx="774.2" cy="799.1" r="1.3"/>
          <circle class="cls-1" cx="808.2" cy="798.4" r=".6"/>
          <circle class="cls-1" cx="809.6" cy="826.9" r=".9"/>
          <circle class="cls-1" cx="718.9" cy="729.4" r=".9"/>
          <circle class="cls-1" cx="719.5" cy="765.4" r=".9"/>
          <circle class="cls-1" cx="748.3" cy="754.4" r="1.2"/>
          <circle class="cls-1" cx="770.2" cy="779.5" r=".9"/>
          <circle class="cls-1" cx="792.7" cy="795.8" r=".8"/>
          <circle class="cls-1" cx="787.6" cy="814.3" r=".5"/>
          <circle class="cls-1" cx="805" cy="823" r="1.4"/>
          <circle class="cls-1" cx="698.2" cy="746.2" r="1.5"/>
          <circle class="cls-1" cx="730.2" cy="744.2" r=".9"/>
          <circle class="cls-1" cx="749.1" cy="766.3" r=".5"/>
          <circle class="cls-1" cx="765.6" cy="784.5" r=".8"/>
          <circle class="cls-1" cx="764.4" cy="816.7" r=".7"/>
          <circle class="cls-1" cx="769.5" cy="821.9" r="1.5"/>
          <circle class="cls-1" cx="804.1" cy="825.5" r=".3"/>
          <circle class="cls-1" cx="710.7" cy="732.4" r=".6"/>
          <circle class="cls-1" cx="723.6" cy="748.3" r="1.5"/>
          <circle class="cls-1" cx="722" cy="788.8" r=".7"/>
          <circle class="cls-1" cx="735.9" cy="797.7" r=".8"/>
          <circle class="cls-1" cx="761.7" cy="804.6" r=".9"/>
          <circle class="cls-1" cx="793.7" cy="835" r="1.2"/>
          <circle class="cls-1" cx="691.9" cy="767.2" r=".8"/>
          <circle class="cls-1" cx="734.4" cy="772.6" r=".9"/>
          <circle class="cls-1" cx="749.7" cy="790.5" r="1.1"/>
          <circle class="cls-1" cx="750.2" cy="836.7" r="1.2"/>
          <circle class="cls-1" cx="766.9" cy="850.8" r=".3"/>
          <circle class="cls-1" cx="675.5" cy="749.5" r="1.3"/>
          <circle class="cls-1" cx="715.2" cy="755.4" r=".4"/>
          <circle class="cls-1" cx="728.2" cy="779.7" r="1"/>
          <circle class="cls-1" cx="734.8" cy="787.1" r=".3"/>
          <circle class="cls-1" cx="726" cy="826" r=".6"/>
          <circle class="cls-1" cx="763" cy="825.2" r="1.5"/>
          <circle class="cls-1" cx="771.3" cy="844.4" r=".7"/>
          <circle class="cls-1" cx="691" cy="730.3" r="1.2"/>
          <circle class="cls-1" cx="681.9" cy="769.6" r="1.2"/>
          <circle class="cls-1" cx="704.6" cy="778.7" r=".8"/>
          <circle class="cls-1" cx="705.7" cy="807.7" r=".6"/>
          <circle class="cls-1" cx="744.1" cy="811.6" r=".5"/>
          <circle class="cls-1" cx="750.2" cy="829.1" r=".3"/>
          <circle class="cls-1" cx="761.3" cy="842.1" r=".7"/>
          <circle class="cls-1" cx="660.1" cy="750" r=".5"/>
          <circle class="cls-1" cx="699.1" cy="771.7" r="1"/>
          <circle class="cls-1" cx="719" cy="794" r=".4"/>
          <circle class="cls-1" cx="715.7" cy="816" r=".8"/>
          <circle class="cls-1" cx="727.8" cy="836.9" r=".8"/>
          <circle class="cls-1" cx="726.4" cy="861.6" r=".3"/>
          <circle class="cls-1" cx="674.1" cy="739.2" r=".3"/>
          <circle class="cls-1" cx="687.4" cy="760.1" r=".6"/>
          <circle class="cls-1" cx="694.2" cy="773.1" r=".8"/>
          <circle class="cls-1" cx="692.1" cy="806.3" r=".7"/>
          <circle class="cls-1" cx="690.6" cy="819" r=".9"/>
          <circle class="cls-1" cx="714.3" cy="837.8" r="1.3"/>
          <circle class="cls-1" cx="726.4" cy="845.9" r=".5"/>
          <circle class="cls-1" cx="656.7" cy="762.2" r="1.2"/>
          <circle class="cls-1" cx="676" cy="775.8" r="1.4"/>
          <circle class="cls-1" cx="670.9" cy="805.8" r=".5"/>
          <circle class="cls-1" cx="703.5" cy="812" r=".9"/>
          <circle class="cls-1" cx="692.7" cy="841.4" r="1.5"/>
          <circle class="cls-1" cx="718.8" cy="845.9" r="1.2"/>
          <circle class="cls-1" cx="635.2" cy="742.9" r=".3"/>
          <circle class="cls-1" cx="669.8" cy="760.3" r=".9"/>
          <circle class="cls-1" cx="650.2" cy="777.7" r=".5"/>
          <circle class="cls-1" cx="684.4" cy="792.9" r=".9"/>
          <circle class="cls-1" cx="667.6" cy="815.9" r="1.4"/>
          <circle class="cls-1" cx="695.8" cy="825.6" r="1.6"/>
          <circle class="cls-1" cx="676.1" cy="855.4" r="1.2"/>
          <circle class="cls-1" cx="655" cy="739.7" r="1.3"/>
          <circle class="cls-1" cx="637.4" cy="766.1" r="1.3"/>
          <circle class="cls-1" cx="666.8" cy="768.3" r="1.4"/>
          <circle class="cls-1" cx="648.5" cy="799.1" r=".6"/>
          <circle class="cls-1" cx="680.1" cy="812.3" r="1.5"/>
          <circle class="cls-1" cx="656.7" cy="837.5" r=".8"/>
          <circle class="cls-1" cx="689.9" cy="845.2" r=".7"/>
          <circle class="cls-1" cx="623.2" cy="737.8" r="1.1"/>
          <circle class="cls-1" cx="650.9" cy="749.7" r="1.5"/>
          <circle class="cls-1" cx="630.9" cy="775.5" r=".9"/>
          <circle class="cls-1" cx="659.3" cy="786.7" r=".4"/>
          <circle class="cls-1" cx="640.9" cy="816.1" r="1.5"/>
          <circle class="cls-1" cx="670.8" cy="832.5" r="1.1"/>
          <circle class="cls-1" cx="652.1" cy="852.1" r="1.2"/>
          <circle class="cls-1" cx="637.5" cy="732.1" r=".5"/>
          <circle class="cls-1" cx="616.5" cy="750.7" r=".5"/>
          <circle class="cls-1" cx="641.1" cy="767.3" r=".5"/>
          <circle class="cls-1" cx="625.5" cy="789" r=".8"/>
          <circle class="cls-1" cx="652.3" cy="808.4" r="1.4"/>
          <circle class="cls-1" cx="650.8" cy="831.9" r="1.5"/>
          <circle class="cls-1" cx="654" cy="843.8" r="1"/>
          <circle class="cls-1" cx="610.7" cy="739.2" r="1.6"/>
          <circle class="cls-1" cx="609.2" cy="747" r=".9"/>
          <circle class="cls-1" cx="616.5" cy="767.7" r="1.3"/>
          <circle class="cls-1" cx="632.5" cy="785.7" r="1.5"/>
          <circle class="cls-1" cx="640.6" cy="809.8" r="1.6"/>
          <circle class="cls-1" cx="623.3" cy="834" r="1.4"/>
          <circle class="cls-1" cx="629" cy="854.2" r=".8"/>
          <circle class="cls-1" cx="594.7" cy="733.8" r=".8"/>
          <circle class="cls-1" cx="622.8" cy="746.6" r="1.7"/>
          <circle class="cls-1" cx="622" cy="774.3" r=".4"/>
          <circle class="cls-1" cx="600.4" cy="815.1" r=".4"/>
          <circle class="cls-1" cx="609.8" cy="823.5" r="1.1"/>
          <circle class="cls-1" cx="602.9" cy="848.5" r="1.7"/>
          <circle class="cls-1" cx="615.8" cy="727.4" r="1"/>
          <circle class="cls-1" cx="605.7" cy="751" r=".5"/>
          <circle class="cls-1" cx="613.5" cy="767.8" r="1.6"/>
          <circle class="cls-1" cx="586.8" cy="791.2" r=".4"/>
          <circle class="cls-1" cx="612.5" cy="806.1" r=".8"/>
          <circle class="cls-1" cx="596.2" cy="824.7" r=".8"/>
          <circle class="cls-1" cx="619.9" cy="850.5" r=".9"/>
          <circle class="cls-1" cx="577.9" cy="723" r="1.5"/>
          <circle class="cls-1" cx="582" cy="744.8" r=".5"/>
          <circle class="cls-1" cx="577.2" cy="769.8" r="1.7"/>
          <circle class="cls-1" cx="608.3" cy="781.9" r="1.7"/>
          <circle class="cls-1" cx="602.3" cy="804" r=".4"/>
          <circle class="cls-1" cx="604.7" cy="823.8" r=".8"/>
          <circle class="cls-1" cx="572.2" cy="845.3" r=".6"/>
          <circle class="cls-1" cx="575.4" cy="740.5" r="1.6"/>
          <circle class="cls-1" cx="600.1" cy="771.9" r="1.6"/>
          <circle class="cls-1" cx="573.2" cy="781.2" r="1.1"/>
          <circle class="cls-1" cx="568.7" cy="807.4" r="1.2"/>
          <circle class="cls-1" cx="561.6" cy="829.5" r="1.1"/>
          <circle class="cls-1" cx="585.9" cy="842.7" r=".7"/>
          <circle class="cls-1" cx="592.4" cy="721.3" r=".8"/>
          <circle class="cls-1" cx="591.7" cy="748.5" r=".5"/>
          <circle class="cls-1" cx="560.3" cy="762.6" r="1.7"/>
          <circle class="cls-1" cx="556.8" cy="779.7" r=".8"/>
          <circle class="cls-1" cx="557" cy="803" r="1.4"/>
          <circle class="cls-1" cx="578.6" cy="828.9" r="1.4"/>
          <circle class="cls-1" cx="560" cy="730" r=".7"/>
          <circle class="cls-1" cx="555.5" cy="739" r=".9"/>
          <circle class="cls-1" cx="554.4" cy="760.4" r=".9"/>
          <circle class="cls-1" cx="574.2" cy="785.3" r=".7"/>
          <circle class="cls-1" cx="563.6" cy="801.7" r=".7"/>
          <circle class="cls-1" cx="546.6" cy="825.8" r=".5"/>
          <circle class="cls-1" cx="535.6" cy="838" r="1.3"/>
          <circle class="cls-1" cx="555.6" cy="725.7" r="1.7"/>
          <circle class="cls-1" cx="551" cy="739.8" r=".7"/>
          <circle class="cls-1" cx="572.3" cy="765.3" r=".3"/>
          <circle class="cls-1" cx="539.6" cy="779.1" r=".7"/>
          <circle class="cls-1" cx="540" cy="802.9" r="1"/>
          <circle class="cls-1" cx="528.8" cy="814.7" r=".7"/>
          <circle class="cls-1" cx="549.3" cy="846.1" r="1.2"/>
          <circle class="cls-1" cx="550.4" cy="720.5" r="1.4"/>
          <circle class="cls-1" cx="571.1" cy="741.7" r="1.4"/>
          <circle class="cls-1" cx="537.6" cy="757" r=".5"/>
          <circle class="cls-1" cx="553.9" cy="788.7" r=".7"/>
          <circle class="cls-1" cx="524.7" cy="794.5" r="1.6"/>
          <circle class="cls-1" cx="546.4" cy="821.8" r=".8"/>
          <path class="cls-1" d="M512,835.2c.5,0,.9.4.9.9s-.4.9-.9.9-.9-.4-.9-.9.4-.9.9-.9Z"/>
          <circle class="cls-1" cx="537.4" cy="737.4" r=".7"/>
          <circle class="cls-1" cx="555.1" cy="769.2" r="1.4"/>
          <circle class="cls-1" cx="524.8" cy="775.6" r="1"/>
          <circle class="cls-1" cx="543.9" cy="802.7" r=".6"/>
          <path class="cls-1" d="M513,808.9c.6,0,1.1.5,1.1,1.1s-.5,1.1-1.1,1.1-1.1-.5-1.1-1.1.5-1.1,1.1-1.1Z"/>
          <circle class="cls-1" cx="527.9" cy="845.2" r="1.5"/>
          <circle class="cls-1" cx="540.5" cy="719.3" r="1.5"/>
          <circle class="cls-1" cx="552.5" cy="747.1" r="1.3"/>
          <circle class="cls-1" cx="524.8" cy="763.6" r="1.5"/>
          <circle class="cls-1" cx="512.4" cy="793.2" r=".3"/>
          <circle class="cls-1" cx="515.6" cy="816.8" r=".7"/>
          <circle class="cls-1" cx="493" cy="832.7" r="1.1"/>
          <circle class="cls-1" cx="539.9" cy="727.1" r="1"/>
          <circle class="cls-1" cx="529.7" cy="745" r=".4"/>
          <circle class="cls-1" cx="531.8" cy="767.3" r=".6"/>
          <circle class="cls-1" cx="517.9" cy="770.8" r="1.6"/>
          <circle class="cls-1" cx="503.7" cy="793.3" r="1.2"/>
          <circle class="cls-1" cx="493.7" cy="817.9" r="1"/>
          <circle class="cls-1" cx="484.1" cy="829.6" r="1.4"/>
          <circle class="cls-1" cx="532" cy="744.7" r=".6"/>
          <circle class="cls-1" cx="503.8" cy="776.5" r=".8"/>
          <circle class="cls-1" cx="506.9" cy="800.6" r=".4"/>
          <circle class="cls-1" cx="483.4" cy="813.4" r="1.3"/>
          <circle class="cls-1" cx="495.8" cy="841.8" r=".7"/>
          <circle class="cls-1" cx="531.9" cy="720.5" r=".6"/>
          <circle class="cls-1" cx="509.1" cy="757.3" r="1.6"/>
          <circle class="cls-1" cx="522.7" cy="784" r="1.6"/>
          <circle class="cls-1" cx="488.7" cy="792.3" r="1.1"/>
          <circle class="cls-1" cx="501.6" cy="819.1" r="1"/>
          <circle class="cls-1" cx="461.8" cy="826.3" r="1.3"/>
          <circle class="cls-1" cx="537.6" cy="730" r=".5"/>
          <circle class="cls-1" cx="515.8" cy="737.2" r=".6"/>
          <circle class="cls-1" cx="530.1" cy="766.3" r=".9"/>
          <circle class="cls-1" cx="496.3" cy="771.2" r=".8"/>
          <circle class="cls-1" cx="461.2" cy="813.8" r=".7"/>
          <circle class="cls-1" cx="525.8" cy="721" r="1.4"/>
          <circle class="cls-1" cx="541.8" cy="746.2" r="1"/>
          <circle class="cls-1" cx="498.4" cy="758.3" r=".7"/>
          <circle class="cls-1" cx="489" cy="777" r=".5"/>
          <circle class="cls-1" cx="471.6" cy="786.7" r=".4"/>
          <circle class="cls-1" cx="479.5" cy="818.8" r="1.3"/>
          <circle class="cls-1" cx="456.2" cy="824.6" r=".8"/>
          <circle class="cls-1" cx="549.9" cy="726.4" r=".5"/>
          <circle class="cls-1" cx="506.6" cy="737.8" r="1.6"/>
          <circle class="cls-1" cx="494.1" cy="756.6" r=".6"/>
          <circle class="cls-1" cx="479.5" cy="770.5" r="1.3"/>
          <circle class="cls-1" cx="490.1" cy="801.5" r="1"/>
          <circle class="cls-1" cx="438.5" cy="823.1" r="1.1"/>
          <circle class="cls-1" cx="517.4" cy="719.2" r="1.3"/>
          <circle class="cls-1" cx="508.5" cy="732" r=".4"/>
          <circle class="cls-1" cx="497.7" cy="783.7" r=".7"/>
          <circle class="cls-1" cx="458.7" cy="789.1" r="1"/>
          <circle class="cls-1" cx="444" cy="798.8" r=".6"/>
          <circle class="cls-1" cx="430.1" cy="814.9" r=".9"/>
          <circle class="cls-1" cx="530.8" cy="725.9" r=".8"/>
          <circle class="cls-1" cx="526.5" cy="749.4" r="1.5"/>
          <circle class="cls-1" cx="483.9" cy="752.3" r=".9"/>
          <circle class="cls-1" cx="469.7" cy="762.8" r="1.6"/>
          <circle class="cls-1" cx="447.3" cy="785.6" r="1.3"/>
          <circle class="cls-1" cx="430.6" cy="822.8" r=".8"/>
          <circle class="cls-1" cx="497.9" cy="728.4" r="1.2"/>
          <circle class="cls-1" cx="479" cy="749" r="1.4"/>
          <circle class="cls-1" cx="460.9" cy="767.7" r=".3"/>
          <circle class="cls-1" cx="471.5" cy="794.2" r="1"/>
          <circle class="cls-1" cx="427.7" cy="794" r="1.3"/>
          <circle class="cls-1" cx="411.7" cy="808.4" r=".5"/>
          <circle class="cls-1" cx="507.8" cy="715" r="1.5"/>
          <circle class="cls-1" cx="519.4" cy="740.3" r="1.5"/>
          <circle class="cls-1" cx="476.4" cy="750.2" r="1.3"/>
          <circle class="cls-1" cx="481.8" cy="776" r=".7"/>
          <circle class="cls-1" cx="436.5" cy="774.5" r="1.1"/>
          <circle class="cls-1" cx="426.8" cy="788.8" r="1"/>
          <circle class="cls-1" cx="406" cy="798.4" r=".3"/>
          <circle class="cls-1" cx="528.5" cy="732.4" r=".7"/>
          <circle class="cls-1" cx="492.5" cy="726.5" r="1.2"/>
          <circle class="cls-1" cx="483" cy="757.9" r=".5"/>
          <circle class="cls-1" cx="449.2" cy="757.9" r="1"/>
          <circle class="cls-1" cx="445.9" cy="783.1" r="1.4"/>
          <circle class="cls-1" cx="415.4" cy="782.9" r="1.5"/>
          <circle class="cls-1" cx="412" cy="820.3" r="1.2"/>
          <circle class="cls-1" cx="505.3" cy="709.4" r="1.5"/>
          <circle class="cls-1" cx="483.4" cy="733" r=".7"/>
          <circle class="cls-1" cx="464.8" cy="737.8" r="1.2"/>
          <circle class="cls-1" cx="455.1" cy="766.9" r="1.3"/>
          <circle class="cls-1" cx="429.4" cy="771.8" r=".3"/>
          <circle class="cls-1" cx="418.1" cy="787.9" r=".9"/>
          <circle class="cls-1" cx="383.3" cy="794.4" r="1"/>
          <circle class="cls-1" cx="498.4" cy="712.4" r=".5"/>
          <circle class="cls-1" cx="479.5" cy="726.3" r=".5"/>
          <circle class="cls-1" cx="458.2" cy="741.2" r="1.5"/>
          <circle class="cls-1" cx="447.4" cy="752.1" r=".6"/>
          <circle class="cls-1" cx="419" cy="763.7" r="1.3"/>
          <circle class="cls-1" cx="395.7" cy="781.6" r="1.1"/>
          <circle class="cls-1" cx="377.8" cy="787.8" r=".7"/>
          <circle class="cls-1" cx="504.1" cy="711.8" r=".8"/>
          <circle class="cls-1" cx="474.8" cy="720.9" r="1"/>
          <circle class="cls-1" cx="466.6" cy="752.3" r="1.3"/>
          <circle class="cls-1" cx="434.1" cy="743.1" r=".8"/>
          <circle class="cls-1" cx="423.1" cy="768.6" r=".8"/>
          <circle class="cls-1" cx="395.3" cy="763.7" r="1.4"/>
          <circle class="cls-1" cx="383.6" cy="802" r=".5"/>
          <circle class="cls-1" cx="488.7" cy="704" r=".4"/>
          <circle class="cls-1" cx="444.1" cy="729.2" r=".5"/>
          <circle class="cls-1" cx="440.7" cy="757.5" r=".5"/>
          <circle class="cls-1" cx="407.6" cy="745.7" r=".3"/>
          <circle class="cls-1" cx="400.3" cy="781.8" r="1.2"/>
          <circle class="cls-1" cx="358.7" cy="774.5" r=".6"/>
          <circle class="cls-1" cx="500.5" cy="720.8" r="1.4"/>
          <circle class="cls-1" cx="471.2" cy="705.1" r=".8"/>
          <circle class="cls-1" cx="465.1" cy="737.8" r=".6"/>
          <circle class="cls-1" cx="418.2" cy="734" r="1.2"/>
          <circle class="cls-1" cx="413.2" cy="763.8" r="1.3"/>
          <circle class="cls-1" cx="373.5" cy="754.2" r="1"/>
          <circle class="cls-1" cx="363.2" cy="786" r=".5"/>
          <circle class="cls-1" cx="483.4" cy="693.8" r=".7"/>
          <circle class="cls-1" cx="476" cy="726.6" r="1.3"/>
          <circle class="cls-1" cx="441.4" cy="713.4" r="1.1"/>
          <circle class="cls-1" cx="421.9" cy="750.2" r="1.3"/>
          <circle class="cls-1" cx="388.9" cy="737.6" r=".5"/>
          <circle class="cls-1" cx="375.6" cy="764.1" r="1.5"/>
          <circle class="cls-1" cx="339.4" cy="759.3" r="1"/>
          <circle class="cls-1" cx="489.2" cy="714" r=".8"/>
          <circle class="cls-1" cx="453.9" cy="705.8" r=".6"/>
          <circle class="cls-1" cx="435.3" cy="729.3" r=".6"/>
          <circle class="cls-1" cx="403.1" cy="723.8" r=".4"/>
          <circle class="cls-1" cx="384.2" cy="735" r=".8"/>
          <circle class="cls-1" cx="367.6" cy="739.4" r=".6"/>
          <circle class="cls-1" cx="354.1" cy="761.8" r="1.4"/>
          <circle class="cls-1" cx="485.3" cy="687.8" r="1.3"/>
          <circle class="cls-1" cx="459.7" cy="692.3" r=".5"/>
          <circle class="cls-1" cx="430.2" cy="704.5" r=".5"/>
          <circle class="cls-1" cx="402.6" cy="716.2" r="1.5"/>
          <circle class="cls-1" cx="387.6" cy="746.7" r=".4"/>
          <circle class="cls-1" cx="351" cy="736.2" r="1.3"/>
          <circle class="cls-1" cx="334.1" cy="744" r=".8"/>
          <circle class="cls-1" cx="474.6" cy="678.5" r="1.5"/>
          <circle class="cls-1" cx="448.8" cy="697.1" r="1.2"/>
          <circle class="cls-1" cx="419.2" cy="703" r="1.2"/>
          <circle class="cls-1" cx="416.5" cy="728.6" r="1.4"/>
          <circle class="cls-1" cx="369.5" cy="715.6" r=".7"/>
          <circle class="cls-1" cx="345.4" cy="725.2" r=".8"/>
          <circle class="cls-1" cx="324.3" cy="726.9" r=".4"/>
          <circle class="cls-1" cx="482.9" cy="702.2" r=".8"/>
          <circle class="cls-1" cx="452.1" cy="685.7" r="1.5"/>
          <circle class="cls-1" cx="432.7" cy="714.8" r=".5"/>
          <circle class="cls-1" cx="388.6" cy="700.6" r=".5"/>
          <circle class="cls-1" cx="369.3" cy="710.9" r="1.6"/>
          <circle class="cls-1" cx="339.1" cy="719.1" r=".5"/>
          <circle class="cls-1" cx="470.2" cy="670.6" r="1.4"/>
          <circle class="cls-1" cx="441.4" cy="682.4" r="1.2"/>
          <circle class="cls-1" cx="411.2" cy="685.5" r="1.1"/>
          <circle class="cls-1" cx="398.5" cy="720.5" r="1.4"/>
          <circle class="cls-1" cx="376.1" cy="723.1" r=".5"/>
          <circle class="cls-1" cx="346.7" cy="733.7" r=".8"/>
          <circle class="cls-1" cx="304.2" cy="712.8" r=".4"/>
          <circle class="cls-1" cx="467.8" cy="667.1" r=".4"/>
          <circle class="cls-1" cx="438.2" cy="676.3" r=".4"/>
          <circle class="cls-1" cx="423.8" cy="702.3" r="1.4"/>
          <circle class="cls-1" cx="387.2" cy="683.4" r=".7"/>
          <circle class="cls-1" cx="360" cy="702" r="1.4"/>
          <circle class="cls-1" cx="329.3" cy="706.7" r=".4"/>
          <circle class="cls-1" cx="322.2" cy="729.1" r=".6"/>
          <circle class="cls-1" cx="457.3" cy="671.2" r=".7"/>
          <circle class="cls-1" cx="433.3" cy="670.8" r="1.2"/>
          <circle class="cls-1" cx="410.5" cy="673.3" r="1.2"/>
          <circle class="cls-1" cx="388.5" cy="698.3" r=".4"/>
          <circle class="cls-1" cx="334.9" cy="714.1" r=".7"/>
          <circle class="cls-1" cx="304.1" cy="694.3" r="1"/>
          <circle class="cls-1" cx="459.1" cy="656.9" r=".8"/>
          <circle class="cls-1" cx="439.4" cy="666.4" r="1"/>
          <circle class="cls-1" cx="408.6" cy="687.7" r=".8"/>
          <circle class="cls-1" cx="362.4" cy="675" r=".3"/>
          <circle class="cls-1" cx="330.6" cy="681.2" r="1.4"/>
          <circle class="cls-1" cx="306.6" cy="683.4" r=".8"/>
          <circle class="cls-1" cx="814.2" cy="695.5" r="1.2"/>
          <circle class="cls-1" cx="898.4" cy="682" r="1.1"/>
          <circle class="cls-1" cx="735.1" cy="680.4" r=".7"/>
          <circle class="cls-1" cx="763.3" cy="679.8" r=".4"/>
          <circle class="cls-1" cx="848.2" cy="684.5" r=".5"/>
          <circle class="cls-1" cx="880" cy="687.3" r=".8"/>
          <circle class="cls-1" cx="892.4" cy="722.9" r="1.1"/>
          <circle class="cls-1" cx="728.7" cy="680.5" r="1.5"/>
          <circle class="cls-1" cx="749.1" cy="688.2" r="1.7"/>
          <circle class="cls-1" cx="793.9" cy="670.1" r="1"/>
          <circle class="cls-1" cx="815.6" cy="685.9" r=".5"/>
          <circle class="cls-1" cx="836.6" cy="691.4" r="1.3"/>
          <circle class="cls-1" cx="850.6" cy="720.3" r="1"/>
          <circle class="cls-1" cx="898.8" cy="705.3" r=".4"/>
          <circle class="cls-1" cx="734.9" cy="662.8" r=".7"/>
          <circle class="cls-1" cx="759.6" cy="665.7" r=".4"/>
          <circle class="cls-1" cx="773" cy="702.1" r=".7"/>
          <circle class="cls-1" cx="795.4" cy="708.6" r=".9"/>
          <circle class="cls-1" cx="820.2" cy="716.1" r=".4"/>
          <circle class="cls-1" cx="862.1" cy="700.3" r="1.2"/>
          <circle class="cls-1" cx="882" cy="707" r="1.6"/>
          <circle class="cls-1" cx="724.4" cy="669.9" r=".9"/>
          <circle class="cls-1" cx="742.2" cy="698.6" r="1.5"/>
          <circle class="cls-1" cx="809.6" cy="692.8" r=".8"/>
          <circle class="cls-1" cx="829.7" cy="697.9" r=".4"/>
          <circle class="cls-1" cx="848.5" cy="713.5" r="1"/>
          <circle class="cls-1" cx="864.9" cy="743.2" r="1.1"/>
          <circle class="cls-1" cx="718" cy="691.5" r="1.6"/>
          <circle class="cls-1" cx="755.8" cy="680.8" r="1.4"/>
        </g>
      </g>
      <g id="_x31_0_x5F_PRIMARY_x5F_STRUCTURE">
        <g>
          <path class="cls-2" d="M661,668.6l1.8,5.3,22.8,12.4c-31.3-87.4-4.2-183.9,9.2-272,3.7-24,6.9-48.4,5.5-72.7l-22.9-12.2c2.6,44.6-8.3,89.9-15.7,133.6s-14.9,93.3-12.3,140.4,4.7,44.1,11.5,65.2h0Z"/>
          <polygon class="cls-2" points="662.9 673.9 659.7 675.6 682.5 688 685.7 686.3 662.9 673.9 662.9 673.9"/>
          <path class="cls-2" d="M674.4,335.2l-.3-5.8,22.9,12.2c2.6,45.9-8.7,92.2-16.3,137.2-7.9,46.9-14.9,94.8-11.5,142.6,1.6,22.7,5.6,45.2,13.3,66.7l-22.8-12.4c-30.8-85.9-5.7-180.7,8.1-267.4,3.8-24.1,7.3-48.6,6.7-73h0Z"/>
          <path class="cls-2" d="M643,330.4l-10.6.7,22.9,12.2c13.9-1,27.9-1.6,41.8-1.8l-22.9-12.2c-10.4.2-20.8.5-31.2,1.1h0Z"/>
          <path class="cls-2" d="M618.6,673.6l1.8,5.2,22.8,12.4c-32.7-91.9,2-187,12.8-279.3,2.6-22.7,3.9-46.1-.8-68.6l-22.9-12.2c8.8,41.4-.9,85.5-8.4,126.3-8.1,43.9-16.7,87.9-17,132.7s3,56.5,11.8,83.4h0Z"/>
          <polygon class="cls-2" points="620.4 678.8 611.5 683.7 634.3 696.1 643.2 691.3 620.4 678.8 620.4 678.8"/>
          <path class="cls-2" d="M623.3,335.9l-.9-3.9,22.9,12.2c10.7,44.5-2.1,93.6-10.2,137.6-8.7,47-17.1,94.8-14.5,142.8,1.3,24.3,5.6,48.5,13.8,71.4l-22.8-12.4c-32.1-89.8-1.5-183.6,10.9-273.9,3.4-24.3,5.7-49.6.9-73.8h0Z"/>
          <path class="cls-2" d="M662.6,314l9.5-.2,22.9,12.2c-67.7,1.5-135.5,12.7-199.5,35s-64.6,25.7-92.9,45.6-52.2,39.9-57.2,66.9c-1.5,7.9-.1,17.3,0,25.3,0,20.8,0,41.7,0,62.5l.2,161.5c0,19.2,0,38.4,0,57.6s-2.1,16.2,1.7,20.2c6.2,6.5,11.9-2,12.7-7.7,1.6-11.2,0-23.9,0-35.2,0-92.2-.2-184.3-.3-276.5v-6.9c15.2-35.6,51.8-59.2,85-76.1,39.9-20.2,83.3-33.6,127-42.8s48.9-8.6,73.6-11.3l-22.9-12.2c-83,8.8-174.5,28.5-242.5,79.8-17.6,13.3-34.2,29.7-43,50.3,0,83.1.2,166.2.3,249.4v55.6c0,5.4,1.9,15.5-2,20.1-5.6,6.6-11.2,1.5-12.3-4.8-1.8-11.1,0-24,0-35.2-.1-92.1-.2-184.3-.3-276.4,0-23.5,18.7-43.8,35.3-58.9,24.4-22.2,54-38.4,84.1-51.2,61.9-26.2,129.4-40.6,196.3-45.4,8.1-.6,16.2-.9,24.3-1.3Z"/>
          <path class="cls-2" d="M669.9,304.6l-1-2.9,22.9,12.2c1.4,3.9,2.5,8,3.3,12.1l-22.9-12.2c-.6-3.1-1.4-6.2-2.3-9.2h0Z"/>
          <polygon class="cls-2" points="668.9 301.7 672.1 300 695 312.2 691.8 313.9 668.9 301.7 668.9 301.7"/>
          <path class="cls-2" d="M675,310.1l.7,3.6,22.9,12.2c-.9-4.7-2.1-9.3-3.6-13.8l-22.9-12.2c1.2,3.3,2.1,6.7,2.9,10.2h0Z"/>
          <path class="cls-2" d="M863.1,386c-.1,100.3-.3,200.5-.4,300.8,0,6.4,2.9,21.8-3.8,26.3-9.8,6.6-10.5-6.5-10.5-12.6,0-53.3.1-106.7.2-160,0-50.2.1-100.5.2-150.7-27.5-56.5-117.8-59.9-171.2-60.4l22.9,12.2c53.5.5,143.8,3.9,171.3,60.4,0,66.4-.2,132.8-.3,199.2,0,34.9,0,69.7-.1,104.6,0,4.5-1.6,12.4.3,16.7,3,6.7,10.7,5,13.3-1.2s.6-11.6.6-16.2v-43.3c.1-42.9.2-85.7.2-128.6l.2-113.8c0-6.7,1.1-14.4,0-21.1-1.6-10-10.1-19.7-17.1-26.6-42.3-42.1-114.5-45.7-170.4-45.8l-22.9-12.2c53.3.2,116.3,3.8,160.5,37.4s25.2,21.3,26.8,34.9h0Z"/>
          <path class="cls-2" d="M886,398.2c-.1,100.3-.3,200.7-.4,301,0,6.4,2.9,21.8-3.8,26.3-9.8,6.6-10.5-6.5-10.5-12.6,0-53.4.1-106.8.2-160.1,0-50.3.1-100.5.2-150.8-27.5-56.5-117.8-59.9-171.3-60.4,2.7,45.9-8.8,92.4-16.3,137.3-7.8,46.7-14.8,94.2-11.5,141.7,1.6,22.4,5.5,44.6,13.1,65.8l-3.2,1.7c-31.6-88-4.5-185,9.1-273.8,3.7-24,6.8-48.4,5.4-72.7-14,.2-27.9.9-41.8,1.8,8.8,41.7-1.1,86.3-8.7,127.4-8.2,44.7-17,89.7-16.9,135.3s3.9,57.8,13.6,85.1l-8.9,4.8c-32.5-91-.7-185.7,11.4-277.2,3.3-24.6,5.4-50.3-.4-74.7-83.1,8.8-174.6,28.5-242.6,79.8-17.7,13.3-34.2,29.7-43,50.3,0,83.9.2,167.9.2,251.8,0,18.4,0,36.7,0,55.1s1.8,15.3-3.2,19.4-10.5-.9-11.2-6.8c-1.5-12.5,0-26.1,0-38.7,0-91.6-1.2-183.3-.3-275s22.7-45.4,39.3-59.8c25.4-21.9,55.6-37.6,86.5-50.2,63.2-25.8,131.9-39.7,199.9-43.4,8-.4,16-.7,24.1-.9-.8-4.1-1.9-8.2-3.3-12.1l3.2-1.7c1.6,4.5,2.7,9.1,3.6,13.8,53.3.2,116.4,3.7,160.6,37.4,10.2,7.7,25.2,21.3,26.8,34.9h0Z"/>
          <path class="cls-2" d="M862.7,705.8c.1-82.9.2-165.7.3-248.6,0-18.5,0-37,0-55.6,0-8.3,1-15.4-2.7-22.9-13.4-27.2-44.6-42.4-72.1-51-36.3-11.3-74.7-13.8-112.5-13.9-.9-4.7-2.1-9.3-3.6-13.8l-3.2,1.7c1.4,3.9,2.5,8,3.3,12.1-67.7,1.5-135.5,12.6-199.4,35-32.4,11.3-64.2,25.5-92.4,45.2-21.3,14.8-52.1,39.7-57.6,66.8s-.1,16.7-.1,24.4v63.4c.1,54.1.2,108.1.3,162.2,0,19,0,38,0,57s-2.2,16.6,1.9,20.6c6.4,6.2,11.7-2.6,12.5-8.1,1.6-11.2,0-23.7,0-35,0-92.1-.2-184.2-.3-276.3v-6.9c15.2-35.6,51.8-59.2,85-76,39.9-20.2,83.3-33.6,126.9-42.8,24.3-5.1,48.9-8.6,73.6-11.2,10.7,44.5-2.1,93.6-10.2,137.5-8.7,47-17.1,94.8-14.5,142.8,1.3,24.3,5.6,48.4,13.8,71.4l8.9-4.8c-32.7-91.8,2-186.9,12.8-279.1,2.6-22.7,3.9-46-.9-68.5,13.9-1,27.8-1.6,41.8-1.8,2.6,45.8-8.7,92.2-16.2,137.1-7.9,46.9-14.8,94.8-11.5,142.5s5.6,45.2,13.3,66.7l3.2-1.7c-31.3-87.3-4.2-183.8,9.2-271.9,3.7-24,6.9-48.4,5.5-72.7,53.5.5,143.7,3.9,171.2,60.4-.1,104.3-1.4,208.6-.4,312.9,0,3.6-.8,8.3,2.6,10.8,5.4,3.9,11.5-2.1,11.6-7.6h0Z"/>
        </g>
        <g>
          <polygon class="cls-2" points="572.3 686.9 569.1 688.6 591.9 701 595.1 699.3 572.3 686.9 572.3 686.9"/>
          <path class="cls-2" d="M579.5,351.6l-1.4-5.1,22.8,12.2c12.3,42.5,2.4,88.3-6,130.6-8.7,43.7-17.9,87.7-17.1,132.5s4.9,53.8,14,79.3l-22.8-12.5c-31.7-88.2.7-175.5,12.1-263.8,3.1-24.3,4.2-49.3-1.7-73.3h0Z"/>
          <polygon class="cls-2" points="578.2 346.5 581.4 344.9 604.2 357.2 601 358.7 578.2 346.5 578.2 346.5"/>
          <path class="cls-2" d="M587.1,388.7c-.2,76.8-31.8,149.9-28.4,227.2,1.1,24.2,5.4,48.1,13.6,71l22.8,12.4c-32.3-90.3,3.3-178.8,13.1-269.2,2.7-24.3,2.8-49.2-4-72.9l-22.8-12.2c4.1,14.2,5.7,29,5.7,43.8h0Z"/>
          <path class="cls-2" d="M610,401c-.2,76.8-31.8,150-28.4,227.3,1.1,24.2,5.4,48.2,13.5,71l-3.2,1.7c-32.2-89.4,1.7-177.3,12.5-266.8,3-25.1,3.7-51-3.4-75.5l3.2-1.5c4.1,14.2,5.7,29,5.7,43.8h0Z"/>
          <path class="cls-2" d="M587.1,394.4c.4-16.7-1-33.4-5.7-49.5l-3.2,1.5c12.3,42.4,2.4,88.3-6,130.5-8.7,43.7-17.9,87.6-17,132.4.5,27,4.9,53.8,14,79.3l3.2-1.7c-27.4-77.2-6.4-155.7,7.7-233.1,3.6-19.6,6.5-39.4,7.1-59.3h0Z"/>
        </g>
        <g>
          <polygon class="cls-2" points="526.9 693.4 523.7 695.1 546.5 707.5 549.7 705.8 526.9 693.4 526.9 693.4"/>
          <path class="cls-2" d="M534.1,374.5l-1.4-5.6,22.8,12.3c22.3,82.9-25.1,167-23.1,250.5s5.4,51.5,14.1,75.9l-22.8-12.5c-15.4-43.1-16.8-88.3-9.9-133.2,6.2-40.4,18.2-79.7,22.8-120.3,2.5-22.3,2.5-45-2.6-67h0Z"/>
          <polygon class="cls-2" points="532.7 368.9 536 367.4 558.8 379.7 555.5 381.2 532.7 368.9 532.7 368.9"/>
          <path class="cls-2" d="M541.7,410.2c.7,73.6-32.6,142.9-28.4,217,1.3,22.6,5.9,44.9,13.5,66.2l22.8,12.5c-15.8-44.1-16.5-90.2-9-136,6.8-41.6,19.4-82.3,23-124.4s.9-44.3-4.9-65.7l-22.8-12.3c3.8,13.9,5.6,28.3,5.8,42.7h0Z"/>
          <path class="cls-2" d="M564.6,422.4c.7,73.6-32.7,143-28.4,217.1s5.9,44.9,13.5,66.3l-3.2,1.7c-15.8-44.1-16.8-90.3-9.5-136.1s19-81.3,23-122.9,1.4-45.4-4.5-67.4l3.3-1.5c3.8,13.9,5.6,28.3,5.8,42.7h0Z"/>
          <path class="cls-2" d="M541.8,413c0-15.4-1.8-30.7-5.8-45.6l-3.3,1.5c22.3,82.9-25,166.9-23.1,250.3s5.4,51.5,14.1,75.9l3.2-1.7c-26.9-75.5-5.3-148,8.7-223.4s6.1-37.8,6.1-57h0Z"/>
        </g>
      </g>
      <g id="_x32_0_x5F_GENRE_x5F_OBJECT">
        <g>
          <path class="cls-2" d="M695.7,409.4l-1.9,1.6,22.8,12.3c37.9-33,100.4-47.2,145.5-20.5-21.7-11.5-41.4-23.4-66.4-25.4s-46.1,2.5-67,11.7-23,12-32.9,20.3h0Z"/>
          <path class="cls-2" d="M847.1,387.2v69c0,17.7-.1,35.5-.1,53.2,0,10.5,1.4,22.1,0,32.5s-4.6,11.3-8,3.7,0-16.6,0-22.2c0-16.6,0-33.2,0-49.8,0-27.7,0-55.4,0-83.1l23,12.2c0,36.3,0,72.5-.1,108.8s0,19.4,0,29.1c0,4.6-1.4,12,0,16.4s2.2,6.9,6.4,3.6,1.6-16,1.6-20.1c0-22.2,0-44.4,0-66.6v-62.4c0-8.9,2.1-13.3-5.8-18-40.1-24.2-96.8-13.8-134.4,10-6.9,4.4-18.9,10.6-21.2,18.7-3.2,11.3,0,28.4,0,40,0,23.8,0,47.7,0,71.5v30c0,4.5-1.3,11.2,0,15.4s2.5,6.9,6.6,3.4,1.5-17,1.4-21c0-42.5,0-85,0-127.6v-10.8s-22.8-12.3-22.8-12.3c0,46.6,0,93.3.1,139.9,0,3.2,3,20.8-4.4,20.6s-3.6-20.4-3.6-23.9c0-28.3,0-56.5,0-84.8,0-12.7,0-25.5,0-38.2s-1.4-11.1,0-15.2c3.5-10.4,22.8-19.4,32-24.2,13.6-7.1,28.3-12,43.4-14.7s33.3-3.1,49.6.1,34.9,7,36.2,16.7h0Z"/>
          <path class="cls-2" d="M870.1,399.4v69.1c-.1,17.8-.1,35.5-.2,53.3s1.4,22.1,0,32.6c-.8,5.5-4.6,11.3-8,3.8s0-16.7,0-22.2c0-16.6,0-33.3,0-49.9v-83.2c-45-26.7-107.5-12.5-145.4,20.5,0,46.7,0,93.4.1,140.2,0,3.2,3,20.9-4.4,20.6s-3.6-20.5-3.6-24c0-28.3,0-56.6,0-85,0-12.8,0-25.5,0-38.3s-1.4-11.1,0-15.2c3.5-10.4,22.8-19.5,32.1-24.3,13.6-7.1,28.4-12.1,43.5-14.8s33.4-3.1,49.7.1,35,7.1,36.2,16.7h0Z"/>
          <path class="cls-2" d="M846.9,544.5c0-25.8,0-51.5,0-77.3,0-18,0-35.9,0-53.9,0-7.1,2.5-19.3,0-26.1-4-11.1-29.5-15.7-40-17.4-18.3-3-37.2-1.9-55.2,2.5s-36.8,12.7-52.5,24.1c-5.1,3.7-11.9,7.5-13.7,13.7-2.2,8.1,0,19.9,0,28.2,0,35.8,0,71.6.1,107.3s-3.5,31.6,6.3,24.8,1.8-10.7,1.8-13.9c0-17.5,0-35,0-52.6,0-31,0-62,0-93,37.9-32.9,100.2-47.1,145.3-20.4,0,39.9,0,79.8-.1,119.7v26.8c0,2-1.2,8,.1,9.8,2.6,3.8,7.4,2.6,7.8-2.4h0Z"/>
        </g>
        <g>
          <polygon class="cls-2" points="730.4 559.8 728 559.4 750.8 571.9 753.2 572.4 730.4 559.8 730.4 559.8"/>
          <path class="cls-2" d="M727.4,404.2l.5-2.5,22.8,12.3c-12.1,52.8,14.2,106,0,158l-22.8-12.6c13.9-51-11.7-103.3-.7-155.2h0Z"/>
          <polygon class="cls-2" points="727.9 401.7 730.3 402 753.1 414.3 750.7 413.9 727.9 401.7 727.9 401.7"/>
          <path class="cls-2" d="M734.6,527.3c0,11-1.3,21.9-4.2,32.5l22.8,12.6c14.2-52-12.1-105.3,0-158.1l-22.8-12.3c-9.7,42.4,4.1,82.9,4.2,125.3h0Z"/>
          <path class="cls-2" d="M757.3,539.8c0,11-1.3,22-4.2,32.6l-2.4-.4c14.2-51.9-12.2-105.2,0-158l2.4.3c-9.8,42.5,4.1,83.1,4.2,125.5h0Z"/>
          <path class="cls-2" d="M734.6,529.3c.4-43.1-14.1-84.2-4.2-127.3l-2.4-.3c-12.1,52.7,14.3,105.8.1,157.7l2.4.4c2.7-9.9,4-20.2,4.2-30.5h0Z"/>
        </g>
        <g>
          <polygon class="cls-2" points="767.8 554.4 765.4 554 788.2 566.5 790.6 566.9 767.8 554.4 767.8 554.4"/>
          <path class="cls-2" d="M764.8,398.9l.5-2.5,22.9,12.2c-12.1,52.7,14.2,106,0,157.8l-22.8-12.5c13.9-51-11.6-103.3-.6-155.1h0Z"/>
          <polygon class="cls-2" points="765.4 396.4 767.8 396.8 790.7 409 788.2 408.7 765.4 396.4 765.4 396.4"/>
          <path class="cls-2" d="M772,521.9c0,11-1.3,21.9-4.2,32.5l22.8,12.5c14.2-52-12-105.2,0-157.9l-22.9-12.2c-9.7,42.4,4.1,82.8,4.2,125.2h0Z"/>
          <path class="cls-2" d="M794.8,534.4c0,11-1.3,21.9-4.2,32.5l-2.4-.4c14.2-51.9-12.1-105.1,0-157.8l2.4.3c-9.8,42.4,4,83,4.1,125.4h0Z"/>
          <path class="cls-2" d="M771.9,523.9c.5-43-14-84.1-4.1-127.2l-2.4-.3c-12.1,52.6,14.2,105.8,0,157.5l2.4.4c2.7-9.9,4-20.2,4.2-30.5h0Z"/>
        </g>
        <g>
          <polygon class="cls-2" points="805.1 549 802.7 548.6 825.6 561.1 828 561.5 805.1 549 805.1 549"/>
          <path class="cls-2" d="M802.2,393.6l.5-2.5,22.9,12.2c-12.1,52.7,14.1,105.9-.1,157.7l-22.9-12.5c13.9-50.9-11.5-103.2-.5-155h0Z"/>
          <polygon class="cls-2" points="802.8 391.2 805.2 391.5 828.1 403.7 825.7 403.4 802.8 391.2 802.8 391.2"/>
          <path class="cls-2" d="M809.3,516.6c0,10.9-1.3,21.9-4.2,32.4l22.9,12.5c14.2-51.9-12-105.1.1-157.8l-22.9-12.2c-9.7,42.3,4,82.8,4.1,125.1h0Z"/>
          <path class="cls-2" d="M832.2,529c0,11-1.3,21.9-4.2,32.5l-2.4-.4c14.2-51.8-12-105,.1-157.7l2.4.3c-9.8,42.4,4,82.9,4.1,125.3h0Z"/>
          <path class="cls-2" d="M809.3,518.6c.5-43-13.9-84.1-4.1-127.1l-2.4-.3c-12.1,52.6,14.1,105.7,0,157.4l2.4.4c2.7-9.9,4-20.2,4.2-30.5h0Z"/>
        </g>
      </g>
    </g>
  </g>
<g id="90_PROTECTED_PCM__PRODUCTION_ONLY" inkscape:groupmode="layer" inkscape:label="90 PROTECTED PCM - PRODUCTION ONLY" data-edit-policy="production-injected"></g></svg>