<?xml version="1.0" encoding="UTF-8"?>
<svg xmlns="http://www.w3.org/2000/svg" version="1.1" viewBox="0 0 1200 1200">
  <defs>
    <style>
      .cls-1 {
        fill: none;
        stroke: #111;
        stroke-linecap: round;
        stroke-linejoin: round;
        stroke-width: 1.1px;
      }
    </style>
  </defs>
  <!-- Generator: Adobe Illustrator 28.7.8, SVG Export Plug-In . SVG Version: 1.2.0 Build 200)  -->
  <g>
    <g id="_レイヤー_1" data-name="レイヤー_1">
      <g id="waveform_guides">
        <path class="cls-1" d="M382,390l31.3-6.5c9.2-1.9,24-1.3,33,1.3l15.3,4.5c9,2.6,23.5,2.1,32.3-1.2l16.2-6.1c8.8-3.3,23.2-3.6,32.1-.6l15.7,5.2c8.9,3,23.6,3.8,32.8,1.9l14.7-3.1c9.2-1.9,24-1.3,33,1.3l15.3,4.5c9,2.6,23.5,2.1,32.3-1.2l16.2-6.1c8.8-3.3,23.3-4.1,32.4-1.8l15,3.7c9.1,2.3,24.1,3.2,33.4,2.2l35.1-4.1"/>
        <path class="cls-1" d="M382,438l31.5,7.9c9.1,2.3,23.8,1.7,32.6-1.3l15.7-5.2c8.9-3,23.1-2.2,31.6,1.7l17.1,7.8c8.5,3.9,22.7,4.7,31.6,1.7l15.7-5.2c8.9-3,23.6-3.5,32.6-1.3l15,3.7c9.1,2.3,23.8,1.7,32.6-1.3l15.7-5.2c8.9-3,23.1-2.2,31.6,1.7l17.1,7.8c8.5,3.9,22.7,4.7,31.6,1.7l15.7-5.2c8.9-3,23.6-3.7,32.7-1.6l35.4,8.2"/>
        <path class="cls-1" d="M382,486l31.7-9.2c9-2.6,23.3-1.6,31.8,2.3l17.1,7.8c8.5,3.9,22.5,4.1,31.2.5l16.6-6.9c8.6-3.6,22.9-3.9,31.6-.6l16.2,6.1c8.8,3.3,23.3,3.8,32.3,1.2l15.3-4.5c9-2.6,23.5-2.1,32.3,1.2l16.2,6.1c8.8,3.3,23,3,31.6-.6l16.6-6.9c8.6-3.6,23.1-4.7,32.2-2.4l15,3.7c9.1,2.3,24.1,3.2,33.4,2.2l35.1-4.1"/>
        <path class="cls-1" d="M382,534l31.7,9.2c9,2.6,23.3,1.6,31.8-2.3l17.1-7.8c8.5-3.9,22.2-3.4,30.4,1l18.1,9.8c8.2,4.5,22,5.2,30.7,1.6l16.6-6.9c8.6-3.6,23-4.4,32-1.8l15.3,4.5c9,2.6,23.5,2.1,32.3-1.2l16.2-6.1c8.8-3.3,22.9-2.8,31.4,1.1l17.1,7.8c8.5,3.9,22.8,4.9,31.8,2.3l15.3-4.5c9-2.6,23.8-3,32.9-.9l35.4,8.2"/>
        <path class="cls-1" d="M382,582l31.7-9.2c9-2.6,23.3-1.6,31.8,2.3l17.1,7.8c8.5,3.9,22.6,4.4,31.4,1.1l16.2-6.1c8.8-3.3,23.2-3.6,32.1-.6l15.7,5.2c8.9,3,23.6,3.8,32.8,1.9l14.7-3.1c9.2-1.9,24-1.3,33,1.3l15.3,4.5c9,2.6,23.5,2.1,32.3-1.2l16.2-6.1c8.8-3.3,23.3-4.1,32.4-1.8l15,3.7c9.1,2.3,24.1,3.2,33.4,2.2l35.1-4.1"/>
      </g>
    </g>
  </g>
</svg>