<?xml version="1.0" encoding="UTF-8"?>
<svg xmlns="http://www.w3.org/2000/svg" version="1.1" viewBox="0 0 1200 1200">
  <defs>
    <style>
      .cls-1 {
        fill: #111;
      }

      .cls-2 {
        fill: none;
        stroke: #111;
        stroke-width: .5px;
      }
    </style>
  </defs>
  <!-- Generator: Adobe Illustrator 28.7.8, SVG Export Plug-In . SVG Version: 1.2.0 Build 200)  -->
  <g>
    <g id="_レイヤー_1" data-name="レイヤー_1">
      <path class="cls-1" d="M817,940c0-.5.5-1,1-1h0c.5,0,1,.5,1,1h0c0,.6-.5,1-1,1h0c-.5,0-1-.4-1-1ZM813,940c0-.5.5-1,1-1h0c.5,0,1,.5,1,1h0c0,.6-.5,1-1,1h0c-.5,0-1-.4-1-1ZM809,940c0-.5.5-1,1-1h0c.5,0,1,.5,1,1h0c0,.6-.5,1-1,1h0c-.5,0-1-.4-1-1ZM805,940c0-.5.5-1,1-1h0c.5,0,1,.5,1,1h0c0,.6-.5,1-1,1h0c-.5,0-1-.4-1-1ZM801,940c0-.5.5-1,1-1h0c.5,0,1,.5,1,1h0c0,.6-.5,1-1,1h0c-.5,0-1-.4-1-1ZM797,940c0-.5.5-1,1-1h0c.5,0,1,.5,1,1h0c0,.6-.5,1-1,1h0c-.5,0-1-.4-1-1ZM793,940c0-.5.5-1,1-1h0c.5,0,1,.5,1,1h0c0,.6-.5,1-1,1h0c-.5,0-1-.4-1-1ZM789,940c0-.5.5-1,1-1h0c.5,0,1,.5,1,1h0c0,.6-.5,1-1,1h0c-.5,0-1-.4-1-1ZM785,940c0-.5.5-1,1-1h0c.5,0,1,.5,1,1h0c0,.6-.5,1-1,1h0c-.5,0-1-.4-1-1ZM781,940c0-.5.5-1,1-1h0c.5,0,1,.5,1,1h0c0,.6-.5,1-1,1h0c-.5,0-1-.4-1-1ZM777,940c0-.5.5-1,1-1h0c.5,0,1,.5,1,1h0c0,.6-.5,1-1,1h0c-.5,0-1-.4-1-1ZM773,940c0-.5.5-1,1-1h0c.5,0,1,.5,1,1h0c0,.6-.5,1-1,1h0c-.5,0-1-.4-1-1ZM769,940c0-.5.5-1,1-1h0c.5,0,1,.5,1,1h0c0,.6-.5,1-1,1h0c-.5,0-1-.4-1-1ZM765,940c0-.5.5-1,1-1h0c.5,0,1,.5,1,1h0c0,.6-.5,1-1,1h0c-.5,0-1-.4-1-1ZM761,940c0-.5.5-1,1-1h0c.5,0,1,.5,1,1h0c0,.6-.5,1-1,1h0c-.5,0-1-.4-1-1ZM757,940c0-.5.5-1,1-1h0c.5,0,1,.5,1,1h0c0,.6-.5,1-1,1h0c-.5,0-1-.4-1-1ZM753,940c0-.5.5-1,1-1h0c.5,0,1,.5,1,1h0c0,.6-.5,1-1,1h0c-.5,0-1-.4-1-1ZM749,940c0-.5.5-1,1-1h0c.5,0,1,.5,1,1h0c0,.6-.5,1-1,1h0c-.5,0-1-.4-1-1ZM745,940c0-.5.5-1,1-1h0c.5,0,1,.5,1,1h0c0,.6-.5,1-1,1h0c-.5,0-1-.4-1-1ZM741,940c0-.5.5-1,1-1h0c.5,0,1,.5,1,1h0c0,.6-.5,1-1,1h0c-.5,0-1-.4-1-1ZM737,940c0-.5.5-1,1-1h0c.5,0,1,.5,1,1h0c0,.6-.5,1-1,1h0c-.5,0-1-.4-1-1ZM733,940c0-.5.5-1,1-1h0c.5,0,1,.5,1,1h0c0,.6-.5,1-1,1h0c-.5,0-1-.4-1-1ZM729,940c0-.5.5-1,1-1h0c.5,0,1,.5,1,1h0c0,.6-.5,1-1,1h0c-.5,0-1-.4-1-1ZM725,940c0-.5.5-1,1-1h0c.5,0,1,.5,1,1h0c0,.6-.5,1-1,1h0c-.5,0-1-.4-1-1ZM721,940c0-.5.5-1,1-1h0c.5,0,1,.5,1,1h0c0,.6-.5,1-1,1h0c-.5,0-1-.4-1-1ZM717,940c0-.5.5-1,1-1h0c.5,0,1,.5,1,1h0c0,.6-.5,1-1,1h0c-.5,0-1-.4-1-1ZM713,940c0-.5.5-1,1-1h0c.5,0,1,.5,1,1h0c0,.6-.5,1-1,1h0c-.5,0-1-.4-1-1ZM709,940c0-.5.5-1,1-1h0c.5,0,1,.5,1,1h0c0,.6-.5,1-1,1h0c-.5,0-1-.4-1-1ZM705,940c0-.5.5-1,1-1h0c.5,0,1,.5,1,1h0c0,.6-.5,1-1,1h0c-.5,0-1-.4-1-1ZM701,940c0-.5.5-1,1-1h0c.5,0,1,.5,1,1h0c0,.6-.5,1-1,1h0c-.5,0-1-.4-1-1ZM697,940c0-.5.5-1,1-1h0c.5,0,1,.5,1,1h0c0,.6-.5,1-1,1h0c-.5,0-1-.4-1-1ZM693,940c0-.5.5-1,1-1h0c.5,0,1,.5,1,1h0c0,.6-.5,1-1,1h0c-.5,0-1-.4-1-1ZM689,940c0-.5.5-1,1-1h0c.5,0,1,.5,1,1h0c0,.6-.5,1-1,1h0c-.5,0-1-.4-1-1ZM685,940c0-.5.5-1,1-1h0c.5,0,1,.5,1,1h0c0,.6-.5,1-1,1h0c-.5,0-1-.4-1-1ZM681,940c0-.5.5-1,1-1h0c.5,0,1,.5,1,1h0c0,.6-.5,1-1,1h0c-.5,0-1-.4-1-1ZM677,940c0-.5.5-1,1-1h0c.5,0,1,.5,1,1h0c0,.6-.5,1-1,1h0c-.5,0-1-.4-1-1ZM673,940c0-.5.5-1,1-1h0c.5,0,1,.5,1,1h0c0,.6-.5,1-1,1h0c-.5,0-1-.4-1-1ZM669,940c0-.5.5-1,1-1h0c.5,0,1,.5,1,1h0c0,.6-.5,1-1,1h0c-.5,0-1-.4-1-1ZM665,940c0-.5.5-1,1-1h0c.5,0,1,.5,1,1h0c0,.6-.5,1-1,1h0c-.5,0-1-.4-1-1ZM661,940c0-.5.5-1,1-1h0c.5,0,1,.5,1,1h0c0,.6-.5,1-1,1h0c-.5,0-1-.4-1-1ZM657,940c0-.5.5-1,1-1h0c.5,0,1,.5,1,1h0c0,.6-.5,1-1,1h0c-.5,0-1-.4-1-1ZM653,940c0-.5.5-1,1-1h0c.5,0,1,.5,1,1h0c0,.6-.5,1-1,1h0c-.5,0-1-.4-1-1ZM649,940c0-.5.5-1,1-1h0c.5,0,1,.5,1,1h0c0,.6-.5,1-1,1h0c-.5,0-1-.4-1-1ZM645,940c0-.5.5-1,1-1h0c.5,0,1,.5,1,1h0c0,.6-.5,1-1,1h0c-.5,0-1-.4-1-1ZM641,940c0-.5.5-1,1-1h0c.5,0,1,.5,1,1h0c0,.6-.5,1-1,1h0c-.5,0-1-.4-1-1ZM637,940c0-.5.5-1,1-1h0c.5,0,1,.5,1,1h0c0,.6-.5,1-1,1h0c-.5,0-1-.4-1-1ZM633,940c0-.5.5-1,1-1h0c.5,0,1,.5,1,1h0c0,.6-.5,1-1,1h0c-.5,0-1-.4-1-1ZM629,940c0-.5.5-1,1-1h0c.5,0,1,.5,1,1h0c0,.6-.5,1-1,1h0c-.5,0-1-.4-1-1ZM625,940c0-.5.5-1,1-1h0c.5,0,1,.5,1,1h0c0,.6-.5,1-1,1h0c-.5,0-1-.4-1-1ZM621,940c0-.5.5-1,1-1h0c.5,0,1,.5,1,1h0c0,.6-.5,1-1,1h0c-.5,0-1-.4-1-1ZM617,940c0-.5.5-1,1-1h0c.5,0,1,.5,1,1h0c0,.6-.5,1-1,1h0c-.5,0-1-.4-1-1ZM613,940c0-.5.5-1,1-1h0c.5,0,1,.5,1,1h0c0,.6-.5,1-1,1h0c-.5,0-1-.4-1-1ZM609,940c0-.5.5-1,1-1h0c.5,0,1,.5,1,1h0c0,.6-.5,1-1,1h0c-.5,0-1-.4-1-1ZM605,940c0-.5.5-1,1-1h0c.5,0,1,.5,1,1h0c0,.6-.5,1-1,1h0c-.5,0-1-.4-1-1ZM601,940c0-.5.5-1,1-1h0c.5,0,1,.5,1,1h0c0,.6-.5,1-1,1h0c-.5,0-1-.4-1-1ZM597,940c0-.5.4-1,1-1h0c.5,0,1,.5,1,1h0c0,.6-.5,1-1,1h0c-.6,0-1-.4-1-1ZM593,940c0-.5.4-1,1-1h0c.5,0,1,.5,1,1h0c0,.6-.5,1-1,1h0c-.6,0-1-.4-1-1ZM589,940c0-.5.4-1,1-1h0c.5,0,1,.5,1,1h0c0,.6-.5,1-1,1h0c-.6,0-1-.4-1-1ZM585,940c0-.5.4-1,1-1h0c.5,0,1,.5,1,1h0c0,.6-.5,1-1,1h0c-.6,0-1-.4-1-1ZM581,940c0-.5.4-1,1-1h0c.5,0,1,.5,1,1h0c0,.6-.5,1-1,1h0c-.6,0-1-.4-1-1ZM577,940c0-.5.4-1,1-1h0c.5,0,1,.5,1,1h0c0,.6-.5,1-1,1h0c-.6,0-1-.4-1-1ZM573,940c0-.5.4-1,1-1h0c.5,0,1,.5,1,1h0c0,.6-.5,1-1,1h0c-.6,0-1-.4-1-1ZM569,940c0-.5.4-1,1-1h0c.5,0,1,.5,1,1h0c0,.6-.5,1-1,1h0c-.6,0-1-.4-1-1ZM565,940c0-.5.4-1,1-1h0c.5,0,1,.5,1,1h0c0,.6-.5,1-1,1h0c-.6,0-1-.4-1-1ZM561,940c0-.5.4-1,1-1h0c.5,0,1,.5,1,1h0c0,.6-.5,1-1,1h0c-.6,0-1-.4-1-1ZM557,940c0-.5.4-1,1-1h0c.5,0,1,.5,1,1h0c0,.6-.5,1-1,1h0c-.6,0-1-.4-1-1ZM553,940c0-.5.4-1,1-1h0c.5,0,1,.5,1,1h0c0,.6-.5,1-1,1h0c-.6,0-1-.4-1-1ZM549,940c0-.5.4-1,1-1h0c.5,0,1,.5,1,1h0c0,.6-.5,1-1,1h0c-.6,0-1-.4-1-1ZM545,940c0-.5.4-1,1-1h0c.5,0,1,.5,1,1h0c0,.6-.5,1-1,1h0c-.6,0-1-.4-1-1ZM541,940c0-.5.4-1,1-1h0c.5,0,1,.5,1,1h0c0,.6-.5,1-1,1h0c-.6,0-1-.4-1-1ZM537,940c0-.5.4-1,1-1h0c.5,0,1,.5,1,1h0c0,.6-.5,1-1,1h0c-.6,0-1-.4-1-1ZM533,940c0-.5.4-1,1-1h0c.5,0,1,.5,1,1h0c0,.6-.5,1-1,1h0c-.6,0-1-.4-1-1ZM529,940c0-.5.4-1,1-1h0c.5,0,1,.5,1,1h0c0,.6-.5,1-1,1h0c-.6,0-1-.4-1-1ZM525,940c0-.5.4-1,1-1h0c.5,0,1,.5,1,1h0c0,.6-.5,1-1,1h0c-.6,0-1-.4-1-1ZM521,940c0-.5.4-1,1-1h0c.5,0,1,.5,1,1h0c0,.6-.5,1-1,1h0c-.6,0-1-.4-1-1ZM517,940c0-.5.4-1,1-1h0c.5,0,1,.5,1,1h0c0,.6-.5,1-1,1h0c-.6,0-1-.4-1-1ZM513,940c0-.5.4-1,1-1h0c.5,0,1,.5,1,1h0c0,.6-.5,1-1,1h0c-.6,0-1-.4-1-1ZM509,940c0-.5.4-1,1-1h0c.5,0,1,.5,1,1h0c0,.6-.5,1-1,1h0c-.6,0-1-.4-1-1ZM505,940c0-.5.4-1,1-1h0c.5,0,1,.5,1,1h0c0,.6-.5,1-1,1h0c-.6,0-1-.4-1-1ZM501,940c0-.5.4-1,1-1h0c.5,0,1,.5,1,1h0c0,.6-.5,1-1,1h0c-.6,0-1-.4-1-1ZM497,940c0-.5.4-1,1-1h0c.5,0,1,.5,1,1h0c0,.6-.5,1-1,1h0c-.6,0-1-.4-1-1ZM493,940c0-.5.4-1,1-1h0c.5,0,1,.5,1,1h0c0,.6-.5,1-1,1h0c-.6,0-1-.4-1-1ZM489,940c0-.5.4-1,1-1h0c.5,0,1,.5,1,1h0c0,.6-.5,1-1,1h0c-.6,0-1-.4-1-1ZM485,940c0-.5.4-1,1-1h0c.5,0,1,.5,1,1h0c0,.6-.5,1-1,1h0c-.6,0-1-.4-1-1ZM481,940c0-.5.4-1,1-1h0c.5,0,1,.5,1,1h0c0,.6-.5,1-1,1h0c-.6,0-1-.4-1-1ZM477,940c0-.5.4-1,1-1h0c.5,0,1,.5,1,1h0c0,.6-.5,1-1,1h0c-.6,0-1-.4-1-1ZM473,940c0-.5.4-1,1-1h0c.5,0,1,.5,1,1h0c0,.6-.5,1-1,1h0c-.6,0-1-.4-1-1ZM469,940c0-.5.4-1,1-1h0c.5,0,1,.5,1,1h0c0,.6-.5,1-1,1h0c-.6,0-1-.4-1-1ZM465,940c0-.5.4-1,1-1h0c.5,0,1,.5,1,1h0c0,.6-.5,1-1,1h0c-.6,0-1-.4-1-1ZM461,940c0-.5.4-1,1-1h0c.5,0,1,.5,1,1h0c0,.6-.5,1-1,1h0c-.6,0-1-.4-1-1ZM457,940c0-.5.4-1,1-1h0c.5,0,1,.5,1,1h0c0,.6-.5,1-1,1h0c-.6,0-1-.4-1-1ZM453,940c0-.5.4-1,1-1h0c.5,0,1,.5,1,1h0c0,.6-.5,1-1,1h0c-.6,0-1-.4-1-1ZM449,940c0-.5.4-1,1-1h0c.5,0,1,.5,1,1h0c0,.6-.5,1-1,1h0c-.6,0-1-.4-1-1ZM445,940c0-.5.4-1,1-1h0c.5,0,1,.5,1,1h0c0,.6-.5,1-1,1h0c-.6,0-1-.4-1-1ZM441,940c0-.5.4-1,1-1h0c.5,0,1,.5,1,1h0c0,.6-.5,1-1,1h0c-.6,0-1-.4-1-1ZM437,940c0-.5.4-1,1-1h0c.5,0,1,.5,1,1h0c0,.6-.5,1-1,1h0c-.6,0-1-.4-1-1ZM433,940c0-.5.4-1,1-1h0c.5,0,1,.5,1,1h0c0,.6-.5,1-1,1h0c-.6,0-1-.4-1-1ZM429,940c0-.5.4-1,1-1h0c.5,0,1,.5,1,1h0c0,.6-.5,1-1,1h0c-.6,0-1-.4-1-1ZM425,940c0-.5.4-1,1-1h0c.5,0,1,.5,1,1h0c0,.6-.5,1-1,1h0c-.6,0-1-.4-1-1ZM421,940c0-.5.4-1,1-1h0c.5,0,1,.5,1,1h0c0,.6-.5,1-1,1h0c-.6,0-1-.4-1-1ZM417,940c0-.5.4-1,1-1h0c.5,0,1,.5,1,1h0c0,.6-.5,1-1,1h0c-.6,0-1-.4-1-1ZM413,940c0-.5.4-1,1-1h0c.5,0,1,.5,1,1h0c0,.6-.5,1-1,1h0c-.6,0-1-.4-1-1ZM409,940c0-.5.4-1,1-1h0c.5,0,1,.5,1,1h0c0,.6-.5,1-1,1h0c-.6,0-1-.4-1-1ZM405,940c0-.5.4-1,1-1h0c.5,0,1,.5,1,1h0c0,.6-.5,1-1,1h0c-.6,0-1-.4-1-1ZM401,940c0-.5.4-1,1-1h0c.5,0,1,.5,1,1h0c0,.6-.5,1-1,1h0c-.6,0-1-.4-1-1ZM397,940c0-.5.4-1,1-1h0c.5,0,1,.5,1,1h0c0,.6-.5,1-1,1h0c-.6,0-1-.4-1-1ZM393,940c0-.5.4-1,1-1h0c.5,0,1,.5,1,1h0c0,.6-.5,1-1,1h0c-.6,0-1-.4-1-1ZM389,940c0-.5.4-1,1-1h0c.5,0,1,.5,1,1h0c0,.6-.5,1-1,1h0c-.6,0-1-.4-1-1ZM385,940c0-.5.4-1,1-1h0c.5,0,1,.5,1,1h0c0,.6-.5,1-1,1h0c-.6,0-1-.4-1-1ZM381,940c0-.5.4-1,1-1h0c.5,0,1,.5,1,1h0c0,.6-.5,1-1,1h0c-.6,0-1-.4-1-1ZM817,910c0-.5.5-1,1-1h0c.5,0,1,.5,1,1h0c0,.6-.5,1-1,1h0c-.5,0-1-.4-1-1ZM813,910c0-.5.5-1,1-1h0c.5,0,1,.5,1,1h0c0,.6-.5,1-1,1h0c-.5,0-1-.4-1-1ZM809,910c0-.5.5-1,1-1h0c.5,0,1,.5,1,1h0c0,.6-.5,1-1,1h0c-.5,0-1-.4-1-1ZM805,910c0-.5.5-1,1-1h0c.5,0,1,.5,1,1h0c0,.6-.5,1-1,1h0c-.5,0-1-.4-1-1ZM801,910c0-.5.5-1,1-1h0c.5,0,1,.5,1,1h0c0,.6-.5,1-1,1h0c-.5,0-1-.4-1-1ZM797,910c0-.5.5-1,1-1h0c.5,0,1,.5,1,1h0c0,.6-.5,1-1,1h0c-.5,0-1-.4-1-1ZM793,910c0-.5.5-1,1-1h0c.5,0,1,.5,1,1h0c0,.6-.5,1-1,1h0c-.5,0-1-.4-1-1ZM789,910c0-.5.5-1,1-1h0c.5,0,1,.5,1,1h0c0,.6-.5,1-1,1h0c-.5,0-1-.4-1-1ZM785,910c0-.5.5-1,1-1h0c.5,0,1,.5,1,1h0c0,.6-.5,1-1,1h0c-.5,0-1-.4-1-1ZM781,910c0-.5.5-1,1-1h0c.5,0,1,.5,1,1h0c0,.6-.5,1-1,1h0c-.5,0-1-.4-1-1ZM777,910c0-.5.5-1,1-1h0c.5,0,1,.5,1,1h0c0,.6-.5,1-1,1h0c-.5,0-1-.4-1-1ZM773,910c0-.5.5-1,1-1h0c.5,0,1,.5,1,1h0c0,.6-.5,1-1,1h0c-.5,0-1-.4-1-1ZM769,910c0-.5.5-1,1-1h0c.5,0,1,.5,1,1h0c0,.6-.5,1-1,1h0c-.5,0-1-.4-1-1ZM765,910c0-.5.5-1,1-1h0c.5,0,1,.5,1,1h0c0,.6-.5,1-1,1h0c-.5,0-1-.4-1-1ZM761,910c0-.5.5-1,1-1h0c.5,0,1,.5,1,1h0c0,.6-.5,1-1,1h0c-.5,0-1-.4-1-1ZM757,910c0-.5.5-1,1-1h0c.5,0,1,.5,1,1h0c0,.6-.5,1-1,1h0c-.5,0-1-.4-1-1ZM753,910c0-.5.5-1,1-1h0c.5,0,1,.5,1,1h0c0,.6-.5,1-1,1h0c-.5,0-1-.4-1-1ZM749,910c0-.5.5-1,1-1h0c.5,0,1,.5,1,1h0c0,.6-.5,1-1,1h0c-.5,0-1-.4-1-1ZM745,910c0-.5.5-1,1-1h0c.5,0,1,.5,1,1h0c0,.6-.5,1-1,1h0c-.5,0-1-.4-1-1ZM741,910c0-.5.5-1,1-1h0c.5,0,1,.5,1,1h0c0,.6-.5,1-1,1h0c-.5,0-1-.4-1-1ZM737,910c0-.5.5-1,1-1h0c.5,0,1,.5,1,1h0c0,.6-.5,1-1,1h0c-.5,0-1-.4-1-1ZM733,910c0-.5.5-1,1-1h0c.5,0,1,.5,1,1h0c0,.6-.5,1-1,1h0c-.5,0-1-.4-1-1ZM729,910c0-.5.5-1,1-1h0c.5,0,1,.5,1,1h0c0,.6-.5,1-1,1h0c-.5,0-1-.4-1-1ZM725,910c0-.5.5-1,1-1h0c.5,0,1,.5,1,1h0c0,.6-.5,1-1,1h0c-.5,0-1-.4-1-1ZM721,910c0-.5.5-1,1-1h0c.5,0,1,.5,1,1h0c0,.6-.5,1-1,1h0c-.5,0-1-.4-1-1ZM717,910c0-.5.5-1,1-1h0c.5,0,1,.5,1,1h0c0,.6-.5,1-1,1h0c-.5,0-1-.4-1-1ZM713,910c0-.5.5-1,1-1h0c.5,0,1,.5,1,1h0c0,.6-.5,1-1,1h0c-.5,0-1-.4-1-1ZM709,910c0-.5.5-1,1-1h0c.5,0,1,.5,1,1h0c0,.6-.5,1-1,1h0c-.5,0-1-.4-1-1ZM705,910c0-.5.5-1,1-1h0c.5,0,1,.5,1,1h0c0,.6-.5,1-1,1h0c-.5,0-1-.4-1-1ZM701,910c0-.5.5-1,1-1h0c.5,0,1,.5,1,1h0c0,.6-.5,1-1,1h0c-.5,0-1-.4-1-1ZM697,910c0-.5.5-1,1-1h0c.5,0,1,.5,1,1h0c0,.6-.5,1-1,1h0c-.5,0-1-.4-1-1ZM693,910c0-.5.5-1,1-1h0c.5,0,1,.5,1,1h0c0,.6-.5,1-1,1h0c-.5,0-1-.4-1-1ZM689,910c0-.5.5-1,1-1h0c.5,0,1,.5,1,1h0c0,.6-.5,1-1,1h0c-.5,0-1-.4-1-1ZM685,910c0-.5.5-1,1-1h0c.5,0,1,.5,1,1h0c0,.6-.5,1-1,1h0c-.5,0-1-.4-1-1ZM681,910c0-.5.5-1,1-1h0c.5,0,1,.5,1,1h0c0,.6-.5,1-1,1h0c-.5,0-1-.4-1-1ZM677,910c0-.5.5-1,1-1h0c.5,0,1,.5,1,1h0c0,.6-.5,1-1,1h0c-.5,0-1-.4-1-1ZM673,910c0-.5.5-1,1-1h0c.5,0,1,.5,1,1h0c0,.6-.5,1-1,1h0c-.5,0-1-.4-1-1ZM669,910c0-.5.5-1,1-1h0c.5,0,1,.5,1,1h0c0,.6-.5,1-1,1h0c-.5,0-1-.4-1-1ZM665,910c0-.5.5-1,1-1h0c.5,0,1,.5,1,1h0c0,.6-.5,1-1,1h0c-.5,0-1-.4-1-1ZM661,910c0-.5.5-1,1-1h0c.5,0,1,.5,1,1h0c0,.6-.5,1-1,1h0c-.5,0-1-.4-1-1ZM657,910c0-.5.5-1,1-1h0c.5,0,1,.5,1,1h0c0,.6-.5,1-1,1h0c-.5,0-1-.4-1-1ZM653,910c0-.5.5-1,1-1h0c.5,0,1,.5,1,1h0c0,.6-.5,1-1,1h0c-.5,0-1-.4-1-1ZM649,910c0-.5.5-1,1-1h0c.5,0,1,.5,1,1h0c0,.6-.5,1-1,1h0c-.5,0-1-.4-1-1ZM645,910c0-.5.5-1,1-1h0c.5,0,1,.5,1,1h0c0,.6-.5,1-1,1h0c-.5,0-1-.4-1-1ZM641,910c0-.5.5-1,1-1h0c.5,0,1,.5,1,1h0c0,.6-.5,1-1,1h0c-.5,0-1-.4-1-1ZM637,910c0-.5.5-1,1-1h0c.5,0,1,.5,1,1h0c0,.6-.5,1-1,1h0c-.5,0-1-.4-1-1ZM633,910c0-.5.5-1,1-1h0c.5,0,1,.5,1,1h0c0,.6-.5,1-1,1h0c-.5,0-1-.4-1-1ZM629,910c0-.5.5-1,1-1h0c.5,0,1,.5,1,1h0c0,.6-.5,1-1,1h0c-.5,0-1-.4-1-1ZM625,910c0-.5.5-1,1-1h0c.5,0,1,.5,1,1h0c0,.6-.5,1-1,1h0c-.5,0-1-.4-1-1ZM621,910c0-.5.5-1,1-1h0c.5,0,1,.5,1,1h0c0,.6-.5,1-1,1h0c-.5,0-1-.4-1-1ZM617,910c0-.5.5-1,1-1h0c.5,0,1,.5,1,1h0c0,.6-.5,1-1,1h0c-.5,0-1-.4-1-1ZM613,910c0-.5.5-1,1-1h0c.5,0,1,.5,1,1h0c0,.6-.5,1-1,1h0c-.5,0-1-.4-1-1ZM609,910c0-.5.5-1,1-1h0c.5,0,1,.5,1,1h0c0,.6-.5,1-1,1h0c-.5,0-1-.4-1-1ZM605,910c0-.5.5-1,1-1h0c.5,0,1,.5,1,1h0c0,.6-.5,1-1,1h0c-.5,0-1-.4-1-1ZM601,910c0-.5.5-1,1-1h0c.5,0,1,.5,1,1h0c0,.6-.5,1-1,1h0c-.5,0-1-.4-1-1ZM597,910c0-.5.4-1,1-1h0c.5,0,1,.5,1,1h0c0,.6-.5,1-1,1h0c-.6,0-1-.4-1-1ZM593,910c0-.5.4-1,1-1h0c.5,0,1,.5,1,1h0c0,.6-.5,1-1,1h0c-.6,0-1-.4-1-1ZM589,910c0-.5.4-1,1-1h0c.5,0,1,.5,1,1h0c0,.6-.5,1-1,1h0c-.6,0-1-.4-1-1ZM585,910c0-.5.4-1,1-1h0c.5,0,1,.5,1,1h0c0,.6-.5,1-1,1h0c-.6,0-1-.4-1-1ZM581,910c0-.5.4-1,1-1h0c.5,0,1,.5,1,1h0c0,.6-.5,1-1,1h0c-.6,0-1-.4-1-1ZM577,910c0-.5.4-1,1-1h0c.5,0,1,.5,1,1h0c0,.6-.5,1-1,1h0c-.6,0-1-.4-1-1ZM573,910c0-.5.4-1,1-1h0c.5,0,1,.5,1,1h0c0,.6-.5,1-1,1h0c-.6,0-1-.4-1-1ZM569,910c0-.5.4-1,1-1h0c.5,0,1,.5,1,1h0c0,.6-.5,1-1,1h0c-.6,0-1-.4-1-1ZM565,910c0-.5.4-1,1-1h0c.5,0,1,.5,1,1h0c0,.6-.5,1-1,1h0c-.6,0-1-.4-1-1ZM561,910c0-.5.4-1,1-1h0c.5,0,1,.5,1,1h0c0,.6-.5,1-1,1h0c-.6,0-1-.4-1-1ZM557,910c0-.5.4-1,1-1h0c.5,0,1,.5,1,1h0c0,.6-.5,1-1,1h0c-.6,0-1-.4-1-1ZM553,910c0-.5.4-1,1-1h0c.5,0,1,.5,1,1h0c0,.6-.5,1-1,1h0c-.6,0-1-.4-1-1ZM549,910c0-.5.4-1,1-1h0c.5,0,1,.5,1,1h0c0,.6-.5,1-1,1h0c-.6,0-1-.4-1-1ZM545,910c0-.5.4-1,1-1h0c.5,0,1,.5,1,1h0c0,.6-.5,1-1,1h0c-.6,0-1-.4-1-1ZM541,910c0-.5.4-1,1-1h0c.5,0,1,.5,1,1h0c0,.6-.5,1-1,1h0c-.6,0-1-.4-1-1ZM537,910c0-.5.4-1,1-1h0c.5,0,1,.5,1,1h0c0,.6-.5,1-1,1h0c-.6,0-1-.4-1-1ZM533,910c0-.5.4-1,1-1h0c.5,0,1,.5,1,1h0c0,.6-.5,1-1,1h0c-.6,0-1-.4-1-1ZM529,910c0-.5.4-1,1-1h0c.5,0,1,.5,1,1h0c0,.6-.5,1-1,1h0c-.6,0-1-.4-1-1ZM525,910c0-.5.4-1,1-1h0c.5,0,1,.5,1,1h0c0,.6-.5,1-1,1h0c-.6,0-1-.4-1-1ZM521,910c0-.5.4-1,1-1h0c.5,0,1,.5,1,1h0c0,.6-.5,1-1,1h0c-.6,0-1-.4-1-1ZM517,910c0-.5.4-1,1-1h0c.5,0,1,.5,1,1h0c0,.6-.5,1-1,1h0c-.6,0-1-.4-1-1ZM513,910c0-.5.4-1,1-1h0c.5,0,1,.5,1,1h0c0,.6-.5,1-1,1h0c-.6,0-1-.4-1-1ZM509,910c0-.5.4-1,1-1h0c.5,0,1,.5,1,1h0c0,.6-.5,1-1,1h0c-.6,0-1-.4-1-1ZM505,910c0-.5.4-1,1-1h0c.5,0,1,.5,1,1h0c0,.6-.5,1-1,1h0c-.6,0-1-.4-1-1ZM501,910c0-.5.4-1,1-1h0c.5,0,1,.5,1,1h0c0,.6-.5,1-1,1h0c-.6,0-1-.4-1-1ZM497,910c0-.5.4-1,1-1h0c.5,0,1,.5,1,1h0c0,.6-.5,1-1,1h0c-.6,0-1-.4-1-1ZM493,910c0-.5.4-1,1-1h0c.5,0,1,.5,1,1h0c0,.6-.5,1-1,1h0c-.6,0-1-.4-1-1ZM489,910c0-.5.4-1,1-1h0c.5,0,1,.5,1,1h0c0,.6-.5,1-1,1h0c-.6,0-1-.4-1-1ZM485,910c0-.5.4-1,1-1h0c.5,0,1,.5,1,1h0c0,.6-.5,1-1,1h0c-.6,0-1-.4-1-1ZM481,910c0-.5.4-1,1-1h0c.5,0,1,.5,1,1h0c0,.6-.5,1-1,1h0c-.6,0-1-.4-1-1ZM477,910c0-.5.4-1,1-1h0c.5,0,1,.5,1,1h0c0,.6-.5,1-1,1h0c-.6,0-1-.4-1-1ZM473,910c0-.5.4-1,1-1h0c.5,0,1,.5,1,1h0c0,.6-.5,1-1,1h0c-.6,0-1-.4-1-1ZM469,910c0-.5.4-1,1-1h0c.5,0,1,.5,1,1h0c0,.6-.5,1-1,1h0c-.6,0-1-.4-1-1ZM465,910c0-.5.4-1,1-1h0c.5,0,1,.5,1,1h0c0,.6-.5,1-1,1h0c-.6,0-1-.4-1-1ZM461,910c0-.5.4-1,1-1h0c.5,0,1,.5,1,1h0c0,.6-.5,1-1,1h0c-.6,0-1-.4-1-1ZM457,910c0-.5.4-1,1-1h0c.5,0,1,.5,1,1h0c0,.6-.5,1-1,1h0c-.6,0-1-.4-1-1ZM453,910c0-.5.4-1,1-1h0c.5,0,1,.5,1,1h0c0,.6-.5,1-1,1h0c-.6,0-1-.4-1-1ZM449,910c0-.5.4-1,1-1h0c.5,0,1,.5,1,1h0c0,.6-.5,1-1,1h0c-.6,0-1-.4-1-1ZM445,910c0-.5.4-1,1-1h0c.5,0,1,.5,1,1h0c0,.6-.5,1-1,1h0c-.6,0-1-.4-1-1ZM441,910c0-.5.4-1,1-1h0c.5,0,1,.5,1,1h0c0,.6-.5,1-1,1h0c-.6,0-1-.4-1-1ZM437,910c0-.5.4-1,1-1h0c.5,0,1,.5,1,1h0c0,.6-.5,1-1,1h0c-.6,0-1-.4-1-1ZM433,910c0-.5.4-1,1-1h0c.5,0,1,.5,1,1h0c0,.6-.5,1-1,1h0c-.6,0-1-.4-1-1ZM429,910c0-.5.4-1,1-1h0c.5,0,1,.5,1,1h0c0,.6-.5,1-1,1h0c-.6,0-1-.4-1-1ZM425,910c0-.5.4-1,1-1h0c.5,0,1,.5,1,1h0c0,.6-.5,1-1,1h0c-.6,0-1-.4-1-1ZM421,910c0-.5.4-1,1-1h0c.5,0,1,.5,1,1h0c0,.6-.5,1-1,1h0c-.6,0-1-.4-1-1ZM417,910c0-.5.4-1,1-1h0c.5,0,1,.5,1,1h0c0,.6-.5,1-1,1h0c-.6,0-1-.4-1-1ZM413,910c0-.5.4-1,1-1h0c.5,0,1,.5,1,1h0c0,.6-.5,1-1,1h0c-.6,0-1-.4-1-1ZM409,910c0-.5.4-1,1-1h0c.5,0,1,.5,1,1h0c0,.6-.5,1-1,1h0c-.6,0-1-.4-1-1ZM405,910c0-.5.4-1,1-1h0c.5,0,1,.5,1,1h0c0,.6-.5,1-1,1h0c-.6,0-1-.4-1-1ZM401,910c0-.5.4-1,1-1h0c.5,0,1,.5,1,1h0c0,.6-.5,1-1,1h0c-.6,0-1-.4-1-1ZM397,910c0-.5.4-1,1-1h0c.5,0,1,.5,1,1h0c0,.6-.5,1-1,1h0c-.6,0-1-.4-1-1ZM393,910c0-.5.4-1,1-1h0c.5,0,1,.5,1,1h0c0,.6-.5,1-1,1h0c-.6,0-1-.4-1-1ZM389,910c0-.5.4-1,1-1h0c.5,0,1,.5,1,1h0c0,.6-.5,1-1,1h0c-.6,0-1-.4-1-1ZM385,910c0-.5.4-1,1-1h0c.5,0,1,.5,1,1h0c0,.6-.5,1-1,1h0c-.6,0-1-.4-1-1ZM381,910c0-.5.4-1,1-1h0c.5,0,1,.5,1,1h0c0,.6-.5,1-1,1h0c-.6,0-1-.4-1-1ZM817,880c0-.5.5-1,1-1h0c.5,0,1,.5,1,1h0c0,.6-.5,1-1,1h0c-.5,0-1-.4-1-1ZM813,880c0-.5.5-1,1-1h0c.5,0,1,.5,1,1h0c0,.6-.5,1-1,1h0c-.5,0-1-.4-1-1ZM809,880c0-.5.5-1,1-1h0c.5,0,1,.5,1,1h0c0,.6-.5,1-1,1h0c-.5,0-1-.4-1-1ZM805,880c0-.5.5-1,1-1h0c.5,0,1,.5,1,1h0c0,.6-.5,1-1,1h0c-.5,0-1-.4-1-1ZM801,880c0-.5.5-1,1-1h0c.5,0,1,.5,1,1h0c0,.6-.5,1-1,1h0c-.5,0-1-.4-1-1ZM797,880c0-.5.5-1,1-1h0c.5,0,1,.5,1,1h0c0,.6-.5,1-1,1h0c-.5,0-1-.4-1-1ZM793,880c0-.5.5-1,1-1h0c.5,0,1,.5,1,1h0c0,.6-.5,1-1,1h0c-.5,0-1-.4-1-1ZM789,880c0-.5.5-1,1-1h0c.5,0,1,.5,1,1h0c0,.6-.5,1-1,1h0c-.5,0-1-.4-1-1ZM785,880c0-.5.5-1,1-1h0c.5,0,1,.5,1,1h0c0,.6-.5,1-1,1h0c-.5,0-1-.4-1-1ZM781,880c0-.5.5-1,1-1h0c.5,0,1,.5,1,1h0c0,.6-.5,1-1,1h0c-.5,0-1-.4-1-1ZM777,880c0-.5.5-1,1-1h0c.5,0,1,.5,1,1h0c0,.6-.5,1-1,1h0c-.5,0-1-.4-1-1ZM773,880c0-.5.5-1,1-1h0c.5,0,1,.5,1,1h0c0,.6-.5,1-1,1h0c-.5,0-1-.4-1-1ZM769,880c0-.5.5-1,1-1h0c.5,0,1,.5,1,1h0c0,.6-.5,1-1,1h0c-.5,0-1-.4-1-1ZM765,880c0-.5.5-1,1-1h0c.5,0,1,.5,1,1h0c0,.6-.5,1-1,1h0c-.5,0-1-.4-1-1ZM761,880c0-.5.5-1,1-1h0c.5,0,1,.5,1,1h0c0,.6-.5,1-1,1h0c-.5,0-1-.4-1-1ZM757,880c0-.5.5-1,1-1h0c.5,0,1,.5,1,1h0c0,.6-.5,1-1,1h0c-.5,0-1-.4-1-1ZM753,880c0-.5.5-1,1-1h0c.5,0,1,.5,1,1h0c0,.6-.5,1-1,1h0c-.5,0-1-.4-1-1ZM749,880c0-.5.5-1,1-1h0c.5,0,1,.5,1,1h0c0,.6-.5,1-1,1h0c-.5,0-1-.4-1-1ZM745,880c0-.5.5-1,1-1h0c.5,0,1,.5,1,1h0c0,.6-.5,1-1,1h0c-.5,0-1-.4-1-1ZM741,880c0-.5.5-1,1-1h0c.5,0,1,.5,1,1h0c0,.6-.5,1-1,1h0c-.5,0-1-.4-1-1ZM737,880c0-.5.5-1,1-1h0c.5,0,1,.5,1,1h0c0,.6-.5,1-1,1h0c-.5,0-1-.4-1-1ZM733,880c0-.5.5-1,1-1h0c.5,0,1,.5,1,1h0c0,.6-.5,1-1,1h0c-.5,0-1-.4-1-1ZM729,880c0-.5.5-1,1-1h0c.5,0,1,.5,1,1h0c0,.6-.5,1-1,1h0c-.5,0-1-.4-1-1ZM725,880c0-.5.5-1,1-1h0c.5,0,1,.5,1,1h0c0,.6-.5,1-1,1h0c-.5,0-1-.4-1-1ZM721,880c0-.5.5-1,1-1h0c.5,0,1,.5,1,1h0c0,.6-.5,1-1,1h0c-.5,0-1-.4-1-1ZM717,880c0-.5.5-1,1-1h0c.5,0,1,.5,1,1h0c0,.6-.5,1-1,1h0c-.5,0-1-.4-1-1ZM713,880c0-.5.5-1,1-1h0c.5,0,1,.5,1,1h0c0,.6-.5,1-1,1h0c-.5,0-1-.4-1-1ZM709,880c0-.5.5-1,1-1h0c.5,0,1,.5,1,1h0c0,.6-.5,1-1,1h0c-.5,0-1-.4-1-1ZM705,880c0-.5.5-1,1-1h0c.5,0,1,.5,1,1h0c0,.6-.5,1-1,1h0c-.5,0-1-.4-1-1ZM701,880c0-.5.5-1,1-1h0c.5,0,1,.5,1,1h0c0,.6-.5,1-1,1h0c-.5,0-1-.4-1-1ZM697,880c0-.5.5-1,1-1h0c.5,0,1,.5,1,1h0c0,.6-.5,1-1,1h0c-.5,0-1-.4-1-1ZM693,880c0-.5.5-1,1-1h0c.5,0,1,.5,1,1h0c0,.6-.5,1-1,1h0c-.5,0-1-.4-1-1ZM689,880c0-.5.5-1,1-1h0c.5,0,1,.5,1,1h0c0,.6-.5,1-1,1h0c-.5,0-1-.4-1-1ZM685,880c0-.5.5-1,1-1h0c.5,0,1,.5,1,1h0c0,.6-.5,1-1,1h0c-.5,0-1-.4-1-1ZM681,880c0-.5.5-1,1-1h0c.5,0,1,.5,1,1h0c0,.6-.5,1-1,1h0c-.5,0-1-.4-1-1ZM677,880c0-.5.5-1,1-1h0c.5,0,1,.5,1,1h0c0,.6-.5,1-1,1h0c-.5,0-1-.4-1-1ZM673,880c0-.5.5-1,1-1h0c.5,0,1,.5,1,1h0c0,.6-.5,1-1,1h0c-.5,0-1-.4-1-1ZM669,880c0-.5.5-1,1-1h0c.5,0,1,.5,1,1h0c0,.6-.5,1-1,1h0c-.5,0-1-.4-1-1ZM665,880c0-.5.5-1,1-1h0c.5,0,1,.5,1,1h0c0,.6-.5,1-1,1h0c-.5,0-1-.4-1-1ZM661,880c0-.5.5-1,1-1h0c.5,0,1,.5,1,1h0c0,.6-.5,1-1,1h0c-.5,0-1-.4-1-1ZM657,880c0-.5.5-1,1-1h0c.5,0,1,.5,1,1h0c0,.6-.5,1-1,1h0c-.5,0-1-.4-1-1ZM653,880c0-.5.5-1,1-1h0c.5,0,1,.5,1,1h0c0,.6-.5,1-1,1h0c-.5,0-1-.4-1-1ZM649,880c0-.5.5-1,1-1h0c.5,0,1,.5,1,1h0c0,.6-.5,1-1,1h0c-.5,0-1-.4-1-1ZM645,880c0-.5.5-1,1-1h0c.5,0,1,.5,1,1h0c0,.6-.5,1-1,1h0c-.5,0-1-.4-1-1ZM641,880c0-.5.5-1,1-1h0c.5,0,1,.5,1,1h0c0,.6-.5,1-1,1h0c-.5,0-1-.4-1-1ZM637,880c0-.5.5-1,1-1h0c.5,0,1,.5,1,1h0c0,.6-.5,1-1,1h0c-.5,0-1-.4-1-1ZM633,880c0-.5.5-1,1-1h0c.5,0,1,.5,1,1h0c0,.6-.5,1-1,1h0c-.5,0-1-.4-1-1ZM629,880c0-.5.5-1,1-1h0c.5,0,1,.5,1,1h0c0,.6-.5,1-1,1h0c-.5,0-1-.4-1-1ZM625,880c0-.5.5-1,1-1h0c.5,0,1,.5,1,1h0c0,.6-.5,1-1,1h0c-.5,0-1-.4-1-1ZM621,880c0-.5.5-1,1-1h0c.5,0,1,.5,1,1h0c0,.6-.5,1-1,1h0c-.5,0-1-.4-1-1ZM617,880c0-.5.5-1,1-1h0c.5,0,1,.5,1,1h0c0,.6-.5,1-1,1h0c-.5,0-1-.4-1-1ZM613,880c0-.5.5-1,1-1h0c.5,0,1,.5,1,1h0c0,.6-.5,1-1,1h0c-.5,0-1-.4-1-1ZM609,880c0-.5.5-1,1-1h0c.5,0,1,.5,1,1h0c0,.6-.5,1-1,1h0c-.5,0-1-.4-1-1ZM605,880c0-.5.5-1,1-1h0c.5,0,1,.5,1,1h0c0,.6-.5,1-1,1h0c-.5,0-1-.4-1-1ZM601,880c0-.5.5-1,1-1h0c.5,0,1,.5,1,1h0c0,.6-.5,1-1,1h0c-.5,0-1-.4-1-1ZM597,880c0-.5.4-1,1-1h0c.5,0,1,.5,1,1h0c0,.6-.5,1-1,1h0c-.6,0-1-.4-1-1ZM593,880c0-.5.4-1,1-1h0c.5,0,1,.5,1,1h0c0,.6-.5,1-1,1h0c-.6,0-1-.4-1-1ZM589,880c0-.5.4-1,1-1h0c.5,0,1,.5,1,1h0c0,.6-.5,1-1,1h0c-.6,0-1-.4-1-1ZM585,880c0-.5.4-1,1-1h0c.5,0,1,.5,1,1h0c0,.6-.5,1-1,1h0c-.6,0-1-.4-1-1ZM581,880c0-.5.4-1,1-1h0c.5,0,1,.5,1,1h0c0,.6-.5,1-1,1h0c-.6,0-1-.4-1-1ZM577,880c0-.5.4-1,1-1h0c.5,0,1,.5,1,1h0c0,.6-.5,1-1,1h0c-.6,0-1-.4-1-1ZM573,880c0-.5.4-1,1-1h0c.5,0,1,.5,1,1h0c0,.6-.5,1-1,1h0c-.6,0-1-.4-1-1ZM569,880c0-.5.4-1,1-1h0c.5,0,1,.5,1,1h0c0,.6-.5,1-1,1h0c-.6,0-1-.4-1-1ZM565,880c0-.5.4-1,1-1h0c.5,0,1,.5,1,1h0c0,.6-.5,1-1,1h0c-.6,0-1-.4-1-1ZM561,880c0-.5.4-1,1-1h0c.5,0,1,.5,1,1h0c0,.6-.5,1-1,1h0c-.6,0-1-.4-1-1ZM557,880c0-.5.4-1,1-1h0c.5,0,1,.5,1,1h0c0,.6-.5,1-1,1h0c-.6,0-1-.4-1-1ZM553,880c0-.5.4-1,1-1h0c.5,0,1,.5,1,1h0c0,.6-.5,1-1,1h0c-.6,0-1-.4-1-1ZM549,880c0-.5.4-1,1-1h0c.5,0,1,.5,1,1h0c0,.6-.5,1-1,1h0c-.6,0-1-.4-1-1ZM545,880c0-.5.4-1,1-1h0c.5,0,1,.5,1,1h0c0,.6-.5,1-1,1h0c-.6,0-1-.4-1-1ZM541,880c0-.5.4-1,1-1h0c.5,0,1,.5,1,1h0c0,.6-.5,1-1,1h0c-.6,0-1-.4-1-1ZM537,880c0-.5.4-1,1-1h0c.5,0,1,.5,1,1h0c0,.6-.5,1-1,1h0c-.6,0-1-.4-1-1ZM533,880c0-.5.4-1,1-1h0c.5,0,1,.5,1,1h0c0,.6-.5,1-1,1h0c-.6,0-1-.4-1-1ZM529,880c0-.5.4-1,1-1h0c.5,0,1,.5,1,1h0c0,.6-.5,1-1,1h0c-.6,0-1-.4-1-1ZM525,880c0-.5.4-1,1-1h0c.5,0,1,.5,1,1h0c0,.6-.5,1-1,1h0c-.6,0-1-.4-1-1ZM521,880c0-.5.4-1,1-1h0c.5,0,1,.5,1,1h0c0,.6-.5,1-1,1h0c-.6,0-1-.4-1-1ZM517,880c0-.5.4-1,1-1h0c.5,0,1,.5,1,1h0c0,.6-.5,1-1,1h0c-.6,0-1-.4-1-1ZM513,880c0-.5.4-1,1-1h0c.5,0,1,.5,1,1h0c0,.6-.5,1-1,1h0c-.6,0-1-.4-1-1ZM509,880c0-.5.4-1,1-1h0c.5,0,1,.5,1,1h0c0,.6-.5,1-1,1h0c-.6,0-1-.4-1-1ZM505,880c0-.5.4-1,1-1h0c.5,0,1,.5,1,1h0c0,.6-.5,1-1,1h0c-.6,0-1-.4-1-1ZM501,880c0-.5.4-1,1-1h0c.5,0,1,.5,1,1h0c0,.6-.5,1-1,1h0c-.6,0-1-.4-1-1ZM497,880c0-.5.4-1,1-1h0c.5,0,1,.5,1,1h0c0,.6-.5,1-1,1h0c-.6,0-1-.4-1-1ZM493,880c0-.5.4-1,1-1h0c.5,0,1,.5,1,1h0c0,.6-.5,1-1,1h0c-.6,0-1-.4-1-1ZM489,880c0-.5.4-1,1-1h0c.5,0,1,.5,1,1h0c0,.6-.5,1-1,1h0c-.6,0-1-.4-1-1ZM485,880c0-.5.4-1,1-1h0c.5,0,1,.5,1,1h0c0,.6-.5,1-1,1h0c-.6,0-1-.4-1-1ZM481,880c0-.5.4-1,1-1h0c.5,0,1,.5,1,1h0c0,.6-.5,1-1,1h0c-.6,0-1-.4-1-1ZM477,880c0-.5.4-1,1-1h0c.5,0,1,.5,1,1h0c0,.6-.5,1-1,1h0c-.6,0-1-.4-1-1ZM473,880c0-.5.4-1,1-1h0c.5,0,1,.5,1,1h0c0,.6-.5,1-1,1h0c-.6,0-1-.4-1-1ZM469,880c0-.5.4-1,1-1h0c.5,0,1,.5,1,1h0c0,.6-.5,1-1,1h0c-.6,0-1-.4-1-1ZM465,880c0-.5.4-1,1-1h0c.5,0,1,.5,1,1h0c0,.6-.5,1-1,1h0c-.6,0-1-.4-1-1ZM461,880c0-.5.4-1,1-1h0c.5,0,1,.5,1,1h0c0,.6-.5,1-1,1h0c-.6,0-1-.4-1-1ZM457,880c0-.5.4-1,1-1h0c.5,0,1,.5,1,1h0c0,.6-.5,1-1,1h0c-.6,0-1-.4-1-1ZM453,880c0-.5.4-1,1-1h0c.5,0,1,.5,1,1h0c0,.6-.5,1-1,1h0c-.6,0-1-.4-1-1ZM449,880c0-.5.4-1,1-1h0c.5,0,1,.5,1,1h0c0,.6-.5,1-1,1h0c-.6,0-1-.4-1-1ZM445,880c0-.5.4-1,1-1h0c.5,0,1,.5,1,1h0c0,.6-.5,1-1,1h0c-.6,0-1-.4-1-1ZM441,880c0-.5.4-1,1-1h0c.5,0,1,.5,1,1h0c0,.6-.5,1-1,1h0c-.6,0-1-.4-1-1ZM437,880c0-.5.4-1,1-1h0c.5,0,1,.5,1,1h0c0,.6-.5,1-1,1h0c-.6,0-1-.4-1-1ZM433,880c0-.5.4-1,1-1h0c.5,0,1,.5,1,1h0c0,.6-.5,1-1,1h0c-.6,0-1-.4-1-1ZM429,880c0-.5.4-1,1-1h0c.5,0,1,.5,1,1h0c0,.6-.5,1-1,1h0c-.6,0-1-.4-1-1ZM425,880c0-.5.4-1,1-1h0c.5,0,1,.5,1,1h0c0,.6-.5,1-1,1h0c-.6,0-1-.4-1-1ZM421,880c0-.5.4-1,1-1h0c.5,0,1,.5,1,1h0c0,.6-.5,1-1,1h0c-.6,0-1-.4-1-1ZM417,880c0-.5.4-1,1-1h0c.5,0,1,.5,1,1h0c0,.6-.5,1-1,1h0c-.6,0-1-.4-1-1ZM413,880c0-.5.4-1,1-1h0c.5,0,1,.5,1,1h0c0,.6-.5,1-1,1h0c-.6,0-1-.4-1-1ZM409,880c0-.5.4-1,1-1h0c.5,0,1,.5,1,1h0c0,.6-.5,1-1,1h0c-.6,0-1-.4-1-1ZM405,880c0-.5.4-1,1-1h0c.5,0,1,.5,1,1h0c0,.6-.5,1-1,1h0c-.6,0-1-.4-1-1ZM401,880c0-.5.4-1,1-1h0c.5,0,1,.5,1,1h0c0,.6-.5,1-1,1h0c-.6,0-1-.4-1-1ZM397,880c0-.5.4-1,1-1h0c.5,0,1,.5,1,1h0c0,.6-.5,1-1,1h0c-.6,0-1-.4-1-1ZM393,880c0-.5.4-1,1-1h0c.5,0,1,.5,1,1h0c0,.6-.5,1-1,1h0c-.6,0-1-.4-1-1ZM389,880c0-.5.4-1,1-1h0c.5,0,1,.5,1,1h0c0,.6-.5,1-1,1h0c-.6,0-1-.4-1-1ZM385,880c0-.5.4-1,1-1h0c.5,0,1,.5,1,1h0c0,.6-.5,1-1,1h0c-.6,0-1-.4-1-1ZM381,880c0-.5.4-1,1-1h0c.5,0,1,.5,1,1h0c0,.6-.5,1-1,1h0c-.6,0-1-.4-1-1Z"/>
      <path class="cls-2" d="M390,930v-24M420,930v-42M450,930v-18M480,930v-46M510,930v-28M540,930v-58M570,930v-32M600,930v-50M630,930v-22M660,930v-44M690,930v-16M720,930v-36M750,930v-24M780,930v-48M810,930v-30"/>
    </g>
  </g>
</svg>